<svg xmlns="http://www.w3.org/2000/svg" xmlns:xlink="http://www.w3.org/1999/xlink" width="700" viewBox="0 0 942 392"><defs><symbol overflow="visible" id="a"><path d="M1.281-13.86a9.944 9.944 0 0 1 1.438-.218c.531-.05 1.02-.078 1.469-.078.507 0 1 .062 1.468.187.469.125.875.34 1.219.64.352.306.629.7.828 1.188.207.48.313 1.09.313 1.829 0 1.105-.23 1.992-.688 2.656A3.328 3.328 0 0 1 5.5-6.313l.766.735L9.016 0H7.28l-3-6.094-1.5-.312V0h-1.5zm1.5 6.454h1.203c.758 0 1.36-.227 1.797-.688.438-.469.657-1.18.657-2.14 0-.739-.184-1.348-.547-1.829-.368-.476-.907-.718-1.625-.718-.274 0-.555.011-.844.031a3.876 3.876 0 0 0-.64.094zm0 0"/></symbol><symbol overflow="visible" id="b"><path d="M7.156-.688c-.312.305-.718.532-1.218.688a5.128 5.128 0 0 1-1.563.234c-.625 0-1.168-.12-1.625-.359-.46-.25-.84-.602-1.14-1.063-.305-.457-.528-1.003-.673-1.64A10.503 10.503 0 0 1 .734-5c0-1.707.313-3.004.938-3.89.633-.895 1.523-1.344 2.672-1.344.375 0 .742.046 1.11.14.362.094.69.281.984.563.289.273.523.664.703 1.172.187.511.28 1.171.28 1.984 0 .219-.01.46-.03.719-.024.261-.047.531-.079.812H2.234c0 .574.047 1.094.141 1.563.094.469.238.87.438 1.203.207.324.468.574.78.75.313.18.704.266 1.173.266.351 0 .707-.063 1.062-.188.352-.133.625-.297.813-.484zm-1.11-5.359c.02-1-.124-1.726-.437-2.187-.304-.47-.718-.704-1.25-.704-.617 0-1.105.235-1.468.704-.356.46-.563 1.187-.625 2.187zm0 0"/></symbol><symbol overflow="visible" id="c"><path d="M1.016-1.64a4.6 4.6 0 0 0 .953.406c.363.117.738.171 1.125.171.445 0 .82-.109 1.125-.328.312-.218.468-.57.468-1.062 0-.414-.093-.754-.28-1.016a3.06 3.06 0 0 0-.72-.719 6.653 6.653 0 0 0-.921-.593 5.605 5.605 0 0 1-.938-.657 3.284 3.284 0 0 1-.703-.89C.937-6.68.844-7.125.844-7.656c0-.852.226-1.492.687-1.922.457-.438 1.11-.656 1.953-.656.54 0 1.008.054 1.407.156.406.094.754.226 1.046.39l-.375 1.204a4.009 4.009 0 0 0-.875-.329 4.333 4.333 0 0 0-1.03-.124c-.481 0-.829.101-1.048.296-.218.2-.328.512-.328.938 0 .336.094.621.281.86.188.23.422.445.704.64.289.187.601.387.937.594.332.199.64.433.922.703.29.273.531.601.719.984.187.375.281.852.281 1.422 0 .375-.063.73-.188 1.063a2.273 2.273 0 0 1-.546.875c-.25.242-.559.433-.922.578a3.478 3.478 0 0 1-1.282.218c-.593 0-1.105-.058-1.53-.172-.43-.101-.79-.25-1.079-.437zm0 0"/></symbol><symbol overflow="visible" id="d"><path d="M1.188-10h1.015l.219 1.078H2.5c.488-.875 1.258-1.312 2.313-1.312 1.062 0 1.851.398 2.375 1.187.53.781.796 2.063.796 3.844 0 .844-.09 1.605-.265 2.281-.18.668-.43 1.242-.75 1.719A3.27 3.27 0 0 1 5.812-.125c-.46.238-.968.36-1.53.36-.387 0-.696-.028-.923-.079a2.43 2.43 0 0 1-.734-.281V4H1.187zm1.437 8.422c.188.156.395.281.625.375.227.094.54.14.938.14.695 0 1.253-.359 1.671-1.078.414-.718.625-1.742.625-3.078 0-.562-.039-1.066-.109-1.515a4.02 4.02 0 0 0-.36-1.172 1.925 1.925 0 0 0-.609-.766c-.242-.176-.543-.265-.906-.265-.969 0-1.594.593-1.875 1.78zm0 0"/></symbol><symbol overflow="visible" id="e"><path d="M.734-5c0-1.8.305-3.125.922-3.969.625-.844 1.508-1.265 2.657-1.265 1.226 0 2.132.433 2.718 1.296.582.868.875 2.18.875 3.938 0 1.813-.32 3.14-.953 3.984-.625.836-1.508 1.25-2.64 1.25-1.22 0-2.122-.43-2.704-1.296C1.023-1.926.734-3.239.734-5zm1.5 0c0 .586.036 1.117.11 1.594.07.48.191.898.36 1.25.163.344.382.617.655.812.27.188.586.282.954.282.695 0 1.218-.305 1.562-.922.352-.625.531-1.63.531-3.016 0-.57-.039-1.098-.11-1.578a4.47 4.47 0 0 0-.359-1.25c-.167-.352-.386-.625-.656-.813a1.62 1.62 0 0 0-.968-.296c-.68 0-1.196.312-1.547.937-.356.625-.532 1.625-.532 3zm0 0"/></symbol><symbol overflow="visible" id="f"><path d="M6.297 0v-6.094c0-1-.121-1.722-.36-2.172-.23-.445-.64-.671-1.234-.671-.531 0-.976.164-1.328.484a2.71 2.71 0 0 0-.75 1.172V0H1.187v-10H2.22l.265 1.063h.063a3.1 3.1 0 0 1 1.015-.922c.438-.25.958-.375 1.563-.375.426 0 .8.062 1.125.187.32.117.594.32.813.61.226.28.394.664.5 1.14.113.48.171 1.086.171 1.813V0zm0 0"/></symbol><symbol overflow="visible" id="g"><path d="M7.484 4H6.047V-.813h-.094c-.21.336-.48.594-.812.782-.325.176-.746.265-1.266.265-1.055 0-1.84-.421-2.36-1.265-.523-.844-.78-2.149-.78-3.922 0-1.727.335-3.031 1.015-3.906.688-.883 1.676-1.329 2.969-1.329.562 0 1.093.07 1.593.204.508.136.899.277 1.172.421zM6.047-8.547c-.375-.219-.906-.328-1.594-.328-.687 0-1.23.324-1.625.969-.398.636-.594 1.61-.594 2.922 0 .562.032 1.086.094 1.562.07.48.188.899.344 1.25.156.356.351.633.594.828.25.188.554.282.921.282.5 0 .895-.145 1.188-.438.29-.29.516-.719.672-1.281zm0 0"/></symbol><symbol overflow="visible" id="h"><path d="M2.484-10v6.125c0 1.012.098 1.734.297 2.172.207.43.586.64 1.14.64.282 0 .532-.054.75-.171.22-.114.411-.258.579-.438.176-.187.332-.398.469-.64.133-.25.242-.5.328-.75V-10h1.437v7.156c0 .48.016.98.047 1.5.032.512.082.961.157 1.344H6.655l-.36-1.406h-.062c-.218.449-.543.836-.968 1.156-.43.32-.965.484-1.61.484-.43 0-.804-.054-1.125-.156A1.725 1.725 0 0 1 1.72-.5c-.23-.281-.403-.66-.516-1.14-.105-.489-.156-1.114-.156-1.876V-10zm0 0"/></symbol><symbol overflow="visible" id="i"><path d="M.188-10h1.218v-1.984l1.438-.454V-10H5v1.297H2.844v5.969c0 .586.066 1.007.203 1.265.144.262.375.39.687.39.27 0 .5-.03.688-.093.195-.062.41-.14.64-.234l.282 1.14a4.299 4.299 0 0 1-.969.344 4.34 4.34 0 0 1-1.11.14c-.667 0-1.148-.214-1.437-.64-.281-.437-.422-1.144-.422-2.125v-6.156H.188zm0 0"/></symbol><symbol overflow="visible" id="j"><path d="M1.281-14H7.5v1.375H2.781v4.938h4.406v1.39H2.782V0h-1.5zm0 0"/></symbol><symbol overflow="visible" id="k"><path d="M1.188-10h1.015l.25 1.063h.063c.187-.383.43-.688.734-.907.3-.226.664-.344 1.094-.344.3 0 .644.063 1.031.188l-.281 1.453a2.973 2.973 0 0 0-.907-.172c-.43 0-.777.125-1.046.375-.274.242-.446.57-.516.985V0H1.187zm0 0"/></symbol><symbol overflow="visible" id="l"><path d="M6.703-.5a3.32 3.32 0 0 1-1.14.547c-.43.125-.875.187-1.344.187-.637 0-1.18-.12-1.625-.359A2.859 2.859 0 0 1 1.53-1.188c-.273-.457-.476-1.007-.61-1.656A11.366 11.366 0 0 1 .735-5c0-1.707.301-3.004.907-3.89.613-.895 1.488-1.344 2.625-1.344.52 0 .96.046 1.328.14.375.094.695.215.968.36l-.406 1.25a3.462 3.462 0 0 0-1.734-.454c-.719 0-1.266.32-1.64.954-.368.625-.548 1.62-.548 2.984 0 .543.04 1.059.125 1.547.082.48.22.898.407 1.25.187.344.425.621.718.828.29.21.657.313 1.094.313.344 0 .664-.055.969-.172.3-.125.547-.266.734-.422zm0 0"/></symbol><symbol overflow="visible" id="m"><path d="M2.719-2.375c0 .46.062.793.187 1 .125.2.301.297.531.297.282 0 .61-.07.985-.219l.14 1.156c-.18.106-.421.188-.734.25-.312.07-.594.11-.844.11-.511 0-.921-.157-1.234-.469-.313-.313-.469-.863-.469-1.656V-14H2.72zm0 0"/></symbol><symbol overflow="visible" id="n"><path d="M1.188-1.86c.25.18.601.344 1.062.5.457.15.977.22 1.563.22.75 0 1.359-.18 1.828-.548.468-.363.703-.94.703-1.734 0-.52-.137-.973-.407-1.36a4.904 4.904 0 0 0-1-1.062 15.135 15.135 0 0 0-1.296-.968 10 10 0 0 1-1.282-1.032 5.407 5.407 0 0 1-1-1.312c-.273-.5-.406-1.094-.406-1.781 0-1.126.336-1.954 1.016-2.485.676-.539 1.55-.812 2.625-.812.664 0 1.258.062 1.781.187.52.117.941.266 1.266.453l-.485 1.313c-.242-.145-.586-.274-1.031-.39a5.786 5.786 0 0 0-1.547-.188c-.719 0-1.258.18-1.61.53-.343.356-.515.798-.515 1.329 0 .469.133.887.406 1.25.27.355.602.695 1 1.016.395.312.82.636 1.282.968a8.9 8.9 0 0 1 1.296 1.094c.407.399.739.852 1 1.36.27.5.407 1.101.407 1.796 0 1.168-.352 2.086-1.047 2.75-.688.668-1.668 1-2.938 1C3.055.234 2.4.16 1.891.016 1.379-.13.969-.297.656-.484zm0 0"/></symbol><symbol overflow="visible" id="o"><path d="M3.656-3.547l.422 1.953h.11l.296-1.953L6-10h1.453L5.078-1.016A57.87 57.87 0 0 1 4.516 1a11.53 11.53 0 0 1-.61 1.625c-.219.457-.465.816-.734 1.078-.274.258-.594.39-.969.39s-.703-.058-.984-.171l.234-1.36c.188.063.375.07.563.032.187-.031.363-.14.53-.328.165-.188.317-.47.454-.844.145-.367.27-.84.375-1.422L.141-10h1.64zm0 0"/></symbol><symbol overflow="visible" id="p"><path d="M5.86 0v-5.938c0-.53-.016-.984-.048-1.359-.03-.383-.105-.695-.218-.937a1.15 1.15 0 0 0-.438-.532c-.187-.113-.433-.171-.734-.171-.461 0-.844.18-1.156.53a2.88 2.88 0 0 0-.641 1.204V0H1.187v-10h1.016l.25 1.063h.063a3.617 3.617 0 0 1 1-.938c.382-.238.879-.36 1.484-.36.508 0 .926.11 1.25.329.32.219.578.61.766 1.172a2.604 2.604 0 0 1 1.03-1.094c.446-.27.938-.406 1.47-.406.445 0 .828.058 1.14.171.313.106.563.305.75.594.196.281.344.664.438 1.14.094.47.14 1.063.14 1.782V0h-1.437v-6.36c0-.863-.086-1.507-.25-1.937-.168-.426-.555-.64-1.156-.64-.512 0-.918.156-1.22.468-.292.313-.5.735-.624 1.266V0zm0 0"/></symbol><symbol overflow="visible" id="q"><path d="M.313-10h1.234v-.563c0-1.25.176-2.156.531-2.718.363-.563.977-.844 1.844-.844.344 0 .656.023.937.063.282.042.567.132.86.265l-.36 1.235a2.876 2.876 0 0 0-.671-.204 4.036 4.036 0 0 0-.594-.046c-.262 0-.465.054-.61.156-.148.105-.257.273-.328.5-.074.23-.12.523-.14.875-.024.344-.032.773-.032 1.281h2.079v1.297H2.983V0H1.547v-8.703H.313zm0 0"/></symbol><symbol overflow="visible" id="s"><path d="M3.5-6.484h-.719V0h-1.5v-14h1.5v6.516l.703-.282L7.125-14h1.719L5.188-7.953l-.704.64.813.797L9.359 0H7.453zm0 0"/></symbol><symbol overflow="visible" id="t"><path d="M6.297 0v-6.078c0-.938-.11-1.645-.328-2.125-.219-.488-.657-.735-1.313-.735-.468 0-.898.168-1.281.5-.375.336-.625.75-.75 1.25V0H1.187v-14h1.438v4.938h.063a3.04 3.04 0 0 1 .984-.844c.394-.219.883-.328 1.469-.328.437 0 .816.062 1.14.187.332.117.602.32.813.61.218.292.379.683.484 1.171.102.48.156 1.086.156 1.813V0zm0 0"/></symbol><symbol overflow="visible" id="u"><path d="M1.078-9.406c.383-.239.852-.422 1.406-.547a7.435 7.435 0 0 1 1.75-.203c.563 0 1.008.086 1.344.25.344.168.613.398.813.687.195.281.32.606.375.969.062.367.093.75.093 1.156 0 .793-.015 1.57-.046 2.328a53.04 53.04 0 0 0-.047 2.172c0 .5.015.969.046 1.406.032.43.094.84.188 1.235H5.906l-.343-1.188h-.079a2.73 2.73 0 0 1-.89.907C4.207.016 3.69.14 3.047.14c-.73 0-1.324-.25-1.781-.75-.461-.5-.688-1.192-.688-2.079 0-.57.094-1.05.281-1.437.196-.383.473-.695.829-.938a3.346 3.346 0 0 1 1.265-.5 7.995 7.995 0 0 1 1.625-.156h.406c.133 0 .274.008.422.016.032-.406.047-.77.047-1.094 0-.758-.117-1.289-.344-1.594-.218-.312-.632-.468-1.234-.468a4.89 4.89 0 0 0-1.219.171 4.705 4.705 0 0 0-1.094.422zm4.344 4.844c-.137-.008-.274-.016-.406-.016-.137-.008-.266-.016-.391-.016-.324 0-.64.028-.953.078a2.594 2.594 0 0 0-.813.282 1.485 1.485 0 0 0-.578.53c-.136.231-.203.517-.203.86 0 .531.129.95.39 1.25.259.293.598.438 1.016.438.551 0 .977-.13 1.282-.39.312-.27.53-.567.656-.891zm0 0"/></symbol><symbol overflow="visible" id="v"><path d="M7.484.453c0 1.3-.289 2.254-.859 2.86-.574.613-1.406.921-2.5.921-.668 0-1.215-.058-1.64-.171a4.519 4.519 0 0 1-1.047-.375l.421-1.25c.27.124.563.238.875.343.32.102.72.156 1.188.156.812 0 1.367-.23 1.672-.687.3-.45.453-1.203.453-2.266v-.75h-.063a2.335 2.335 0 0 1-.828.735c-.336.164-.761.25-1.281.25-1.074 0-1.867-.414-2.375-1.25-.512-.832-.766-2.14-.766-3.922 0-1.727.329-3.031.985-3.906.664-.883 1.644-1.329 2.937-1.329.625 0 1.16.063 1.61.188.457.125.863.266 1.218.422zM6.047-8.562c-.406-.208-.922-.313-1.547-.313-.68 0-1.227.313-1.64.938-.419.617-.626 1.601-.626 2.953 0 .562.032 1.086.094 1.562a4.8 4.8 0 0 0 .344 1.235c.164.355.367.632.61.828.25.187.554.28.921.28.5 0 .895-.128 1.188-.39.3-.27.52-.676.656-1.218zm0 0"/></symbol><symbol overflow="visible" id="w"><path d="M3.656 4.406c-.5-.648-.922-1.355-1.265-2.125a15.833 15.833 0 0 1-.844-2.344c-.211-.812-.36-1.625-.453-2.437C1-3.32.954-4.11.954-4.86c0-.726.046-1.5.14-2.312.093-.82.242-1.64.453-2.453.219-.82.504-1.625.86-2.406.35-.79.784-1.524 1.296-2.203l.89.53c-.429.68-.78 1.392-1.062 2.142-.273.75-.492 1.511-.656 2.28-.168.762-.29 1.524-.36 2.282a21.77 21.77 0 0 0-.109 2.14c0 .637.035 1.34.11 2.11.082.773.21 1.543.39 2.313.188.769.414 1.519.688 2.25.281.738.613 1.398 1 1.984zm0 0"/></symbol><symbol overflow="visible" id="x"><path d="M.953 3.797a9.341 9.341 0 0 0 1-1.985c.281-.73.508-1.48.688-2.25.187-.769.316-1.539.39-2.312.082-.77.125-1.473.125-2.11 0-.675-.039-1.39-.11-2.14a20.185 20.185 0 0 0-.358-2.281A15.587 15.587 0 0 0 2-11.562a12.63 12.63 0 0 0-1.047-2.141l.906-.531c.508.68.942 1.414 1.297 2.203.352.781.633 1.586.844 2.406.207.813.36 1.633.453 2.453.094.813.14 1.586.14 2.313 0 .75-.046 1.539-.14 2.359A18.417 18.417 0 0 1 4-.062c-.21.8-.492 1.582-.844 2.343-.344.77-.761 1.477-1.25 2.125zm0 0"/></symbol><symbol overflow="visible" id="y"><path d="M1.188-14h1.437v4.766h.063c.539-.664 1.265-1 2.171-1 1.032 0 1.801.406 2.313 1.218.508.813.766 2.102.766 3.86 0 1.804-.344 3.148-1.032 4.031C6.22-.25 5.25.188 4 .188a6.66 6.66 0 0 1-1.688-.204c-.5-.144-.874-.312-1.124-.5zM2.625-1.453c.188.105.414.187.688.25.269.055.562.078.874.078.688 0 1.235-.328 1.641-.984.406-.657.61-1.672.61-3.047 0-.57-.04-1.086-.11-1.547a4.528 4.528 0 0 0-.344-1.203c-.148-.332-.343-.586-.593-.766a1.51 1.51 0 0 0-.891-.265c-.48 0-.875.148-1.188.437-.312.281-.542.668-.687 1.156zm0 0"/></symbol><symbol overflow="visible" id="z"><path d="M1.422-10h1.437V0H1.422zm-.266-3.047c0-.312.086-.566.266-.765a.926.926 0 0 1 .719-.313.96.96 0 0 1 .718.297c.196.187.297.45.297.781 0 .324-.101.578-.297.766-.187.18-.43.265-.718.265a.971.971 0 0 1-.72-.28c-.179-.188-.265-.438-.265-.75zm0 0"/></symbol><symbol overflow="visible" id="A"><path d="M1.063-9h.921l.188.969h.078c.445-.79 1.145-1.188 2.094-1.188.945 0 1.656.356 2.125 1.063.476.71.718 1.867.718 3.469 0 .761-.078 1.445-.234 2.046a4.926 4.926 0 0 1-.672 1.547c-.293.43-.648.758-1.062.985a2.82 2.82 0 0 1-1.36.328 4.71 4.71 0 0 1-.843-.063 2.434 2.434 0 0 1-.657-.265v3.703H1.063zm1.296 7.578c.164.149.352.262.563.344.207.086.488.125.844.125.632 0 1.132-.32 1.5-.969.375-.644.562-1.57.562-2.781 0-.5-.031-.953-.094-1.36a3.593 3.593 0 0 0-.312-1.046c-.149-.301-.336-.532-.563-.688a1.323 1.323 0 0 0-.812-.25c-.875 0-1.438.54-1.688 1.61zm0 0"/></symbol><symbol overflow="visible" id="B"><path d="M2.234-9v5.516c0 .906.094 1.558.282 1.953.187.386.523.578 1.015.578.25 0 .473-.05.672-.156.195-.102.375-.239.531-.407.157-.164.29-.351.407-.562.125-.219.222-.442.296-.672V-9h1.297v6.438c0 .437.016.89.047 1.359.032.46.07.86.125 1.203H6l-.328-1.266h-.063c-.199.399-.492.746-.875 1.047-.386.29-.867.438-1.437.438C2.91.219 2.57.164 2.28.062a1.605 1.605 0 0 1-.734-.515c-.211-.25-.367-.594-.469-1.031-.094-.438-.14-1-.14-1.688V-9zm0 0"/></symbol><symbol overflow="visible" id="C"><path d="M1.063-12.594h1.296v4.281h.047c.5-.601 1.156-.906 1.969-.906.926 0 1.617.371 2.078 1.11.457.73.688 1.886.688 3.468 0 1.618-.309 2.82-.922 3.61C5.602-.238 4.727.156 3.594.156A5.73 5.73 0 0 1 2.078-.03c-.45-.125-.789-.27-1.015-.438zM2.359-1.313c.164.094.368.168.61.22.25.054.515.077.797.077.625 0 1.117-.296 1.484-.89.363-.594.547-1.504.547-2.735a8.2 8.2 0 0 0-.11-1.39 4.309 4.309 0 0 0-.296-1.078c-.137-.301-.32-.532-.547-.688a1.293 1.293 0 0 0-.797-.25c-.43 0-.781.133-1.063.39-.28.262-.492.61-.625 1.048zm0 0"/></symbol><symbol overflow="visible" id="D"><path d="M2.453-2.14c0 .417.055.718.172.906.113.18.27.265.469.265.25 0 .547-.066.89-.203L4.11-.125a2.248 2.248 0 0 1-.656.234c-.281.063-.539.094-.765.094-.461 0-.829-.14-1.11-.422-.281-.281-.422-.773-.422-1.484v-10.89h1.297zm0 0"/></symbol><symbol overflow="visible" id="E"><path d="M1.281-9h1.297v9H1.281zm-.234-2.734c0-.29.078-.524.234-.704a.84.84 0 0 1 .64-.265c.27 0 .49.09.657.265.176.168.266.403.266.704 0 .293-.09.523-.266.687-.168.156-.387.235-.656.235a.856.856 0 0 1-.64-.25c-.157-.176-.235-.399-.235-.672zm0 0"/></symbol><symbol overflow="visible" id="F"><path d="M6.031-.453c-.304.23-.648.398-1.031.5-.387.113-.79.172-1.203.172-.574 0-1.059-.11-1.453-.328a2.695 2.695 0 0 1-.969-.954c-.242-.414-.418-.914-.531-1.5A9.847 9.847 0 0 1 .672-4.5c0-1.531.27-2.695.812-3.5.54-.813 1.32-1.219 2.344-1.219.469 0 .867.043 1.203.125.344.086.633.196.875.328l-.36 1.141c-.48-.281-1-.422-1.562-.422-.656 0-1.152.29-1.484.86-.324.562-.484 1.46-.484 2.687 0 .492.035.953.109 1.39.07.43.191.805.36 1.126.163.312.378.562.64.75.27.187.602.28 1 .28A2.4 2.4 0 0 0 5-1.108c.27-.114.488-.243.656-.391zm0 0"/></symbol><symbol overflow="visible" id="G"><path d="M4.781-12.813l1.016.391L.547 2.516-.5 2.14zm0 0"/></symbol><symbol overflow="visible" id="H"><path d="M5.672 0v-5.484c0-.907-.106-1.555-.313-1.954-.21-.406-.586-.609-1.125-.609-.48 0-.875.149-1.187.438a2.472 2.472 0 0 0-.688 1.062V0H1.063v-9H2l.234.953h.047c.227-.32.535-.598.922-.828.395-.227.863-.344 1.406-.344.383 0 .723.059 1.016.172.29.106.535.29.734.547.196.25.348.594.454 1.031.101.43.156.977.156 1.64V0zm0 0"/></symbol><symbol overflow="visible" id="I"><path d="M6.734-3.094c0 .617.004 1.172.016 1.672.008.492.05.977.125 1.453H6l-.297-1.078h-.062c-.18.367-.45.668-.813.906-.355.239-.781.36-1.281.36-.969 0-1.695-.375-2.172-1.125C.906-1.664.672-2.86.672-4.484c0-1.532.285-2.692.86-3.485.581-.789 1.382-1.187 2.405-1.187.352 0 .63.023.829.062.207.043.43.11.671.203v-3.703h1.297zM5.438-7.578a1.513 1.513 0 0 0-.579-.313c-.21-.062-.484-.093-.828-.093-.636 0-1.133.289-1.484.859-.356.574-.531 1.46-.531 2.656 0 .532.03 1.012.093 1.438.07.43.176.797.313 1.11.133.312.312.554.531.718.227.168.504.25.828.25.864 0 1.414-.508 1.656-1.531zm0 0"/></symbol><symbol overflow="visible" id="J"><path d="M6.438-.61c-.282.262-.649.465-1.094.61a4.456 4.456 0 0 1-1.407.219c-.562 0-1.054-.11-1.468-.328a2.921 2.921 0 0 1-1.016-.954C1.18-1.476.984-1.973.86-2.546A9.338 9.338 0 0 1 .672-4.5c0-1.531.281-2.695.844-3.5.562-.813 1.359-1.219 2.39-1.219.332 0 .664.043 1 .125.332.086.63.258.89.516.259.25.47.605.626 1.062.164.45.25 1.043.25 1.782 0 .199-.012.418-.031.656-.012.23-.028.469-.047.719H2.016c0 .523.039.992.125 1.406.082.418.21.777.39 1.078.188.293.422.523.703.688.282.156.63.234 1.047.234.32 0 .64-.055.953-.172.32-.125.567-.27.735-.438zm-1-4.827c.019-.895-.11-1.551-.391-1.97-.274-.425-.649-.64-1.125-.64-.555 0-.992.215-1.313.64-.324.419-.515 1.075-.578 1.97zm0 0"/></symbol><symbol overflow="visible" id="K"><path d="M2.89-4.61L.517-9h1.546l1.344 2.578.36 1 .375-1L5.516-9h1.421L4.531-4.687 7.078 0H5.594l-1.5-2.828-.407-1.078-.406 1.078L1.766 0H.344zm0 0"/></symbol><symbol overflow="visible" id="L"><path d="M.703-.813c0-.332.078-.582.235-.75.164-.164.39-.25.671-.25.27 0 .485.086.641.25.164.168.25.418.25.75 0 .356-.086.618-.25.782-.156.164-.371.25-.64.25-.282 0-.508-.086-.673-.25C.781-.195.704-.457.704-.812zm0 0"/></symbol><symbol overflow="visible" id="M"><path d="M5.672 0v-5.469c0-.843-.102-1.484-.297-1.922-.2-.437-.594-.656-1.188-.656-.417 0-.796.152-1.14.453-.344.305-.574.68-.688 1.125V0H1.063v-12.594h1.296v4.438h.047c.239-.313.535-.567.89-.766.352-.195.798-.297 1.329-.297.395 0 .738.059 1.031.172.301.106.547.293.735.563.187.261.328.609.421 1.046.102.438.157.981.157 1.625V0zm0 0"/></symbol><symbol overflow="visible" id="N"><path d="M.922-1.469c.238.137.52.258.844.36.332.105.675.156 1.03.156.395 0 .727-.098 1-.297.282-.195.423-.52.423-.969 0-.363-.09-.664-.266-.906a2.769 2.769 0 0 0-.64-.64 5.361 5.361 0 0 0-.829-.532 4.38 4.38 0 0 1-.843-.594A3.22 3.22 0 0 1 1-5.703C.832-6.016.75-6.41.75-6.891c0-.77.207-1.347.625-1.734.414-.395 1-.594 1.75-.594.5 0 .926.047 1.281.14.364.087.676.204.938.36L5-7.625a3.35 3.35 0 0 0-.797-.297 3.34 3.34 0 0 0-.906-.125c-.438 0-.758.094-.953.281-.2.18-.297.454-.297.829 0 .304.082.562.25.78.176.212.39.403.64.579.258.168.54.344.844.531.301.18.578.39.828.64.258.243.473.532.641.876.176.336.266.761.266 1.281 0 .336-.059.652-.172.953a1.961 1.961 0 0 1-.5.781 2.439 2.439 0 0 1-.828.532c-.325.132-.711.203-1.157.203-.53 0-.992-.055-1.375-.157a3.615 3.615 0 0 1-.968-.406zm0 0"/></symbol><symbol overflow="visible" id="O"><path d="M1.063-9h.921l.235.953h.047c.164-.344.382-.613.656-.812.27-.196.598-.297.984-.297.27 0 .582.054.938.156l-.25 1.313a2.75 2.75 0 0 0-.828-.157c-.387 0-.7.11-.938.328-.242.22-.398.516-.469.891V0H1.063zm0 0"/></symbol><symbol overflow="visible" id="P"><path d="M3.156-5.828H2.5V0H1.156v-12.594H2.5v5.86l.625-.25 3.281-5.61h1.547L4.656-7.156l-.625.562.735.719L8.422 0H6.719zm0 0"/></symbol><symbol overflow="visible" id="Q"><path d="M7.734-.484c-.293.25-.668.43-1.125.53C6.15.16 5.672.22 5.172.22a4.324 4.324 0 0 1-1.766-.36C2.863-.379 2.395-.758 2-1.28c-.387-.52-.688-1.192-.906-2.016-.211-.832-.313-1.832-.313-3 0-1.195.117-2.207.36-3.031.25-.832.578-1.504.984-2.016.406-.52.875-.894 1.406-1.125a4.251 4.251 0 0 1 1.656-.344c.57 0 1.047.043 1.422.126.383.085.711.183.985.296l-.328 1.235a3.297 3.297 0 0 0-.844-.313 5.256 5.256 0 0 0-1.11-.11c-.417 0-.812.095-1.187.282-.375.188-.71.492-1 .906-.281.407-.508.95-.672 1.625-.168.668-.25 1.493-.25 2.47 0 1.75.297 3.07.89 3.952.602.875 1.4 1.313 2.391 1.313a3.26 3.26 0 0 0 1.11-.172c.32-.113.597-.25.828-.406zm0 0"/></symbol><symbol overflow="visible" id="R"><path d="M.672-4.5c0-1.625.273-2.816.828-3.578.563-.758 1.36-1.14 2.39-1.14 1.102 0 1.915.39 2.438 1.171.52.781.781 1.965.781 3.547 0 1.637-.28 2.836-.843 3.594C5.703-.156 4.91.219 3.89.219c-1.106 0-1.918-.39-2.438-1.172C.93-1.734.672-2.914.672-4.5zm1.344 0c0 .531.03 1.016.093 1.453.07.43.18.797.329 1.11.144.312.335.558.578.734.25.168.539.25.875.25.625 0 1.093-.274 1.406-.828.312-.563.469-1.469.469-2.719 0-.52-.04-1-.11-1.438a3.673 3.673 0 0 0-.328-1.125 1.793 1.793 0 0 0-.578-.718 1.422 1.422 0 0 0-.86-.266c-.617 0-1.085.281-1.406.844-.312.562-.468 1.465-.468 2.703zm0 0"/></symbol><symbol overflow="visible" id="S"><path d="M.156-9h1.11v-1.781l1.296-.422V-9H4.5v1.172H2.562v5.36c0 .53.063.917.188 1.155.125.231.328.344.61.344.238 0 .445-.023.624-.078.176-.062.364-.133.563-.219l.266 1.032c-.274.136-.57.238-.891.312-.313.082-.64.125-.985.125-.605 0-1.039-.195-1.296-.578-.25-.395-.375-1.031-.375-1.906v-5.547H.156zm0 0"/></symbol><symbol overflow="visible" id="T"><path d="M1.156-12.469a8.225 8.225 0 0 1 1.297-.219c.477-.039.914-.062 1.313-.062.468 0 .91.059 1.328.172.414.117.781.308 1.093.578a2.9 2.9 0 0 1 .75 1.063c.188.437.282.992.282 1.656 0 .992-.211 1.789-.625 2.39a3.058 3.058 0 0 1-1.64 1.204l.687.671L8.125 0H6.547L3.859-5.484 2.5-5.766V0H1.156zM2.5-6.656h1.078c.688 0 1.227-.207 1.625-.625.395-.426.594-1.07.594-1.938 0-.656-.168-1.195-.5-1.625-.324-.437-.813-.656-1.469-.656-.242 0-.492.012-.75.031-.25.012-.445.04-.578.078zm0 0"/></symbol><symbol overflow="visible" id="U"><path d="M6.734 3.594H5.438V-.734h-.079c-.187.304-.433.539-.734.703-.293.164-.672.25-1.14.25-.95 0-1.657-.38-2.126-1.14C.9-1.68.672-2.864.672-4.47c0-1.539.3-2.707.906-3.5.613-.789 1.504-1.187 2.672-1.187.5 0 .977.062 1.438.187.457.117.804.235 1.046.36zM5.438-7.687c-.336-.196-.81-.297-1.422-.297-.625 0-1.118.289-1.47.859-.355.574-.53 1.453-.53 2.64 0 .512.03.981.093 1.407.063.43.16.805.297 1.125.133.324.313.574.531.75.227.168.504.25.829.25.457 0 .816-.129 1.078-.39.258-.27.457-.657.593-1.157zm0 0"/></symbol><symbol overflow="visible" id="V"><path d="M6.938-12.594h1.28v8.438c0 1.523-.296 2.62-.89 3.297C6.734-.18 5.895.156 4.812.156c-1.28 0-2.214-.328-2.796-.984-.575-.656-.86-1.672-.86-3.047v-8.719H2.5v8.016c0 .656.04 1.21.125 1.656.082.438.219.797.406 1.078.196.274.438.469.719.594.29.117.648.172 1.078.172.79 0 1.336-.274 1.64-.828.313-.551.47-1.442.47-2.672zm0 0"/></symbol><symbol overflow="visible" id="W"><path d="M1.422-12.594h1.344V0H1.422zm0 0"/></symbol><symbol overflow="visible" id="X"><path d="M7.219 0H1.156v-12.594H2.5v11.36h4.719zm0 0"/></symbol><symbol overflow="visible" id="Y"><path d="M1.703-7.813c0-.332.078-.582.234-.75.165-.164.391-.25.672-.25.27 0 .485.086.641.25.164.168.25.418.25.75 0 .356-.086.618-.25.782-.156.168-.371.25-.64.25-.282 0-.508-.082-.672-.25-.157-.164-.235-.426-.235-.782zm0 7c0-.332.078-.582.234-.75.165-.164.391-.25.672-.25.27 0 .485.086.641.25.164.168.25.418.25.75 0 .356-.086.618-.25.782-.156.164-.371.25-.64.25-.282 0-.508-.086-.672-.25-.157-.164-.235-.426-.235-.781zm0 0"/></symbol><symbol overflow="visible" id="aa"><path d="M.969-8.453c.351-.219.773-.383 1.265-.5a6.47 6.47 0 0 1 1.579-.188c.507 0 .914.079 1.218.235.301.148.54.351.719.61.176.25.29.542.344.874.05.324.078.668.078 1.031 0 .72-.016 1.422-.047 2.11-.031.68-.047 1.324-.047 1.937 0 .461.016.887.047 1.281.031.387.086.75.172 1.094h-.984L5-1.03h-.063a2.544 2.544 0 0 1-.796.812c-.344.227-.813.344-1.407.344-.648 0-1.18-.223-1.593-.672C.723-.992.516-1.613.516-2.407c0-.519.086-.952.265-1.296a2.17 2.17 0 0 1 .735-.844A3.04 3.04 0 0 1 2.656-5c.438-.094.926-.14 1.469-.14h.344c.125 0 .254.007.39.015.032-.375.047-.707.047-1 0-.676-.105-1.148-.312-1.422-.2-.281-.57-.422-1.11-.422-.336 0-.699.055-1.093.157a3.41 3.41 0 0 0-.985.375zM4.875-4.11a5.296 5.296 0 0 0-.36-.016c-.117-.008-.234-.016-.359-.016-.293 0-.578.028-.86.079a2.122 2.122 0 0 0-.733.25c-.211.117-.376.277-.5.484-.126.2-.188.453-.188.765 0 .481.113.856.344 1.126.238.261.539.39.906.39.508 0 .898-.117 1.172-.36.281-.238.473-.503.578-.796zm0 0"/></symbol><symbol overflow="visible" id="ab"><path d="M6.734.406c0 1.164-.261 2.024-.78 2.578-.513.551-1.263.829-2.25.829-.595 0-1.087-.055-1.47-.157a3.77 3.77 0 0 1-.937-.344l.375-1.109c.238.102.5.203.781.297.29.094.649.14 1.078.14.727 0 1.227-.203 1.5-.609.27-.406.407-1.09.407-2.047v-.671h-.063c-.188.28-.434.5-.734.656-.305.156-.688.234-1.157.234-.968 0-1.683-.375-2.14-1.125-.45-.75-.672-1.93-.672-3.547 0-1.539.297-2.707.89-3.5.594-.789 1.47-1.187 2.625-1.187.57 0 1.063.054 1.47.156.405.105.765.23 1.077.375zm-1.296-8.11c-.368-.187-.829-.28-1.391-.28-.617 0-1.11.28-1.484.843-.368.555-.547 1.438-.547 2.657 0 .511.03.98.093 1.406.063.418.16.789.297 1.11a2 2 0 0 0 .547.734c.227.18.504.265.828.265.457 0 .817-.117 1.078-.36.258-.237.454-.597.579-1.077zm0 0"/></symbol></defs><path fill="#fff" d="M0 0h942v392H0z"/><path d="M1 1h940v390.445H1zm0 0" fill-rule="evenodd" fill="#fff" stroke-width="2" stroke="#fff" stroke-miterlimit="10"/><path d="M819.574 37.18h71.95c9.933 0 17.988 10.5 17.988 23.449 0 12.953-8.055 23.45-17.989 23.45h-71.949c-9.933 0-17.988-10.497-17.988-23.45 0-12.95 8.055-23.45 17.988-23.45" fill-rule="evenodd" fill="#b2d4eb" stroke-width="2" stroke="#000" stroke-miterlimit="10"/><use xlink:href="#a" x="823.047" y="68.25"/><use xlink:href="#b" x="831.895" y="68.25"/><use xlink:href="#c" x="840.156" y="68.25"/><use xlink:href="#d" x="846.914" y="68.25"/><use xlink:href="#e" x="855.605" y="68.25"/><use xlink:href="#f" x="864.238" y="68.25"/><use xlink:href="#c" x="873.027" y="68.25"/><use xlink:href="#b" x="879.785" y="68.25"/><path d="M50.477 36.695h71.949c9.933 0 17.988 10.5 17.988 23.45 0 12.953-8.055 23.449-17.988 23.449h-71.95c-9.933 0-17.988-10.496-17.988-23.45 0-12.949 8.055-23.449 17.989-23.449" fill-rule="evenodd" fill="#b2d4eb" stroke-width="2" stroke="#000" stroke-miterlimit="10"/><use xlink:href="#a" x="59.051" y="67.766"/><use xlink:href="#b" x="67.898" y="67.766"/><use xlink:href="#g" x="76.023" y="67.766"/><use xlink:href="#h" x="84.656" y="67.766"/><use xlink:href="#b" x="93.328" y="67.766"/><use xlink:href="#c" x="101.59" y="67.766"/><use xlink:href="#i" x="108.348" y="67.766"/><path d="M207.64 132.11h128v63.706h-128zm0 0M207.64 138.11v-6c-3.312 0-6 2.687-6 6zm0 0M335.64 138.11h6c0-3.313-2.687-6-6-6zm0 0" fill-rule="evenodd" fill="#fddfbb"/><path d="M201.64 138.11h140v51.706h-140zm0 0" fill-rule="evenodd" fill="#fddfbb"/><path d="M207.64 189.816h-6c0 3.313 2.688 6 6 6zm0 0M335.64 189.816v6c3.313 0 6-2.687 6-6zm0 0" fill-rule="evenodd" fill="#fddfbb"/><path d="M207.64 132.11h128M207.64 195.816h128M207.64 132.11c-3.312 0-6 2.687-6 6M341.64 138.11c0-3.313-2.687-6-6-6M201.64 138.11v51.706M341.64 138.11v51.706M201.64 189.816c0 3.313 2.688 6 6 6M335.64 195.816c3.313 0 6-2.687 6-6" fill="none" stroke-width="2" stroke="#000" stroke-miterlimit="10"/><use xlink:href="#j" x="253.301" y="159.215"/><use xlink:href="#k" x="261.563" y="159.215"/><use xlink:href="#e" x="267.051" y="159.215"/><use xlink:href="#f" x="275.684" y="159.215"/><use xlink:href="#i" x="284.473" y="159.215"/><use xlink:href="#l" x="238.164" y="184.613"/><use xlink:href="#e" x="244.98" y="184.613"/><use xlink:href="#f" x="253.613" y="184.613"/><use xlink:href="#i" x="262.402" y="184.613"/><use xlink:href="#k" x="267.91" y="184.613"/><use xlink:href="#e" x="273.398" y="184.613"/><use xlink:href="#m" x="282.031" y="184.613"/><use xlink:href="#m" x="286.699" y="184.613"/><use xlink:href="#b" x="291.367" y="184.613"/><use xlink:href="#k" x="299.629" y="184.613"/><path d="M393.066 132.11h168v63.706h-168zm0 0M393.066 138.11v-6c-3.316 0-6 2.687-6 6zm0 0M561.066 138.11h6c0-3.313-2.687-6-6-6zm0 0" fill-rule="evenodd" fill="#b2dec7"/><path d="M387.066 138.11h180v51.706h-180zm0 0" fill-rule="evenodd" fill="#b2dec7"/><path d="M393.066 189.816h-6c0 3.313 2.684 6 6 6zm0 0M561.066 189.816v6c3.313 0 6-2.687 6-6zm0 0" fill-rule="evenodd" fill="#b2dec7"/><path d="M393.066 132.11h168M393.066 195.816h168M393.066 132.11c-3.316 0-6 2.687-6 6M567.066 138.11c0-3.313-2.687-6-6-6M387.066 138.11v51.706M567.066 138.11v51.706M387.066 189.816c0 3.313 2.684 6 6 6M561.066 195.816c3.313 0 6-2.687 6-6" fill="none" stroke-width="2" stroke="#000" stroke-miterlimit="10"/><use xlink:href="#n" x="423.414" y="171.914"/><use xlink:href="#o" x="431.969" y="171.914"/><use xlink:href="#p" x="439.488" y="171.914"/><use xlink:href="#q" x="452.516" y="171.914"/><use xlink:href="#e" x="457.516" y="171.914"/><use xlink:href="#f" x="466.148" y="171.914"/><use xlink:href="#o" x="474.938" y="171.914"/><use xlink:href="#r" x="481.91" y="171.914"/><use xlink:href="#s" x="486.148" y="171.914"/><use xlink:href="#b" x="495.25" y="171.914"/><use xlink:href="#k" x="503.512" y="171.914"/><use xlink:href="#f" x="509" y="171.914"/><use xlink:href="#b" x="517.789" y="171.914"/><use xlink:href="#m" x="526.051" y="171.914"/><path d="M638.77 36.629h116.078v48H638.77zm0 0M638.77 42.629v-6c-3.317 0-6 2.687-6 6zm0 0M754.848 42.629h6c0-3.313-2.688-6-6-6zm0 0" fill-rule="evenodd" fill="#f2f2f2"/><path d="M632.77 42.629h128.078v36H632.77zm0 0M638.77 78.629h-6c0 3.316 2.683 6 6 6zm0 0M754.848 78.629v6c3.312 0 6-2.684 6-6zm0 0" fill-rule="evenodd" fill="#f2f2f2"/><path d="M638.77 36.629h116.078M638.77 84.629h116.078M638.77 36.629a6 6 0 0 0-6 6M760.848 42.629c0-3.313-2.688-6-6-6M632.77 42.629v36M760.848 42.629v36M632.77 78.629c0 3.316 2.683 6 6 6M754.848 84.629a6 6 0 0 0 6-6" fill="none" stroke-width="2" stroke="#000" stroke-miterlimit="10"/><use xlink:href="#t" x="655.988" y="68.582"/><use xlink:href="#e" x="664.797" y="68.582"/><use xlink:href="#p" x="673.43" y="68.582"/><use xlink:href="#b" x="686.457" y="68.582"/><use xlink:href="#d" x="694.719" y="68.582"/><use xlink:href="#u" x="703.41" y="68.582"/><use xlink:href="#v" x="711.418" y="68.582"/><use xlink:href="#b" x="720.051" y="68.582"/><use xlink:href="#w" x="728.313" y="68.582"/><use xlink:href="#x" x="732.98" y="68.582"/><path d="M140.414 164.066l50.227-.086" fill="none" stroke-width="2" stroke="#000" stroke-miterlimit="10"/><path d="M190.648 168.98l9.993-5.015-10.008-4.985zm0 0" fill-rule="evenodd" stroke-width="2" stroke="#000" stroke-miterlimit="10"/><path d="M514.98 283.855v-69" fill="none" stroke-width="2" stroke="#000" stroke-miterlimit="10"/><path d="M519.98 214.855l-5-10-5 10zm0 0" fill-rule="evenodd" stroke-width="2" stroke="#000" stroke-miterlimit="10"/><path d="M760.848 60.629h29.738" fill="none" stroke-width="2" stroke="#000" stroke-miterlimit="10"/><path d="M790.586 65.629l10-5-10-5zm0 0" fill-rule="evenodd" stroke-width="2" stroke="#000" stroke-miterlimit="10"/><path d="M50.477 140.617h71.949c9.933 0 17.988 10.496 17.988 23.45 0 12.949-8.055 23.449-17.988 23.449h-71.95c-9.933 0-17.988-10.5-17.988-23.45 0-12.953 8.055-23.449 17.989-23.449" fill-rule="evenodd" fill="#b2d4eb" stroke-width="2" stroke="#000" stroke-miterlimit="10"/><use xlink:href="#a" x="59.051" y="171.684"/><use xlink:href="#b" x="67.898" y="171.684"/><use xlink:href="#g" x="76.023" y="171.684"/><use xlink:href="#h" x="84.656" y="171.684"/><use xlink:href="#b" x="93.328" y="171.684"/><use xlink:href="#c" x="101.59" y="171.684"/><use xlink:href="#i" x="108.348" y="171.684"/><path d="M50.477 247.246h71.949c9.933 0 17.988 10.5 17.988 23.45 0 12.952-8.055 23.449-17.988 23.449h-71.95c-9.933 0-17.988-10.497-17.988-23.45 0-12.949 8.055-23.449 17.989-23.449" fill-rule="evenodd" fill="#b2d4eb" stroke-width="2" stroke="#000" stroke-miterlimit="10"/><use xlink:href="#a" x="59.051" y="278.316"/><use xlink:href="#b" x="67.898" y="278.316"/><use xlink:href="#g" x="76.023" y="278.316"/><use xlink:href="#h" x="84.656" y="278.316"/><use xlink:href="#b" x="93.328" y="278.316"/><use xlink:href="#c" x="101.59" y="278.316"/><use xlink:href="#i" x="108.348" y="278.316"/><path d="M819.574 140.516h71.95c9.933 0 17.988 10.496 17.988 23.449 0 12.95-8.055 23.45-17.989 23.45h-71.949c-9.933 0-17.988-10.5-17.988-23.45 0-12.953 8.055-23.45 17.988-23.45" fill-rule="evenodd" fill="#b2d4eb" stroke-width="2" stroke="#000" stroke-miterlimit="10"/><use xlink:href="#a" x="823.047" y="171.582"/><use xlink:href="#b" x="831.895" y="171.582"/><use xlink:href="#c" x="840.156" y="171.582"/><use xlink:href="#d" x="846.914" y="171.582"/><use xlink:href="#e" x="855.605" y="171.582"/><use xlink:href="#f" x="864.238" y="171.582"/><use xlink:href="#c" x="873.027" y="171.582"/><use xlink:href="#b" x="879.785" y="171.582"/><path d="M819.574 247.238h71.95c9.933 0 17.988 10.496 17.988 23.45 0 12.949-8.055 23.449-17.989 23.449h-71.949c-9.933 0-17.988-10.5-17.988-23.45 0-12.953 8.055-23.449 17.988-23.449" fill-rule="evenodd" fill="#b2d4eb" stroke-width="2" stroke="#000" stroke-miterlimit="10"/><use xlink:href="#a" x="823.047" y="278.305"/><use xlink:href="#b" x="831.895" y="278.305"/><use xlink:href="#c" x="840.156" y="278.305"/><use xlink:href="#d" x="846.914" y="278.305"/><use xlink:href="#e" x="855.605" y="278.305"/><use xlink:href="#f" x="864.238" y="278.305"/><use xlink:href="#c" x="873.027" y="278.305"/><use xlink:href="#b" x="879.785" y="278.305"/><path d="M638.77 139.965h116.078v48H638.77zm0 0M638.77 145.965v-6c-3.317 0-6 2.683-6 6zm0 0M754.848 145.965h6c0-3.317-2.688-6-6-6zm0 0" fill-rule="evenodd" fill="#f2f2f2"/><path d="M632.77 145.965h128.078v36H632.77zm0 0M638.77 181.965h-6c0 3.312 2.683 6 6 6zm0 0M754.848 181.965v6c3.312 0 6-2.688 6-6zm0 0" fill-rule="evenodd" fill="#f2f2f2"/><path d="M638.77 139.965h116.078M638.77 187.965h116.078M638.77 139.965c-3.317 0-6 2.683-6 6M760.848 145.965a6 6 0 0 0-6-6M632.77 145.965v36M760.848 145.965v36M632.77 181.965a6 6 0 0 0 6 6M754.848 187.965c3.312 0 6-2.688 6-6" fill="none" stroke-width="2" stroke="#000" stroke-miterlimit="10"/><use xlink:href="#l" x="666.945" y="171.914"/><use xlink:href="#e" x="673.762" y="171.914"/><use xlink:href="#f" x="682.395" y="171.914"/><use xlink:href="#i" x="691.184" y="171.914"/><use xlink:href="#u" x="696.691" y="171.914"/><use xlink:href="#l" x="704.699" y="171.914"/><use xlink:href="#i" x="711.828" y="171.914"/><use xlink:href="#w" x="717.336" y="171.914"/><use xlink:href="#x" x="722.004" y="171.914"/><path d="M638.77 246.688h116.078v48H638.77zm0 0M638.77 252.688v-6c-3.317 0-6 2.683-6 6zm0 0M754.848 252.688h6c0-3.317-2.688-6-6-6zm0 0" fill-rule="evenodd" fill="#f2f2f2"/><path d="M632.77 252.688h128.078v36H632.77zm0 0M638.77 288.688h-6c0 3.312 2.683 6 6 6zm0 0M754.848 288.688v6c3.312 0 6-2.688 6-6zm0 0" fill-rule="evenodd" fill="#f2f2f2"/><path d="M638.77 246.688h116.078M638.77 294.688h116.078M638.77 246.688c-3.317 0-6 2.683-6 6M760.848 252.688a6 6 0 0 0-6-6M632.77 252.688v36M760.848 252.688v36M632.77 288.688a6 6 0 0 0 6 6M754.848 294.688c3.312 0 6-2.688 6-6" fill="none" stroke-width="2" stroke="#000" stroke-miterlimit="10"/><g><use xlink:href="#y" x="676.848" y="278.637"/><use xlink:href="#m" x="685.52" y="278.637"/><use xlink:href="#e" x="690.188" y="278.637"/><use xlink:href="#v" x="698.82" y="278.637"/><use xlink:href="#w" x="707.453" y="278.637"/><use xlink:href="#x" x="712.121" y="278.637"/></g><path d="M393.066 292.11h168v63.706h-168zm0 0M393.066 298.11v-6c-3.316 0-6 2.687-6 6zm0 0M561.066 298.11h6c0-3.313-2.687-6-6-6zm0 0" fill-rule="evenodd" fill="#fddfbb"/><path d="M387.066 298.11h180v51.706h-180zm0 0" fill-rule="evenodd" fill="#fddfbb"/><path d="M393.066 349.816h-6c0 3.313 2.684 6 6 6zm0 0M561.066 349.816v6c3.313 0 6-2.687 6-6zm0 0" fill-rule="evenodd" fill="#fddfbb"/><path d="M393.066 292.11h168M393.066 355.816h168M393.066 292.11c-3.316 0-6 2.687-6 6M567.066 298.11c0-3.313-2.687-6-6-6M387.066 298.11v51.706M567.066 298.11v51.706M387.066 349.816c0 3.313 2.684 6 6 6M561.066 355.816c3.313 0 6-2.687 6-6" fill="none" stroke-width="2" stroke="#000" stroke-miterlimit="10"/><g><use xlink:href="#a" x="450.367" y="331.914"/><use xlink:href="#e" x="459.215" y="331.914"/><use xlink:href="#h" x="467.848" y="331.914"/><use xlink:href="#i" x="476.52" y="331.914"/><use xlink:href="#z" x="482.027" y="331.914"/><use xlink:href="#f" x="486.363" y="331.914"/><use xlink:href="#v" x="495.152" y="331.914"/></g><path d="M760.848 163.965h29.738" fill="none" stroke-width="2" stroke="#000" stroke-miterlimit="10"/><path d="M790.586 168.965l10-5-10-5zm0 0" fill-rule="evenodd" stroke-width="2" stroke="#000" stroke-miterlimit="10"/><path d="M760.848 270.688h29.738" fill="none" stroke-width="2" stroke="#000" stroke-miterlimit="10"/><path d="M790.586 275.688l10-5-10-5zm0 0" fill-rule="evenodd" stroke-width="2" stroke="#000" stroke-miterlimit="10"/><path d="M219.39 105.945h104.5v23.399h-104.5zm0 0" fill-rule="evenodd" fill="#fff"/><g fill="#4d4d4d"><use xlink:href="#A" x="219.391" y="124.344"/><use xlink:href="#B" x="227.223" y="124.344"/><use xlink:href="#C" x="235.035" y="124.344"/><use xlink:href="#D" x="242.848" y="124.344"/><use xlink:href="#E" x="247.047" y="124.344"/><use xlink:href="#F" x="250.953" y="124.344"/><use xlink:href="#G" x="257.359" y="124.344"/><use xlink:href="#E" x="262.672" y="124.344"/><use xlink:href="#H" x="266.578" y="124.344"/><use xlink:href="#I" x="274.488" y="124.344"/><use xlink:href="#J" x="282.281" y="124.344"/><use xlink:href="#K" x="289.41" y="124.344"/><use xlink:href="#L" x="296.832" y="124.344"/><use xlink:href="#A" x="300.035" y="124.344"/><use xlink:href="#M" x="307.867" y="124.344"/><use xlink:href="#A" x="315.797" y="124.344"/></g><path d="M432.14 105.945h89.852v23.399h-89.851zm0 0" fill-rule="evenodd" fill="#fff"/><g fill="#4d4d4d"><use xlink:href="#N" x="432.141" y="124.344"/><use xlink:href="#O" x="438.215" y="124.344"/><use xlink:href="#F" x="443.156" y="124.344"/><use xlink:href="#G" x="449.563" y="124.344"/><use xlink:href="#P" x="454.875" y="124.344"/><use xlink:href="#J" x="463.059" y="124.344"/><use xlink:href="#O" x="470.5" y="124.344"/><use xlink:href="#H" x="475.441" y="124.344"/><use xlink:href="#J" x="483.352" y="124.344"/><use xlink:href="#D" x="490.793" y="124.344"/><use xlink:href="#L" x="494.992" y="124.344"/><use xlink:href="#A" x="498.195" y="124.344"/><use xlink:href="#M" x="506.027" y="124.344"/><use xlink:href="#A" x="513.957" y="124.344"/></g><path d="M520.738 261.914h61.95v23.399h-61.95zm0 0" fill-rule="evenodd" fill="#fff"/><g><use xlink:href="#Q" x="520.738" y="280.313"/><use xlink:href="#R" x="528.512" y="280.313"/><use xlink:href="#H" x="536.285" y="280.313"/><use xlink:href="#S" x="544.195" y="280.313"/><use xlink:href="#O" x="549.137" y="280.313"/><use xlink:href="#R" x="554.078" y="280.313"/><use xlink:href="#D" x="561.852" y="280.313"/><use xlink:href="#D" x="566.051" y="280.313"/><use xlink:href="#J" x="570.25" y="280.313"/><use xlink:href="#O" x="577.691" y="280.313"/></g><path d="M437.168 271.621v-69" fill="none" stroke-width="2" stroke="#000" stroke-miterlimit="10"/><path d="M432.168 271.621l5 10 5-10zm0 0" fill-rule="evenodd" stroke-width="2" stroke="#000" stroke-miterlimit="10"/><path d="M380.418 201.879h49.398v45.976h-49.398zm0 0" fill-rule="evenodd" fill="#fff"/><g><use xlink:href="#T" x="380.5" y="220.281"/><use xlink:href="#J" x="388.449" y="220.281"/><use xlink:href="#U" x="395.773" y="220.281"/><use xlink:href="#B" x="403.547" y="220.281"/><use xlink:href="#J" x="411.359" y="220.281"/><use xlink:href="#N" x="418.801" y="220.281"/><use xlink:href="#S" x="424.875" y="220.281"/></g><g><use xlink:href="#V" x="407.609" y="242.859"/><use xlink:href="#T" x="416.984" y="242.859"/><use xlink:href="#W" x="425.617" y="242.859"/></g><path d="M167.066 66.145c0-3.313-2.687-6-6-6M140.414 60.145h20.652M167.066 158.11c0 3.316 2.684 6 6 6M167.066 66.145v91.964M173.066 164.11h18M161.066 270.695c3.313 0 6-2.683 6-6M140.414 270.695h20.652M173.066 164.11c-3.316 0-6 2.687-6 6M167.066 264.695V170.11M173.066 164.11h14M341.64 163.965h34.426" fill="none" stroke-width="2" stroke-linejoin="round" stroke="#000" stroke-miterlimit="10"/><path d="M376.066 168.965l10-5-10-5zm0 0" fill-rule="evenodd" stroke-width="2" stroke="#000" stroke-miterlimit="10"/><path d="M567.066 163.965h54.704" fill="none" stroke-width="2" stroke="#000" stroke-miterlimit="10"/><path d="M621.77 168.965l10-5-10-5zm0 0" fill-rule="evenodd" stroke-width="2" stroke="#000" stroke-miterlimit="10"/><path d="M599.14 170.11a6.002 6.002 0 0 0-6-6M575.066 164.11h18.075M599.14 264.688a6.002 6.002 0 0 0 6 6M599.14 170.11v94.578M605.14 270.688h16.63" fill="none" stroke-width="2" stroke-linejoin="round" stroke="#000" stroke-miterlimit="10"/><path d="M621.77 275.688l10-5-10-5zm0 0" fill-rule="evenodd" stroke-width="2" stroke="#000" stroke-miterlimit="10"/><path d="M592.234 164.11c3.317 0 6-2.684 6-6M571.066 164.11h21.168M604.234 60.629c-3.312 0-6 2.687-6 6M598.234 158.11V66.628M604.234 60.629h17.536" fill="none" stroke-width="2" stroke-linejoin="round" stroke="#000" stroke-miterlimit="10"/><path d="M621.77 65.629l10-5-10-5zm0 0" fill-rule="evenodd" stroke-width="2" stroke="#000" stroke-miterlimit="10"/><path d="M66.934 86.098h38.449v23.398h-38.45zm0 0" fill-rule="evenodd" fill="#fff"/><g fill="#4d4d4d"><use xlink:href="#V" x="66.934" y="104.5"/><use xlink:href="#T" x="76.309" y="104.5"/><use xlink:href="#X" x="84.941" y="104.5"/><use xlink:href="#Y" x="92.402" y="104.5"/><use xlink:href="#Z" x="96.113" y="104.5"/><use xlink:href="#G" x="99.922" y="104.5"/></g><path d="M44.234 189.574h83.852v23.399H44.234zm0 0" fill-rule="evenodd" fill="#fff"/><g fill="#4d4d4d"><use xlink:href="#V" x="44.234" y="207.973"/><use xlink:href="#T" x="53.609" y="207.973"/><use xlink:href="#X" x="62.242" y="207.973"/><use xlink:href="#Y" x="69.703" y="207.973"/><use xlink:href="#Z" x="73.414" y="207.973"/><use xlink:href="#G" x="77.223" y="207.973"/><use xlink:href="#F" x="82.535" y="207.973"/><use xlink:href="#R" x="88.648" y="207.973"/><use xlink:href="#H" x="96.422" y="207.973"/><use xlink:href="#S" x="104.332" y="207.973"/><use xlink:href="#aa" x="109.273" y="207.973"/><use xlink:href="#F" x="116.48" y="207.973"/><use xlink:href="#S" x="122.887" y="207.973"/></g><path d="M53.11 296.086h66.1v23.398h-66.1zm0 0" fill-rule="evenodd" fill="#fff"/><g fill="#4d4d4d"><use xlink:href="#V" x="53.109" y="314.488"/><use xlink:href="#T" x="62.484" y="314.488"/><use xlink:href="#X" x="71.117" y="314.488"/><use xlink:href="#Y" x="78.578" y="314.488"/><use xlink:href="#Z" x="82.289" y="314.488"/><use xlink:href="#G" x="86.098" y="314.488"/><use xlink:href="#C" x="91.41" y="314.488"/><use xlink:href="#D" x="99.223" y="314.488"/><use xlink:href="#R" x="103.422" y="314.488"/><use xlink:href="#ab" x="111.195" y="314.488"/></g></svg>
