<svg xmlns="http://www.w3.org/2000/svg" xmlns:xlink="http://www.w3.org/1999/xlink" width="500" viewBox="0 0 482 402"><defs><symbol overflow="visible" id="a"><path d="M6.656-3.922H2.703L1.578 0H.094l4.218-14.219h.829L9.359 0H7.797zM3.094-5.266h3.203L5.078-9.578l-.375-2.11h-.047l-.375 2.141zm0 0"/></symbol><symbol overflow="visible" id="b"><path d="M1.188-10h1.015l.25 1.063h.063c.187-.383.43-.688.734-.907.3-.226.664-.344 1.094-.344.3 0 .644.063 1.031.188l-.281 1.453a2.973 2.973 0 0 0-.907-.172c-.43 0-.777.125-1.046.375-.274.242-.446.57-.516.985V0H1.187zm0 0"/></symbol><symbol overflow="visible" id="c"><path d="M1.078-9.406c.383-.239.852-.422 1.406-.547a7.435 7.435 0 0 1 1.75-.203c.563 0 1.008.086 1.344.25.344.168.613.398.813.687.195.281.32.606.375.969.062.367.093.75.093 1.156 0 .793-.015 1.57-.046 2.328a53.04 53.04 0 0 0-.047 2.172c0 .5.015.969.046 1.406.032.43.094.84.188 1.235H5.906l-.343-1.188h-.079a2.73 2.73 0 0 1-.89.907C4.207.016 3.69.14 3.047.14c-.73 0-1.324-.25-1.781-.75-.461-.5-.688-1.192-.688-2.079 0-.57.094-1.05.281-1.437.196-.383.473-.695.829-.938a3.346 3.346 0 0 1 1.265-.5 7.995 7.995 0 0 1 1.625-.156h.406c.133 0 .274.008.422.016.032-.406.047-.77.047-1.094 0-.758-.117-1.289-.344-1.594-.218-.312-.632-.468-1.234-.468a4.89 4.89 0 0 0-1.219.171 4.705 4.705 0 0 0-1.094.422zm4.344 4.844c-.137-.008-.274-.016-.406-.016-.137-.008-.266-.016-.391-.016-.324 0-.64.028-.953.078a2.594 2.594 0 0 0-.813.282 1.485 1.485 0 0 0-.578.53c-.136.231-.203.517-.203.86 0 .531.129.95.39 1.25.259.293.598.438 1.016.438.551 0 .977-.13 1.282-.39.312-.27.53-.567.656-.891zm0 0"/></symbol><symbol overflow="visible" id="d"><path d="M3.656-3.547l.422 1.953h.11l.296-1.953L6-10h1.453L5.078-1.016A57.87 57.87 0 0 1 4.516 1a11.53 11.53 0 0 1-.61 1.625c-.219.457-.465.816-.734 1.078-.274.258-.594.39-.969.39s-.703-.058-.984-.171l.234-1.36c.188.063.375.07.563.032.187-.031.363-.14.53-.328.165-.188.317-.47.454-.844.145-.367.27-.84.375-1.422L.141-10h1.64zm0 0"/></symbol><symbol overflow="visible" id="G"><path d="M7.484-3.438c0 .68.004 1.293.016 1.844.008.555.055 1.102.14 1.64h-.984l-.312-1.202h-.078c-.188.398-.485.73-.891 1-.398.258-.875.39-1.438.39-1.085 0-1.89-.414-2.421-1.25C.992-1.859.734-3.18.734-4.984c0-1.707.32-3 .97-3.875.655-.883 1.546-1.329 2.671-1.329.383 0 .691.028.922.079.226.043.476.12.75.234V-14h1.437zM6.047-8.421a1.848 1.848 0 0 0-.64-.344c-.231-.07-.54-.109-.923-.109-.71 0-1.261.324-1.656.969-.398.636-.594 1.62-.594 2.953 0 .586.036 1.117.11 1.594.07.468.187.875.344 1.218.156.344.351.61.593.797.25.188.555.282.922.282.957 0 1.57-.567 1.844-1.704zm0 0"/></symbol><symbol overflow="visible" id="H"><path d="M7.156-.688c-.312.305-.718.532-1.218.688a5.128 5.128 0 0 1-1.563.234c-.625 0-1.168-.12-1.625-.359-.46-.25-.84-.602-1.14-1.063-.305-.457-.528-1.003-.673-1.64A10.503 10.503 0 0 1 .734-5c0-1.707.313-3.004.938-3.89.633-.895 1.523-1.344 2.672-1.344.375 0 .742.046 1.11.14.362.094.69.281.984.563.289.273.523.664.703 1.172.187.511.28 1.171.28 1.984 0 .219-.01.46-.03.719-.024.261-.047.531-.079.812H2.234c0 .574.047 1.094.141 1.563.094.469.238.87.438 1.203.207.324.468.574.78.75.313.18.704.266 1.173.266.351 0 .707-.063 1.062-.188.352-.133.625-.297.813-.484zm-1.11-5.359c.02-1-.124-1.726-.437-2.187-.304-.47-.718-.704-1.25-.704-.617 0-1.105.235-1.468.704-.356.46-.563 1.187-.625 2.187zm0 0"/></symbol><symbol overflow="visible" id="I"><path d="M1.016-1.64a4.6 4.6 0 0 0 .953.406c.363.117.738.171 1.125.171.445 0 .82-.109 1.125-.328.312-.218.468-.57.468-1.062 0-.414-.093-.754-.28-1.016a3.06 3.06 0 0 0-.72-.719 6.653 6.653 0 0 0-.921-.593 5.605 5.605 0 0 1-.938-.657 3.284 3.284 0 0 1-.703-.89C.937-6.68.844-7.125.844-7.656c0-.852.226-1.492.687-1.922.457-.438 1.11-.656 1.953-.656.54 0 1.008.054 1.407.156.406.094.754.226 1.046.39l-.375 1.204a4.009 4.009 0 0 0-.875-.329 4.333 4.333 0 0 0-1.03-.124c-.481 0-.829.101-1.048.296-.218.2-.328.512-.328.938 0 .336.094.621.281.86.188.23.422.445.704.64.289.187.601.387.937.594.332.199.64.433.922.703.29.273.531.601.719.984.187.375.281.852.281 1.422 0 .375-.063.73-.188 1.063a2.273 2.273 0 0 1-.546.875c-.25.242-.559.433-.922.578a3.478 3.478 0 0 1-1.282.218c-.593 0-1.105-.058-1.53-.172-.43-.101-.79-.25-1.079-.437zm0 0"/></symbol><symbol overflow="visible" id="J"><path d="M1.422-10h1.437V0H1.422zm-.266-3.047c0-.312.086-.566.266-.765a.926.926 0 0 1 .719-.313.96.96 0 0 1 .718.297c.196.187.297.45.297.781 0 .324-.101.578-.297.766-.187.18-.43.265-.718.265a.971.971 0 0 1-.72-.28c-.179-.188-.265-.438-.265-.75zm0 0"/></symbol><symbol overflow="visible" id="K"><path d="M2.719-2.375c0 .46.062.793.187 1 .125.2.301.297.531.297.282 0 .61-.07.985-.219l.14 1.156c-.18.106-.421.188-.734.25-.312.07-.594.11-.844.11-.511 0-.921-.157-1.234-.469-.313-.313-.469-.863-.469-1.656V-14H2.72zm0 0"/></symbol><symbol overflow="visible" id="L"><path d="M.64-1.297l3.72-6.547.702-.86H.641V-10h5.843v1.297l-3.75 6.61-.671.796h4.421V0H.641zm0 0"/></symbol><symbol overflow="visible" id="e"><path d="M1.734-18.906h8.391v1.875H3.75v6.656h5.938V-8.5H3.75V0H1.734zm0 0"/></symbol><symbol overflow="visible" id="f"><path d="M1-6.75c0-2.426.414-4.21 1.25-5.36.844-1.144 2.035-1.718 3.578-1.718 1.656 0 2.875.59 3.656 1.765.79 1.168 1.188 2.938 1.188 5.313 0 2.45-.43 4.242-1.281 5.375C8.547-.238 7.359.328 5.828.328c-1.656 0-2.875-.582-3.656-1.75C1.39-2.598 1-4.375 1-6.75zm2.031 0c0 .793.047 1.512.14 2.156a6.22 6.22 0 0 0 .485 1.672c.227.469.52.836.875 1.094.364.262.797.39 1.297.39.938 0 1.64-.414 2.11-1.25.468-.832.703-2.187.703-4.062 0-.77-.055-1.484-.157-2.14-.093-.657-.257-1.22-.484-1.688-.219-.469-.512-.832-.875-1.094-.355-.258-.79-.39-1.297-.39-.918 0-1.617.421-2.094 1.265-.468.844-.703 2.195-.703 4.047zm0 0"/></symbol><symbol overflow="visible" id="g"><path d="M1.594-13.5h1.375l.36 1.438h.077c.25-.532.578-.942.985-1.235.406-.3.894-.453 1.468-.453.414 0 .883.086 1.407.25l-.375 1.969c-.47-.156-.887-.235-1.25-.235-.575 0-1.043.168-1.407.5-.355.336-.59.778-.703 1.329V0H1.594zm0 0"/></symbol><symbol overflow="visible" id="h"><path d="M7.906 0v-8.016c0-.718-.023-1.332-.062-1.843-.043-.52-.137-.942-.282-1.266-.148-.32-.343-.555-.593-.703-.25-.156-.586-.235-1-.235-.617 0-1.137.243-1.563.72a3.942 3.942 0 0 0-.875 1.624V0H1.594v-13.5h1.375l.36 1.438h.077c.375-.532.82-.958 1.344-1.282.52-.32 1.188-.484 2-.484.688 0 1.25.152 1.688.453.437.293.785.82 1.046 1.578a3.58 3.58 0 0 1 1.375-1.484 3.8 3.8 0 0 1 2-.547c.594 0 1.098.078 1.516.234.426.156.77.43 1.031.813.258.386.453.902.578 1.547.125.636.188 1.437.188 2.406V0h-1.938v-8.594c0-1.164-.117-2.035-.343-2.61-.23-.57-.746-.858-1.547-.858-.688 0-1.235.214-1.64.64-.407.418-.688.985-.845 1.703V0zm0 0"/></symbol><symbol overflow="visible" id="i"><path d="M1.453-12.688c.52-.32 1.156-.57 1.906-.75a9.687 9.687 0 0 1 2.36-.28c.758 0 1.367.116 1.828.343.457.219.816.527 1.078.922.258.387.43.828.516 1.328.082.492.125 1.008.125 1.547 0 1.074-.028 2.125-.079 3.156a69.316 69.316 0 0 0-.062 2.906c0 .688.02 1.325.063 1.907.05.586.14 1.136.265 1.656H7.97L7.5-1.531h-.11c-.261.46-.656.86-1.187 1.203C5.68.016 4.984.188 4.11.188c-.98 0-1.78-.336-2.406-1.016-.617-.676-.922-1.61-.922-2.797 0-.77.13-1.414.39-1.938.259-.519.63-.94 1.11-1.265.477-.32 1.047-.55 1.703-.688.657-.132 1.391-.203 2.204-.203h.53c.188 0 .38.012.579.032.05-.563.078-1.063.078-1.5 0-1.02-.156-1.739-.469-2.157-.304-.414-.86-.625-1.672-.625-.5 0-1.046.078-1.64.235-.594.156-1.09.351-1.485.578zm5.86 6.532c-.18-.02-.36-.032-.547-.032-.18-.007-.356-.015-.532-.015-.43 0-.851.039-1.265.11-.418.062-.79.187-1.11.374-.324.18-.578.422-.765.735-.188.304-.281.687-.281 1.156 0 .719.171 1.277.515 1.672.352.398.813.594 1.375.594.75 0 1.332-.176 1.75-.532.414-.363.703-.765.86-1.203zm0 0"/></symbol><symbol overflow="visible" id="j"><path d="M.25-13.5h1.64v-2.672l1.938-.625v3.297H6.75v1.75H3.828v8.047c0 .793.094 1.367.281 1.719.196.355.508.53.938.53.363 0 .676-.038.937-.124.258-.082.54-.188.844-.313l.375 1.547a6.27 6.27 0 0 1-1.312.469 6.308 6.308 0 0 1-1.485.172C3.5.297 2.852.004 2.47-.578 2.082-1.16 1.89-2.11 1.89-3.422v-8.328H.25zm0 0"/></symbol><symbol overflow="visible" id="l"><path d="M4.938 5.938c-.68-.868-1.25-1.82-1.72-2.86A21.13 21.13 0 0 1 2.095-.094a24.082 24.082 0 0 1-.61-3.297 28.174 28.174 0 0 1-.187-3.171c0-.989.062-2.032.187-3.125.125-1.102.329-2.208.61-3.313.289-1.102.676-2.188 1.156-3.25A15.565 15.565 0 0 1 5-19.219l1.203.719a15.878 15.878 0 0 0-1.422 2.89 22.89 22.89 0 0 0-.906 3.079 25.88 25.88 0 0 0-.5 3.078 31.401 31.401 0 0 0-.14 2.89c0 .868.05 1.82.156 2.86.113 1.031.289 2.07.53 3.11.25 1.038.563 2.054.938 3.046.375.988.82 1.879 1.344 2.672zm0 0"/></symbol><symbol overflow="visible" id="m"><path d="M2.516-18.906H4.53v14.672c0 1.468-.242 2.59-.718 3.359-.47.762-1.297 1.14-2.485 1.14C1.035.266.688.228.281.157-.125.082-.453-.02-.703-.156l.437-1.766c.18.117.375.2.594.25.227.055.461.078.703.078.32 0 .582-.07.782-.218.195-.145.347-.348.453-.61.113-.258.18-.57.203-.937.031-.375.047-.79.047-1.25zm0 0"/></symbol><symbol overflow="visible" id="n"><path d="M1.594-2.516c.343.243.82.465 1.437.672.625.211 1.332.313 2.125.313 1.008 0 1.828-.25 2.453-.75.633-.5.954-1.274.954-2.328 0-.707-.184-1.32-.547-1.844a6.82 6.82 0 0 0-1.344-1.438 22.34 22.34 0 0 0-1.75-1.296 14.354 14.354 0 0 1-1.734-1.407 6.939 6.939 0 0 1-1.36-1.765c-.355-.664-.531-1.47-.531-2.407 0-1.507.453-2.629 1.36-3.359.905-.727 2.085-1.094 3.546-1.094.906 0 1.707.086 2.406.25.707.157 1.274.36 1.704.61l-.641 1.78c-.324-.194-.79-.374-1.39-.53-.606-.164-1.305-.25-2.095-.25-.98 0-1.703.242-2.171.718-.461.47-.688 1.07-.688 1.797 0 .625.176 1.184.531 1.672.364.48.813.938 1.344 1.375.54.43 1.125.867 1.75 1.313.625.437 1.203.93 1.734 1.468.54.543.989 1.157 1.344 1.844.364.68.547 1.484.547 2.422 0 1.586-.469 2.828-1.406 3.734C8.242-.117 6.926.328 5.219.328 4.133.328 3.242.227 2.547.031 1.859-.164 1.305-.39.89-.64zm0 0"/></symbol><symbol overflow="visible" id="o"><path d="M1.156-9.453c0-3.195.508-5.625 1.532-7.281 1.03-1.657 2.597-2.485 4.703-2.485 1.132 0 2.097.23 2.89.688.79.46 1.43 1.11 1.922 1.953.5.844.863 1.871 1.094 3.078.238 1.21.36 2.559.36 4.047 0 3.21-.516 5.64-1.548 7.297C11.08-.5 9.504.328 7.391.328c-1.118 0-2.07-.23-2.86-.687-.793-.457-1.437-1.11-1.937-1.954-.5-.851-.867-1.878-1.094-3.078-.23-1.207-.344-2.562-.344-4.062zm2.14 0c0 1.062.071 2.074.22 3.031.156.95.394 1.79.718 2.516.32.719.743 1.297 1.266 1.734.531.43 1.16.64 1.89.64 1.352 0 2.38-.644 3.079-1.937.707-1.3 1.062-3.297 1.062-5.984 0-1.04-.078-2.035-.234-2.985-.156-.957-.399-1.8-.719-2.53-.324-.727-.746-1.305-1.265-1.735-.524-.438-1.165-.656-1.922-.656-1.325 0-2.34.652-3.047 1.953-.7 1.293-1.047 3.277-1.047 5.953zm0 0"/></symbol><symbol overflow="visible" id="p"><path d="M4.61-11.984l-1.157-2.97h-.078l.297 2.97V0H1.734v-19.203h1.204l7 12.265 1.109 2.829h.11l-.298-2.829v-11.968h1.938V.297h-1.235zm0 0"/></symbol><symbol overflow="visible" id="q"><path d="M.969-1.156c0-.457.129-.817.39-1.078.258-.27.598-.407 1.016-.407.469 0 .848.188 1.14.563.301.375.454.969.454 1.781 0 .594-.078 1.129-.235 1.61a4.464 4.464 0 0 1-.593 1.25c-.243.363-.508.66-.797.89-.281.238-.559.41-.828.516l-.672-.922a3.047 3.047 0 0 0 1.172-1.188c.132-.25.238-.515.312-.796.07-.282.11-.555.11-.813-.368.102-.704.031-1.016-.219-.305-.25-.453-.644-.453-1.187zm0 0"/></symbol><symbol overflow="visible" id="r"><path d="M5.484-9.61L.938-18.905h2.437L6.313-12.5l.546 1.594.532-1.594 3.109-6.406h2.25l-4.703 9.11L12.953 0h-2.375L7.313-6.781l-.61-1.672-.578 1.672L2.781 0H.516zm0 0"/></symbol><symbol overflow="visible" id="s"><path d="M13.453-12.422l.235-2.86h-.11l-.86 2.673-3.812 8.203h-.672l-4-8.203-.828-2.672h-.11l.376 2.86V0H1.734v-18.906h1.688L7.984-9.61l.688 2.218h.047l.656-2.25 4.313-9.265h1.78V0h-2.015zm0 0"/></symbol><symbol overflow="visible" id="t"><path d="M10.828 0H1.734v-18.906H3.75V-1.86h7.078zm0 0"/></symbol><symbol overflow="visible" id="u"><path d="M11.61-.734c-.45.386-1.016.656-1.704.812-.68.164-1.398.25-2.156.25a6.61 6.61 0 0 1-2.656-.531c-.805-.363-1.496-.938-2.078-1.719C2.43-2.71 1.973-3.727 1.64-4.969c-.325-1.238-.485-2.734-.485-4.484 0-1.8.18-3.32.547-4.563.375-1.238.867-2.242 1.484-3.015.614-.782 1.317-1.336 2.11-1.672a6.237 6.237 0 0 1 2.484-.516c.864 0 1.578.063 2.14.188.563.125 1.052.277 1.47.453l-.485 1.844a4.668 4.668 0 0 0-1.265-.453 7.46 7.46 0 0 0-1.672-.172 3.96 3.96 0 0 0-1.797.422c-.555.273-1.047.718-1.484 1.343-.43.625-.766 1.446-1.016 2.453-.25 1-.375 2.23-.375 3.688 0 2.625.445 4.605 1.344 5.937C5.547-2.19 6.742-1.53 8.234-1.53c.614 0 1.16-.082 1.641-.25a5.257 5.257 0 0 0 1.25-.625zm0 0"/></symbol><symbol overflow="visible" id="v"><path d="M5.89-5.969l.485 2.89h.047l.547-2.937 3.5-12.89h2.094L6.827.297H5.75L-.047-18.906h2.235zm0 0"/></symbol><symbol overflow="visible" id="w"><path d="M1.297 5.125c.52-.793.969-1.684 1.344-2.672.382-.992.695-2.008.937-3.047.238-1.039.41-2.078.516-3.11.113-1.038.172-1.991.172-2.858 0-.915-.055-1.88-.157-2.891a25.039 25.039 0 0 0-.484-3.078 20.818 20.818 0 0 0-.906-3.078A17.562 17.562 0 0 0 1.297-18.5l1.219-.719A16.358 16.358 0 0 1 4.25-16.25c.477 1.063.86 2.148 1.14 3.25.29 1.105.5 2.21.626 3.313a27.58 27.58 0 0 1 .187 3.124c0 1.012-.062 2.07-.187 3.172A23.004 23.004 0 0 1 5.39-.094a19.529 19.529 0 0 1-1.125 3.172 14.483 14.483 0 0 1-1.704 2.86zm0 0"/></symbol><symbol overflow="visible" id="C"><path d="M1.594-18.906H3.53v6.437h.094c.727-.906 1.707-1.36 2.938-1.36 1.382 0 2.421.556 3.109 1.657.695 1.094 1.047 2.828 1.047 5.203 0 2.43-.465 4.242-1.39 5.438C8.398-.344 7.093.25 5.405.25a8.646 8.646 0 0 1-2.281-.281c-.68-.196-1.188-.422-1.531-.672zM3.53-1.97c.258.149.57.262.938.344.363.074.754.11 1.172.11.937 0 1.675-.442 2.218-1.329.551-.894.829-2.27.829-4.125 0-.77-.055-1.46-.157-2.078-.094-.625-.246-1.16-.453-1.61-.2-.456-.465-.804-.797-1.046-.336-.238-.734-.36-1.203-.36-.648 0-1.183.196-1.61.579-.429.386-.741.914-.937 1.578zm0 0"/></symbol><symbol overflow="visible" id="D"><path d="M1.938-13.5H3.89V.734c0 1.852-.297 3.188-.891 4-.594.82-1.559 1.133-2.89.938v-1.75c.394 0 .71-.086.953-.25.25-.168.44-.418.578-.75.132-.324.218-.735.25-1.235.03-.5.046-1.078.046-1.734zm-.375-4.11c0-.425.117-.773.359-1.046.25-.27.57-.407.969-.407.394 0 .722.133.984.391.258.262.39.617.39 1.063 0 .437-.132.777-.39 1.015-.262.242-.59.36-.984.36-.399 0-.72-.125-.97-.375-.241-.25-.359-.582-.359-1zm0 0"/></symbol><symbol overflow="visible" id="E"><path d="M9.672-.922c-.438.399-.992.703-1.656.922a6.735 6.735 0 0 1-2.11.328c-.843 0-1.578-.168-2.203-.5a4.194 4.194 0 0 1-1.531-1.422c-.406-.625-.703-1.367-.89-2.234C1.093-4.691 1-5.664 1-6.75c0-2.3.422-4.055 1.266-5.266.843-1.207 2.039-1.812 3.593-1.812.5 0 .993.062 1.485.187.5.125.945.383 1.343.766.395.375.711.906.954 1.594.25.68.375 1.57.375 2.672 0 .304-.016.632-.047.984-.024.355-.055.719-.094 1.094H3.031c0 .773.063 1.476.188 2.11.125.624.32 1.163.594 1.609.269.437.613.777 1.03 1.015.427.242.954.36 1.579.36.488 0 .973-.086 1.453-.266.477-.176.844-.39 1.094-.64zM8.156-8.156c.031-1.344-.164-2.328-.578-2.953-.406-.633-.969-.954-1.687-.954-.836 0-1.496.32-1.985.954-.48.625-.765 1.609-.86 2.953zm0 0"/></symbol><symbol overflow="visible" id="F"><path d="M9.047-.672c-.45.344-.965.594-1.547.75a6.504 6.504 0 0 1-1.797.25c-.867 0-1.594-.168-2.187-.5a3.927 3.927 0 0 1-1.454-1.422c-.367-.625-.636-1.375-.812-2.25C1.082-4.719 1-5.688 1-6.75c0-2.3.406-4.055 1.219-5.266.82-1.207 2-1.812 3.531-1.812.695 0 1.297.062 1.797.187.508.125.945.29 1.312.485l-.546 1.703a4.683 4.683 0 0 0-2.344-.61c-.969 0-1.703.43-2.203 1.282-.493.855-.735 2.199-.735 4.031 0 .742.051 1.434.156 2.078.102.649.282 1.211.532 1.688.258.48.586.859.984 1.14.395.274.89.407 1.484.407.47 0 .899-.079 1.297-.235a3.931 3.931 0 0 0 1-.562zm0 0"/></symbol><symbol overflow="visible" id="x"><path d="M6.438-.61c-.282.262-.649.465-1.094.61a4.456 4.456 0 0 1-1.407.219c-.562 0-1.054-.11-1.468-.328a2.921 2.921 0 0 1-1.016-.954C1.18-1.476.984-1.973.86-2.546A9.338 9.338 0 0 1 .672-4.5c0-1.531.281-2.695.844-3.5.562-.813 1.359-1.219 2.39-1.219.332 0 .664.043 1 .125.332.086.63.258.89.516.259.25.47.605.626 1.062.164.45.25 1.043.25 1.782 0 .199-.012.418-.031.656-.012.23-.028.469-.047.719H2.016c0 .523.039.992.125 1.406.082.418.21.777.39 1.078.188.293.422.523.703.688.282.156.63.234 1.047.234.32 0 .64-.055.953-.172.32-.125.567-.27.735-.438zm-1-4.827c.019-.895-.11-1.551-.391-1.97-.274-.425-.649-.64-1.125-.64-.555 0-.992.215-1.313.64-.324.419-.515 1.075-.578 1.97zm0 0"/></symbol><symbol overflow="visible" id="y"><path d="M5.672 0v-5.484c0-.907-.106-1.555-.313-1.954-.21-.406-.586-.609-1.125-.609-.48 0-.875.149-1.187.438a2.472 2.472 0 0 0-.688 1.062V0H1.063v-9H2l.234.953h.047c.227-.32.535-.598.922-.828.395-.227.863-.344 1.406-.344.383 0 .723.059 1.016.172.29.106.535.29.734.547.196.25.348.594.454 1.031.101.43.156.977.156 1.64V0zm0 0"/></symbol><symbol overflow="visible" id="z"><path d="M6.031-.453c-.304.23-.648.398-1.031.5-.387.113-.79.172-1.203.172-.574 0-1.059-.11-1.453-.328a2.695 2.695 0 0 1-.969-.954c-.242-.414-.418-.914-.531-1.5A9.847 9.847 0 0 1 .672-4.5c0-1.531.27-2.695.812-3.5.54-.813 1.32-1.219 2.344-1.219.469 0 .867.043 1.203.125.344.086.633.196.875.328l-.36 1.141c-.48-.281-1-.422-1.562-.422-.656 0-1.152.29-1.484.86-.324.562-.484 1.46-.484 2.687 0 .492.035.953.109 1.39.07.43.191.805.36 1.126.163.312.378.562.64.75.27.187.602.28 1 .28A2.4 2.4 0 0 0 5-1.108c.27-.114.488-.243.656-.391zm0 0"/></symbol><symbol overflow="visible" id="A"><path d="M.672-4.5c0-1.625.273-2.816.828-3.578.563-.758 1.36-1.14 2.39-1.14 1.102 0 1.915.39 2.438 1.171.52.781.781 1.965.781 3.547 0 1.637-.28 2.836-.843 3.594C5.703-.156 4.91.219 3.89.219c-1.106 0-1.918-.39-2.438-1.172C.93-1.734.672-2.914.672-4.5zm1.344 0c0 .531.03 1.016.093 1.453.07.43.18.797.329 1.11.144.312.335.558.578.734.25.168.539.25.875.25.625 0 1.093-.274 1.406-.828.312-.563.469-1.469.469-2.719 0-.52-.04-1-.11-1.438a3.673 3.673 0 0 0-.328-1.125 1.793 1.793 0 0 0-.578-.718 1.422 1.422 0 0 0-.86-.266c-.617 0-1.085.281-1.406.844-.312.562-.468 1.465-.468 2.703zm0 0"/></symbol><symbol overflow="visible" id="B"><path d="M6.734-3.094c0 .617.004 1.172.016 1.672.008.492.05.977.125 1.453H6l-.297-1.078h-.062c-.18.367-.45.668-.813.906-.355.239-.781.36-1.281.36-.969 0-1.695-.375-2.172-1.125C.906-1.664.672-2.86.672-4.484c0-1.532.285-2.692.86-3.485.581-.789 1.382-1.187 2.405-1.187.352 0 .63.023.829.062.207.043.43.11.671.203v-3.703h1.297zM5.438-7.578a1.513 1.513 0 0 0-.579-.313c-.21-.062-.484-.093-.828-.093-.636 0-1.133.289-1.484.859-.356.574-.531 1.46-.531 2.656 0 .532.03 1.012.093 1.438.07.43.176.797.313 1.11.133.312.312.554.531.718.227.168.504.25.828.25.864 0 1.414-.508 1.656-1.531zm0 0"/></symbol><symbol overflow="visible" id="M"><path d="M1.063-9h.921l.235.953h.047c.164-.344.382-.613.656-.812.27-.196.598-.297.984-.297.27 0 .582.054.938.156l-.25 1.313a2.75 2.75 0 0 0-.828-.157c-.387 0-.7.11-.938.328-.242.22-.398.516-.469.891V0H1.063zm0 0"/></symbol><symbol overflow="visible" id="N"><path d="M5.281 0v-5.344c0-.476-.015-.89-.047-1.234a2.42 2.42 0 0 0-.203-.828 1.046 1.046 0 0 0-.39-.485c-.168-.101-.387-.156-.657-.156a1.34 1.34 0 0 0-1.046.485 2.5 2.5 0 0 0-.579 1.078V0H1.063v-9h.921l.235.953h.047c.25-.344.546-.625.89-.844.352-.218.801-.328 1.344-.328.457 0 .832.102 1.125.297.29.2.52.555.688 1.063.218-.426.523-.758.921-1 .407-.239.848-.36 1.329-.36a3 3 0 0 1 1.015.156c.29.106.52.29.688.547.175.25.304.59.39 1.016.082.43.125.965.125 1.61V0H9.484v-5.719c0-.781-.078-1.363-.234-1.75-.148-.383-.492-.578-1.031-.578-.45 0-.809.14-1.078.422-.274.281-.465.664-.579 1.14V0zm0 0"/></symbol><symbol overflow="visible" id="O"><path d="M.969-8.453c.351-.219.773-.383 1.265-.5a6.47 6.47 0 0 1 1.579-.188c.507 0 .914.079 1.218.235.301.148.54.351.719.61.176.25.29.542.344.874.05.324.078.668.078 1.031 0 .72-.016 1.422-.047 2.11-.031.68-.047 1.324-.047 1.937 0 .461.016.887.047 1.281.031.387.086.75.172 1.094h-.984L5-1.03h-.063a2.544 2.544 0 0 1-.796.812c-.344.227-.813.344-1.407.344-.648 0-1.18-.223-1.593-.672C.723-.992.516-1.613.516-2.407c0-.519.086-.952.265-1.296a2.17 2.17 0 0 1 .735-.844A3.04 3.04 0 0 1 2.656-5c.438-.094.926-.14 1.469-.14h.344c.125 0 .254.007.39.015.032-.375.047-.707.047-1 0-.676-.105-1.148-.312-1.422-.2-.281-.57-.422-1.11-.422-.336 0-.699.055-1.093.157a3.41 3.41 0 0 0-.985.375zM4.875-4.11a5.296 5.296 0 0 0-.36-.016c-.117-.008-.234-.016-.359-.016-.293 0-.578.028-.86.079a2.122 2.122 0 0 0-.733.25c-.211.117-.376.277-.5.484-.126.2-.188.453-.188.765 0 .481.113.856.344 1.126.238.261.539.39.906.39.508 0 .898-.117 1.172-.36.281-.238.473-.503.578-.796zm0 0"/></symbol><symbol overflow="visible" id="P"><path d="M2.453-2.14c0 .417.055.718.172.906.113.18.27.265.469.265.25 0 .547-.066.89-.203L4.11-.125a2.248 2.248 0 0 1-.656.234c-.281.063-.539.094-.765.094-.461 0-.829-.14-1.11-.422-.281-.281-.422-.773-.422-1.484v-10.89h1.297zm0 0"/></symbol><symbol overflow="visible" id="Q"><path d="M1.281-9h1.297v9H1.281zm-.234-2.734c0-.29.078-.524.234-.704a.84.84 0 0 1 .64-.265c.27 0 .49.09.657.265.176.168.266.403.266.704 0 .293-.09.523-.266.687-.168.156-.387.235-.656.235a.856.856 0 0 1-.64-.25c-.157-.176-.235-.399-.235-.672zm0 0"/></symbol><symbol overflow="visible" id="R"><path d="M.578-1.172l3.344-5.89.625-.766H.578V-9h5.25v1.172l-3.36 5.937-.609.72h3.97V0H.578zm0 0"/></symbol></defs><path fill="#fff" d="M0 0h482v402H0z"/><path d="M1 1h480v400H1zm0 0" fill-rule="evenodd" fill="#fff" stroke-width="2" stroke="#fff" stroke-miterlimit="10"/><path d="M167 170.809h148v60H167zm0 0M167 176.809v-6c-3.313 0-6 2.687-6 6zm0 0M315 176.809h6c0-3.313-2.688-6-6-6zm0 0" fill-rule="evenodd" fill="#fddfbb"/><path d="M161 176.809h160v48H161zm0 0M167 224.809h-6c0 3.316 2.688 6 6 6zm0 0M315 224.809v6c3.313 0 6-2.684 6-6zm0 0" fill-rule="evenodd" fill="#fddfbb"/><path d="M167 170.809h148M167 230.809h148M167 170.809c-3.312 0-6 2.687-6 6M321 176.809c0-3.313-2.687-6-6-6M161 176.809v48M321 176.809v48M161 224.809a6 6 0 0 0 6 6M315 230.809a6 6 0 0 0 6-6" fill="none" stroke-width="2" stroke="#000" stroke-miterlimit="10"/><use xlink:href="#a" x="223.031" y="208.762"/><use xlink:href="#b" x="232.484" y="208.762"/><use xlink:href="#b" x="237.973" y="208.762"/><use xlink:href="#c" x="243.461" y="208.762"/><use xlink:href="#d" x="251.469" y="208.762"/><path d="M32 308.957h418v63.707H32zm0 0M32 314.957v-6c-3.313 0-6 2.688-6 6zm0 0M450 314.957h6c0-3.312-2.688-6-6-6zm0 0" fill-rule="evenodd" fill="#f2f2f2"/><path d="M26 314.957h430v51.707H26zm0 0M32 366.664h-6c0 3.313 2.688 6 6 6zm0 0M450 366.664v6c3.313 0 6-2.687 6-6zm0 0" fill-rule="evenodd" fill="#f2f2f2"/><path d="M32 308.957h418M32 372.664h418M32 308.957c-3.313 0-6 2.688-6 6M456 314.957c0-3.312-2.687-6-6-6M26 314.957v51.707M456 314.957v51.707M26 366.664c0 3.313 2.687 6 6 6M450 372.664c3.312 0 6-2.687 6-6" fill="none" stroke-width="2" stroke="#000" stroke-miterlimit="10"/><use xlink:href="#e" x="127.289" y="351.477"/><use xlink:href="#f" x="138.441" y="351.477"/><use xlink:href="#g" x="150.102" y="351.477"/><use xlink:href="#h" x="157.504" y="351.477"/><use xlink:href="#i" x="175.082" y="351.477"/><use xlink:href="#j" x="185.883" y="351.477"/><use xlink:href="#k" x="193.305" y="351.477"/><use xlink:href="#l" x="199.027" y="351.477"/><use xlink:href="#m" x="205.316" y="351.477"/><use xlink:href="#n" x="211.82" y="351.477"/><use xlink:href="#o" x="223.383" y="351.477"/><use xlink:href="#p" x="238.207" y="351.477"/><use xlink:href="#q" x="252.738" y="351.477"/><use xlink:href="#k" x="256" y="351.477"/><use xlink:href="#r" x="261.098" y="351.477"/><use xlink:href="#s" x="274.594" y="351.477"/><use xlink:href="#t" x="291.801" y="351.477"/><use xlink:href="#q" x="303.012" y="351.477"/><use xlink:href="#k" x="306.273" y="351.477"/><use xlink:href="#u" x="311.996" y="351.477"/><use xlink:href="#n" x="324.359" y="351.477"/><use xlink:href="#v" x="335.922" y="351.477"/><use xlink:href="#w" x="348.422" y="351.477"/><path d="M221.379 248.586v50.851" fill="none" stroke-width="2" stroke="#000" stroke-miterlimit="10"/><path d="M226.379 248.586l-5-10-5 10zm0 0" fill-rule="evenodd" stroke-width="2" stroke="#000" stroke-miterlimit="10"/><use xlink:href="#x" x="271.188" y="253.488"/><use xlink:href="#y" x="278.629" y="253.488"/><use xlink:href="#z" x="286.539" y="253.488"/><use xlink:href="#A" x="292.652" y="253.488"/><use xlink:href="#B" x="300.426" y="253.488"/><use xlink:href="#x" x="308.219" y="253.488"/><g><use xlink:href="#B" x="169.305" y="293.488"/><use xlink:href="#x" x="177.098" y="293.488"/><use xlink:href="#z" x="184.422" y="293.488"/><use xlink:href="#A" x="190.535" y="293.488"/><use xlink:href="#B" x="198.309" y="293.488"/><use xlink:href="#x" x="206.102" y="293.488"/></g><path d="M100.29 112.105l-.216 188.805" fill="none" stroke-width="4" stroke="#000" stroke-miterlimit="10"/><path d="M105.29 112.11l-4.993-10.005-5.008 9.993zm0 0" fill-rule="evenodd" stroke-width="4" stroke="#000" stroke-miterlimit="10"/><path d="M32 28.957h418v63.707H32zm0 0M32 34.957v-6c-3.313 0-6 2.688-6 6zm0 0M450 34.957h6c0-3.312-2.688-6-6-6zm0 0" fill-rule="evenodd" fill="#f2f2f2"/><path d="M26 34.957h430v51.707H26zm0 0M32 86.664h-6c0 3.313 2.688 6 6 6zm0 0M450 86.664v6c3.313 0 6-2.687 6-6zm0 0" fill-rule="evenodd" fill="#f2f2f2"/><path d="M32 28.957h418M32 92.664h418M32 28.957c-3.313 0-6 2.688-6 6M456 34.957c0-3.312-2.687-6-6-6M26 34.957v51.707M456 34.957v51.707M26 86.664c0 3.313 2.687 6 6 6M450 92.664c3.312 0 6-2.687 6-6" fill="none" stroke-width="2" stroke="#000" stroke-miterlimit="10"/><g><use xlink:href="#o" x="210.844" y="71.477"/><use xlink:href="#C" x="225.668" y="71.477"/><use xlink:href="#D" x="237.387" y="71.477"/><use xlink:href="#E" x="243.188" y="71.477"/><use xlink:href="#F" x="254.145" y="71.477"/><use xlink:href="#j" x="263.754" y="71.477"/></g><g><use xlink:href="#G" x="16.973" y="207.512"/><use xlink:href="#H" x="25.625" y="207.512"/><use xlink:href="#I" x="33.887" y="207.512"/><use xlink:href="#H" x="40.645" y="207.512"/><use xlink:href="#b" x="48.906" y="207.512"/><use xlink:href="#J" x="54.395" y="207.512"/><use xlink:href="#c" x="58.73" y="207.512"/><use xlink:href="#K" x="66.738" y="207.512"/><use xlink:href="#J" x="71.406" y="207.512"/><use xlink:href="#L" x="75.742" y="207.512"/><use xlink:href="#H" x="82.734" y="207.512"/></g><g><use xlink:href="#I" x="389.355" y="207.512"/><use xlink:href="#H" x="396.113" y="207.512"/><use xlink:href="#b" x="404.375" y="207.512"/><use xlink:href="#J" x="409.863" y="207.512"/><use xlink:href="#c" x="414.199" y="207.512"/><use xlink:href="#K" x="422.207" y="207.512"/><use xlink:href="#J" x="426.875" y="207.512"/><use xlink:href="#L" x="431.211" y="207.512"/><use xlink:href="#H" x="438.203" y="207.512"/></g><path d="M265.625 99.867v49" fill="none" stroke-width="2" stroke="#000" stroke-miterlimit="10"/><path d="M260.625 148.867l5 10 5-10zm0 0" fill-rule="evenodd" stroke-width="2" stroke="#000" stroke-miterlimit="10"/><path d="M221.379 111.105v50.852" fill="none" stroke-width="2" stroke="#000" stroke-miterlimit="10"/><path d="M226.379 111.105l-5-10-5 10zm0 0" fill-rule="evenodd" stroke-width="2" stroke="#000" stroke-miterlimit="10"/><g><use xlink:href="#y" x="271.188" y="115.75"/><use xlink:href="#A" x="279.098" y="115.75"/><use xlink:href="#M" x="286.871" y="115.75"/><use xlink:href="#N" x="291.813" y="115.75"/><use xlink:href="#O" x="303.531" y="115.75"/><use xlink:href="#P" x="310.738" y="115.75"/><use xlink:href="#Q" x="314.938" y="115.75"/><use xlink:href="#R" x="318.844" y="115.75"/><use xlink:href="#x" x="325.133" y="115.75"/></g><g><use xlink:href="#B" x="136.902" y="155.75"/><use xlink:href="#x" x="144.695" y="155.75"/><use xlink:href="#y" x="152.137" y="155.75"/><use xlink:href="#A" x="160.047" y="155.75"/><use xlink:href="#M" x="167.82" y="155.75"/><use xlink:href="#N" x="172.762" y="155.75"/><use xlink:href="#O" x="184.48" y="155.75"/><use xlink:href="#P" x="191.688" y="155.75"/><use xlink:href="#Q" x="195.887" y="155.75"/><use xlink:href="#R" x="199.793" y="155.75"/><use xlink:href="#x" x="206.082" y="155.75"/></g><path d="M380.023 100.145l-.214 188.804" fill="none" stroke-width="4" stroke="#000" stroke-miterlimit="10"/><path d="M374.809 288.945l4.988 10.004 5.012-9.992zm0 0" fill-rule="evenodd" stroke-width="4" stroke="#000" stroke-miterlimit="10"/><path d="M265.625 237.348v49" fill="none" stroke-width="2" stroke="#000" stroke-miterlimit="10"/><path d="M260.625 286.348l5 10 5-10zm0 0" fill-rule="evenodd" stroke-width="2" stroke="#000" stroke-miterlimit="10"/></svg>
