<svg xmlns="http://www.w3.org/2000/svg" xmlns:xlink="http://www.w3.org/1999/xlink" width="700" viewBox="0 0 687 273"><defs><symbol overflow="visible" id="a"><path d="M3.688-5.203L-.079-14h3l1.937 5.297.204 1.515h.093l.219-1.546L7.281-14h2.703l-3.78 8.781V0H3.687zm0 0"/></symbol><symbol overflow="visible" id="b"><path d="M.5-5c0-1.77.344-3.086 1.031-3.953.696-.875 1.664-1.313 2.907-1.313 1.332 0 2.328.446 2.984 1.329.656.874.984 2.187.984 3.937 0 1.793-.351 3.121-1.047 3.984C6.66-.16 5.688.266 4.438.266 1.813.266.5-1.488.5-5zm2.453 0c0 1 .113 1.777.344 2.328.226.543.61.813 1.14.813.508 0 .883-.235 1.125-.704.25-.476.375-1.289.375-2.437 0-1.031-.117-1.813-.343-2.344-.219-.531-.606-.797-1.157-.797-.468 0-.835.243-1.093.72-.262.468-.39 1.276-.39 2.421zm0 0"/></symbol><symbol overflow="visible" id="c"><path d="M3.156-10v5.984c0 .782.07 1.329.219 1.641.145.305.414.453.813.453.363 0 .671-.133.921-.406.258-.27.442-.598.547-.985V-10h2.39v6.953c0 .555.017 1.094.048 1.625.039.524.113.996.219 1.422H6.516l-.422-1.36h-.047C5.785-.89 5.437-.5 5-.186c-.43.3-.96.453-1.594.453-.418 0-.789-.059-1.11-.172A1.825 1.825 0 0 1 1.47-.5c-.219-.281-.39-.66-.516-1.14C.836-2.13.781-2.75.781-3.5V-10zm0 0"/></symbol><symbol overflow="visible" id="d"><path d="M5.578-7.64a2.699 2.699 0 0 0-.875-.173c-.367 0-.68.102-.937.297-.262.2-.438.477-.532.829V0H.86v-10h1.829l.265 1.203h.094c.164-.437.41-.781.734-1.031.332-.25.711-.375 1.14-.375.321 0 .634.07.938.203zm0 0"/></symbol><symbol overflow="visible" id="f"><path d="M.906-14h7v2.313H3.422v3.453h4.062v2.312H3.422v3.61h4.562V0H.906zm0 0"/></symbol><symbol overflow="visible" id="g"><path d="M5.484 0v-5.813c0-.843-.07-1.425-.203-1.75-.136-.332-.398-.5-.781-.5-.324 0-.59.106-.797.313-.2.21-.355.46-.469.75v7H.86v-10h1.844L3-8.797h.063c.25-.414.562-.758.937-1.031.383-.27.89-.406 1.516-.406.52 0 .941.117 1.265.343.332.22.594.618.782 1.188.25-.477.582-.852 1-1.125.414-.27.898-.406 1.453-.406.445 0 .828.058 1.14.171.313.106.563.297.75.579.196.28.344.668.438 1.156.094.492.14 1.105.14 1.844V0h-2.39v-6.078c0-.676-.063-1.176-.188-1.5-.117-.32-.375-.484-.781-.484-.336 0-.605.101-.813.296-.21.188-.359.45-.453.782V0zm0 0"/></symbol><symbol overflow="visible" id="h"><path d="M.875-9.406c.406-.239.906-.43 1.5-.578a8.794 8.794 0 0 1 2.047-.22c1.133 0 1.922.298 2.36.892.445.585.671 1.417.671 2.5 0 .625-.016 1.242-.047 1.843-.031.606-.058 1.2-.078 1.782-.012.585 0 1.148.031 1.687.04.531.133 1.04.282 1.516H5.703l-.39-1.22h-.079a2.74 2.74 0 0 1-.89.97c-.387.25-.875.375-1.469.375-.781 0-1.402-.258-1.86-.782C.567-1.17.345-1.879.345-2.766c0-1.195.426-2.046 1.281-2.546.852-.508 2.004-.723 3.453-.641.07-.781.024-1.344-.14-1.688-.168-.343-.528-.515-1.079-.515-.398 0-.808.047-1.234.14-.43.094-.809.227-1.14.391zm2.86 7.5c.363 0 .656-.086.874-.266a1.88 1.88 0 0 0 .516-.594v-1.656a3.802 3.802 0 0 0-.89-.016 2.23 2.23 0 0 0-.735.172c-.21.094-.383.235-.516.422-.125.18-.187.406-.187.688 0 .406.082.719.25.937.164.211.394.313.687.313zm0 0"/></symbol><symbol overflow="visible" id="i"><path d="M1.063-10h2.375V0H1.062zm.14-2.813c0-.406.125-.738.375-1 .25-.257.61-.39 1.078-.39.469 0 .844.133 1.125.39.281.25.422.586.422 1 0 .407-.14.731-.422.97-.281.241-.656.359-1.125.359s-.828-.118-1.078-.36c-.25-.25-.375-.57-.375-.969zm0 0"/></symbol><symbol overflow="visible" id="j"><path d="M3.281-3.234c0 .46.047.793.14 1 .095.199.243.296.454.296.125 0 .25-.007.375-.03.125-.032.27-.083.438-.157l.218 1.922c-.168.105-.445.203-.828.297-.387.093-.777.14-1.172.14-.668 0-1.168-.168-1.5-.5-.336-.332-.5-.894-.5-1.687V-14h2.375zm0 0"/></symbol><symbol overflow="visible" id="k"><path d="M6-3.531H2.437L1.423 0H.094L3.89-12.797h.734L8.422 0H7.016zM2.797-4.734h2.875L4.578-8.625l-.344-1.89h-.046l-.329 1.921zm0 0"/></symbol><symbol overflow="visible" id="m"><path d="M6.031-.453c-.304.23-.648.398-1.031.5-.387.113-.79.172-1.203.172-.574 0-1.059-.11-1.453-.328a2.695 2.695 0 0 1-.969-.954c-.242-.414-.418-.914-.531-1.5A9.847 9.847 0 0 1 .672-4.5c0-1.531.27-2.695.812-3.5.54-.813 1.32-1.219 2.344-1.219.469 0 .867.043 1.203.125.344.086.633.196.875.328l-.36 1.141c-.48-.281-1-.422-1.562-.422-.656 0-1.152.29-1.484.86-.324.562-.484 1.46-.484 2.687 0 .492.035.953.109 1.39.07.43.191.805.36 1.126.163.312.378.562.64.75.27.187.602.28 1 .28A2.4 2.4 0 0 0 5-1.108c.27-.114.488-.243.656-.391zm0 0"/></symbol><symbol overflow="visible" id="n"><path d="M.672-4.5c0-1.625.273-2.816.828-3.578.563-.758 1.36-1.14 2.39-1.14 1.102 0 1.915.39 2.438 1.171.52.781.781 1.965.781 3.547 0 1.637-.28 2.836-.843 3.594C5.703-.156 4.91.219 3.89.219c-1.106 0-1.918-.39-2.438-1.172C.93-1.734.672-2.914.672-4.5zm1.344 0c0 .531.03 1.016.093 1.453.07.43.18.797.329 1.11.144.312.335.558.578.734.25.168.539.25.875.25.625 0 1.093-.274 1.406-.828.312-.563.469-1.469.469-2.719 0-.52-.04-1-.11-1.438a3.673 3.673 0 0 0-.328-1.125 1.793 1.793 0 0 0-.578-.718 1.422 1.422 0 0 0-.86-.266c-.617 0-1.085.281-1.406.844-.312.562-.468 1.465-.468 2.703zm0 0"/></symbol><symbol overflow="visible" id="o"><path d="M5.672 0v-5.484c0-.907-.106-1.555-.313-1.954-.21-.406-.586-.609-1.125-.609-.48 0-.875.149-1.187.438a2.472 2.472 0 0 0-.688 1.062V0H1.063v-9H2l.234.953h.047c.227-.32.535-.598.922-.828.395-.227.863-.344 1.406-.344.383 0 .723.059 1.016.172.29.106.535.29.734.547.196.25.348.594.454 1.031.101.43.156.977.156 1.64V0zm0 0"/></symbol><symbol overflow="visible" id="p"><path d="M6.766-9v9H5.469v-7.828H2.687V0H1.391v-7.828H.28V-9h1.11v-.5c0-1.133.222-1.953.671-2.453.458-.508 1.126-.766 2-.766.594 0 1.11.059 1.547.172.438.106.79.23 1.063.375l-.406 1.078a3.42 3.42 0 0 0-.97-.36 5.714 5.714 0 0 0-1.109-.108c-.335 0-.601.058-.796.171-.2.118-.356.29-.47.516a2.425 2.425 0 0 0-.202.813c-.024.312-.031.667-.031 1.062zm0 0"/></symbol><symbol overflow="visible" id="q"><path d="M1.063-9h.921l.235.953h.047c.164-.344.382-.613.656-.812.27-.196.598-.297.984-.297.27 0 .582.054.938.156l-.25 1.313a2.75 2.75 0 0 0-.828-.157c-.387 0-.7.11-.938.328-.242.22-.398.516-.469.891V0H1.063zm0 0"/></symbol><symbol overflow="visible" id="r"><path d="M5.281 0v-5.344c0-.476-.015-.89-.047-1.234a2.42 2.42 0 0 0-.203-.828 1.046 1.046 0 0 0-.39-.485c-.168-.101-.387-.156-.657-.156a1.34 1.34 0 0 0-1.046.485 2.5 2.5 0 0 0-.579 1.078V0H1.063v-9h.921l.235.953h.047c.25-.344.546-.625.89-.844.352-.218.801-.328 1.344-.328.457 0 .832.102 1.125.297.29.2.52.555.688 1.063.218-.426.523-.758.921-1 .407-.239.848-.36 1.329-.36a3 3 0 0 1 1.015.156c.29.106.52.29.688.547.175.25.304.59.39 1.016.082.43.125.965.125 1.61V0H9.484v-5.719c0-.781-.078-1.363-.234-1.75-.148-.383-.492-.578-1.031-.578-.45 0-.809.14-1.078.422-.274.281-.465.664-.579 1.14V0zm0 0"/></symbol><symbol overflow="visible" id="s"><path d="M.969-8.453c.351-.219.773-.383 1.265-.5a6.47 6.47 0 0 1 1.579-.188c.507 0 .914.079 1.218.235.301.148.54.351.719.61.176.25.29.542.344.874.05.324.078.668.078 1.031 0 .72-.016 1.422-.047 2.11-.031.68-.047 1.324-.047 1.937 0 .461.016.887.047 1.281.031.387.086.75.172 1.094h-.984L5-1.03h-.063a2.544 2.544 0 0 1-.796.812c-.344.227-.813.344-1.407.344-.648 0-1.18-.223-1.593-.672C.723-.992.516-1.613.516-2.407c0-.519.086-.952.265-1.296a2.17 2.17 0 0 1 .735-.844A3.04 3.04 0 0 1 2.656-5c.438-.094.926-.14 1.469-.14h.344c.125 0 .254.007.39.015.032-.375.047-.707.047-1 0-.676-.105-1.148-.312-1.422-.2-.281-.57-.422-1.11-.422-.336 0-.699.055-1.093.157a3.41 3.41 0 0 0-.985.375zM4.875-4.11a5.296 5.296 0 0 0-.36-.016c-.117-.008-.234-.016-.359-.016-.293 0-.578.028-.86.079a2.122 2.122 0 0 0-.733.25c-.211.117-.376.277-.5.484-.126.2-.188.453-.188.765 0 .481.113.856.344 1.126.238.261.539.39.906.39.508 0 .898-.117 1.172-.36.281-.238.473-.503.578-.796zm0 0"/></symbol><symbol overflow="visible" id="t"><path d="M.156-9h1.11v-1.781l1.296-.422V-9H4.5v1.172H2.562v5.36c0 .53.063.917.188 1.155.125.231.328.344.61.344.238 0 .445-.023.624-.078.176-.062.364-.133.563-.219l.266 1.032c-.274.136-.57.238-.891.312-.313.082-.64.125-.985.125-.605 0-1.039-.195-1.296-.578-.25-.395-.375-1.031-.375-1.906v-5.547H.156zm0 0"/></symbol><symbol overflow="visible" id="u"><path d="M1.281-9h1.297v9H1.281zm-.234-2.734c0-.29.078-.524.234-.704a.84.84 0 0 1 .64-.265c.27 0 .49.09.657.265.176.168.266.403.266.704 0 .293-.09.523-.266.687-.168.156-.387.235-.656.235a.856.856 0 0 1-.64-.25c-.157-.176-.235-.399-.235-.672zm0 0"/></symbol><symbol overflow="visible" id="v"><path d="M6.438-.61c-.282.262-.649.465-1.094.61a4.456 4.456 0 0 1-1.407.219c-.562 0-1.054-.11-1.468-.328a2.921 2.921 0 0 1-1.016-.954C1.18-1.476.984-1.973.86-2.546A9.338 9.338 0 0 1 .672-4.5c0-1.531.281-2.695.844-3.5.562-.813 1.359-1.219 2.39-1.219.332 0 .664.043 1 .125.332.086.63.258.89.516.259.25.47.605.626 1.062.164.45.25 1.043.25 1.782 0 .199-.012.418-.031.656-.012.23-.028.469-.047.719H2.016c0 .523.039.992.125 1.406.082.418.21.777.39 1.078.188.293.422.523.703.688.282.156.63.234 1.047.234.32 0 .64-.055.953-.172.32-.125.567-.27.735-.438zm-1-4.827c.019-.895-.11-1.551-.391-1.97-.274-.425-.649-.64-1.125-.64-.555 0-.992.215-1.313.64-.324.419-.515 1.075-.578 1.97zm0 0"/></symbol><symbol overflow="visible" id="w"><path d="M.922-1.469c.238.137.52.258.844.36.332.105.675.156 1.03.156.395 0 .727-.098 1-.297.282-.195.423-.52.423-.969 0-.363-.09-.664-.266-.906a2.769 2.769 0 0 0-.64-.64 5.361 5.361 0 0 0-.829-.532 4.38 4.38 0 0 1-.843-.594A3.22 3.22 0 0 1 1-5.703C.832-6.016.75-6.41.75-6.891c0-.77.207-1.347.625-1.734.414-.395 1-.594 1.75-.594.5 0 .926.047 1.281.14.364.087.676.204.938.36L5-7.625a3.35 3.35 0 0 0-.797-.297 3.34 3.34 0 0 0-.906-.125c-.438 0-.758.094-.953.281-.2.18-.297.454-.297.829 0 .304.082.562.25.78.176.212.39.403.64.579.258.168.54.344.844.531.301.18.578.39.828.64.258.243.473.532.641.876.176.336.266.761.266 1.281 0 .336-.059.652-.172.953a1.961 1.961 0 0 1-.5.781 2.439 2.439 0 0 1-.828.532c-.325.132-.711.203-1.157.203-.53 0-.992-.055-1.375-.157a3.615 3.615 0 0 1-.968-.406zm0 0"/></symbol><symbol overflow="visible" id="x"><path d="M6.734.406c0 1.164-.261 2.024-.78 2.578-.513.551-1.263.829-2.25.829-.595 0-1.087-.055-1.47-.157a3.77 3.77 0 0 1-.937-.344l.375-1.109c.238.102.5.203.781.297.29.094.649.14 1.078.14.727 0 1.227-.203 1.5-.609.27-.406.407-1.09.407-2.047v-.671h-.063c-.188.28-.434.5-.734.656-.305.156-.688.234-1.157.234-.968 0-1.683-.375-2.14-1.125-.45-.75-.672-1.93-.672-3.547 0-1.539.297-2.707.89-3.5.594-.789 1.47-1.187 2.625-1.187.57 0 1.063.054 1.47.156.405.105.765.23 1.077.375zm-1.296-8.11c-.368-.187-.829-.28-1.391-.28-.617 0-1.11.28-1.484.843-.368.555-.547 1.438-.547 2.657 0 .511.03.98.093 1.406.063.418.16.789.297 1.11a2 2 0 0 0 .547.734c.227.18.504.265.828.265.457 0 .817-.117 1.078-.36.258-.237.454-.597.579-1.077zm0 0"/></symbol><symbol overflow="visible" id="y"><path d="M5.875-9l1.594 5.25.328 1.734h.031l.266-1.765L9.328-9h1.219L8.157.203h-.735L5.594-5.703l-.25-1.516h-.032l-.25 1.532L3.298.202h-.735L.095-9h1.375l1.39 5.234.22 1.75h.03l.329-1.78L4.905-9zm0 0"/></symbol><symbol overflow="visible" id="z"><path d="M2.453-2.14c0 .417.055.718.172.906.113.18.27.265.469.265.25 0 .547-.066.89-.203L4.11-.125a2.248 2.248 0 0 1-.656.234c-.281.063-.539.094-.765.094-.461 0-.829-.14-1.11-.422-.281-.281-.422-.773-.422-1.484v-10.89h1.297zm0 0"/></symbol><symbol overflow="visible" id="A"><path d="M1.063-12.594h1.296v4.281h.047c.5-.601 1.156-.906 1.969-.906.926 0 1.617.371 2.078 1.11.457.73.688 1.886.688 3.468 0 1.618-.309 2.82-.922 3.61C5.602-.238 4.727.156 3.594.156A5.73 5.73 0 0 1 2.078-.03c-.45-.125-.789-.27-1.015-.438zM2.359-1.313c.164.094.368.168.61.22.25.054.515.077.797.077.625 0 1.117-.296 1.484-.89.363-.594.547-1.504.547-2.735a8.2 8.2 0 0 0-.11-1.39 4.309 4.309 0 0 0-.296-1.078c-.137-.301-.32-.532-.547-.688a1.293 1.293 0 0 0-.797-.25c-.43 0-.781.133-1.063.39-.28.262-.492.61-.625 1.048zm0 0"/></symbol><symbol overflow="visible" id="B"><path d="M5.672 0v-5.469c0-.843-.102-1.484-.297-1.922-.2-.437-.594-.656-1.188-.656-.417 0-.796.152-1.14.453-.344.305-.574.68-.688 1.125V0H1.063v-12.594h1.296v4.438h.047c.239-.313.535-.567.89-.766.352-.195.798-.297 1.329-.297.395 0 .738.059 1.031.172.301.106.547.293.735.563.187.261.328.609.421 1.046.102.438.157.981.157 1.625V0zm0 0"/></symbol><symbol overflow="visible" id="C"><path d="M6.734-3.094c0 .617.004 1.172.016 1.672.008.492.05.977.125 1.453H6l-.297-1.078h-.062c-.18.367-.45.668-.813.906-.355.239-.781.36-1.281.36-.969 0-1.695-.375-2.172-1.125C.906-1.664.672-2.86.672-4.484c0-1.532.285-2.692.86-3.485.581-.789 1.382-1.187 2.405-1.187.352 0 .63.023.829.062.207.043.43.11.671.203v-3.703h1.297zM5.438-7.578a1.513 1.513 0 0 0-.579-.313c-.21-.062-.484-.093-.828-.093-.636 0-1.133.289-1.484.859-.356.574-.531 1.46-.531 2.656 0 .532.03 1.012.093 1.438.07.43.176.797.313 1.11.133.312.312.554.531.718.227.168.504.25.828.25.864 0 1.414-.508 1.656-1.531zm0 0"/></symbol><symbol overflow="visible" id="D"><path d="M1.156-12.469c.383-.113.79-.187 1.219-.219.438-.039.863-.062 1.281-.062.477 0 .953.059 1.422.172a3.2 3.2 0 0 1 1.266.594c.375.28.676.68.906 1.187.238.5.36 1.14.36 1.922 0 .762-.11 1.406-.329 1.938-.218.523-.515.949-.89 1.28-.368.325-.79.563-1.266.72a4.782 4.782 0 0 1-1.453.218H3.094a9.356 9.356 0 0 1-.344-.031c-.117-.008-.2-.02-.25-.031V0H1.156zm2.563.969c-.242 0-.469.012-.688.031-.219.012-.398.04-.531.078v5.36a.68.68 0 0 0 .219.047c.101.011.207.023.312.03h.548c.343 0 .663-.038.968-.124.312-.082.586-.234.828-.453.238-.227.43-.532.578-.907.156-.382.234-.863.234-1.437 0-.5-.07-.914-.203-1.25a2.083 2.083 0 0 0-.546-.813 1.861 1.861 0 0 0-.782-.437 3.463 3.463 0 0 0-.937-.125zm0 0"/></symbol><symbol overflow="visible" id="E"><path d="M3.234-3.719l.36 1.781h.047l.312-1.828L5.547-9h1.36L3.827.203h-.625L.078-9h1.469zm0 0"/></symbol><symbol overflow="visible" id="F"><path d="M.281-9h1.11v-.5c0-1.133.16-1.953.484-2.453.32-.5.875-.75 1.656-.75.313 0 .594.023.844.062.25.032.504.106.766.22l-.313 1.124a2.074 2.074 0 0 0-.61-.187 3.263 3.263 0 0 0-.53-.047c-.243 0-.43.047-.563.14-.125.094-.227.246-.297.454-.062.199-.105.46-.125.78-.012.313-.015.7-.015 1.157h1.859v1.172h-1.86V0H1.391v-7.828H.28zm0 0"/></symbol><symbol overflow="visible" id="G"><path d="M0 2.516h6.016v1.171H0zm0 0"/></symbol><symbol overflow="visible" id="H"><path d="M3.297 3.953a8.849 8.849 0 0 1-1.156-1.89 14.597 14.597 0 0 1-.75-2.126A15.823 15.823 0 0 1 .984-2.25a17.766 17.766 0 0 1 0-4.203c.082-.738.22-1.477.407-2.219.195-.738.453-1.457.765-2.156.32-.707.711-1.367 1.172-1.985l.813.485a10.49 10.49 0 0 0-.954 1.937 15.73 15.73 0 0 0-.609 2.032 19.04 19.04 0 0 0-.328 2.046c-.063.68-.094 1.325-.094 1.938 0 .574.035 1.21.11 1.906.07.688.187 1.383.343 2.078.164.688.375 1.36.625 2.016.258.664.563 1.266.907 1.797zm0 0"/></symbol><symbol overflow="visible" id="I"><path d="M.86 3.422a8.992 8.992 0 0 0 .906-1.797c.25-.656.453-1.328.609-2.016.164-.695.285-1.39.36-2.078.07-.695.109-1.332.109-1.906 0-.613-.04-1.258-.11-1.938a18.03 18.03 0 0 0-.312-2.046 13.602 13.602 0 0 0-.61-2.032 12.212 12.212 0 0 0-.953-1.937l.813-.485c.457.618.844 1.278 1.156 1.985.32.7.578 1.418.766 2.156.195.742.336 1.48.422 2.219.082.73.125 1.422.125 2.078 0 .68-.043 1.387-.125 2.125-.086.73-.227 1.46-.422 2.188a12.958 12.958 0 0 1-.75 2.124 9.467 9.467 0 0 1-1.14 1.891zm0 0"/></symbol><symbol overflow="visible" id="J"><path d="M1.063-9h.921l.188.969h.078c.445-.79 1.145-1.188 2.094-1.188.945 0 1.656.356 2.125 1.063.476.71.718 1.867.718 3.469 0 .761-.078 1.445-.234 2.046a4.926 4.926 0 0 1-.672 1.547c-.293.43-.648.758-1.062.985a2.82 2.82 0 0 1-1.36.328 4.71 4.71 0 0 1-.843-.063 2.434 2.434 0 0 1-.657-.265v3.703H1.063zm1.296 7.578c.164.149.352.262.563.344.207.086.488.125.844.125.632 0 1.132-.32 1.5-.969.375-.644.562-1.57.562-2.781 0-.5-.031-.953-.094-1.36a3.593 3.593 0 0 0-.312-1.046c-.149-.301-.336-.532-.563-.688a1.323 1.323 0 0 0-.812-.25c-.875 0-1.438.54-1.688 1.61zm0 0"/></symbol><symbol overflow="visible" id="K"><path d="M.547-8.406h4.187v1.39H2.047v2.079h2.437v1.39H2.047v2.156H4.78V0H.547zm0 0"/></symbol><symbol overflow="visible" id="L"><path d="M.547-8.313c.32-.07.672-.124 1.047-.156.375-.031.695-.047.968-.047.344 0 .676.04 1 .11.333.062.626.183.876.36.257.179.468.421.625.733.156.305.234.696.234 1.172 0 .68-.133 1.23-.39 1.657-.25.43-.595.726-1.032.89l.484.375L5.906 0h-1.75L2.703-3.313l-.656-.156V0h-1.5zm1.5 3.813h.515c.376 0 .657-.113.844-.344.196-.226.297-.582.297-1.062 0-.352-.078-.645-.234-.875-.156-.227-.406-.344-.75-.344-.137 0-.266.008-.39.016a.702.702 0 0 0-.282.046zm0 0"/></symbol><symbol overflow="visible" id="M"><path d="M.344-4.203c0-1.426.242-2.508.734-3.25.488-.738 1.234-1.11 2.234-1.11.52 0 .97.106 1.344.313.375.2.68.492.922.875.238.375.414.836.531 1.375.114.531.172 1.133.172 1.797 0 1.43-.25 2.516-.75 3.266C5.031-.196 4.29.171 3.313.171c-.532 0-.985-.102-1.36-.297A2.553 2.553 0 0 1 1.047-1C.805-1.383.629-1.848.516-2.39a8.58 8.58 0 0 1-.172-1.813zm1.594 0c0 .43.019.824.062 1.187.05.368.129.68.234.938.114.262.254.469.422.625a.952.952 0 0 0 .656.234c.47 0 .817-.234 1.047-.703.227-.476.344-1.238.344-2.281 0-.406-.027-.79-.078-1.156a3.357 3.357 0 0 0-.234-.938 1.639 1.639 0 0 0-.422-.64.965.965 0 0 0-.656-.235c-.918 0-1.376.992-1.376 2.969zm0 0"/></symbol></defs><path fill="#fff" d="M0 0h687v273H0z"/><path d="M1 1h685.297v271.727H1zm0 0" fill-rule="evenodd" fill="#fff" stroke-width="2" stroke="#fff" stroke-miterlimit="10"/><path d="M145.887 70.047h399.972M145.887 249.621h399.972M145.887 70.047h0a6 6 0 0 0-6 6M551.86 76.047h0c0-3.313-2.688-6-6-6M139.887 76.047V243.62M551.86 76.047V243.62M139.887 243.621h0c0 3.317 2.683 6 6 6M545.86 249.621h0c3.312 0 6-2.683 6-6" fill="none" stroke-width="2" stroke="#b3b3b3" stroke-miterlimit="10"/><path d="M254.758 45.777v60" fill="none" stroke-width="2" stroke="#000" stroke-miterlimit="10"/><path d="M254.758 105.777c-2.5 0-5-2.5-5-5s2.5-5 5-5 5 2.5 5 5-2.5 5-5 5" fill-rule="evenodd" stroke-width="2" stroke="#000" stroke-miterlimit="10"/><path d="M166.215 87.563h76.648v26.25h-76.648zm0 0" fill-rule="evenodd" fill="#fff"/><use xlink:href="#a" x="166.215" y="108.211"/><use xlink:href="#b" x="174.32" y="108.211"/><use xlink:href="#c" x="183.227" y="108.211"/><use xlink:href="#d" x="192.152" y="108.211"/><use xlink:href="#e" x="198.012" y="108.211"/><use xlink:href="#f" x="202.113" y="108.211"/><use xlink:href="#g" x="210.707" y="108.211"/><use xlink:href="#h" x="223.969" y="108.211"/><use xlink:href="#i" x="232.23" y="108.211"/><use xlink:href="#j" x="236.723" y="108.211"/><path d="M172.215 153.281h348v40h-348zm0 0M172.215 159.281v-6c-3.317 0-6 2.688-6 6zm0 0M520.215 159.281h6c0-3.312-2.688-6-6-6zm0 0" fill-rule="evenodd" fill="#f2f2f2"/><path d="M166.215 159.281h360v28h-360zm0 0M172.215 187.281h-6c0 3.313 2.683 6 6 6zm0 0M520.215 187.281v6c3.312 0 6-2.687 6-6zm0 0" fill-rule="evenodd" fill="#f2f2f2"/><path d="M172.215 153.281h348M172.215 193.281h348M172.215 153.281h0a6 6 0 0 0-6 6M526.215 159.281h0c0-3.312-2.688-6-6-6M166.215 159.281v28M526.215 159.281v28M166.215 187.281h0a6 6 0 0 0 6 6M520.215 193.281h0c3.312 0 6-2.687 6-6" fill="none" stroke-width="2" stroke="#4d4d4d" stroke-miterlimit="10"/><path d="M166.215 202.883h318.351v23.398H166.215zm0 0" fill-rule="evenodd" fill="#fff"/><g fill="#4d4d4d"><use xlink:href="#k" x="166.215" y="221.281"/><use xlink:href="#l" x="174.164" y="221.281"/><use xlink:href="#m" x="177.973" y="221.281"/><use xlink:href="#n" x="184.086" y="221.281"/><use xlink:href="#o" x="191.859" y="221.281"/><use xlink:href="#p" x="199.77" y="221.281"/><use xlink:href="#q" x="207.641" y="221.281"/><use xlink:href="#r" x="212.582" y="221.281"/><use xlink:href="#s" x="224.301" y="221.281"/><use xlink:href="#t" x="231.508" y="221.281"/><use xlink:href="#u" x="236.449" y="221.281"/><use xlink:href="#n" x="240.355" y="221.281"/><use xlink:href="#o" x="248.129" y="221.281"/><use xlink:href="#l" x="256.039" y="221.281"/><use xlink:href="#r" x="259.848" y="221.281"/><use xlink:href="#v" x="271.566" y="221.281"/><use xlink:href="#w" x="279.008" y="221.281"/><use xlink:href="#w" x="285.082" y="221.281"/><use xlink:href="#s" x="291.156" y="221.281"/><use xlink:href="#x" x="298.363" y="221.281"/><use xlink:href="#v" x="306.137" y="221.281"/><use xlink:href="#l" x="313.578" y="221.281"/><use xlink:href="#y" x="317.387" y="221.281"/><use xlink:href="#u" x="328.012" y="221.281"/><use xlink:href="#z" x="331.918" y="221.281"/><use xlink:href="#z" x="336.117" y="221.281"/><use xlink:href="#l" x="340.316" y="221.281"/><use xlink:href="#A" x="344.125" y="221.281"/><use xlink:href="#v" x="351.938" y="221.281"/><use xlink:href="#l" x="359.379" y="221.281"/><use xlink:href="#w" x="363.188" y="221.281"/><use xlink:href="#v" x="369.262" y="221.281"/><use xlink:href="#o" x="376.703" y="221.281"/><use xlink:href="#t" x="384.613" y="221.281"/><use xlink:href="#l" x="389.555" y="221.281"/><use xlink:href="#t" x="393.363" y="221.281"/><use xlink:href="#n" x="398.188" y="221.281"/><use xlink:href="#l" x="405.961" y="221.281"/><use xlink:href="#t" x="409.77" y="221.281"/><use xlink:href="#B" x="414.711" y="221.281"/><use xlink:href="#u" x="422.641" y="221.281"/><use xlink:href="#w" x="426.547" y="221.281"/><use xlink:href="#l" x="432.621" y="221.281"/><use xlink:href="#s" x="436.43" y="221.281"/><use xlink:href="#C" x="443.637" y="221.281"/><use xlink:href="#C" x="451.43" y="221.281"/><use xlink:href="#q" x="459.223" y="221.281"/><use xlink:href="#v" x="464.164" y="221.281"/><use xlink:href="#w" x="471.605" y="221.281"/><use xlink:href="#w" x="477.68" y="221.281"/></g><path d="M211.113 118.934h180.852v23.398H211.113zm0 0" fill-rule="evenodd" fill="#fff"/><g fill="#c63940"><use xlink:href="#D" x="211.113" y="137.332"/><use xlink:href="#q" x="218.77" y="137.332"/><use xlink:href="#n" x="223.711" y="137.332"/><use xlink:href="#E" x="231.328" y="137.332"/><use xlink:href="#u" x="238.32" y="137.332"/><use xlink:href="#C" x="242.227" y="137.332"/><use xlink:href="#v" x="250.02" y="137.332"/><use xlink:href="#l" x="257.461" y="137.332"/><use xlink:href="#s" x="261.27" y="137.332"/><use xlink:href="#l" x="268.477" y="137.332"/><use xlink:href="#E" x="272.207" y="137.332"/><use xlink:href="#s" x="279.199" y="137.332"/><use xlink:href="#z" x="286.406" y="137.332"/><use xlink:href="#u" x="290.605" y="137.332"/><use xlink:href="#C" x="294.512" y="137.332"/><use xlink:href="#l" x="302.305" y="137.332"/><use xlink:href="#v" x="306.113" y="137.332"/><use xlink:href="#r" x="313.555" y="137.332"/><use xlink:href="#s" x="325.273" y="137.332"/><use xlink:href="#u" x="332.48" y="137.332"/><use xlink:href="#z" x="336.387" y="137.332"/><use xlink:href="#l" x="340.586" y="137.332"/><use xlink:href="#s" x="344.395" y="137.332"/><use xlink:href="#C" x="351.602" y="137.332"/><use xlink:href="#C" x="359.395" y="137.332"/><use xlink:href="#q" x="367.188" y="137.332"/><use xlink:href="#v" x="372.129" y="137.332"/><use xlink:href="#w" x="379.57" y="137.332"/><use xlink:href="#w" x="385.645" y="137.332"/></g><path d="M247.066 23.102h74.352V46.5h-74.352zm0 0" fill-rule="evenodd" fill="#fff"/><use xlink:href="#F" x="247.066" y="41.504"/><use xlink:href="#n" x="251.578" y="41.504"/><use xlink:href="#q" x="259.352" y="41.504"/><use xlink:href="#r" x="264.293" y="41.504"/><use xlink:href="#G" x="276.012" y="41.504"/><use xlink:href="#z" x="282.027" y="41.504"/><use xlink:href="#s" x="286.227" y="41.504"/><use xlink:href="#A" x="293.434" y="41.504"/><use xlink:href="#v" x="301.246" y="41.504"/><use xlink:href="#z" x="308.688" y="41.504"/><use xlink:href="#H" x="312.887" y="41.504"/><use xlink:href="#I" x="317.086" y="41.504"/><path d="M112.656 129.531l45.867-.316" fill="none" stroke-width="2" stroke="#000" stroke-miterlimit="10"/><path d="M158.523 129.215c.016 2.5-2.464 5.015-4.964 5.035-2.5.016-5.02-2.465-5.036-4.965-.02-2.5 2.465-5.02 4.965-5.035 2.5-.02 5.016 2.465 5.035 4.965" fill-rule="evenodd" stroke-width="2" stroke="#000" stroke-miterlimit="10"/><path d="M27.496 116.695h79.649v23.399H27.496zm0 0" fill-rule="evenodd" fill="#fff"/><g><use xlink:href="#F" x="27.496" y="135.094"/><use xlink:href="#n" x="32.008" y="135.094"/><use xlink:href="#q" x="39.781" y="135.094"/><use xlink:href="#r" x="44.723" y="135.094"/><use xlink:href="#G" x="56.441" y="135.094"/><use xlink:href="#v" x="62.457" y="135.094"/><use xlink:href="#q" x="69.898" y="135.094"/><use xlink:href="#q" x="74.84" y="135.094"/><use xlink:href="#n" x="79.781" y="135.094"/><use xlink:href="#q" x="87.555" y="135.094"/><use xlink:href="#w" x="92.496" y="135.094"/><use xlink:href="#H" x="98.57" y="135.094"/><use xlink:href="#I" x="102.77" y="135.094"/></g><path d="M593.559 113.191l-47.184-.23" fill="none" stroke-width="2" stroke="#000" stroke-miterlimit="10"/><path d="M546.375 112.96c.012-2.5 2.523-4.987 5.023-4.976 2.5.012 4.989 2.524 4.977 5.024-.012 2.5-2.527 4.988-5.027 4.976-2.5-.011-4.985-2.523-4.973-5.023" fill-rule="evenodd" stroke-width="2" stroke="#000" stroke-miterlimit="10"/><path d="M598.258 101.285h66.699v23.399h-66.7zm0 0" fill-rule="evenodd" fill="#fff"/><g><use xlink:href="#F" x="598.258" y="119.684"/><use xlink:href="#n" x="602.77" y="119.684"/><use xlink:href="#q" x="610.543" y="119.684"/><use xlink:href="#r" x="615.484" y="119.684"/><use xlink:href="#G" x="627.203" y="119.684"/><use xlink:href="#q" x="633.219" y="119.684"/><use xlink:href="#n" x="638.16" y="119.684"/><use xlink:href="#y" x="645.797" y="119.684"/><use xlink:href="#H" x="656.422" y="119.684"/><use xlink:href="#I" x="660.621" y="119.684"/></g><path d="M566.387 174.242l-69.254-.082" fill="none" stroke-width="2" stroke="#000" stroke-miterlimit="10"/><path d="M497.133 174.16c.004-2.5 2.508-5 5.008-4.996 2.5.004 4.996 2.508 4.992 5.008 0 2.5-2.504 4.996-5.004 4.992-2.5-.004-4.996-2.504-4.996-5.004" fill-rule="evenodd" stroke-width="2" stroke="#000" stroke-miterlimit="10"/><path d="M570.383 162.465h86v23.398h-86zm0 0" fill-rule="evenodd" fill="#fff"/><g><use xlink:href="#F" x="570.383" y="180.863"/><use xlink:href="#n" x="574.895" y="180.863"/><use xlink:href="#q" x="582.668" y="180.863"/><use xlink:href="#r" x="587.609" y="180.863"/><use xlink:href="#G" x="599.328" y="180.863"/><use xlink:href="#y" x="605.344" y="180.863"/><use xlink:href="#u" x="615.969" y="180.863"/><use xlink:href="#C" x="619.875" y="180.863"/><use xlink:href="#x" x="627.668" y="180.863"/><use xlink:href="#v" x="635.441" y="180.863"/><use xlink:href="#t" x="642.883" y="180.863"/><use xlink:href="#H" x="647.824" y="180.863"/><use xlink:href="#I" x="652.023" y="180.863"/></g><path d="M98.918 215.18h60" fill="none" stroke-width="2" stroke="#000" stroke-miterlimit="10"/><path d="M158.918 215.18c0 2.5-2.5 5-5 5s-5-2.5-5-5 2.5-5 5-5 5 2.5 5 5" fill-rule="evenodd" stroke-width="2" stroke="#000" stroke-miterlimit="10"/><path d="M22.336 202.625h70.898v23.398H22.336zm0 0" fill-rule="evenodd" fill="#fff"/><g><use xlink:href="#F" x="22.336" y="221.027"/><use xlink:href="#n" x="26.848" y="221.027"/><use xlink:href="#q" x="34.621" y="221.027"/><use xlink:href="#r" x="39.563" y="221.027"/><use xlink:href="#G" x="51.281" y="221.027"/><use xlink:href="#B" x="57.297" y="221.027"/><use xlink:href="#v" x="65.227" y="221.027"/><use xlink:href="#z" x="72.668" y="221.027"/><use xlink:href="#J" x="76.867" y="221.027"/><use xlink:href="#H" x="84.699" y="221.027"/><use xlink:href="#I" x="88.898" y="221.027"/></g><path d="M171.852 121.867h28.593c2.211 0 4 1.79 4 4v9.547a4 4 0 0 1-4 4h-28.593c-2.207 0-4-1.793-4-4v-9.547a4 4 0 0 1 4-4" fill-rule="evenodd" fill="#c63940" stroke-width="1" stroke-linejoin="round" stroke="#c63940" stroke-miterlimit="10"/><g fill="#fff"><use xlink:href="#K" x="171.602" y="135.215"/><use xlink:href="#L" x="176.758" y="135.215"/><use xlink:href="#L" x="182.793" y="135.215"/><use xlink:href="#M" x="188.535" y="135.215"/><use xlink:href="#L" x="195.176" y="135.215"/></g></svg>
