<svg xmlns="http://www.w3.org/2000/svg" xmlns:xlink="http://www.w3.org/1999/xlink" width="650" viewBox="0 0 722 512"><defs><symbol overflow="visible" id="a"><path style="stroke:none" d="M6.563-3.156H3.265L2.437 0h-2.5L4-14.094h1.984L10.063 0H7.421zM3.796-5.234h2.328L5.312-8.5 5-10.703h-.078l-.344 2.219zm0 0"/></symbol><symbol overflow="visible" id="b"><path style="stroke:none" d="M8.047-3.516c0 .555.004 1.11.015 1.672.008.563.063 1.184.157 1.86H6.547l-.328-1.157H6.14C5.68-.203 4.89.266 3.766.266 2.742.266 1.94-.133 1.359-.938.785-1.738.5-3.038.5-4.844c0-1.758.313-3.093.938-4 .625-.914 1.554-1.375 2.796-1.375.32 0 .586.024.797.063.219.043.426.11.625.203V-14h2.39zM4.312-1.922c.364 0 .649-.086.86-.266.219-.175.379-.44.484-.796v-4.72a1.396 1.396 0 0 0-.453-.25 1.865 1.865 0 0 0-.64-.093c-.532 0-.934.246-1.204.735-.273.48-.406 1.328-.406 2.546 0 .93.11 1.637.328 2.125.227.48.57.72 1.031.72zm0 0"/></symbol><symbol overflow="visible" id="c"><path style="stroke:none" d="M5.578-7.64a2.699 2.699 0 0 0-.875-.173c-.367 0-.68.102-.937.297-.262.2-.438.477-.532.829V0H.86v-10h1.829l.265 1.203h.094c.164-.437.41-.781.734-1.031.332-.25.711-.375 1.14-.375.321 0 .634.07.938.203zm0 0"/></symbol><symbol overflow="visible" id="d"><path style="stroke:none" d="M7.625-.734c-.336.293-.79.53-1.36.718a5.808 5.808 0 0 1-1.812.282c-.687 0-1.281-.121-1.781-.36a3.164 3.164 0 0 1-1.235-1.031C1.113-1.582.875-2.133.72-2.781.57-3.437.5-4.176.5-5c0-1.8.352-3.129 1.063-3.984.718-.864 1.71-1.297 2.984-1.297.426 0 .836.062 1.234.187.395.125.75.34 1.063.64.312.306.566.704.765 1.204.196.5.297 1.133.297 1.89 0 .294-.023.606-.062.938-.032.336-.078.695-.14 1.078h-4.86c.02.836.191 1.469.515 1.907.32.437.836.656 1.547.656a3.11 3.11 0 0 0 1.157-.203c.351-.133.625-.274.812-.422zM4.5-8.234c-.512 0-.89.203-1.14.609-.25.406-.4.977-.438 1.703h2.765c.032-.758-.054-1.332-.25-1.719-.199-.394-.511-.593-.937-.593zm0 0"/></symbol><symbol overflow="visible" id="e"><path style="stroke:none" d="M4.219-2.656a.99.99 0 0 0-.266-.703 3.047 3.047 0 0 0-.687-.547l-.891-.516a5.125 5.125 0 0 1-.89-.64A3.187 3.187 0 0 1 .78-5.97c-.18-.363-.265-.82-.265-1.375 0-.926.254-1.644.765-2.156.508-.508 1.254-.766 2.235-.766.593 0 1.144.07 1.656.204.52.124.937.28 1.25.468l-.563 1.828a7.374 7.374 0 0 0-.921-.296 3.866 3.866 0 0 0-1.063-.157c-.648 0-.969.274-.969.813 0 .261.086.476.266.64.176.168.406.329.687.485.282.156.579.324.891.5.313.18.61.398.89.656.282.262.508.578.688.953.176.367.266.824.266 1.375 0 .918-.282 1.656-.844 2.219-.555.562-1.383.844-2.484.844-.555 0-1.094-.07-1.625-.204C1.117-.07.695-.241.375-.453l.672-1.922c.27.156.586.297.953.422.375.117.758.172 1.156.172.313 0 .567-.067.766-.203.195-.145.297-.368.297-.672zm0 0"/></symbol><symbol overflow="visible" id="g"><path style="stroke:none" d="M3.281-3.234c0 .46.047.793.14 1 .095.199.243.296.454.296.125 0 .25-.007.375-.03.125-.032.27-.083.438-.157l.218 1.922c-.168.105-.445.203-.828.297-.387.093-.777.14-1.172.14-.668 0-1.168-.168-1.5-.5-.336-.332-.5-.894-.5-1.687V-14h2.375zm0 0"/></symbol><symbol overflow="visible" id="h"><path style="stroke:none" d="M1.063-10h2.375V0H1.062zm.14-2.813c0-.406.125-.738.375-1 .25-.257.61-.39 1.078-.39.469 0 .844.133 1.125.39.281.25.422.586.422 1 0 .407-.14.731-.422.97-.281.241-.656.359-1.125.359s-.828-.118-1.078-.36c-.25-.25-.375-.57-.375-.969zm0 0"/></symbol><symbol overflow="visible" id="i"><path style="stroke:none" d="M5.813 0v-6.078c0-.738-.09-1.254-.266-1.547-.168-.29-.453-.438-.86-.438-.355 0-.656.11-.906.329-.25.21-.433.476-.547.796V0H.86v-10h1.907l.28 1.156h.048c.238-.383.566-.71.984-.984.414-.27.957-.406 1.625-.406.395 0 .75.062 1.063.187.312.117.57.309.78.578.22.274.38.637.485 1.094.114.46.172 1.031.172 1.719V0zm0 0"/></symbol><symbol overflow="visible" id="j"><path style="stroke:none" d="M1.734-2.125h2.282v-7.86l.265-1.359-.828 1.188-1.312 1.015-1.094-1.343 3.86-3.75h1.39v12.109h2.25V0H1.734zm0 0"/></symbol><symbol overflow="visible" id="E"><path style="stroke:none" d="M8.047-10.64a7.8 7.8 0 0 1-.313 2.14c-.199.719-.453 1.43-.765 2.125a20.678 20.678 0 0 1-1.032 1.984c-.375.625-.742 1.18-1.093 1.657l-.89.812v.11l1.202-.313h3.11V0H1.234v-1.375c.282-.352.582-.75.907-1.188.332-.445.66-.921.984-1.421.332-.5.648-1.02.953-1.563.313-.539.582-1.082.813-1.625.226-.539.41-1.07.546-1.594.145-.52.22-1.004.22-1.453 0-.562-.137-1.015-.407-1.36-.262-.343-.672-.515-1.234-.515a2.57 2.57 0 0 0-1.047.235 3.09 3.09 0 0 0-.875.546l-.89-1.75a4.943 4.943 0 0 1 1.468-.89c.562-.219 1.223-.328 1.984-.328.477 0 .926.078 1.344.234.414.156.77.387 1.063.688.3.304.539.683.718 1.14.176.45.266.977.266 1.578zm0 0"/></symbol><symbol overflow="visible" id="L"><path style="stroke:none" d="M8.844-.563c-.356.293-.824.508-1.406.641a7.62 7.62 0 0 1-1.72.203c-.718 0-1.39-.12-2.015-.36-.617-.25-1.156-.66-1.625-1.234-.469-.582-.84-1.335-1.11-2.265-.261-.938-.39-2.082-.39-3.438 0-1.414.149-2.586.453-3.515.301-.938.692-1.68 1.172-2.235.488-.55 1.047-.941 1.672-1.171a5.549 5.549 0 0 1 1.906-.344c.657 0 1.223.058 1.703.172.489.105.891.218 1.204.343l-.5 2.22a4.112 4.112 0 0 0-.907-.298 5.909 5.909 0 0 0-1.203-.11c-.918 0-1.625.403-2.125 1.204-.492.793-.734 2.043-.734 3.75 0 .73.054 1.402.172 2.016.113.605.289 1.125.53 1.562.25.438.563.777.938 1.016.383.242.844.36 1.375.36.47 0 .868-.063 1.204-.188.332-.125.632-.274.906-.454zm0 0"/></symbol><symbol overflow="visible" id="M"><path style="stroke:none" d="M.078-10h1.11v-1.875l2.375-.75V-10H5.5v2.125H3.562v4.36c0 .574.055.98.172 1.218.114.242.317.36.61.36.195 0 .375-.02.531-.063.164-.04.344-.102.531-.188L5.703-.28a4.676 4.676 0 0 1-1.031.36 4.78 4.78 0 0 1-1.219.155c-.762 0-1.328-.218-1.703-.656-.375-.437-.563-1.176-.563-2.219v-5.234H.079zm0 0"/></symbol><symbol overflow="visible" id="N"><path style="stroke:none" d="m4.063-4.375.25 1.563h.109l.172-1.594L5.766-10h2.437l-2.5 9.016c-.23.793-.445 1.5-.64 2.125-.2.625-.415 1.156-.641 1.593-.23.446-.492.786-.781 1.016a1.573 1.573 0 0 1-1.016.344c-.281 0-.555-.028-.813-.078a2.123 2.123 0 0 1-.671-.22l.406-2.03c.164.062.336.086.516.078a.73.73 0 0 0 .5-.203c.156-.125.289-.325.406-.594.125-.262.226-.61.312-1.047L-.203-10h2.86zm0 0"/></symbol><symbol overflow="visible" id="O"><path style="stroke:none" d="m.422-2.313 4.672-8.546.843-.829H.423V-14h8.062v2.313L3.781-3.079l-.828.765h5.531V0H.422zm0 0"/></symbol><symbol overflow="visible" id="P"><path style="stroke:none" d="M1.125-14h2.516V0H1.125zm0 0"/></symbol><symbol overflow="visible" id="Q"><path style="stroke:none" d="M.906-13.86a15.781 15.781 0 0 1 1.578-.25c.57-.062 1.145-.093 1.72-.093.612 0 1.218.058 1.812.172.593.117 1.117.34 1.578.672.468.336.847.804 1.14 1.406.301.605.454 1.398.454 2.375 0 .875-.126 1.621-.376 2.234-.25.617-.585 1.117-1 1.5A3.704 3.704 0 0 1 6.391-5a5.29 5.29 0 0 1-1.672.266h-.266a10.596 10.596 0 0 1-.766-.047 1.822 1.822 0 0 1-.265-.032V0H.906zm2.516 6.782c.082.023.234.043.453.062a4.6 4.6 0 0 0 .438.032c.3 0 .582-.036.843-.11.27-.082.508-.218.719-.406.207-.195.367-.46.484-.797.125-.344.188-.773.188-1.297 0-.445-.059-.82-.172-1.125a1.862 1.862 0 0 0-.469-.734 1.628 1.628 0 0 0-.672-.375 2.54 2.54 0 0 0-.796-.125c-.418 0-.758.031-1.016.094zm0 0"/></symbol><symbol overflow="visible" id="R"><path style="stroke:none" d="M.5-5c0-1.77.344-3.086 1.031-3.953.696-.875 1.664-1.313 2.907-1.313 1.332 0 2.328.446 2.984 1.329.656.874.984 2.187.984 3.937 0 1.793-.351 3.121-1.047 3.984C6.66-.16 5.688.266 4.438.266 1.813.266.5-1.488.5-5zm2.453 0c0 1 .113 1.777.344 2.328.226.543.61.813 1.14.813.508 0 .883-.235 1.125-.704.25-.476.375-1.289.375-2.437 0-1.031-.117-1.813-.343-2.344-.219-.531-.606-.797-1.157-.797-.468 0-.835.243-1.093.72-.262.468-.39 1.276-.39 2.421zm0 0"/></symbol><symbol overflow="visible" id="S"><path style="stroke:none" d="M5.797-3.594c0-.426-.125-.789-.375-1.094-.25-.3-.57-.582-.953-.843-.375-.27-.79-.547-1.235-.828a7.376 7.376 0 0 1-1.25-.985 5.242 5.242 0 0 1-.953-1.312c-.25-.508-.375-1.13-.375-1.86 0-.687.102-1.265.313-1.734.207-.469.488-.852.844-1.156.363-.301.789-.52 1.28-.656a5.713 5.713 0 0 1 1.595-.22c.675 0 1.304.071 1.89.204.582.137 1.07.312 1.469.531l-.781 2.235c-.23-.165-.57-.313-1.016-.438a5.103 5.103 0 0 0-1.453-.203c-.524 0-.922.11-1.203.328-.274.21-.406.516-.406.922 0 .375.124.71.374 1a5.7 5.7 0 0 0 .938.828c.383.262.8.54 1.25.828.445.281.86.617 1.234 1 .383.375.704.824.954 1.344.25.512.375 1.121.375 1.828 0 .71-.106 1.324-.313 1.844-.2.511-.492.937-.875 1.281A3.528 3.528 0 0 1 5.75.016 5.602 5.602 0 0 1 3.984.28c-.836 0-1.562-.086-2.187-.25C1.18-.125.707-.3.375-.5l.828-2.266c.258.168.625.329 1.094.485.469.156.969.234 1.5.234 1.332 0 2-.515 2-1.547zm0 0"/></symbol><symbol overflow="visible" id="T"><path style="stroke:none" d="M.875-9.406c.406-.239.906-.43 1.5-.578a8.794 8.794 0 0 1 2.047-.22c1.133 0 1.922.298 2.36.892.445.585.671 1.417.671 2.5 0 .625-.016 1.242-.047 1.843-.031.606-.058 1.2-.078 1.782-.012.585 0 1.148.031 1.687.04.531.133 1.04.282 1.516H5.703l-.39-1.22h-.079a2.74 2.74 0 0 1-.89.97c-.387.25-.875.375-1.469.375-.781 0-1.402-.258-1.86-.782C.567-1.17.345-1.879.345-2.766c0-1.195.426-2.046 1.281-2.546.852-.508 2.004-.723 3.453-.641.07-.781.024-1.344-.14-1.688-.168-.343-.528-.515-1.079-.515-.398 0-.808.047-1.234.14-.43.094-.809.227-1.14.391zm2.86 7.5c.363 0 .656-.086.874-.266a1.88 1.88 0 0 0 .516-.594v-1.656a3.802 3.802 0 0 0-.89-.016 2.23 2.23 0 0 0-.735.172c-.21.094-.383.235-.516.422-.125.18-.187.406-.187.688 0 .406.082.719.25.937.164.211.394.313.687.313zm0 0"/></symbol><symbol overflow="visible" id="k"><path style="stroke:none" d="M1.063-1.672c.226.156.546.305.953.438.414.136.89.203 1.421.203.676 0 1.223-.16 1.641-.485.414-.332.625-.851.625-1.562 0-.469-.121-.875-.36-1.219a4.588 4.588 0 0 0-.905-.969c-.356-.289-.743-.578-1.157-.859a9.064 9.064 0 0 1-1.172-.938 4.842 4.842 0 0 1-.89-1.171c-.242-.446-.36-.985-.36-1.61 0-1.008.301-1.754.907-2.234.613-.488 1.406-.735 2.375-.735.601 0 1.132.06 1.593.172.47.106.848.243 1.141.407l-.438 1.187c-.21-.133-.515-.254-.921-.36a5.19 5.19 0 0 0-1.391-.171c-.648 0-1.125.164-1.438.484-.312.313-.468.711-.468 1.188 0 .43.117.804.36 1.125.237.324.534.633.89.922.363.28.75.574 1.156.875.414.293.805.62 1.172.984.363.355.664.762.906 1.219.238.449.36.984.36 1.61 0 1.062-.313 1.898-.938 2.5-.625.593-1.512.89-2.656.89-.719 0-1.309-.07-1.766-.203C1.243-.117.875-.27.593-.438zm0 0"/></symbol><symbol overflow="visible" id="l"><path style="stroke:none" d="M.156-9h1.11v-1.781l1.296-.422V-9H4.5v1.172H2.562v5.36c0 .53.063.917.188 1.155.125.231.328.344.61.344.238 0 .445-.023.624-.078.176-.062.364-.133.563-.219l.266 1.032c-.274.136-.57.238-.891.312-.313.082-.64.125-.985.125-.605 0-1.039-.195-1.296-.578-.25-.395-.375-1.031-.375-1.906v-5.547H.156zm0 0"/></symbol><symbol overflow="visible" id="m"><path style="stroke:none" d="M1.063-9h.921l.235.953h.047c.164-.344.382-.613.656-.812.27-.196.598-.297.984-.297.27 0 .582.054.938.156l-.25 1.313a2.75 2.75 0 0 0-.828-.157c-.387 0-.7.11-.938.328-.242.22-.398.516-.469.891V0H1.063zm0 0"/></symbol><symbol overflow="visible" id="n"><path style="stroke:none" d="M6.438-.61c-.282.262-.649.465-1.094.61a4.456 4.456 0 0 1-1.407.219c-.562 0-1.054-.11-1.468-.328a2.921 2.921 0 0 1-1.016-.954C1.18-1.476.984-1.973.86-2.546A9.338 9.338 0 0 1 .672-4.5c0-1.531.281-2.695.844-3.5.562-.813 1.359-1.219 2.39-1.219.332 0 .664.043 1 .125.332.086.63.258.89.516.259.25.47.605.626 1.062.164.45.25 1.043.25 1.782 0 .199-.012.418-.031.656-.012.23-.028.469-.047.719H2.016c0 .523.039.992.125 1.406.082.418.21.777.39 1.078.188.293.422.523.703.688.282.156.63.234 1.047.234.32 0 .64-.055.953-.172.32-.125.567-.27.735-.438zm-1-4.827c.019-.895-.11-1.551-.391-1.97-.274-.425-.649-.64-1.125-.64-.555 0-.992.215-1.313.64-.324.419-.515 1.075-.578 1.97zm0 0"/></symbol><symbol overflow="visible" id="p"><path style="stroke:none" d="M.969-8.453c.351-.219.773-.383 1.265-.5a6.47 6.47 0 0 1 1.579-.188c.507 0 .914.079 1.218.235.301.148.54.351.719.61.176.25.29.542.344.874.05.324.078.668.078 1.031 0 .72-.016 1.422-.047 2.11-.031.68-.047 1.324-.047 1.937 0 .461.016.887.047 1.281.031.387.086.75.172 1.094h-.984L5-1.03h-.063a2.544 2.544 0 0 1-.796.812c-.344.227-.813.344-1.407.344-.648 0-1.18-.223-1.593-.672C.723-.992.516-1.613.516-2.407c0-.519.086-.952.265-1.296a2.17 2.17 0 0 1 .735-.844A3.04 3.04 0 0 1 2.656-5c.438-.094.926-.14 1.469-.14h.344c.125 0 .254.007.39.015.032-.375.047-.707.047-1 0-.676-.105-1.148-.312-1.422-.2-.281-.57-.422-1.11-.422-.336 0-.699.055-1.093.157a3.41 3.41 0 0 0-.985.375zM4.875-4.11a5.296 5.296 0 0 0-.36-.016c-.117-.008-.234-.016-.359-.016-.293 0-.578.028-.86.079a2.122 2.122 0 0 0-.733.25c-.211.117-.376.277-.5.484-.126.2-.188.453-.188.765 0 .481.113.856.344 1.126.238.261.539.39.906.39.508 0 .898-.117 1.172-.36.281-.238.473-.503.578-.796zm0 0"/></symbol><symbol overflow="visible" id="q"><path style="stroke:none" d="M6.734-3.094c0 .617.004 1.172.016 1.672.008.492.05.977.125 1.453H6l-.297-1.078h-.062c-.18.367-.45.668-.813.906-.355.239-.781.36-1.281.36-.969 0-1.695-.375-2.172-1.125C.906-1.664.672-2.86.672-4.484c0-1.532.285-2.692.86-3.485.581-.789 1.382-1.187 2.405-1.187.352 0 .63.023.829.062.207.043.43.11.671.203v-3.703h1.297zM5.438-7.578a1.513 1.513 0 0 0-.579-.313c-.21-.062-.484-.093-.828-.093-.636 0-1.133.289-1.484.859-.356.574-.531 1.46-.531 2.656 0 .532.03 1.012.093 1.438.07.43.176.797.313 1.11.133.312.312.554.531.718.227.168.504.25.828.25.864 0 1.414-.508 1.656-1.531zm0 0"/></symbol><symbol overflow="visible" id="r"><path style="stroke:none" d="M.922-1.469c.238.137.52.258.844.36.332.105.675.156 1.03.156.395 0 .727-.098 1-.297.282-.195.423-.52.423-.969 0-.363-.09-.664-.266-.906a2.769 2.769 0 0 0-.64-.64 5.361 5.361 0 0 0-.829-.532 4.38 4.38 0 0 1-.843-.594A3.22 3.22 0 0 1 1-5.703C.832-6.016.75-6.41.75-6.891c0-.77.207-1.347.625-1.734.414-.395 1-.594 1.75-.594.5 0 .926.047 1.281.14.364.087.676.204.938.36L5-7.625a3.35 3.35 0 0 0-.797-.297 3.34 3.34 0 0 0-.906-.125c-.438 0-.758.094-.953.281-.2.18-.297.454-.297.829 0 .304.082.562.25.78.176.212.39.403.64.579.258.168.54.344.844.531.301.18.578.39.828.64.258.243.473.532.641.876.176.336.266.761.266 1.281 0 .336-.059.652-.172.953a1.961 1.961 0 0 1-.5.781 2.439 2.439 0 0 1-.828.532c-.325.132-.711.203-1.157.203-.53 0-.992-.055-1.375-.157a3.615 3.615 0 0 1-.968-.406zm0 0"/></symbol><symbol overflow="visible" id="s"><path style="stroke:none" d="M.64-.781c0-.29.087-.524.266-.703a.879.879 0 0 1 .672-.282c.313 0 .567.125.766.375.195.25.297.649.297 1.188 0 .394-.055.75-.157 1.062-.093.32-.226.602-.39.844a2.538 2.538 0 0 1-.531.594c-.188.156-.372.27-.547.344l-.454-.61c.157-.086.301-.195.438-.328.133-.137.242-.293.328-.469.094-.168.164-.343.219-.53.05-.18.078-.36.078-.548a.708.708 0 0 1-.672-.14C.743-.148.641-.414.641-.781zm0 0"/></symbol><symbol overflow="visible" id="t"><path style="stroke:none" d="M1.156-12.469c.383-.113.79-.187 1.219-.219.438-.039.863-.062 1.281-.062.477 0 .953.059 1.422.172a3.2 3.2 0 0 1 1.266.594c.375.28.676.68.906 1.187.238.5.36 1.14.36 1.922 0 .762-.11 1.406-.329 1.938-.218.523-.515.949-.89 1.28-.368.325-.79.563-1.266.72a4.782 4.782 0 0 1-1.453.218H3.094a9.356 9.356 0 0 1-.344-.031c-.117-.008-.2-.02-.25-.031V0H1.156zm2.563.969c-.242 0-.469.012-.688.031-.219.012-.398.04-.531.078v5.36a.68.68 0 0 0 .219.047c.101.011.207.023.312.03h.548c.343 0 .663-.038.968-.124.312-.082.586-.234.828-.453.238-.227.43-.532.578-.907.156-.382.234-.863.234-1.437 0-.5-.07-.914-.203-1.25a2.083 2.083 0 0 0-.546-.813 1.861 1.861 0 0 0-.782-.437 3.463 3.463 0 0 0-.937-.125zm0 0"/></symbol><symbol overflow="visible" id="u"><path style="stroke:none" d="M.703-.813c0-.332.078-.582.235-.75.164-.164.39-.25.671-.25.27 0 .485.086.641.25.164.168.25.418.25.75 0 .356-.086.618-.25.782-.156.164-.371.25-.64.25-.282 0-.508-.086-.673-.25C.781-.195.704-.457.704-.812zm0 0"/></symbol><symbol overflow="visible" id="v"><path style="stroke:none" d="M.781-6.297c0-2.133.336-3.754 1.016-4.86.687-1.1 1.734-1.655 3.14-1.655.75 0 1.391.156 1.922.468.532.305.957.735 1.282 1.297.332.563.578 1.246.734 2.047.156.805.234 1.703.234 2.703 0 2.137-.351 3.758-1.046 4.86C7.375-.333 6.332.218 4.937.218c-.75 0-1.39-.153-1.921-.453a3.794 3.794 0 0 1-1.297-1.313C1.383-2.109 1.145-2.789 1-3.594.852-4.406.781-5.304.781-6.297zm1.422 0c0 .711.047 1.383.14 2.016a6.44 6.44 0 0 0 .485 1.672c.219.48.5.867.844 1.156.344.281.765.422 1.265.422.895 0 1.579-.43 2.047-1.297.47-.863.704-2.188.704-3.969 0-.695-.055-1.363-.157-2a6.692 6.692 0 0 0-.484-1.672c-.211-.488-.492-.879-.844-1.172-.344-.289-.766-.437-1.266-.437-.898 0-1.578.433-2.046 1.297-.461.867-.688 2.195-.688 3.984zm0 0"/></symbol><symbol overflow="visible" id="w"><path style="stroke:none" d="M1.063-12.594h1.296v4.281h.047c.5-.601 1.156-.906 1.969-.906.926 0 1.617.371 2.078 1.11.457.73.688 1.886.688 3.468 0 1.618-.309 2.82-.922 3.61C5.602-.238 4.727.156 3.594.156A5.73 5.73 0 0 1 2.078-.03c-.45-.125-.789-.27-1.015-.438zM2.359-1.313c.164.094.368.168.61.22.25.054.515.077.797.077.625 0 1.117-.296 1.484-.89.363-.594.547-1.504.547-2.735a8.2 8.2 0 0 0-.11-1.39 4.309 4.309 0 0 0-.296-1.078c-.137-.301-.32-.532-.547-.688a1.293 1.293 0 0 0-.797-.25c-.43 0-.781.133-1.063.39-.28.262-.492.61-.625 1.048zm0 0"/></symbol><symbol overflow="visible" id="x"><path style="stroke:none" d="M.672-4.5c0-1.625.273-2.816.828-3.578.563-.758 1.36-1.14 2.39-1.14 1.102 0 1.915.39 2.438 1.171.52.781.781 1.965.781 3.547 0 1.637-.28 2.836-.843 3.594C5.703-.156 4.91.219 3.89.219c-1.106 0-1.918-.39-2.438-1.172C.93-1.734.672-2.914.672-4.5zm1.344 0c0 .531.03 1.016.093 1.453.07.43.18.797.329 1.11.144.312.335.558.578.734.25.168.539.25.875.25.625 0 1.093-.274 1.406-.828.312-.563.469-1.469.469-2.719 0-.52-.04-1-.11-1.438a3.673 3.673 0 0 0-.328-1.125 1.793 1.793 0 0 0-.578-.718 1.422 1.422 0 0 0-.86-.266c-.617 0-1.085.281-1.406.844-.312.562-.468 1.465-.468 2.703zm0 0"/></symbol><symbol overflow="visible" id="y"><path style="stroke:none" d="M2.89-4.61.517-9h1.546l1.344 2.578.36 1 .375-1L5.516-9h1.421L4.531-4.687 7.078 0H5.594l-1.5-2.828-.407-1.078-.406 1.078L1.766 0H.344zm0 0"/></symbol><symbol overflow="visible" id="z"><path style="stroke:none" d="M6.031-.453c-.304.23-.648.398-1.031.5-.387.113-.79.172-1.203.172-.574 0-1.059-.11-1.453-.328a2.695 2.695 0 0 1-.969-.954c-.242-.414-.418-.914-.531-1.5A9.847 9.847 0 0 1 .672-4.5c0-1.531.27-2.695.812-3.5.54-.813 1.32-1.219 2.344-1.219.469 0 .867.043 1.203.125.344.086.633.196.875.328l-.36 1.141c-.48-.281-1-.422-1.562-.422-.656 0-1.152.29-1.484.86-.324.562-.484 1.46-.484 2.687 0 .492.035.953.109 1.39.07.43.191.805.36 1.126.163.312.378.562.64.75.27.187.602.28 1 .28A2.4 2.4 0 0 0 5-1.108c.27-.114.488-.243.656-.391zm0 0"/></symbol><symbol overflow="visible" id="A"><path style="stroke:none" d="M5.281 0v-5.344c0-.476-.015-.89-.047-1.234a2.42 2.42 0 0 0-.203-.828 1.046 1.046 0 0 0-.39-.485c-.168-.101-.387-.156-.657-.156a1.34 1.34 0 0 0-1.046.485 2.5 2.5 0 0 0-.579 1.078V0H1.063v-9h.921l.235.953h.047c.25-.344.546-.625.89-.844.352-.218.801-.328 1.344-.328.457 0 .832.102 1.125.297.29.2.52.555.688 1.063.218-.426.523-.758.921-1 .407-.239.848-.36 1.329-.36a3 3 0 0 1 1.015.156c.29.106.52.29.688.547.175.25.304.59.39 1.016.082.43.125.965.125 1.61V0H9.484v-5.719c0-.781-.078-1.363-.234-1.75-.148-.383-.492-.578-1.031-.578-.45 0-.809.14-1.078.422-.274.281-.465.664-.579 1.14V0zm0 0"/></symbol><symbol overflow="visible" id="B"><path style="stroke:none" d="M1.063-9h.921l.188.969h.078c.445-.79 1.145-1.188 2.094-1.188.945 0 1.656.356 2.125 1.063.476.71.718 1.867.718 3.469 0 .761-.078 1.445-.234 2.046a4.926 4.926 0 0 1-.672 1.547c-.293.43-.648.758-1.062.985a2.82 2.82 0 0 1-1.36.328 4.71 4.71 0 0 1-.843-.063 2.434 2.434 0 0 1-.657-.265v3.703H1.063zm1.296 7.578c.164.149.352.262.563.344.207.086.488.125.844.125.632 0 1.132-.32 1.5-.969.375-.644.562-1.57.562-2.781 0-.5-.031-.953-.094-1.36a3.593 3.593 0 0 0-.312-1.046c-.149-.301-.336-.532-.563-.688a1.323 1.323 0 0 0-.812-.25c-.875 0-1.438.54-1.688 1.61zm0 0"/></symbol><symbol overflow="visible" id="C"><path style="stroke:none" d="M5.672 0v-5.484c0-.907-.106-1.555-.313-1.954-.21-.406-.586-.609-1.125-.609-.48 0-.875.149-1.187.438a2.472 2.472 0 0 0-.688 1.062V0H1.063v-9H2l.234.953h.047c.227-.32.535-.598.922-.828.395-.227.863-.344 1.406-.344.383 0 .723.059 1.016.172.29.106.535.29.734.547.196.25.348.594.454 1.031.101.43.156.977.156 1.64V0zm0 0"/></symbol><symbol overflow="visible" id="D"><path style="stroke:none" d="m3.297-3.188.375 1.75h.094l.265-1.75L5.406-9H6.72L4.579-.922c-.18.649-.352 1.25-.516 1.813a9.848 9.848 0 0 1-.547 1.468c-.2.414-.422.739-.672.97-.242.237-.528.358-.86.358-.343 0-.64-.054-.89-.156l.218-1.234c.165.062.333.07.5.031.165-.031.32-.133.47-.297.155-.168.296-.418.421-.75.125-.324.238-.75.344-1.281L.125-9h1.484zm0 0"/></symbol><symbol overflow="visible" id="F"><path style="stroke:none" d="M6-3.531H2.437L1.423 0H.094L3.89-12.797h.734L8.422 0H7.016zM2.797-4.734h2.875L4.578-8.625l-.344-1.89h-.046l-.329 1.921zm0 0"/></symbol><symbol overflow="visible" id="G"><path style="stroke:none" d="M2.234-9v5.516c0 .906.094 1.558.282 1.953.187.386.523.578 1.015.578.25 0 .473-.05.672-.156.195-.102.375-.239.531-.407.157-.164.29-.351.407-.562.125-.219.222-.442.296-.672V-9h1.297v6.438c0 .437.016.89.047 1.359.032.46.07.86.125 1.203H6l-.328-1.266h-.063c-.199.399-.492.746-.875 1.047-.386.29-.867.438-1.437.438C2.91.219 2.57.164 2.28.062a1.605 1.605 0 0 1-.734-.515c-.211-.25-.367-.594-.469-1.031-.094-.438-.14-1-.14-1.688V-9zm0 0"/></symbol><symbol overflow="visible" id="H"><path style="stroke:none" d="M1.281-9h1.297v9H1.281zm-.234-2.734c0-.29.078-.524.234-.704a.84.84 0 0 1 .64-.265c.27 0 .49.09.657.265.176.168.266.403.266.704 0 .293-.09.523-.266.687-.168.156-.387.235-.656.235a.856.856 0 0 1-.64-.25c-.157-.176-.235-.399-.235-.672zm0 0"/></symbol><symbol overflow="visible" id="I"><path style="stroke:none" d="M2.453-2.14c0 .417.055.718.172.906.113.18.27.265.469.265.25 0 .547-.066.89-.203L4.11-.125a2.248 2.248 0 0 1-.656.234c-.281.063-.539.094-.765.094-.461 0-.829-.14-1.11-.422-.281-.281-.422-.773-.422-1.484v-10.89h1.297zm0 0"/></symbol><symbol overflow="visible" id="J"><path style="stroke:none" d="M6.734.406c0 1.164-.261 2.024-.78 2.578-.513.551-1.263.829-2.25.829-.595 0-1.087-.055-1.47-.157a3.77 3.77 0 0 1-.937-.344l.375-1.109c.238.102.5.203.781.297.29.094.649.14 1.078.14.727 0 1.227-.203 1.5-.609.27-.406.407-1.09.407-2.047v-.671h-.063c-.188.28-.434.5-.734.656-.305.156-.688.234-1.157.234-.968 0-1.683-.375-2.14-1.125-.45-.75-.672-1.93-.672-3.547 0-1.539.297-2.707.89-3.5.594-.789 1.47-1.187 2.625-1.187.57 0 1.063.054 1.47.156.405.105.765.23 1.077.375zm-1.296-8.11c-.368-.187-.829-.28-1.391-.28-.617 0-1.11.28-1.484.843-.368.555-.547 1.438-.547 2.657 0 .511.03.98.093 1.406.063.418.16.789.297 1.11a2 2 0 0 0 .547.734c.227.18.504.265.828.265.457 0 .817-.117 1.078-.36.258-.237.454-.597.579-1.077zm0 0"/></symbol><symbol overflow="visible" id="K"><path style="stroke:none" d="M5.406-11.5a27.95 27.95 0 0 0-.593-.078 5.185 5.185 0 0 0-.766-.063c-.313 0-.559.063-.734.188-.18.117-.32.281-.422.5a2.492 2.492 0 0 0-.172.828c-.024.336-.031.71-.031 1.125h1.421v1.172H2.688V0H1.39v-7.828H.28V-9h1.11v-.5c0-1.133.195-1.969.593-2.5.407-.54 1.082-.813 2.032-.813.187 0 .41.012.671.032a9.788 9.788 0 0 1 1.47.172c.226.03.41.074.546.125v10.437c0 .399.05.68.156.844.114.168.274.25.485.25.258 0 .562-.067.906-.203L8.328-.11a2.26 2.26 0 0 1-.64.234 3.362 3.362 0 0 1-.782.094c-.449 0-.812-.14-1.093-.422-.274-.29-.407-.785-.407-1.484zm0 0"/></symbol><symbol overflow="visible" id="U"><path style="stroke:none" d="M0 2.516h6.016v1.171H0zm0 0"/></symbol><symbol overflow="visible" id="V"><path style="stroke:none" d="m5.875-9 1.594 5.25.328 1.734h.031l.266-1.765L9.328-9h1.219L8.157.203h-.735L5.594-5.703l-.25-1.516h-.032l-.25 1.532L3.298.202h-.735L.095-9h1.375l1.39 5.234.22 1.75h.03l.329-1.78L4.905-9zm0 0"/></symbol><symbol overflow="visible" id="W"><path style="stroke:none" d="M7.219 0H1.156v-12.594H2.5v11.36h4.719zm0 0"/></symbol><symbol overflow="visible" id="X"><path style="stroke:none" d="M1.688-1.203h2.03V-9.97l.173-1.062-.61.86-1.515 1.218-.688-.797 3.281-3.063h.657v11.61h1.968V0H1.688zm0 0"/></symbol><symbol overflow="visible" id="Y"><path style="stroke:none" d="M5.672 0v-5.469c0-.843-.102-1.484-.297-1.922-.2-.437-.594-.656-1.188-.656-.417 0-.796.152-1.14.453-.344.305-.574.68-.688 1.125V0H1.063v-12.594h1.296v4.438h.047c.239-.313.535-.567.89-.766.352-.195.798-.297 1.329-.297.395 0 .738.059 1.031.172.301.106.547.293.735.563.187.261.328.609.421 1.046.102.438.157.981.157 1.625V0zm0 0"/></symbol><symbol overflow="visible" id="Z"><path style="stroke:none" d="m.578-1.172 3.344-5.89.625-.766H.578V-9h5.25v1.172l-3.36 5.937-.609.72h3.97V0H.578zm0 0"/></symbol><symbol overflow="visible" id="aa"><path style="stroke:none" d="M7.734-.484c-.293.25-.668.43-1.125.53C6.15.16 5.672.22 5.172.22a4.324 4.324 0 0 1-1.766-.36C2.863-.379 2.395-.758 2-1.28c-.387-.52-.688-1.192-.906-2.016-.211-.832-.313-1.832-.313-3 0-1.195.117-2.207.36-3.031.25-.832.578-1.504.984-2.016.406-.52.875-.894 1.406-1.125a4.251 4.251 0 0 1 1.656-.344c.57 0 1.047.043 1.422.126.383.085.711.183.985.296l-.328 1.235a3.297 3.297 0 0 0-.844-.313 5.256 5.256 0 0 0-1.11-.11c-.417 0-.812.095-1.187.282-.375.188-.71.492-1 .906-.281.407-.508.95-.672 1.625-.168.668-.25 1.493-.25 2.47 0 1.75.297 3.07.89 3.952.602.875 1.4 1.313 2.391 1.313a3.26 3.26 0 0 0 1.11-.172c.32-.113.597-.25.828-.406zm0 0"/></symbol></defs><path style="fill:#fff;fill-opacity:1;stroke:none" d="M0 0h722v512H0z"/><path style="fill-rule:evenodd;fill:#fff;fill-opacity:1;stroke-width:.1;stroke-linecap:butt;stroke-linejoin:miter;stroke:#fff;stroke-opacity:1;stroke-miterlimit:10" d="M24.236 40.853h35.865V66.19H24.236zm0 0" transform="matrix(20 0 0 20 -483.724 -812.534)"/><path style="fill:none;stroke-width:.1;stroke-linecap:butt;stroke-linejoin:miter;stroke:#b3b3b3;stroke-opacity:1;stroke-miterlimit:10" d="M26.644 44.584H57.1M26.644 62.446H57.1M26.644 44.584a.3.3 0 0 0-.3.3M57.4 44.884a.3.3 0 0 0-.3-.3M26.344 44.884v17.262M57.4 44.884v17.262M26.344 62.146a.3.3 0 0 0 .3.3M57.1 62.446a.3.3 0 0 0 .3-.3" transform="matrix(20 0 0 20 -483.724 -812.534)"/><path style="stroke:none;fill-rule:evenodd;fill:#fff;fill-opacity:1" d="M74.566 125.96h102.399v23.853H74.566zm0 0"/><g style="fill:#000;fill-opacity:1"><use xlink:href="#a" x="76.09" y="144.211"/><use xlink:href="#b" x="86.109" y="144.211"/><use xlink:href="#b" x="95.016" y="144.211"/><use xlink:href="#c" x="103.922" y="144.211"/><use xlink:href="#d" x="109.781" y="144.211"/><use xlink:href="#e" x="118.336" y="144.211"/><use xlink:href="#e" x="125.328" y="144.211"/><use xlink:href="#f" x="132.32" y="144.211"/><use xlink:href="#g" x="136.422" y="144.211"/><use xlink:href="#h" x="141.285" y="144.211"/><use xlink:href="#i" x="145.777" y="144.211"/><use xlink:href="#d" x="154.762" y="144.211"/><use xlink:href="#f" x="163.316" y="144.211"/><use xlink:href="#j" x="167.418" y="144.211"/></g><path style="stroke:none;fill-rule:evenodd;fill:#f2f2f2;fill-opacity:1" d="M197.313 116.684h408v40h-408zM197.313 122.684v-6c-3.313 0-6 2.687-6 6zM605.313 122.684h6c0-3.313-2.688-6-6-6zm0 0"/><path style="stroke:none;fill-rule:evenodd;fill:#f2f2f2;fill-opacity:1" d="M191.313 122.684h420v28h-420zM197.313 150.684h-6c0 3.312 2.687 6 6 6zM605.313 150.684v6c3.312 0 6-2.688 6-6zm0 0"/><path style="fill:none;stroke-width:.1;stroke-linecap:butt;stroke-linejoin:miter;stroke:#4d4d4d;stroke-opacity:1;stroke-miterlimit:10" d="M34.052 46.46h20.4M34.052 48.46h20.4M34.052 46.46a.3.3 0 0 0-.3.3M54.752 46.76a.3.3 0 0 0-.3-.3M33.752 46.76v1.4M54.752 46.76v1.4M33.752 48.16a.3.3 0 0 0 .3.3M54.452 48.46a.3.3 0 0 0 .3-.3" transform="matrix(20 0 0 20 -483.724 -812.534)"/><path style="stroke:none;fill-rule:evenodd;fill:#fff;fill-opacity:1" d="M191.313 161.434h239.5v21.25h-239.5zm0 0"/><g style="fill:#4d4d4d;fill-opacity:1"><use xlink:href="#k" x="191.313" y="177.684"/><use xlink:href="#l" x="199.008" y="177.684"/><use xlink:href="#m" x="203.949" y="177.684"/><use xlink:href="#n" x="208.891" y="177.684"/><use xlink:href="#n" x="216.215" y="177.684"/><use xlink:href="#l" x="223.656" y="177.684"/><use xlink:href="#o" x="228.598" y="177.684"/><use xlink:href="#p" x="232.406" y="177.684"/><use xlink:href="#q" x="239.613" y="177.684"/><use xlink:href="#q" x="247.406" y="177.684"/><use xlink:href="#m" x="255.199" y="177.684"/><use xlink:href="#n" x="260.141" y="177.684"/><use xlink:href="#r" x="267.582" y="177.684"/><use xlink:href="#r" x="273.656" y="177.684"/><use xlink:href="#s" x="279.73" y="177.684"/><use xlink:href="#o" x="281.469" y="177.684"/><use xlink:href="#t" x="285.277" y="177.684"/><use xlink:href="#u" x="291.527" y="177.684"/><use xlink:href="#v" x="294.32" y="177.684"/><use xlink:href="#u" x="303.793" y="177.684"/><use xlink:href="#o" x="305.414" y="177.684"/><use xlink:href="#w" x="309.223" y="177.684"/><use xlink:href="#x" x="317.035" y="177.684"/><use xlink:href="#y" x="324.496" y="177.684"/><use xlink:href="#s" x="331.918" y="177.684"/><use xlink:href="#o" x="333.656" y="177.684"/><use xlink:href="#z" x="337.465" y="177.684"/><use xlink:href="#x" x="343.578" y="177.684"/><use xlink:href="#A" x="351.352" y="177.684"/><use xlink:href="#B" x="363.07" y="177.684"/><use xlink:href="#p" x="370.902" y="177.684"/><use xlink:href="#C" x="378.109" y="177.684"/><use xlink:href="#D" x="386.02" y="177.684"/><use xlink:href="#o" x="392.309" y="177.684"/><use xlink:href="#C" x="396.117" y="177.684"/><use xlink:href="#p" x="404.027" y="177.684"/><use xlink:href="#A" x="411.234" y="177.684"/><use xlink:href="#n" x="422.953" y="177.684"/></g><path style="fill:none;stroke-width:.1;stroke-linecap:butt;stroke-linejoin:miter;stroke:#000;stroke-opacity:1;stroke-miterlimit:10" d="m48.157 51.13-3.462-.005" transform="matrix(20 0 0 20 -483.724 -812.534)"/><path style="fill-rule:evenodd;fill:#000;fill-opacity:1;stroke-width:.1;stroke-linecap:butt;stroke-linejoin:miter;stroke:#000;stroke-opacity:1;stroke-miterlimit:10" d="M44.695 51.125c0-.125.125-.25.25-.25s.25.126.25.25c0 .126-.125.25-.25.25a.269.269 0 0 1-.25-.25" transform="matrix(20 0 0 20 -483.724 -812.534)"/><path style="stroke:none;fill-rule:evenodd;fill:#fff;fill-opacity:1" d="M74.566 207.293h102.399v23.852H74.566zm0 0"/><g style="fill:#000;fill-opacity:1"><use xlink:href="#a" x="76.09" y="225.543"/><use xlink:href="#b" x="86.109" y="225.543"/><use xlink:href="#b" x="95.016" y="225.543"/><use xlink:href="#c" x="103.922" y="225.543"/><use xlink:href="#d" x="109.781" y="225.543"/><use xlink:href="#e" x="118.336" y="225.543"/><use xlink:href="#e" x="125.328" y="225.543"/><use xlink:href="#f" x="132.32" y="225.543"/><use xlink:href="#g" x="136.422" y="225.543"/><use xlink:href="#h" x="141.285" y="225.543"/><use xlink:href="#i" x="145.777" y="225.543"/><use xlink:href="#d" x="154.762" y="225.543"/><use xlink:href="#f" x="163.316" y="225.543"/><use xlink:href="#E" x="167.418" y="225.543"/></g><path style="stroke:none;fill-rule:evenodd;fill:#f2f2f2;fill-opacity:1" d="M197.313 198.02h408v40h-408zM197.313 204.02v-6c-3.313 0-6 2.683-6 6zM605.313 204.02h6c0-3.317-2.688-6-6-6zm0 0"/><path style="stroke:none;fill-rule:evenodd;fill:#f2f2f2;fill-opacity:1" d="M191.313 204.02h420v28h-420zM197.313 232.02h-6c0 3.312 2.687 6 6 6zM605.313 232.02v6c3.312 0 6-2.688 6-6zm0 0"/><path style="fill:none;stroke-width:.1;stroke-linecap:butt;stroke-linejoin:miter;stroke:#4d4d4d;stroke-opacity:1;stroke-miterlimit:10" d="M34.052 50.528h20.4M34.052 52.528h20.4M34.052 50.528a.3.3 0 0 0-.3.3M54.752 50.828a.3.3 0 0 0-.3-.3M33.752 50.828v1.4M54.752 50.828v1.4M33.752 52.228a.3.3 0 0 0 .3.3M54.452 52.528a.3.3 0 0 0 .3-.3" transform="matrix(20 0 0 20 -483.724 -812.534)"/><path style="stroke:none;fill-rule:evenodd;fill:#fff;fill-opacity:1" d="M190.813 242.434h223.101v21.25H190.813zm0 0"/><g style="fill:#4d4d4d;fill-opacity:1"><use xlink:href="#F" x="190.813" y="258.684"/><use xlink:href="#B" x="199.328" y="258.684"/><use xlink:href="#p" x="207.16" y="258.684"/><use xlink:href="#m" x="214.367" y="258.684"/><use xlink:href="#l" x="219.738" y="258.684"/><use xlink:href="#A" x="224.68" y="258.684"/><use xlink:href="#n" x="236.398" y="258.684"/><use xlink:href="#C" x="243.84" y="258.684"/><use xlink:href="#l" x="251.75" y="258.684"/><use xlink:href="#s" x="256.691" y="258.684"/><use xlink:href="#o" x="258.43" y="258.684"/><use xlink:href="#r" x="262.238" y="258.684"/><use xlink:href="#G" x="268.313" y="258.684"/><use xlink:href="#H" x="276.125" y="258.684"/><use xlink:href="#l" x="280.031" y="258.684"/><use xlink:href="#n" x="284.855" y="258.684"/><use xlink:href="#s" x="292.297" y="258.684"/><use xlink:href="#o" x="294.035" y="258.684"/><use xlink:href="#G" x="297.844" y="258.684"/><use xlink:href="#C" x="305.656" y="258.684"/><use xlink:href="#H" x="313.566" y="258.684"/><use xlink:href="#l" x="317.473" y="258.684"/><use xlink:href="#s" x="322.414" y="258.684"/><use xlink:href="#o" x="324.152" y="258.684"/><use xlink:href="#w" x="327.961" y="258.684"/><use xlink:href="#G" x="335.773" y="258.684"/><use xlink:href="#H" x="343.586" y="258.684"/><use xlink:href="#I" x="347.492" y="258.684"/><use xlink:href="#q" x="351.691" y="258.684"/><use xlink:href="#H" x="359.484" y="258.684"/><use xlink:href="#C" x="363.391" y="258.684"/><use xlink:href="#J" x="371.301" y="258.684"/><use xlink:href="#s" x="379.074" y="258.684"/><use xlink:href="#o" x="380.813" y="258.684"/><use xlink:href="#K" x="384.621" y="258.684"/><use xlink:href="#x" x="393.059" y="258.684"/><use xlink:href="#x" x="400.832" y="258.684"/><use xlink:href="#m" x="408.605" y="258.684"/></g><path style="stroke:none;fill-rule:evenodd;fill:#fff;fill-opacity:1" d="M148.91 290.793h27.399v23.852H148.91zm0 0"/><g style="fill:#000;fill-opacity:1"><use xlink:href="#L" x="149.242" y="309.043"/><use xlink:href="#h" x="158.383" y="309.043"/><use xlink:href="#M" x="162.875" y="309.043"/><use xlink:href="#N" x="168.305" y="309.043"/></g><path style="stroke:none;fill-rule:evenodd;fill:#f2f2f2;fill-opacity:1" d="M197.313 281.52h188v40h-188zM197.313 287.52v-6c-3.313 0-6 2.683-6 6zM385.313 287.52h6c0-3.317-2.688-6-6-6zm0 0"/><path style="stroke:none;fill-rule:evenodd;fill:#f2f2f2;fill-opacity:1" d="M191.313 287.52h200v28h-200zM197.313 315.52h-6c0 3.312 2.687 6 6 6zM385.313 315.52v6c3.312 0 6-2.688 6-6zm0 0"/><path style="fill:none;stroke-width:.1;stroke-linecap:butt;stroke-linejoin:miter;stroke:#4d4d4d;stroke-opacity:1;stroke-miterlimit:10" d="M34.052 54.703h9.4M34.052 56.703h9.4M34.052 54.703a.3.3 0 0 0-.3.3M43.752 55.003a.3.3 0 0 0-.3-.3M33.752 55.003v1.4M43.752 55.003v1.4M33.752 56.403a.3.3 0 0 0 .3.3M43.452 56.703a.3.3 0 0 0 .3-.3" transform="matrix(20 0 0 20 -483.724 -812.534)"/><path style="stroke:none;fill-rule:evenodd;fill:#fff;fill-opacity:1" d="M113.96 362.023h62.353v23.852H113.96zm0 0"/><g style="fill:#000;fill-opacity:1"><use xlink:href="#O" x="114.887" y="380.273"/><use xlink:href="#P" x="123.793" y="380.273"/><use xlink:href="#Q" x="128.559" y="380.273"/><use xlink:href="#f" x="137.465" y="380.273"/><use xlink:href="#L" x="141.352" y="380.273"/><use xlink:href="#R" x="149.945" y="380.273"/><use xlink:href="#b" x="158.852" y="380.273"/><use xlink:href="#d" x="167.758" y="380.273"/></g><path style="stroke:none;fill-rule:evenodd;fill:#f2f2f2;fill-opacity:1" d="M197.313 352.746h108v40h-108zM197.313 358.746v-6c-3.313 0-6 2.688-6 6zM305.313 358.746h6c0-3.312-2.688-6-6-6zm0 0"/><path style="stroke:none;fill-rule:evenodd;fill:#f2f2f2;fill-opacity:1" d="M191.313 358.746h120v28h-120zM197.313 386.746h-6c0 3.317 2.687 6 6 6zM305.313 386.746v6c3.312 0 6-2.683 6-6zm0 0"/><path style="fill:none;stroke-width:.1;stroke-linecap:butt;stroke-linejoin:miter;stroke:#4d4d4d;stroke-opacity:1;stroke-miterlimit:10" d="M34.052 58.264h5.4M34.052 60.264h5.4M34.052 58.264a.3.3 0 0 0-.3.3M39.752 58.564a.3.3 0 0 0-.3-.3M33.752 58.564v1.4M39.752 58.564v1.4M33.752 59.964a.3.3 0 0 0 .3.3M39.452 60.264a.3.3 0 0 0 .3-.3" transform="matrix(20 0 0 20 -483.724 -812.534)"/><path style="stroke:none;fill-rule:evenodd;fill:#f2f2f2;fill-opacity:1" d="M477.313 281.52h128v40h-128zM477.313 287.52v-6c-3.313 0-6 2.683-6 6zM605.313 287.52h6c0-3.317-2.688-6-6-6zm0 0"/><path style="stroke:none;fill-rule:evenodd;fill:#f2f2f2;fill-opacity:1" d="M471.313 287.52h140v28h-140zM477.313 315.52h-6c0 3.312 2.687 6 6 6zM605.313 315.52v6c3.312 0 6-2.688 6-6zm0 0"/><path style="fill:none;stroke-width:.1;stroke-linecap:butt;stroke-linejoin:miter;stroke:#4d4d4d;stroke-opacity:1;stroke-miterlimit:10" d="M48.052 54.703h6.4M48.052 56.703h6.4M48.052 54.703a.3.3 0 0 0-.3.3M54.752 55.003a.3.3 0 0 0-.3-.3M47.752 55.003v1.4M54.752 55.003v1.4M47.752 56.403a.3.3 0 0 0 .3.3M54.452 56.703a.3.3 0 0 0 .3-.3" transform="matrix(20 0 0 20 -483.724 -812.534)"/><path style="stroke:none;fill-rule:evenodd;fill:#fff;fill-opacity:1" d="M422.512 290.793h37.8v23.852h-37.8zm0 0"/><g style="fill:#000;fill-opacity:1"><use xlink:href="#S" x="423.066" y="309.043"/><use xlink:href="#M" x="431.855" y="309.043"/><use xlink:href="#T" x="437.676" y="309.043"/><use xlink:href="#M" x="445.938" y="309.043"/><use xlink:href="#d" x="451.758" y="309.043"/></g><path style="fill:none;stroke-width:.1;stroke-linecap:butt;stroke-linejoin:miter;stroke:#000;stroke-opacity:1;stroke-miterlimit:10" d="m27.9 42.973.006 1.899" transform="matrix(20 0 0 20 -483.724 -812.534)"/><path style="fill-rule:evenodd;fill:#000;fill-opacity:1;stroke-width:.1;stroke-linecap:butt;stroke-linejoin:miter;stroke:#000;stroke-opacity:1;stroke-miterlimit:10" d="M27.906 44.872a.269.269 0 0 1-.251-.25c0-.124.124-.25.25-.25a.27.27 0 0 1 .25.25c0 .124-.124.25-.25.25" transform="matrix(20 0 0 20 -483.724 -812.534)"/><path style="fill:none;stroke-width:.1;stroke-linecap:butt;stroke-linejoin:miter;stroke:#000;stroke-opacity:1;stroke-miterlimit:10" d="m46.275 43.802-.026 5.672" transform="matrix(20 0 0 20 -483.724 -812.534)"/><path style="fill-rule:evenodd;fill:#000;fill-opacity:1;stroke-width:.1;stroke-linecap:butt;stroke-linejoin:miter;stroke:#000;stroke-opacity:1;stroke-miterlimit:10" d="M46.25 49.474a.269.269 0 0 1-.25-.251c0-.125.126-.25.251-.249.125 0 .25.126.25.251-.002.125-.127.25-.252.249" transform="matrix(20 0 0 20 -483.724 -812.534)"/><path style="stroke:none;fill-rule:evenodd;fill:#fff;fill-opacity:1" d="M519.305 458.691h176.699v21.25h-176.7zm0 0"/><g style="fill:#000;fill-opacity:1"><use xlink:href="#B" x="519.305" y="474.941"/><use xlink:href="#x" x="527.137" y="474.941"/><use xlink:href="#r" x="534.91" y="474.941"/><use xlink:href="#l" x="540.984" y="474.941"/><use xlink:href="#p" x="545.926" y="474.941"/><use xlink:href="#I" x="553.133" y="474.941"/><use xlink:href="#U" x="557.332" y="474.941"/><use xlink:href="#p" x="563.348" y="474.941"/><use xlink:href="#q" x="570.555" y="474.941"/><use xlink:href="#q" x="578.348" y="474.941"/><use xlink:href="#m" x="586.141" y="474.941"/><use xlink:href="#n" x="591.082" y="474.941"/><use xlink:href="#r" x="598.523" y="474.941"/><use xlink:href="#r" x="604.598" y="474.941"/><use xlink:href="#U" x="610.672" y="474.941"/><use xlink:href="#r" x="616.688" y="474.941"/><use xlink:href="#l" x="622.762" y="474.941"/><use xlink:href="#p" x="627.703" y="474.941"/><use xlink:href="#l" x="634.91" y="474.941"/><use xlink:href="#n" x="639.734" y="474.941"/><use xlink:href="#U" x="647.176" y="474.941"/><use xlink:href="#V" x="653.191" y="474.941"/><use xlink:href="#H" x="663.816" y="474.941"/><use xlink:href="#q" x="667.723" y="474.941"/><use xlink:href="#J" x="675.516" y="474.941"/><use xlink:href="#n" x="683.289" y="474.941"/><use xlink:href="#l" x="690.73" y="474.941"/></g><path style="stroke:none;fill-rule:evenodd;fill:#fff;fill-opacity:1" d="M44.988 24.355H165.84v21.25H44.988zm0 0"/><g style="fill:#000;fill-opacity:1"><use xlink:href="#B" x="44.988" y="40.605"/><use xlink:href="#x" x="52.82" y="40.605"/><use xlink:href="#r" x="60.594" y="40.605"/><use xlink:href="#l" x="66.668" y="40.605"/><use xlink:href="#p" x="71.609" y="40.605"/><use xlink:href="#I" x="78.816" y="40.605"/><use xlink:href="#U" x="83.016" y="40.605"/><use xlink:href="#p" x="89.031" y="40.605"/><use xlink:href="#q" x="96.238" y="40.605"/><use xlink:href="#q" x="104.031" y="40.605"/><use xlink:href="#m" x="111.824" y="40.605"/><use xlink:href="#n" x="116.766" y="40.605"/><use xlink:href="#r" x="124.207" y="40.605"/><use xlink:href="#r" x="130.281" y="40.605"/><use xlink:href="#U" x="136.355" y="40.605"/><use xlink:href="#m" x="142.371" y="40.605"/><use xlink:href="#x" x="147.313" y="40.605"/><use xlink:href="#V" x="154.949" y="40.605"/></g><path style="stroke:none;fill-rule:evenodd;fill:#fff;fill-opacity:1" d="M311.148 41.605H524.5v21.25H311.148zm0 0"/><g style="fill:#000;fill-opacity:1"><use xlink:href="#B" x="311.148" y="57.855"/><use xlink:href="#x" x="318.98" y="57.855"/><use xlink:href="#r" x="326.754" y="57.855"/><use xlink:href="#l" x="332.828" y="57.855"/><use xlink:href="#p" x="337.77" y="57.855"/><use xlink:href="#I" x="344.977" y="57.855"/><use xlink:href="#U" x="349.176" y="57.855"/><use xlink:href="#p" x="355.191" y="57.855"/><use xlink:href="#q" x="362.398" y="57.855"/><use xlink:href="#q" x="370.191" y="57.855"/><use xlink:href="#m" x="377.984" y="57.855"/><use xlink:href="#n" x="382.926" y="57.855"/><use xlink:href="#r" x="390.367" y="57.855"/><use xlink:href="#r" x="396.441" y="57.855"/><use xlink:href="#U" x="402.516" y="57.855"/><use xlink:href="#p" x="408.531" y="57.855"/><use xlink:href="#q" x="415.738" y="57.855"/><use xlink:href="#q" x="423.531" y="57.855"/><use xlink:href="#m" x="431.324" y="57.855"/><use xlink:href="#n" x="436.266" y="57.855"/><use xlink:href="#r" x="443.707" y="57.855"/><use xlink:href="#r" x="449.781" y="57.855"/><use xlink:href="#W" x="455.855" y="57.855"/><use xlink:href="#H" x="463.316" y="57.855"/><use xlink:href="#C" x="467.223" y="57.855"/><use xlink:href="#n" x="475.133" y="57.855"/><use xlink:href="#X" x="482.574" y="57.855"/><use xlink:href="#U" x="490.68" y="57.855"/><use xlink:href="#Y" x="496.695" y="57.855"/><use xlink:href="#n" x="504.625" y="57.855"/><use xlink:href="#I" x="512.066" y="57.855"/><use xlink:href="#B" x="516.266" y="57.855"/></g><path style="stroke:none;fill-rule:evenodd;fill:#fff;fill-opacity:1" d="M54.402 467.422h183.602v21.25H54.402zm0 0"/><g style="fill:#000;fill-opacity:1"><use xlink:href="#B" x="54.402" y="483.672"/><use xlink:href="#x" x="62.234" y="483.672"/><use xlink:href="#r" x="70.008" y="483.672"/><use xlink:href="#l" x="76.082" y="483.672"/><use xlink:href="#p" x="81.023" y="483.672"/><use xlink:href="#I" x="88.23" y="483.672"/><use xlink:href="#U" x="92.43" y="483.672"/><use xlink:href="#p" x="98.445" y="483.672"/><use xlink:href="#q" x="105.652" y="483.672"/><use xlink:href="#q" x="113.445" y="483.672"/><use xlink:href="#m" x="121.238" y="483.672"/><use xlink:href="#n" x="126.18" y="483.672"/><use xlink:href="#r" x="133.621" y="483.672"/><use xlink:href="#r" x="139.695" y="483.672"/><use xlink:href="#U" x="145.77" y="483.672"/><use xlink:href="#Z" x="151.785" y="483.672"/><use xlink:href="#H" x="158.27" y="483.672"/><use xlink:href="#B" x="162.176" y="483.672"/><use xlink:href="#aa" x="170.008" y="483.672"/><use xlink:href="#x" x="177.781" y="483.672"/><use xlink:href="#q" x="185.555" y="483.672"/><use xlink:href="#n" x="193.348" y="483.672"/><use xlink:href="#U" x="200.789" y="483.672"/><use xlink:href="#I" x="206.805" y="483.672"/><use xlink:href="#p" x="211.004" y="483.672"/><use xlink:href="#w" x="218.211" y="483.672"/><use xlink:href="#n" x="226.023" y="483.672"/><use xlink:href="#I" x="233.465" y="483.672"/></g><path style="fill:none;stroke-width:.1;stroke-linecap:butt;stroke-linejoin:miter;stroke:#000;stroke-opacity:1;stroke-miterlimit:10" d="m53.803 63.6.026-7.133" transform="matrix(20 0 0 20 -483.724 -812.534)"/><path style="fill-rule:evenodd;fill:#000;fill-opacity:1;stroke-width:.1;stroke-linecap:butt;stroke-linejoin:miter;stroke:#000;stroke-opacity:1;stroke-miterlimit:10" d="M53.83 56.467c.124 0 .249.126.248.251 0 .125-.126.25-.25.25a.269.269 0 0 1-.25-.252c0-.125.126-.25.251-.249" transform="matrix(20 0 0 20 -483.724 -812.534)"/><path style="fill:none;stroke-width:.1;stroke-linecap:butt;stroke-linejoin:miter;stroke:#000;stroke-opacity:1;stroke-miterlimit:10" d="m29.356 63.968.027-4.877" transform="matrix(20 0 0 20 -483.724 -812.534)"/><path style="fill-rule:evenodd;fill:#000;fill-opacity:1;stroke-width:.1;stroke-linecap:butt;stroke-linejoin:miter;stroke:#000;stroke-opacity:1;stroke-miterlimit:10" d="M29.383 59.091c.125 0 .25.127.248.252 0 .125-.126.249-.251.248a.269.269 0 0 1-.249-.251c.001-.125.127-.25.252-.249" transform="matrix(20 0 0 20 -483.724 -812.534)"/></svg>
