<svg xmlns="http://www.w3.org/2000/svg" xmlns:xlink="http://www.w3.org/1999/xlink" width="650" viewBox="0 0 722 514"><defs><symbol overflow="visible" id="a"><path d="M 6.5625 -3.15625 L 3.265625 -3.15625 L 2.4375 0 L -0.0625 0 L 4 -14.09375 L 5.984375 -14.09375 L 10.0625 0 L 7.421875 0 Z M 3.796875 -5.234375 L 6.125 -5.234375 L 5.3125 -8.5 L 5 -10.703125 L 4.921875 -10.703125 L 4.578125 -8.484375 Z M 3.796875 -5.234375"/></symbol><symbol overflow="visible" id="b"><path d="M 8.046875 -3.515625 C 8.046875 -2.960938 8.050781 -2.40625 8.0625 -1.84375 C 8.070312 -1.28125 8.125 -0.660156 8.21875 0.015625 L 6.546875 0.015625 L 6.21875 -1.140625 L 6.140625 -1.140625 C 5.679688 -0.203125 4.890625 0.265625 3.765625 0.265625 C 2.742188 0.265625 1.941406 -0.132812 1.359375 -0.9375 C 0.785156 -1.738281 0.5 -3.039062 0.5 -4.84375 C 0.5 -6.601562 0.8125 -7.9375 1.4375 -8.84375 C 2.0625 -9.757812 2.992188 -10.21875 4.234375 -10.21875 C 4.554688 -10.21875 4.820312 -10.195312 5.03125 -10.15625 C 5.25 -10.113281 5.457031 -10.046875 5.65625 -9.953125 L 5.65625 -14 L 8.046875 -14 Z M 4.3125 -1.921875 C 4.675781 -1.921875 4.960938 -2.007812 5.171875 -2.1875 C 5.390625 -2.363281 5.550781 -2.628906 5.65625 -2.984375 L 5.65625 -7.703125 C 5.519531 -7.816406 5.367188 -7.898438 5.203125 -7.953125 C 5.035156 -8.015625 4.820312 -8.046875 4.5625 -8.046875 C 4.03125 -8.046875 3.628906 -7.800781 3.359375 -7.3125 C 3.085938 -6.832031 2.953125 -5.984375 2.953125 -4.765625 C 2.953125 -3.835938 3.0625 -3.128906 3.28125 -2.640625 C 3.507812 -2.160156 3.851562 -1.921875 4.3125 -1.921875 Z M 4.3125 -1.921875"/></symbol><symbol overflow="visible" id="c"><path d="M 5.578125 -7.640625 C 5.253906 -7.753906 4.960938 -7.8125 4.703125 -7.8125 C 4.335938 -7.8125 4.023438 -7.710938 3.765625 -7.515625 C 3.503906 -7.316406 3.328125 -7.039062 3.234375 -6.6875 L 3.234375 0 L 0.859375 0 L 0.859375 -10 L 2.6875 -10 L 2.953125 -8.796875 L 3.046875 -8.796875 C 3.210938 -9.234375 3.457031 -9.578125 3.78125 -9.828125 C 4.113281 -10.078125 4.492188 -10.203125 4.921875 -10.203125 C 5.242188 -10.203125 5.554688 -10.132812 5.859375 -10 Z M 5.578125 -7.640625"/></symbol><symbol overflow="visible" id="d"><path d="M 7.625 -0.734375 C 7.289062 -0.441406 6.835938 -0.203125 6.265625 -0.015625 C 5.691406 0.171875 5.085938 0.265625 4.453125 0.265625 C 3.765625 0.265625 3.171875 0.144531 2.671875 -0.09375 C 2.171875 -0.332031 1.757812 -0.675781 1.4375 -1.125 C 1.113281 -1.582031 0.875 -2.132812 0.71875 -2.78125 C 0.570312 -3.4375 0.5 -4.175781 0.5 -5 C 0.5 -6.800781 0.851562 -8.128906 1.5625 -8.984375 C 2.28125 -9.847656 3.273438 -10.28125 4.546875 -10.28125 C 4.972656 -10.28125 5.382812 -10.21875 5.78125 -10.09375 C 6.175781 -9.96875 6.53125 -9.753906 6.84375 -9.453125 C 7.15625 -9.148438 7.410156 -8.75 7.609375 -8.25 C 7.804688 -7.75 7.90625 -7.117188 7.90625 -6.359375 C 7.90625 -6.066406 7.882812 -5.753906 7.84375 -5.421875 C 7.8125 -5.085938 7.765625 -4.726562 7.703125 -4.34375 L 2.84375 -4.34375 C 2.863281 -3.507812 3.035156 -2.875 3.359375 -2.4375 C 3.679688 -2 4.195312 -1.78125 4.90625 -1.78125 C 5.332031 -1.78125 5.71875 -1.847656 6.0625 -1.984375 C 6.414062 -2.117188 6.6875 -2.257812 6.875 -2.40625 Z M 4.5 -8.234375 C 3.988281 -8.234375 3.609375 -8.03125 3.359375 -7.625 C 3.109375 -7.21875 2.960938 -6.648438 2.921875 -5.921875 L 5.6875 -5.921875 C 5.71875 -6.679688 5.632812 -7.253906 5.4375 -7.640625 C 5.238281 -8.035156 4.925781 -8.234375 4.5 -8.234375 Z M 4.5 -8.234375"/></symbol><symbol overflow="visible" id="e"><path d="M 4.21875 -2.65625 C 4.21875 -2.9375 4.128906 -3.171875 3.953125 -3.359375 C 3.773438 -3.554688 3.546875 -3.738281 3.265625 -3.90625 C 2.984375 -4.070312 2.6875 -4.242188 2.375 -4.421875 C 2.0625 -4.597656 1.765625 -4.8125 1.484375 -5.0625 C 1.203125 -5.3125 0.96875 -5.613281 0.78125 -5.96875 C 0.601562 -6.332031 0.515625 -6.789062 0.515625 -7.34375 C 0.515625 -8.269531 0.769531 -8.988281 1.28125 -9.5 C 1.789062 -10.007812 2.535156 -10.265625 3.515625 -10.265625 C 4.109375 -10.265625 4.660156 -10.195312 5.171875 -10.0625 C 5.691406 -9.9375 6.109375 -9.78125 6.421875 -9.59375 L 5.859375 -7.765625 C 5.609375 -7.867188 5.300781 -7.96875 4.9375 -8.0625 C 4.582031 -8.164062 4.226562 -8.21875 3.875 -8.21875 C 3.226562 -8.21875 2.90625 -7.945312 2.90625 -7.40625 C 2.90625 -7.144531 2.992188 -6.929688 3.171875 -6.765625 C 3.347656 -6.597656 3.578125 -6.4375 3.859375 -6.28125 C 4.140625 -6.125 4.4375 -5.957031 4.75 -5.78125 C 5.0625 -5.601562 5.359375 -5.382812 5.640625 -5.125 C 5.921875 -4.863281 6.148438 -4.546875 6.328125 -4.171875 C 6.503906 -3.804688 6.59375 -3.347656 6.59375 -2.796875 C 6.59375 -1.878906 6.3125 -1.140625 5.75 -0.578125 C 5.195312 -0.015625 4.367188 0.265625 3.265625 0.265625 C 2.710938 0.265625 2.171875 0.195312 1.640625 0.0625 C 1.117188 -0.0703125 0.695312 -0.242188 0.375 -0.453125 L 1.046875 -2.375 C 1.316406 -2.21875 1.632812 -2.078125 2 -1.953125 C 2.375 -1.835938 2.757812 -1.78125 3.15625 -1.78125 C 3.46875 -1.78125 3.722656 -1.847656 3.921875 -1.984375 C 4.117188 -2.128906 4.21875 -2.351562 4.21875 -2.65625 Z M 4.21875 -2.65625"/></symbol><symbol overflow="visible" id="g"><path d="M 3.28125 -3.234375 C 3.28125 -2.773438 3.328125 -2.441406 3.421875 -2.234375 C 3.515625 -2.035156 3.664062 -1.9375 3.875 -1.9375 C 4 -1.9375 4.125 -1.945312 4.25 -1.96875 C 4.375 -2 4.519531 -2.050781 4.6875 -2.125 L 4.90625 -0.203125 C 4.738281 -0.0976562 4.460938 0 4.078125 0.09375 C 3.691406 0.1875 3.300781 0.234375 2.90625 0.234375 C 2.238281 0.234375 1.738281 0.0664062 1.40625 -0.265625 C 1.070312 -0.597656 0.90625 -1.160156 0.90625 -1.953125 L 0.90625 -14 L 3.28125 -14 Z M 3.28125 -3.234375"/></symbol><symbol overflow="visible" id="h"><path d="M 1.0625 -10 L 3.4375 -10 L 3.4375 0 L 1.0625 0 Z M 1.203125 -12.8125 C 1.203125 -13.21875 1.328125 -13.550781 1.578125 -13.8125 C 1.828125 -14.070312 2.1875 -14.203125 2.65625 -14.203125 C 3.125 -14.203125 3.5 -14.070312 3.78125 -13.8125 C 4.0625 -13.5625 4.203125 -13.226562 4.203125 -12.8125 C 4.203125 -12.40625 4.0625 -12.082031 3.78125 -11.84375 C 3.5 -11.601562 3.125 -11.484375 2.65625 -11.484375 C 2.1875 -11.484375 1.828125 -11.601562 1.578125 -11.84375 C 1.328125 -12.09375 1.203125 -12.414062 1.203125 -12.8125 Z M 1.203125 -12.8125"/></symbol><symbol overflow="visible" id="i"><path d="M 5.8125 0 L 5.8125 -6.078125 C 5.8125 -6.816406 5.722656 -7.332031 5.546875 -7.625 C 5.378906 -7.914062 5.09375 -8.0625 4.6875 -8.0625 C 4.332031 -8.0625 4.03125 -7.953125 3.78125 -7.734375 C 3.53125 -7.523438 3.347656 -7.257812 3.234375 -6.9375 L 3.234375 0 L 0.859375 0 L 0.859375 -10 L 2.765625 -10 L 3.046875 -8.84375 L 3.09375 -8.84375 C 3.332031 -9.226562 3.660156 -9.554688 4.078125 -9.828125 C 4.492188 -10.097656 5.035156 -10.234375 5.703125 -10.234375 C 6.097656 -10.234375 6.453125 -10.171875 6.765625 -10.046875 C 7.078125 -9.929688 7.335938 -9.738281 7.546875 -9.46875 C 7.765625 -9.195312 7.925781 -8.832031 8.03125 -8.375 C 8.144531 -7.914062 8.203125 -7.34375 8.203125 -6.65625 L 8.203125 0 Z M 5.8125 0"/></symbol><symbol overflow="visible" id="j"><path d="M 1.734375 -2.125 L 4.015625 -2.125 L 4.015625 -9.984375 L 4.28125 -11.34375 L 3.453125 -10.15625 L 2.140625 -9.140625 L 1.046875 -10.484375 L 4.90625 -14.234375 L 6.296875 -14.234375 L 6.296875 -2.125 L 8.546875 -2.125 L 8.546875 0 L 1.734375 0 Z M 1.734375 -2.125"/></symbol><symbol overflow="visible" id="E"><path d="M 8.046875 -10.640625 C 8.046875 -9.941406 7.941406 -9.226562 7.734375 -8.5 C 7.535156 -7.78125 7.28125 -7.070312 6.96875 -6.375 C 6.65625 -5.6875 6.3125 -5.023438 5.9375 -4.390625 C 5.5625 -3.765625 5.195312 -3.210938 4.84375 -2.734375 L 3.953125 -1.921875 L 3.953125 -1.8125 L 5.15625 -2.125 L 8.265625 -2.125 L 8.265625 0 L 1.234375 0 L 1.234375 -1.375 C 1.515625 -1.726562 1.816406 -2.125 2.140625 -2.5625 C 2.472656 -3.007812 2.800781 -3.484375 3.125 -3.984375 C 3.457031 -4.484375 3.773438 -5.003906 4.078125 -5.546875 C 4.390625 -6.085938 4.660156 -6.628906 4.890625 -7.171875 C 5.117188 -7.710938 5.300781 -8.242188 5.4375 -8.765625 C 5.582031 -9.285156 5.644531 -9.769531 5.625 -10.21875 C 5.644531 -10.78125 5.519531 -11.234375 5.25 -11.578125 C 4.988281 -11.921875 4.570312 -12.09375 4 -12.09375 C 3.664062 -12.09375 3.320312 -12.015625 2.96875 -11.859375 C 2.625 -11.710938 2.332031 -11.53125 2.09375 -11.3125 L 1.1875 -13.0625 C 1.625 -13.4375 2.117188 -13.734375 2.671875 -13.953125 C 3.234375 -14.171875 3.894531 -14.28125 4.65625 -14.28125 C 5.132812 -14.28125 5.582031 -14.203125 6 -14.046875 C 6.414062 -13.890625 6.769531 -13.660156 7.0625 -13.359375 C 7.363281 -13.054688 7.601562 -12.675781 7.78125 -12.21875 C 7.957031 -11.769531 8.046875 -11.242188 8.046875 -10.640625 Z M 8.046875 -10.640625"/></symbol><symbol overflow="visible" id="L"><path d="M 8.84375 -0.5625 C 8.488281 -0.269531 8.019531 -0.0546875 7.4375 0.078125 C 6.863281 0.210938 6.289062 0.28125 5.71875 0.28125 C 5 0.28125 4.328125 0.160156 3.703125 -0.078125 C 3.085938 -0.328125 2.546875 -0.738281 2.078125 -1.3125 C 1.609375 -1.894531 1.238281 -2.648438 0.96875 -3.578125 C 0.707031 -4.515625 0.578125 -5.660156 0.578125 -7.015625 C 0.578125 -8.429688 0.726562 -9.601562 1.03125 -10.53125 C 1.332031 -11.46875 1.722656 -12.210938 2.203125 -12.765625 C 2.691406 -13.316406 3.25 -13.707031 3.875 -13.9375 C 4.5 -14.164062 5.132812 -14.28125 5.78125 -14.28125 C 6.4375 -14.28125 7.003906 -14.222656 7.484375 -14.109375 C 7.972656 -14.003906 8.375 -13.890625 8.6875 -13.765625 L 8.1875 -11.546875 C 7.925781 -11.671875 7.625 -11.769531 7.28125 -11.84375 C 6.945312 -11.914062 6.546875 -11.953125 6.078125 -11.953125 C 5.160156 -11.953125 4.453125 -11.550781 3.953125 -10.75 C 3.460938 -9.957031 3.21875 -8.707031 3.21875 -7 C 3.21875 -6.269531 3.273438 -5.597656 3.390625 -4.984375 C 3.503906 -4.378906 3.679688 -3.859375 3.921875 -3.421875 C 4.171875 -2.984375 4.484375 -2.644531 4.859375 -2.40625 C 5.242188 -2.164062 5.703125 -2.046875 6.234375 -2.046875 C 6.703125 -2.046875 7.101562 -2.109375 7.4375 -2.234375 C 7.769531 -2.359375 8.070312 -2.507812 8.34375 -2.6875 Z M 8.84375 -0.5625"/></symbol><symbol overflow="visible" id="M"><path d="M 0.078125 -10 L 1.1875 -10 L 1.1875 -11.875 L 3.5625 -12.625 L 3.5625 -10 L 5.5 -10 L 5.5 -7.875 L 3.5625 -7.875 L 3.5625 -3.515625 C 3.5625 -2.941406 3.617188 -2.535156 3.734375 -2.296875 C 3.847656 -2.054688 4.050781 -1.9375 4.34375 -1.9375 C 4.539062 -1.9375 4.71875 -1.957031 4.875 -2 C 5.039062 -2.039062 5.21875 -2.101562 5.40625 -2.1875 L 5.703125 -0.28125 C 5.410156 -0.132812 5.066406 -0.015625 4.671875 0.078125 C 4.285156 0.179688 3.878906 0.234375 3.453125 0.234375 C 2.691406 0.234375 2.125 0.015625 1.75 -0.421875 C 1.375 -0.859375 1.1875 -1.597656 1.1875 -2.640625 L 1.1875 -7.875 L 0.078125 -7.875 Z M 0.078125 -10"/></symbol><symbol overflow="visible" id="N"><path d="M 4.0625 -4.375 L 4.3125 -2.8125 L 4.421875 -2.8125 L 4.59375 -4.40625 L 5.765625 -10 L 8.203125 -10 L 5.703125 -0.984375 C 5.472656 -0.191406 5.257812 0.515625 5.0625 1.140625 C 4.863281 1.765625 4.648438 2.296875 4.421875 2.734375 C 4.191406 3.179688 3.929688 3.519531 3.640625 3.75 C 3.359375 3.976562 3.019531 4.09375 2.625 4.09375 C 2.34375 4.09375 2.070312 4.066406 1.8125 4.015625 C 1.550781 3.972656 1.328125 3.898438 1.140625 3.796875 L 1.546875 1.765625 C 1.710938 1.828125 1.882812 1.851562 2.0625 1.84375 C 2.25 1.84375 2.414062 1.773438 2.5625 1.640625 C 2.71875 1.515625 2.851562 1.316406 2.96875 1.046875 C 3.09375 0.785156 3.195312 0.4375 3.28125 0 L -0.203125 -10 L 2.65625 -10 Z M 4.0625 -4.375"/></symbol><symbol overflow="visible" id="O"><path d="M 0.421875 -2.3125 L 5.09375 -10.859375 L 5.9375 -11.6875 L 0.421875 -11.6875 L 0.421875 -14 L 8.484375 -14 L 8.484375 -11.6875 L 3.78125 -3.078125 L 2.953125 -2.3125 L 8.484375 -2.3125 L 8.484375 0 L 0.421875 0 Z M 0.421875 -2.3125"/></symbol><symbol overflow="visible" id="P"><path d="M 1.125 -14 L 3.640625 -14 L 3.640625 0 L 1.125 0 Z M 1.125 -14"/></symbol><symbol overflow="visible" id="Q"><path d="M 0.90625 -13.859375 C 1.382812 -13.960938 1.910156 -14.046875 2.484375 -14.109375 C 3.054688 -14.171875 3.628906 -14.203125 4.203125 -14.203125 C 4.816406 -14.203125 5.421875 -14.144531 6.015625 -14.03125 C 6.609375 -13.914062 7.132812 -13.691406 7.59375 -13.359375 C 8.0625 -13.023438 8.441406 -12.554688 8.734375 -11.953125 C 9.035156 -11.347656 9.1875 -10.554688 9.1875 -9.578125 C 9.1875 -8.703125 9.0625 -7.957031 8.8125 -7.34375 C 8.5625 -6.726562 8.226562 -6.226562 7.8125 -5.84375 C 7.40625 -5.457031 6.929688 -5.175781 6.390625 -5 C 5.847656 -4.820312 5.289062 -4.734375 4.71875 -4.734375 C 4.664062 -4.734375 4.578125 -4.734375 4.453125 -4.734375 C 4.335938 -4.734375 4.210938 -4.738281 4.078125 -4.75 C 3.941406 -4.757812 3.8125 -4.769531 3.6875 -4.78125 C 3.5625 -4.789062 3.472656 -4.800781 3.421875 -4.8125 L 3.421875 0 L 0.90625 0 Z M 3.421875 -7.078125 C 3.503906 -7.054688 3.65625 -7.035156 3.875 -7.015625 C 4.09375 -6.992188 4.238281 -6.984375 4.3125 -6.984375 C 4.613281 -6.984375 4.894531 -7.019531 5.15625 -7.09375 C 5.425781 -7.175781 5.664062 -7.3125 5.875 -7.5 C 6.082031 -7.695312 6.242188 -7.960938 6.359375 -8.296875 C 6.484375 -8.640625 6.546875 -9.070312 6.546875 -9.59375 C 6.546875 -10.039062 6.488281 -10.414062 6.375 -10.71875 C 6.257812 -11.03125 6.101562 -11.273438 5.90625 -11.453125 C 5.71875 -11.628906 5.492188 -11.753906 5.234375 -11.828125 C 4.984375 -11.910156 4.71875 -11.953125 4.4375 -11.953125 C 4.019531 -11.953125 3.679688 -11.921875 3.421875 -11.859375 Z M 3.421875 -7.078125"/></symbol><symbol overflow="visible" id="R"><path d="M 0.5 -5 C 0.5 -6.769531 0.84375 -8.085938 1.53125 -8.953125 C 2.226562 -9.828125 3.195312 -10.265625 4.4375 -10.265625 C 5.769531 -10.265625 6.765625 -9.820312 7.421875 -8.9375 C 8.078125 -8.0625 8.40625 -6.75 8.40625 -5 C 8.40625 -3.207031 8.054688 -1.878906 7.359375 -1.015625 C 6.660156 -0.160156 5.6875 0.265625 4.4375 0.265625 C 1.8125 0.265625 0.5 -1.488281 0.5 -5 Z M 2.953125 -5 C 2.953125 -4 3.066406 -3.222656 3.296875 -2.671875 C 3.523438 -2.128906 3.90625 -1.859375 4.4375 -1.859375 C 4.945312 -1.859375 5.320312 -2.09375 5.5625 -2.5625 C 5.8125 -3.039062 5.9375 -3.851562 5.9375 -5 C 5.9375 -6.03125 5.820312 -6.8125 5.59375 -7.34375 C 5.375 -7.875 4.988281 -8.140625 4.4375 -8.140625 C 3.96875 -8.140625 3.601562 -7.898438 3.34375 -7.421875 C 3.082031 -6.953125 2.953125 -6.144531 2.953125 -5 Z M 2.953125 -5"/></symbol><symbol overflow="visible" id="S"><path d="M 5.796875 -3.59375 C 5.796875 -4.019531 5.671875 -4.382812 5.421875 -4.6875 C 5.171875 -4.988281 4.851562 -5.269531 4.46875 -5.53125 C 4.09375 -5.800781 3.679688 -6.078125 3.234375 -6.359375 C 2.785156 -6.640625 2.367188 -6.96875 1.984375 -7.34375 C 1.609375 -7.71875 1.289062 -8.15625 1.03125 -8.65625 C 0.78125 -9.164062 0.65625 -9.785156 0.65625 -10.515625 C 0.65625 -11.203125 0.757812 -11.78125 0.96875 -12.25 C 1.175781 -12.71875 1.457031 -13.101562 1.8125 -13.40625 C 2.175781 -13.707031 2.601562 -13.925781 3.09375 -14.0625 C 3.59375 -14.207031 4.125 -14.28125 4.6875 -14.28125 C 5.363281 -14.28125 5.992188 -14.210938 6.578125 -14.078125 C 7.160156 -13.941406 7.648438 -13.765625 8.046875 -13.546875 L 7.265625 -11.3125 C 7.035156 -11.476562 6.695312 -11.625 6.25 -11.75 C 5.800781 -11.882812 5.316406 -11.953125 4.796875 -11.953125 C 4.273438 -11.953125 3.875 -11.84375 3.59375 -11.625 C 3.320312 -11.414062 3.1875 -11.109375 3.1875 -10.703125 C 3.1875 -10.328125 3.3125 -9.992188 3.5625 -9.703125 C 3.8125 -9.421875 4.125 -9.144531 4.5 -8.875 C 4.882812 -8.613281 5.300781 -8.335938 5.75 -8.046875 C 6.195312 -7.765625 6.609375 -7.429688 6.984375 -7.046875 C 7.367188 -6.671875 7.6875 -6.222656 7.9375 -5.703125 C 8.1875 -5.191406 8.3125 -4.582031 8.3125 -3.875 C 8.3125 -3.164062 8.207031 -2.550781 8 -2.03125 C 7.800781 -1.519531 7.507812 -1.09375 7.125 -0.75 C 6.75 -0.40625 6.289062 -0.148438 5.75 0.015625 C 5.21875 0.191406 4.628906 0.28125 3.984375 0.28125 C 3.148438 0.28125 2.421875 0.195312 1.796875 0.03125 C 1.179688 -0.125 0.707031 -0.300781 0.375 -0.5 L 1.203125 -2.765625 C 1.460938 -2.597656 1.828125 -2.4375 2.296875 -2.28125 C 2.765625 -2.125 3.265625 -2.046875 3.796875 -2.046875 C 5.128906 -2.046875 5.796875 -2.5625 5.796875 -3.59375 Z M 5.796875 -3.59375"/></symbol><symbol overflow="visible" id="T"><path d="M 0.875 -9.40625 C 1.28125 -9.644531 1.78125 -9.835938 2.375 -9.984375 C 2.976562 -10.128906 3.660156 -10.203125 4.421875 -10.203125 C 5.554688 -10.203125 6.34375 -9.90625 6.78125 -9.3125 C 7.226562 -8.726562 7.453125 -7.894531 7.453125 -6.8125 C 7.453125 -6.1875 7.4375 -5.570312 7.40625 -4.96875 C 7.375 -4.363281 7.347656 -3.769531 7.328125 -3.1875 C 7.316406 -2.601562 7.328125 -2.039062 7.359375 -1.5 C 7.398438 -0.96875 7.492188 -0.460938 7.640625 0.015625 L 5.703125 0.015625 L 5.3125 -1.203125 L 5.234375 -1.203125 C 5.023438 -0.816406 4.726562 -0.492188 4.34375 -0.234375 C 3.957031 0.015625 3.46875 0.140625 2.875 0.140625 C 2.09375 0.140625 1.472656 -0.117188 1.015625 -0.640625 C 0.566406 -1.171875 0.34375 -1.878906 0.34375 -2.765625 C 0.34375 -3.960938 0.769531 -4.8125 1.625 -5.3125 C 2.476562 -5.820312 3.628906 -6.035156 5.078125 -5.953125 C 5.148438 -6.734375 5.101562 -7.296875 4.9375 -7.640625 C 4.769531 -7.984375 4.410156 -8.15625 3.859375 -8.15625 C 3.460938 -8.15625 3.050781 -8.109375 2.625 -8.015625 C 2.195312 -7.921875 1.816406 -7.789062 1.484375 -7.625 Z M 3.734375 -1.90625 C 4.097656 -1.90625 4.390625 -1.992188 4.609375 -2.171875 C 4.835938 -2.347656 5.007812 -2.546875 5.125 -2.765625 L 5.125 -4.421875 C 4.8125 -4.460938 4.515625 -4.46875 4.234375 -4.4375 C 3.953125 -4.414062 3.707031 -4.359375 3.5 -4.265625 C 3.289062 -4.171875 3.117188 -4.03125 2.984375 -3.84375 C 2.859375 -3.664062 2.796875 -3.4375 2.796875 -3.15625 C 2.796875 -2.75 2.878906 -2.4375 3.046875 -2.21875 C 3.210938 -2.007812 3.441406 -1.90625 3.734375 -1.90625 Z M 3.734375 -1.90625"/></symbol><symbol overflow="visible" id="k"><path d="M 1.0625 -1.671875 C 1.289062 -1.515625 1.609375 -1.367188 2.015625 -1.234375 C 2.429688 -1.097656 2.90625 -1.03125 3.4375 -1.03125 C 4.113281 -1.03125 4.660156 -1.191406 5.078125 -1.515625 C 5.492188 -1.847656 5.703125 -2.367188 5.703125 -3.078125 C 5.703125 -3.546875 5.582031 -3.953125 5.34375 -4.296875 C 5.101562 -4.648438 4.800781 -4.972656 4.4375 -5.265625 C 4.082031 -5.554688 3.695312 -5.84375 3.28125 -6.125 C 2.863281 -6.40625 2.472656 -6.71875 2.109375 -7.0625 C 1.753906 -7.40625 1.457031 -7.796875 1.21875 -8.234375 C 0.976562 -8.679688 0.859375 -9.21875 0.859375 -9.84375 C 0.859375 -10.851562 1.160156 -11.597656 1.765625 -12.078125 C 2.378906 -12.566406 3.171875 -12.8125 4.140625 -12.8125 C 4.742188 -12.8125 5.273438 -12.753906 5.734375 -12.640625 C 6.203125 -12.535156 6.582031 -12.398438 6.875 -12.234375 L 6.4375 -11.046875 C 6.226562 -11.179688 5.921875 -11.300781 5.515625 -11.40625 C 5.109375 -11.519531 4.644531 -11.578125 4.125 -11.578125 C 3.476562 -11.578125 3 -11.414062 2.6875 -11.09375 C 2.375 -10.78125 2.21875 -10.382812 2.21875 -9.90625 C 2.21875 -9.476562 2.335938 -9.101562 2.578125 -8.78125 C 2.816406 -8.457031 3.113281 -8.148438 3.46875 -7.859375 C 3.832031 -7.578125 4.21875 -7.285156 4.625 -6.984375 C 5.039062 -6.691406 5.429688 -6.363281 5.796875 -6 C 6.160156 -5.644531 6.460938 -5.238281 6.703125 -4.78125 C 6.941406 -4.332031 7.0625 -3.796875 7.0625 -3.171875 C 7.0625 -2.109375 6.75 -1.273438 6.125 -0.671875 C 5.5 -0.078125 4.613281 0.21875 3.46875 0.21875 C 2.75 0.21875 2.160156 0.148438 1.703125 0.015625 C 1.242188 -0.117188 0.875 -0.269531 0.59375 -0.4375 Z M 1.0625 -1.671875"/></symbol><symbol overflow="visible" id="l"><path d="M 0.15625 -9 L 1.265625 -9 L 1.265625 -10.78125 L 2.5625 -11.203125 L 2.5625 -9 L 4.5 -9 L 4.5 -7.828125 L 2.5625 -7.828125 L 2.5625 -2.46875 C 2.5625 -1.9375 2.625 -1.550781 2.75 -1.3125 C 2.875 -1.082031 3.078125 -0.96875 3.359375 -0.96875 C 3.597656 -0.96875 3.804688 -0.992188 3.984375 -1.046875 C 4.160156 -1.109375 4.347656 -1.179688 4.546875 -1.265625 L 4.8125 -0.234375 C 4.539062 -0.0976562 4.242188 0.00390625 3.921875 0.078125 C 3.609375 0.160156 3.28125 0.203125 2.9375 0.203125 C 2.332031 0.203125 1.898438 0.0078125 1.640625 -0.375 C 1.390625 -0.769531 1.265625 -1.40625 1.265625 -2.28125 L 1.265625 -7.828125 L 0.15625 -7.828125 Z M 0.15625 -9"/></symbol><symbol overflow="visible" id="m"><path d="M 1.0625 -9 L 1.984375 -9 L 2.21875 -8.046875 L 2.265625 -8.046875 C 2.429688 -8.390625 2.648438 -8.660156 2.921875 -8.859375 C 3.191406 -9.054688 3.519531 -9.15625 3.90625 -9.15625 C 4.175781 -9.15625 4.488281 -9.101562 4.84375 -9 L 4.59375 -7.6875 C 4.28125 -7.789062 4.003906 -7.84375 3.765625 -7.84375 C 3.378906 -7.84375 3.066406 -7.734375 2.828125 -7.515625 C 2.585938 -7.296875 2.429688 -7 2.359375 -6.625 L 2.359375 0 L 1.0625 0 Z M 1.0625 -9"/></symbol><symbol overflow="visible" id="n"><path d="M 6.4375 -0.609375 C 6.15625 -0.347656 5.789062 -0.144531 5.34375 0 C 4.90625 0.144531 4.4375 0.21875 3.9375 0.21875 C 3.375 0.21875 2.882812 0.109375 2.46875 -0.109375 C 2.0625 -0.335938 1.722656 -0.65625 1.453125 -1.0625 C 1.179688 -1.476562 0.984375 -1.972656 0.859375 -2.546875 C 0.734375 -3.128906 0.671875 -3.78125 0.671875 -4.5 C 0.671875 -6.03125 0.953125 -7.195312 1.515625 -8 C 2.078125 -8.8125 2.875 -9.21875 3.90625 -9.21875 C 4.238281 -9.21875 4.570312 -9.175781 4.90625 -9.09375 C 5.238281 -9.007812 5.535156 -8.835938 5.796875 -8.578125 C 6.054688 -8.328125 6.265625 -7.972656 6.421875 -7.515625 C 6.585938 -7.066406 6.671875 -6.472656 6.671875 -5.734375 C 6.671875 -5.535156 6.660156 -5.316406 6.640625 -5.078125 C 6.628906 -4.847656 6.613281 -4.609375 6.59375 -4.359375 L 2.015625 -4.359375 C 2.015625 -3.835938 2.054688 -3.367188 2.140625 -2.953125 C 2.222656 -2.535156 2.351562 -2.175781 2.53125 -1.875 C 2.71875 -1.582031 2.953125 -1.351562 3.234375 -1.1875 C 3.515625 -1.03125 3.863281 -0.953125 4.28125 -0.953125 C 4.601562 -0.953125 4.921875 -1.007812 5.234375 -1.125 C 5.554688 -1.25 5.800781 -1.394531 5.96875 -1.5625 Z M 5.4375 -5.4375 C 5.457031 -6.332031 5.328125 -6.988281 5.046875 -7.40625 C 4.773438 -7.832031 4.398438 -8.046875 3.921875 -8.046875 C 3.367188 -8.046875 2.929688 -7.832031 2.609375 -7.40625 C 2.285156 -6.988281 2.09375 -6.332031 2.03125 -5.4375 Z M 5.4375 -5.4375"/></symbol><symbol overflow="visible" id="p"><path d="M 0.96875 -8.453125 C 1.320312 -8.671875 1.742188 -8.835938 2.234375 -8.953125 C 2.734375 -9.078125 3.257812 -9.140625 3.8125 -9.140625 C 4.320312 -9.140625 4.726562 -9.0625 5.03125 -8.90625 C 5.332031 -8.757812 5.570312 -8.554688 5.75 -8.296875 C 5.925781 -8.046875 6.039062 -7.753906 6.09375 -7.421875 C 6.144531 -7.097656 6.171875 -6.753906 6.171875 -6.390625 C 6.171875 -5.671875 6.15625 -4.96875 6.125 -4.28125 C 6.09375 -3.601562 6.078125 -2.957031 6.078125 -2.34375 C 6.078125 -1.882812 6.09375 -1.457031 6.125 -1.0625 C 6.15625 -0.675781 6.210938 -0.3125 6.296875 0.03125 L 5.3125 0.03125 L 5 -1.03125 L 4.9375 -1.03125 C 4.75 -0.71875 4.484375 -0.445312 4.140625 -0.21875 C 3.796875 0.0078125 3.328125 0.125 2.734375 0.125 C 2.085938 0.125 1.554688 -0.0976562 1.140625 -0.546875 C 0.722656 -0.992188 0.515625 -1.613281 0.515625 -2.40625 C 0.515625 -2.925781 0.601562 -3.359375 0.78125 -3.703125 C 0.957031 -4.054688 1.203125 -4.335938 1.515625 -4.546875 C 1.835938 -4.765625 2.21875 -4.914062 2.65625 -5 C 3.09375 -5.09375 3.582031 -5.140625 4.125 -5.140625 C 4.238281 -5.140625 4.351562 -5.140625 4.46875 -5.140625 C 4.59375 -5.140625 4.722656 -5.132812 4.859375 -5.125 C 4.890625 -5.5 4.90625 -5.832031 4.90625 -6.125 C 4.90625 -6.800781 4.800781 -7.273438 4.59375 -7.546875 C 4.394531 -7.828125 4.023438 -7.96875 3.484375 -7.96875 C 3.148438 -7.96875 2.785156 -7.914062 2.390625 -7.8125 C 1.992188 -7.71875 1.664062 -7.59375 1.40625 -7.4375 Z M 4.875 -4.109375 C 4.757812 -4.117188 4.640625 -4.125 4.515625 -4.125 C 4.398438 -4.132812 4.28125 -4.140625 4.15625 -4.140625 C 3.863281 -4.140625 3.578125 -4.113281 3.296875 -4.0625 C 3.023438 -4.019531 2.78125 -3.9375 2.5625 -3.8125 C 2.351562 -3.695312 2.1875 -3.535156 2.0625 -3.328125 C 1.9375 -3.128906 1.875 -2.875 1.875 -2.5625 C 1.875 -2.082031 1.988281 -1.707031 2.21875 -1.4375 C 2.457031 -1.175781 2.757812 -1.046875 3.125 -1.046875 C 3.632812 -1.046875 4.023438 -1.164062 4.296875 -1.40625 C 4.578125 -1.644531 4.769531 -1.910156 4.875 -2.203125 Z M 4.875 -4.109375"/></symbol><symbol overflow="visible" id="q"><path d="M 6.734375 -3.09375 C 6.734375 -2.476562 6.738281 -1.921875 6.75 -1.421875 C 6.757812 -0.929688 6.800781 -0.445312 6.875 0.03125 L 6 0.03125 L 5.703125 -1.046875 L 5.640625 -1.046875 C 5.460938 -0.679688 5.191406 -0.378906 4.828125 -0.140625 C 4.472656 0.0976562 4.046875 0.21875 3.546875 0.21875 C 2.578125 0.21875 1.851562 -0.15625 1.375 -0.90625 C 0.90625 -1.664062 0.671875 -2.859375 0.671875 -4.484375 C 0.671875 -6.015625 0.957031 -7.175781 1.53125 -7.96875 C 2.113281 -8.757812 2.914062 -9.15625 3.9375 -9.15625 C 4.289062 -9.15625 4.566406 -9.132812 4.765625 -9.09375 C 4.972656 -9.050781 5.195312 -8.984375 5.4375 -8.890625 L 5.4375 -12.59375 L 6.734375 -12.59375 Z M 5.4375 -7.578125 C 5.269531 -7.722656 5.078125 -7.828125 4.859375 -7.890625 C 4.648438 -7.953125 4.375 -7.984375 4.03125 -7.984375 C 3.394531 -7.984375 2.898438 -7.695312 2.546875 -7.125 C 2.191406 -6.550781 2.015625 -5.664062 2.015625 -4.46875 C 2.015625 -3.9375 2.046875 -3.457031 2.109375 -3.03125 C 2.179688 -2.601562 2.285156 -2.234375 2.421875 -1.921875 C 2.554688 -1.609375 2.734375 -1.367188 2.953125 -1.203125 C 3.179688 -1.035156 3.457031 -0.953125 3.78125 -0.953125 C 4.644531 -0.953125 5.195312 -1.460938 5.4375 -2.484375 Z M 5.4375 -7.578125"/></symbol><symbol overflow="visible" id="r"><path d="M 0.921875 -1.46875 C 1.160156 -1.332031 1.441406 -1.210938 1.765625 -1.109375 C 2.097656 -1.003906 2.441406 -0.953125 2.796875 -0.953125 C 3.191406 -0.953125 3.523438 -1.050781 3.796875 -1.25 C 4.078125 -1.445312 4.21875 -1.769531 4.21875 -2.21875 C 4.21875 -2.582031 4.128906 -2.882812 3.953125 -3.125 C 3.785156 -3.363281 3.570312 -3.578125 3.3125 -3.765625 C 3.0625 -3.960938 2.785156 -4.140625 2.484375 -4.296875 C 2.179688 -4.460938 1.898438 -4.660156 1.640625 -4.890625 C 1.390625 -5.117188 1.175781 -5.390625 1 -5.703125 C 0.832031 -6.015625 0.75 -6.410156 0.75 -6.890625 C 0.75 -7.660156 0.957031 -8.238281 1.375 -8.625 C 1.789062 -9.019531 2.375 -9.21875 3.125 -9.21875 C 3.625 -9.21875 4.050781 -9.171875 4.40625 -9.078125 C 4.769531 -8.992188 5.082031 -8.875 5.34375 -8.71875 L 5 -7.625 C 4.769531 -7.75 4.503906 -7.847656 4.203125 -7.921875 C 3.910156 -8.003906 3.609375 -8.046875 3.296875 -8.046875 C 2.859375 -8.046875 2.539062 -7.953125 2.34375 -7.765625 C 2.144531 -7.585938 2.046875 -7.3125 2.046875 -6.9375 C 2.046875 -6.632812 2.128906 -6.375 2.296875 -6.15625 C 2.472656 -5.945312 2.6875 -5.753906 2.9375 -5.578125 C 3.195312 -5.410156 3.476562 -5.234375 3.78125 -5.046875 C 4.082031 -4.867188 4.359375 -4.65625 4.609375 -4.40625 C 4.867188 -4.164062 5.082031 -3.875 5.25 -3.53125 C 5.425781 -3.195312 5.515625 -2.769531 5.515625 -2.25 C 5.515625 -1.914062 5.457031 -1.597656 5.34375 -1.296875 C 5.238281 -0.992188 5.070312 -0.734375 4.84375 -0.515625 C 4.625 -0.296875 4.347656 -0.117188 4.015625 0.015625 C 3.691406 0.148438 3.304688 0.21875 2.859375 0.21875 C 2.328125 0.21875 1.867188 0.164062 1.484375 0.0625 C 1.109375 -0.0390625 0.785156 -0.175781 0.515625 -0.34375 Z M 0.921875 -1.46875"/></symbol><symbol overflow="visible" id="s"><path d="M 0.640625 -0.78125 C 0.640625 -1.070312 0.726562 -1.304688 0.90625 -1.484375 C 1.082031 -1.671875 1.304688 -1.765625 1.578125 -1.765625 C 1.890625 -1.765625 2.144531 -1.640625 2.34375 -1.390625 C 2.539062 -1.140625 2.640625 -0.742188 2.640625 -0.203125 C 2.640625 0.191406 2.585938 0.546875 2.484375 0.859375 C 2.390625 1.179688 2.257812 1.460938 2.09375 1.703125 C 1.9375 1.941406 1.757812 2.140625 1.5625 2.296875 C 1.375 2.453125 1.191406 2.566406 1.015625 2.640625 L 0.5625 2.03125 C 0.71875 1.945312 0.863281 1.835938 1 1.703125 C 1.132812 1.566406 1.242188 1.410156 1.328125 1.234375 C 1.421875 1.066406 1.492188 0.890625 1.546875 0.703125 C 1.597656 0.523438 1.625 0.34375 1.625 0.15625 C 1.382812 0.226562 1.160156 0.179688 0.953125 0.015625 C 0.742188 -0.148438 0.640625 -0.414062 0.640625 -0.78125 Z M 0.640625 -0.78125"/></symbol><symbol overflow="visible" id="t"><path d="M 1.15625 -12.46875 C 1.539062 -12.582031 1.945312 -12.65625 2.375 -12.6875 C 2.8125 -12.726562 3.238281 -12.75 3.65625 -12.75 C 4.132812 -12.75 4.609375 -12.691406 5.078125 -12.578125 C 5.546875 -12.472656 5.96875 -12.273438 6.34375 -11.984375 C 6.71875 -11.703125 7.019531 -11.304688 7.25 -10.796875 C 7.488281 -10.296875 7.609375 -9.65625 7.609375 -8.875 C 7.609375 -8.113281 7.5 -7.46875 7.28125 -6.9375 C 7.0625 -6.414062 6.765625 -5.988281 6.390625 -5.65625 C 6.023438 -5.332031 5.601562 -5.09375 5.125 -4.9375 C 4.65625 -4.789062 4.171875 -4.71875 3.671875 -4.71875 C 3.617188 -4.71875 3.539062 -4.71875 3.4375 -4.71875 C 3.332031 -4.71875 3.21875 -4.71875 3.09375 -4.71875 C 2.976562 -4.726562 2.863281 -4.738281 2.75 -4.75 C 2.632812 -4.757812 2.550781 -4.769531 2.5 -4.78125 L 2.5 0 L 1.15625 0 Z M 3.71875 -11.5 C 3.476562 -11.5 3.25 -11.488281 3.03125 -11.46875 C 2.8125 -11.457031 2.632812 -11.429688 2.5 -11.390625 L 2.5 -6.03125 C 2.550781 -6.007812 2.625 -5.992188 2.71875 -5.984375 C 2.820312 -5.972656 2.925781 -5.960938 3.03125 -5.953125 C 3.144531 -5.953125 3.253906 -5.953125 3.359375 -5.953125 C 3.460938 -5.953125 3.535156 -5.953125 3.578125 -5.953125 C 3.921875 -5.953125 4.242188 -5.992188 4.546875 -6.078125 C 4.859375 -6.160156 5.132812 -6.3125 5.375 -6.53125 C 5.613281 -6.757812 5.804688 -7.0625 5.953125 -7.4375 C 6.109375 -7.820312 6.1875 -8.300781 6.1875 -8.875 C 6.1875 -9.375 6.117188 -9.789062 5.984375 -10.125 C 5.847656 -10.46875 5.664062 -10.738281 5.4375 -10.9375 C 5.21875 -11.144531 4.957031 -11.289062 4.65625 -11.375 C 4.363281 -11.457031 4.050781 -11.5 3.71875 -11.5 Z M 3.71875 -11.5"/></symbol><symbol overflow="visible" id="u"><path d="M 0.703125 -0.8125 C 0.703125 -1.144531 0.78125 -1.394531 0.9375 -1.5625 C 1.101562 -1.726562 1.328125 -1.8125 1.609375 -1.8125 C 1.878906 -1.8125 2.09375 -1.726562 2.25 -1.5625 C 2.414062 -1.394531 2.5 -1.144531 2.5 -0.8125 C 2.5 -0.457031 2.414062 -0.195312 2.25 -0.03125 C 2.09375 0.132812 1.878906 0.21875 1.609375 0.21875 C 1.328125 0.21875 1.101562 0.132812 0.9375 -0.03125 C 0.78125 -0.195312 0.703125 -0.457031 0.703125 -0.8125 Z M 0.703125 -0.8125"/></symbol><symbol overflow="visible" id="v"><path d="M 0.78125 -6.296875 C 0.78125 -8.429688 1.117188 -10.050781 1.796875 -11.15625 C 2.484375 -12.257812 3.53125 -12.8125 4.9375 -12.8125 C 5.6875 -12.8125 6.328125 -12.65625 6.859375 -12.34375 C 7.390625 -12.039062 7.816406 -11.609375 8.140625 -11.046875 C 8.472656 -10.484375 8.71875 -9.800781 8.875 -9 C 9.03125 -8.195312 9.109375 -7.296875 9.109375 -6.296875 C 9.109375 -4.160156 8.757812 -2.539062 8.0625 -1.4375 C 7.375 -0.332031 6.332031 0.21875 4.9375 0.21875 C 4.1875 0.21875 3.546875 0.0664062 3.015625 -0.234375 C 2.492188 -0.546875 2.0625 -0.984375 1.71875 -1.546875 C 1.382812 -2.109375 1.144531 -2.789062 1 -3.59375 C 0.851562 -4.40625 0.78125 -5.304688 0.78125 -6.296875 Z M 2.203125 -6.296875 C 2.203125 -5.585938 2.25 -4.914062 2.34375 -4.28125 C 2.445312 -3.644531 2.609375 -3.085938 2.828125 -2.609375 C 3.046875 -2.128906 3.328125 -1.742188 3.671875 -1.453125 C 4.015625 -1.171875 4.4375 -1.03125 4.9375 -1.03125 C 5.832031 -1.03125 6.515625 -1.460938 6.984375 -2.328125 C 7.453125 -3.191406 7.6875 -4.515625 7.6875 -6.296875 C 7.6875 -6.992188 7.632812 -7.660156 7.53125 -8.296875 C 7.425781 -8.929688 7.265625 -9.488281 7.046875 -9.96875 C 6.835938 -10.457031 6.554688 -10.847656 6.203125 -11.140625 C 5.859375 -11.429688 5.4375 -11.578125 4.9375 -11.578125 C 4.039062 -11.578125 3.359375 -11.144531 2.890625 -10.28125 C 2.429688 -9.414062 2.203125 -8.085938 2.203125 -6.296875 Z M 2.203125 -6.296875"/></symbol><symbol overflow="visible" id="w"><path d="M 1.0625 -12.59375 L 2.359375 -12.59375 L 2.359375 -8.3125 L 2.40625 -8.3125 C 2.90625 -8.914062 3.5625 -9.21875 4.375 -9.21875 C 5.300781 -9.21875 5.992188 -8.847656 6.453125 -8.109375 C 6.910156 -7.378906 7.140625 -6.222656 7.140625 -4.640625 C 7.140625 -3.023438 6.832031 -1.820312 6.21875 -1.03125 C 5.601562 -0.238281 4.726562 0.15625 3.59375 0.15625 C 3.039062 0.15625 2.535156 0.09375 2.078125 -0.03125 C 1.628906 -0.15625 1.289062 -0.300781 1.0625 -0.46875 Z M 2.359375 -1.3125 C 2.523438 -1.21875 2.726562 -1.144531 2.96875 -1.09375 C 3.21875 -1.039062 3.484375 -1.015625 3.765625 -1.015625 C 4.390625 -1.015625 4.882812 -1.3125 5.25 -1.90625 C 5.613281 -2.5 5.796875 -3.410156 5.796875 -4.640625 C 5.796875 -5.160156 5.757812 -5.625 5.6875 -6.03125 C 5.625 -6.445312 5.523438 -6.804688 5.390625 -7.109375 C 5.253906 -7.410156 5.070312 -7.640625 4.84375 -7.796875 C 4.625 -7.960938 4.359375 -8.046875 4.046875 -8.046875 C 3.617188 -8.046875 3.265625 -7.914062 2.984375 -7.65625 C 2.703125 -7.394531 2.492188 -7.046875 2.359375 -6.609375 Z M 2.359375 -1.3125"/></symbol><symbol overflow="visible" id="x"><path d="M 0.671875 -4.5 C 0.671875 -6.125 0.945312 -7.316406 1.5 -8.078125 C 2.0625 -8.835938 2.859375 -9.21875 3.890625 -9.21875 C 4.992188 -9.21875 5.804688 -8.828125 6.328125 -8.046875 C 6.847656 -7.265625 7.109375 -6.082031 7.109375 -4.5 C 7.109375 -2.863281 6.828125 -1.664062 6.265625 -0.90625 C 5.703125 -0.15625 4.910156 0.21875 3.890625 0.21875 C 2.785156 0.21875 1.972656 -0.171875 1.453125 -0.953125 C 0.929688 -1.734375 0.671875 -2.914062 0.671875 -4.5 Z M 2.015625 -4.5 C 2.015625 -3.96875 2.046875 -3.484375 2.109375 -3.046875 C 2.179688 -2.617188 2.289062 -2.25 2.4375 -1.9375 C 2.582031 -1.625 2.773438 -1.378906 3.015625 -1.203125 C 3.265625 -1.035156 3.554688 -0.953125 3.890625 -0.953125 C 4.515625 -0.953125 4.984375 -1.226562 5.296875 -1.78125 C 5.609375 -2.34375 5.765625 -3.25 5.765625 -4.5 C 5.765625 -5.019531 5.726562 -5.5 5.65625 -5.9375 C 5.59375 -6.375 5.484375 -6.75 5.328125 -7.0625 C 5.179688 -7.375 4.988281 -7.613281 4.75 -7.78125 C 4.507812 -7.957031 4.222656 -8.046875 3.890625 -8.046875 C 3.273438 -8.046875 2.804688 -7.765625 2.484375 -7.203125 C 2.171875 -6.640625 2.015625 -5.738281 2.015625 -4.5 Z M 2.015625 -4.5"/></symbol><symbol overflow="visible" id="y"><path d="M 2.890625 -4.609375 L 0.515625 -9 L 2.0625 -9 L 3.40625 -6.421875 L 3.765625 -5.421875 L 4.140625 -6.421875 L 5.515625 -9 L 6.9375 -9 L 4.53125 -4.6875 L 7.078125 0 L 5.59375 0 L 4.09375 -2.828125 L 3.6875 -3.90625 L 3.28125 -2.828125 L 1.765625 0 L 0.34375 0 Z M 2.890625 -4.609375"/></symbol><symbol overflow="visible" id="z"><path d="M 6.03125 -0.453125 C 5.726562 -0.222656 5.382812 -0.0546875 5 0.046875 C 4.613281 0.160156 4.210938 0.21875 3.796875 0.21875 C 3.222656 0.21875 2.738281 0.109375 2.34375 -0.109375 C 1.945312 -0.335938 1.625 -0.65625 1.375 -1.0625 C 1.132812 -1.476562 0.957031 -1.976562 0.84375 -2.5625 C 0.726562 -3.144531 0.671875 -3.789062 0.671875 -4.5 C 0.671875 -6.03125 0.941406 -7.195312 1.484375 -8 C 2.023438 -8.8125 2.804688 -9.21875 3.828125 -9.21875 C 4.296875 -9.21875 4.695312 -9.175781 5.03125 -9.09375 C 5.375 -9.007812 5.664062 -8.898438 5.90625 -8.765625 L 5.546875 -7.625 C 5.066406 -7.90625 4.546875 -8.046875 3.984375 -8.046875 C 3.328125 -8.046875 2.832031 -7.757812 2.5 -7.1875 C 2.175781 -6.625 2.015625 -5.726562 2.015625 -4.5 C 2.015625 -4.007812 2.050781 -3.546875 2.125 -3.109375 C 2.195312 -2.679688 2.316406 -2.304688 2.484375 -1.984375 C 2.648438 -1.671875 2.863281 -1.421875 3.125 -1.234375 C 3.394531 -1.046875 3.726562 -0.953125 4.125 -0.953125 C 4.4375 -0.953125 4.726562 -1.003906 5 -1.109375 C 5.269531 -1.222656 5.488281 -1.351562 5.65625 -1.5 Z M 6.03125 -0.453125"/></symbol><symbol overflow="visible" id="A"><path d="M 5.28125 0 L 5.28125 -5.34375 C 5.28125 -5.820312 5.265625 -6.234375 5.234375 -6.578125 C 5.203125 -6.921875 5.132812 -7.195312 5.03125 -7.40625 C 4.9375 -7.625 4.804688 -7.785156 4.640625 -7.890625 C 4.472656 -7.992188 4.253906 -8.046875 3.984375 -8.046875 C 3.566406 -8.046875 3.21875 -7.882812 2.9375 -7.5625 C 2.65625 -7.25 2.460938 -6.890625 2.359375 -6.484375 L 2.359375 0 L 1.0625 0 L 1.0625 -9 L 1.984375 -9 L 2.21875 -8.046875 L 2.265625 -8.046875 C 2.515625 -8.390625 2.8125 -8.671875 3.15625 -8.890625 C 3.507812 -9.109375 3.957031 -9.21875 4.5 -9.21875 C 4.957031 -9.21875 5.332031 -9.117188 5.625 -8.921875 C 5.914062 -8.722656 6.144531 -8.367188 6.3125 -7.859375 C 6.53125 -8.285156 6.835938 -8.617188 7.234375 -8.859375 C 7.640625 -9.097656 8.082031 -9.21875 8.5625 -9.21875 C 8.957031 -9.21875 9.296875 -9.164062 9.578125 -9.0625 C 9.867188 -8.957031 10.097656 -8.773438 10.265625 -8.515625 C 10.441406 -8.265625 10.570312 -7.925781 10.65625 -7.5 C 10.738281 -7.070312 10.78125 -6.535156 10.78125 -5.890625 L 10.78125 0 L 9.484375 0 L 9.484375 -5.71875 C 9.484375 -6.5 9.40625 -7.082031 9.25 -7.46875 C 9.101562 -7.851562 8.757812 -8.046875 8.21875 -8.046875 C 7.769531 -8.046875 7.410156 -7.90625 7.140625 -7.625 C 6.867188 -7.34375 6.675781 -6.960938 6.5625 -6.484375 L 6.5625 0 Z M 5.28125 0"/></symbol><symbol overflow="visible" id="B"><path d="M 1.0625 -9 L 1.984375 -9 L 2.171875 -8.03125 L 2.25 -8.03125 C 2.695312 -8.820312 3.394531 -9.21875 4.34375 -9.21875 C 5.289062 -9.21875 6 -8.863281 6.46875 -8.15625 C 6.945312 -7.445312 7.1875 -6.289062 7.1875 -4.6875 C 7.1875 -3.925781 7.109375 -3.242188 6.953125 -2.640625 C 6.796875 -2.035156 6.570312 -1.519531 6.28125 -1.09375 C 5.988281 -0.664062 5.632812 -0.335938 5.21875 -0.109375 C 4.8125 0.109375 4.359375 0.21875 3.859375 0.21875 C 3.503906 0.21875 3.222656 0.195312 3.015625 0.15625 C 2.816406 0.113281 2.597656 0.0234375 2.359375 -0.109375 L 2.359375 3.59375 L 1.0625 3.59375 Z M 2.359375 -1.421875 C 2.523438 -1.273438 2.710938 -1.160156 2.921875 -1.078125 C 3.128906 -0.992188 3.410156 -0.953125 3.765625 -0.953125 C 4.398438 -0.953125 4.898438 -1.273438 5.265625 -1.921875 C 5.640625 -2.566406 5.828125 -3.492188 5.828125 -4.703125 C 5.828125 -5.203125 5.796875 -5.65625 5.734375 -6.0625 C 5.671875 -6.46875 5.566406 -6.816406 5.421875 -7.109375 C 5.273438 -7.410156 5.085938 -7.640625 4.859375 -7.796875 C 4.640625 -7.960938 4.367188 -8.046875 4.046875 -8.046875 C 3.171875 -8.046875 2.609375 -7.507812 2.359375 -6.4375 Z M 2.359375 -1.421875"/></symbol><symbol overflow="visible" id="C"><path d="M 5.671875 0 L 5.671875 -5.484375 C 5.671875 -6.390625 5.566406 -7.039062 5.359375 -7.4375 C 5.148438 -7.84375 4.773438 -8.046875 4.234375 -8.046875 C 3.753906 -8.046875 3.359375 -7.898438 3.046875 -7.609375 C 2.734375 -7.328125 2.503906 -6.972656 2.359375 -6.546875 L 2.359375 0 L 1.0625 0 L 1.0625 -9 L 2 -9 L 2.234375 -8.046875 L 2.28125 -8.046875 C 2.507812 -8.367188 2.816406 -8.644531 3.203125 -8.875 C 3.597656 -9.101562 4.066406 -9.21875 4.609375 -9.21875 C 4.992188 -9.21875 5.332031 -9.160156 5.625 -9.046875 C 5.914062 -8.941406 6.160156 -8.757812 6.359375 -8.5 C 6.554688 -8.25 6.707031 -7.90625 6.8125 -7.46875 C 6.914062 -7.039062 6.96875 -6.492188 6.96875 -5.828125 L 6.96875 0 Z M 5.671875 0"/></symbol><symbol overflow="visible" id="D"><path d="M 3.296875 -3.1875 L 3.671875 -1.4375 L 3.765625 -1.4375 L 4.03125 -3.1875 L 5.40625 -9 L 6.71875 -9 L 4.578125 -0.921875 C 4.398438 -0.273438 4.226562 0.328125 4.0625 0.890625 C 3.894531 1.460938 3.710938 1.953125 3.515625 2.359375 C 3.316406 2.773438 3.09375 3.097656 2.84375 3.328125 C 2.601562 3.566406 2.316406 3.6875 1.984375 3.6875 C 1.640625 3.6875 1.34375 3.632812 1.09375 3.53125 L 1.3125 2.296875 C 1.476562 2.359375 1.644531 2.367188 1.8125 2.328125 C 1.976562 2.296875 2.132812 2.195312 2.28125 2.03125 C 2.4375 1.863281 2.578125 1.613281 2.703125 1.28125 C 2.828125 0.957031 2.941406 0.53125 3.046875 0 L 0.125 -9 L 1.609375 -9 Z M 3.296875 -3.1875"/></symbol><symbol overflow="visible" id="F"><path d="M 6 -3.53125 L 2.4375 -3.53125 L 1.421875 0 L 0.09375 0 L 3.890625 -12.796875 L 4.625 -12.796875 L 8.421875 0 L 7.015625 0 Z M 2.796875 -4.734375 L 5.671875 -4.734375 L 4.578125 -8.625 L 4.234375 -10.515625 L 4.1875 -10.515625 L 3.859375 -8.59375 Z M 2.796875 -4.734375"/></symbol><symbol overflow="visible" id="G"><path d="M 2.234375 -9 L 2.234375 -3.484375 C 2.234375 -2.578125 2.328125 -1.925781 2.515625 -1.53125 C 2.703125 -1.144531 3.039062 -0.953125 3.53125 -0.953125 C 3.78125 -0.953125 4.003906 -1.003906 4.203125 -1.109375 C 4.398438 -1.210938 4.578125 -1.347656 4.734375 -1.515625 C 4.890625 -1.679688 5.023438 -1.867188 5.140625 -2.078125 C 5.265625 -2.296875 5.363281 -2.519531 5.4375 -2.75 L 5.4375 -9 L 6.734375 -9 L 6.734375 -2.5625 C 6.734375 -2.125 6.75 -1.671875 6.78125 -1.203125 C 6.8125 -0.742188 6.851562 -0.34375 6.90625 0 L 6 0 L 5.671875 -1.265625 L 5.609375 -1.265625 C 5.410156 -0.867188 5.117188 -0.519531 4.734375 -0.21875 C 4.347656 0.0703125 3.867188 0.21875 3.296875 0.21875 C 2.910156 0.21875 2.570312 0.164062 2.28125 0.0625 C 2 -0.03125 1.753906 -0.203125 1.546875 -0.453125 C 1.335938 -0.703125 1.179688 -1.046875 1.078125 -1.484375 C 0.984375 -1.921875 0.9375 -2.484375 0.9375 -3.171875 L 0.9375 -9 Z M 2.234375 -9"/></symbol><symbol overflow="visible" id="H"><path d="M 1.28125 -9 L 2.578125 -9 L 2.578125 0 L 1.28125 0 Z M 1.046875 -11.734375 C 1.046875 -12.023438 1.125 -12.257812 1.28125 -12.4375 C 1.445312 -12.613281 1.660156 -12.703125 1.921875 -12.703125 C 2.191406 -12.703125 2.410156 -12.613281 2.578125 -12.4375 C 2.753906 -12.269531 2.84375 -12.035156 2.84375 -11.734375 C 2.84375 -11.441406 2.753906 -11.210938 2.578125 -11.046875 C 2.410156 -10.890625 2.191406 -10.8125 1.921875 -10.8125 C 1.660156 -10.8125 1.445312 -10.894531 1.28125 -11.0625 C 1.125 -11.238281 1.046875 -11.460938 1.046875 -11.734375 Z M 1.046875 -11.734375"/></symbol><symbol overflow="visible" id="I"><path d="M 2.453125 -2.140625 C 2.453125 -1.722656 2.507812 -1.421875 2.625 -1.234375 C 2.738281 -1.054688 2.894531 -0.96875 3.09375 -0.96875 C 3.34375 -0.96875 3.640625 -1.035156 3.984375 -1.171875 L 4.109375 -0.125 C 3.953125 -0.03125 3.734375 0.046875 3.453125 0.109375 C 3.171875 0.171875 2.914062 0.203125 2.6875 0.203125 C 2.226562 0.203125 1.859375 0.0625 1.578125 -0.21875 C 1.296875 -0.5 1.15625 -0.992188 1.15625 -1.703125 L 1.15625 -12.59375 L 2.453125 -12.59375 Z M 2.453125 -2.140625"/></symbol><symbol overflow="visible" id="J"><path d="M 6.734375 0.40625 C 6.734375 1.570312 6.472656 2.429688 5.953125 2.984375 C 5.441406 3.535156 4.691406 3.8125 3.703125 3.8125 C 3.109375 3.8125 2.617188 3.757812 2.234375 3.65625 C 1.847656 3.5625 1.535156 3.445312 1.296875 3.3125 L 1.671875 2.203125 C 1.910156 2.304688 2.171875 2.40625 2.453125 2.5 C 2.742188 2.59375 3.101562 2.640625 3.53125 2.640625 C 4.257812 2.640625 4.757812 2.4375 5.03125 2.03125 C 5.300781 1.625 5.4375 0.941406 5.4375 -0.015625 L 5.4375 -0.6875 L 5.375 -0.6875 C 5.1875 -0.40625 4.941406 -0.1875 4.640625 -0.03125 C 4.335938 0.125 3.953125 0.203125 3.484375 0.203125 C 2.515625 0.203125 1.800781 -0.171875 1.34375 -0.921875 C 0.894531 -1.671875 0.671875 -2.851562 0.671875 -4.46875 C 0.671875 -6.007812 0.96875 -7.175781 1.5625 -7.96875 C 2.15625 -8.757812 3.03125 -9.15625 4.1875 -9.15625 C 4.757812 -9.15625 5.25 -9.101562 5.65625 -9 C 6.0625 -8.894531 6.421875 -8.769531 6.734375 -8.625 Z M 5.4375 -7.703125 C 5.070312 -7.890625 4.609375 -7.984375 4.046875 -7.984375 C 3.429688 -7.984375 2.9375 -7.703125 2.5625 -7.140625 C 2.195312 -6.585938 2.015625 -5.703125 2.015625 -4.484375 C 2.015625 -3.972656 2.046875 -3.503906 2.109375 -3.078125 C 2.171875 -2.660156 2.269531 -2.289062 2.40625 -1.96875 C 2.550781 -1.65625 2.734375 -1.410156 2.953125 -1.234375 C 3.179688 -1.054688 3.457031 -0.96875 3.78125 -0.96875 C 4.238281 -0.96875 4.597656 -1.085938 4.859375 -1.328125 C 5.117188 -1.566406 5.3125 -1.925781 5.4375 -2.40625 Z M 5.4375 -7.703125"/></symbol><symbol overflow="visible" id="K"><path d="M 5.40625 -11.5 C 5.269531 -11.519531 5.070312 -11.546875 4.8125 -11.578125 C 4.550781 -11.617188 4.296875 -11.640625 4.046875 -11.640625 C 3.734375 -11.640625 3.488281 -11.578125 3.3125 -11.453125 C 3.132812 -11.335938 2.992188 -11.171875 2.890625 -10.953125 C 2.796875 -10.734375 2.738281 -10.457031 2.71875 -10.125 C 2.695312 -9.789062 2.6875 -9.414062 2.6875 -9 L 4.109375 -9 L 4.109375 -7.828125 L 2.6875 -7.828125 L 2.6875 0 L 1.390625 0 L 1.390625 -7.828125 L 0.28125 -7.828125 L 0.28125 -9 L 1.390625 -9 L 1.390625 -9.5 C 1.390625 -10.632812 1.585938 -11.46875 1.984375 -12 C 2.390625 -12.539062 3.066406 -12.8125 4.015625 -12.8125 C 4.203125 -12.8125 4.425781 -12.800781 4.6875 -12.78125 C 4.945312 -12.769531 5.203125 -12.75 5.453125 -12.71875 C 5.703125 -12.6875 5.9375 -12.648438 6.15625 -12.609375 C 6.382812 -12.578125 6.566406 -12.535156 6.703125 -12.484375 L 6.703125 -2.046875 C 6.703125 -1.648438 6.753906 -1.367188 6.859375 -1.203125 C 6.972656 -1.035156 7.132812 -0.953125 7.34375 -0.953125 C 7.601562 -0.953125 7.90625 -1.019531 8.25 -1.15625 L 8.328125 -0.109375 C 8.171875 -0.015625 7.957031 0.0625 7.6875 0.125 C 7.425781 0.1875 7.164062 0.21875 6.90625 0.21875 C 6.457031 0.21875 6.09375 0.078125 5.8125 -0.203125 C 5.539062 -0.492188 5.40625 -0.988281 5.40625 -1.6875 Z M 5.40625 -11.5"/></symbol><symbol overflow="visible" id="U"><path d="M 0 2.515625 L 6.015625 2.515625 L 6.015625 3.6875 L 0 3.6875 Z M 0 2.515625"/></symbol><symbol overflow="visible" id="V"><path d="M 5.875 -9 L 7.46875 -3.75 L 7.796875 -2.015625 L 7.828125 -2.015625 L 8.09375 -3.78125 L 9.328125 -9 L 10.546875 -9 L 8.15625 0.203125 L 7.421875 0.203125 L 5.59375 -5.703125 L 5.34375 -7.21875 L 5.3125 -7.21875 L 5.0625 -5.6875 L 3.296875 0.203125 L 2.5625 0.203125 L 0.09375 -9 L 1.46875 -9 L 2.859375 -3.765625 L 3.078125 -2.015625 L 3.109375 -2.015625 L 3.4375 -3.796875 L 4.90625 -9 Z M 5.875 -9"/></symbol><symbol overflow="visible" id="W"><path d="M 7.21875 0 L 1.15625 0 L 1.15625 -12.59375 L 2.5 -12.59375 L 2.5 -1.234375 L 7.21875 -1.234375 Z M 7.21875 0"/></symbol><symbol overflow="visible" id="X"><path d="M 1.6875 -1.203125 L 3.71875 -1.203125 L 3.71875 -9.96875 L 3.890625 -11.03125 L 3.28125 -10.171875 L 1.765625 -8.953125 L 1.078125 -9.75 L 4.359375 -12.8125 L 5.015625 -12.8125 L 5.015625 -1.203125 L 6.984375 -1.203125 L 6.984375 0 L 1.6875 0 Z M 1.6875 -1.203125"/></symbol><symbol overflow="visible" id="Y"><path d="M 5.671875 0 L 5.671875 -5.46875 C 5.671875 -6.3125 5.570312 -6.953125 5.375 -7.390625 C 5.175781 -7.828125 4.78125 -8.046875 4.1875 -8.046875 C 3.769531 -8.046875 3.390625 -7.894531 3.046875 -7.59375 C 2.703125 -7.289062 2.472656 -6.914062 2.359375 -6.46875 L 2.359375 0 L 1.0625 0 L 1.0625 -12.59375 L 2.359375 -12.59375 L 2.359375 -8.15625 L 2.40625 -8.15625 C 2.644531 -8.46875 2.941406 -8.722656 3.296875 -8.921875 C 3.648438 -9.117188 4.09375 -9.21875 4.625 -9.21875 C 5.019531 -9.21875 5.363281 -9.160156 5.65625 -9.046875 C 5.957031 -8.941406 6.203125 -8.753906 6.390625 -8.484375 C 6.578125 -8.222656 6.71875 -7.875 6.8125 -7.4375 C 6.914062 -7 6.96875 -6.457031 6.96875 -5.8125 L 6.96875 0 Z M 5.671875 0"/></symbol><symbol overflow="visible" id="Z"><path d="M 0.578125 -1.171875 L 3.921875 -7.0625 L 4.546875 -7.828125 L 0.578125 -7.828125 L 0.578125 -9 L 5.828125 -9 L 5.828125 -7.828125 L 2.46875 -1.890625 L 1.859375 -1.171875 L 5.828125 -1.171875 L 5.828125 0 L 0.578125 0 Z M 0.578125 -1.171875"/></symbol><symbol overflow="visible" id="aa"><path d="M 7.734375 -0.484375 C 7.441406 -0.234375 7.066406 -0.0546875 6.609375 0.046875 C 6.148438 0.160156 5.671875 0.21875 5.171875 0.21875 C 4.535156 0.21875 3.945312 0.0976562 3.40625 -0.140625 C 2.863281 -0.378906 2.394531 -0.757812 2 -1.28125 C 1.613281 -1.800781 1.3125 -2.472656 1.09375 -3.296875 C 0.882812 -4.128906 0.78125 -5.128906 0.78125 -6.296875 C 0.78125 -7.492188 0.898438 -8.503906 1.140625 -9.328125 C 1.390625 -10.160156 1.71875 -10.832031 2.125 -11.34375 C 2.53125 -11.863281 3 -12.238281 3.53125 -12.46875 C 4.070312 -12.695312 4.625 -12.8125 5.1875 -12.8125 C 5.757812 -12.8125 6.234375 -12.769531 6.609375 -12.6875 C 6.992188 -12.601562 7.320312 -12.503906 7.59375 -12.390625 L 7.265625 -11.15625 C 7.023438 -11.289062 6.742188 -11.394531 6.421875 -11.46875 C 6.097656 -11.539062 5.726562 -11.578125 5.3125 -11.578125 C 4.894531 -11.578125 4.5 -11.484375 4.125 -11.296875 C 3.75 -11.109375 3.414062 -10.804688 3.125 -10.390625 C 2.84375 -9.984375 2.617188 -9.441406 2.453125 -8.765625 C 2.285156 -8.097656 2.203125 -7.273438 2.203125 -6.296875 C 2.203125 -4.546875 2.5 -3.226562 3.09375 -2.34375 C 3.695312 -1.46875 4.492188 -1.03125 5.484375 -1.03125 C 5.898438 -1.03125 6.269531 -1.085938 6.59375 -1.203125 C 6.914062 -1.316406 7.191406 -1.453125 7.421875 -1.609375 Z M 7.734375 -0.484375"/></symbol></defs><path fill="#fff" d="M0 0H722V514H0z"/><path d="M 24.2362 40.852794 L 60.101239 40.852794 L 60.101239 66.190294 L 24.2362 66.190294 Z M 24.2362 40.852794" transform="matrix(20 0 0 20 -483.724 -810.384)" fill-rule="evenodd" fill="#fff" stroke-width=".1" stroke="#fff" stroke-miterlimit="10"/><path d="M 26.643622 44.584239 L 57.100262 44.584239" transform="matrix(20 0 0 20 -483.724 -810.384)" fill="none" stroke-width=".1" stroke="#b3b3b3" stroke-miterlimit="10"/><path d="M 26.643622 62.446153 L 57.100262 62.446153" transform="matrix(20 0 0 20 -483.724 -810.384)" fill="none" stroke-width=".1" stroke="#b3b3b3" stroke-miterlimit="10"/><path d="M 26.643622 44.584239 L 26.643622 44.584239 C 26.477997 44.584239 26.343622 44.718419 26.343622 44.884239" transform="matrix(20 0 0 20 -483.724 -810.384)" fill="none" stroke-width=".1" stroke="#b3b3b3" stroke-miterlimit="10"/><path d="M 57.400262 44.884239 L 57.400262 44.884239 C 57.400262 44.718419 57.266083 44.584239 57.100262 44.584239" transform="matrix(20 0 0 20 -483.724 -810.384)" fill="none" stroke-width=".1" stroke="#b3b3b3" stroke-miterlimit="10"/><path d="M 26.343622 44.884239 L 26.343622 62.146153" transform="matrix(20 0 0 20 -483.724 -810.384)" fill="none" stroke-width=".1" stroke="#b3b3b3" stroke-miterlimit="10"/><path d="M 57.400262 44.884239 L 57.400262 62.146153" transform="matrix(20 0 0 20 -483.724 -810.384)" fill="none" stroke-width=".1" stroke="#b3b3b3" stroke-miterlimit="10"/><path d="M 26.343622 62.146153 L 26.343622 62.146153 C 26.343622 62.311778 26.477997 62.446153 26.643622 62.446153" transform="matrix(20 0 0 20 -483.724 -810.384)" fill="none" stroke-width=".1" stroke="#b3b3b3" stroke-miterlimit="10"/><path d="M 57.100262 62.446153 L 57.100262 62.446153 C 57.266083 62.446153 57.400262 62.311778 57.400262 62.146153" transform="matrix(20 0 0 20 -483.724 -810.384)" fill="none" stroke-width=".1" stroke="#b3b3b3" stroke-miterlimit="10"/><path d="M 81.667969 125.710938 L 176.96875 125.710938 L 176.96875 151.960938 L 81.667969 151.960938 Z M 81.667969 125.710938" fill-rule="evenodd" fill="#fff"/><use xlink:href="#a" x="83.082" y="146.359"/><use xlink:href="#b" x="93.102" y="146.359"/><use xlink:href="#b" x="102.008" y="146.359"/><use xlink:href="#c" x="110.914" y="146.359"/><use xlink:href="#d" x="116.773" y="146.359"/><use xlink:href="#e" x="125.328" y="146.359"/><use xlink:href="#f" x="132.32" y="146.359"/><use xlink:href="#g" x="136.422" y="146.359"/><use xlink:href="#h" x="141.285" y="146.359"/><use xlink:href="#i" x="145.777" y="146.359"/><use xlink:href="#d" x="154.762" y="146.359"/><use xlink:href="#f" x="163.316" y="146.359"/><use xlink:href="#j" x="167.418" y="146.359"/><path d="M 197.3125 118.835938 L 605.3125 118.835938 L 605.3125 158.835938 L 197.3125 158.835938 Z M 197.3125 118.835938" fill-rule="evenodd" fill="#f2f2f2"/><path d="M 197.3125 124.835938 L 197.3125 118.835938 C 194 118.835938 191.3125 121.519531 191.3125 124.835938 Z M 197.3125 124.835938" fill-rule="evenodd" fill="#f2f2f2"/><path d="M 605.3125 124.835938 L 611.3125 124.835938 C 611.3125 121.519531 608.625 118.835938 605.3125 118.835938 Z M 605.3125 124.835938" fill-rule="evenodd" fill="#f2f2f2"/><path d="M 191.3125 124.835938 L 611.3125 124.835938 L 611.3125 152.835938 L 191.3125 152.835938 Z M 191.3125 124.835938" fill-rule="evenodd" fill="#f2f2f2"/><path d="M 197.3125 152.835938 L 191.3125 152.835938 C 191.3125 156.148438 194 158.835938 197.3125 158.835938 Z M 197.3125 152.835938" fill-rule="evenodd" fill="#f2f2f2"/><path d="M 605.3125 152.835938 L 605.3125 158.835938 C 608.625 158.835938 611.3125 156.148438 611.3125 152.835938 Z M 605.3125 152.835938" fill-rule="evenodd" fill="#f2f2f2"/><path d="M 34.051825 46.460997 L 54.451825 46.460997" transform="matrix(20 0 0 20 -483.724 -810.384)" fill="none" stroke-width=".1" stroke="#4d4d4d" stroke-miterlimit="10"/><path d="M 34.051825 48.460997 L 54.451825 48.460997" transform="matrix(20 0 0 20 -483.724 -810.384)" fill="none" stroke-width=".1" stroke="#4d4d4d" stroke-miterlimit="10"/><path d="M 34.051825 46.460997 L 34.051825 46.460997 C 33.8862 46.460997 33.751825 46.595177 33.751825 46.760997" transform="matrix(20 0 0 20 -483.724 -810.384)" fill="none" stroke-width=".1" stroke="#4d4d4d" stroke-miterlimit="10"/><path d="M 54.751825 46.760997 L 54.751825 46.760997 C 54.751825 46.595177 54.61745 46.460997 54.451825 46.460997" transform="matrix(20 0 0 20 -483.724 -810.384)" fill="none" stroke-width=".1" stroke="#4d4d4d" stroke-miterlimit="10"/><path d="M 33.751825 46.760997 L 33.751825 48.160997" transform="matrix(20 0 0 20 -483.724 -810.384)" fill="none" stroke-width=".1" stroke="#4d4d4d" stroke-miterlimit="10"/><path d="M 54.751825 46.760997 L 54.751825 48.160997" transform="matrix(20 0 0 20 -483.724 -810.384)" fill="none" stroke-width=".1" stroke="#4d4d4d" stroke-miterlimit="10"/><path d="M 33.751825 48.160997 L 33.751825 48.160997 C 33.751825 48.326622 33.8862 48.460997 34.051825 48.460997" transform="matrix(20 0 0 20 -483.724 -810.384)" fill="none" stroke-width=".1" stroke="#4d4d4d" stroke-miterlimit="10"/><path d="M 54.451825 48.460997 L 54.451825 48.460997 C 54.61745 48.460997 54.751825 48.326622 54.751825 48.160997" transform="matrix(20 0 0 20 -483.724 -810.384)" fill="none" stroke-width=".1" stroke="#4d4d4d" stroke-miterlimit="10"/><path d="M 191.3125 161.433594 L 432.511719 161.433594 L 432.511719 184.832031 L 191.3125 184.832031 Z M 191.3125 161.433594" fill-rule="evenodd" fill="#fff"/><g fill="#4d4d4d"><use xlink:href="#k" x="191.313" y="179.836"/><use xlink:href="#l" x="199.008" y="179.836"/><use xlink:href="#m" x="203.949" y="179.836"/><use xlink:href="#n" x="208.891" y="179.836"/><use xlink:href="#n" x="216.215" y="179.836"/><use xlink:href="#l" x="223.656" y="179.836"/><use xlink:href="#o" x="228.598" y="179.836"/><use xlink:href="#p" x="232.406" y="179.836"/><use xlink:href="#q" x="239.613" y="179.836"/><use xlink:href="#q" x="247.406" y="179.836"/><use xlink:href="#m" x="255.199" y="179.836"/><use xlink:href="#n" x="260.141" y="179.836"/><use xlink:href="#r" x="267.582" y="179.836"/><use xlink:href="#r" x="273.656" y="179.836"/><use xlink:href="#s" x="279.73" y="179.836"/><use xlink:href="#o" x="281.898" y="179.836"/><use xlink:href="#t" x="285.707" y="179.836"/><use xlink:href="#u" x="291.957" y="179.836"/><use xlink:href="#v" x="295.16" y="179.836"/><use xlink:href="#u" x="304.633" y="179.836"/><use xlink:href="#o" x="306.664" y="179.836"/><use xlink:href="#w" x="310.473" y="179.836"/><use xlink:href="#x" x="318.285" y="179.836"/><use xlink:href="#y" x="325.746" y="179.836"/><use xlink:href="#s" x="333.168" y="179.836"/><use xlink:href="#o" x="335.336" y="179.836"/><use xlink:href="#z" x="339.145" y="179.836"/><use xlink:href="#x" x="345.258" y="179.836"/><use xlink:href="#A" x="353.031" y="179.836"/><use xlink:href="#B" x="364.75" y="179.836"/><use xlink:href="#p" x="372.582" y="179.836"/><use xlink:href="#C" x="379.789" y="179.836"/><use xlink:href="#D" x="387.699" y="179.836"/><use xlink:href="#o" x="393.988" y="179.836"/><use xlink:href="#C" x="397.797" y="179.836"/><use xlink:href="#p" x="405.707" y="179.836"/><use xlink:href="#A" x="412.914" y="179.836"/><use xlink:href="#n" x="424.633" y="179.836"/></g><path d="M 48.157489 51.129552 L 44.694989 51.12545" transform="matrix(20 0 0 20 -483.724 -810.384)" fill="none" stroke-width=".1" stroke="#000" stroke-miterlimit="10"/><path d="M 44.694989 51.12545 C 44.695184 51.00045 44.82038 50.875645 44.94538 50.875645 C 45.07038 50.875841 45.195184 51.001036 45.194989 51.126036 C 45.194794 51.251036 45.069794 51.375841 44.944794 51.375645 C 44.819794 51.375645 44.694794 51.25045 44.694989 51.12545" transform="matrix(20 0 0 20 -483.724 -810.384)" fill-rule="evenodd" stroke-width=".1" stroke="#000" stroke-miterlimit="10"/><path d="M 81.667969 207.042969 L 176.96875 207.042969 L 176.96875 233.292969 L 81.667969 233.292969 Z M 81.667969 207.042969" fill-rule="evenodd" fill="#fff"/><use xlink:href="#a" x="83.082" y="227.695"/><use xlink:href="#b" x="93.102" y="227.695"/><use xlink:href="#b" x="102.008" y="227.695"/><use xlink:href="#c" x="110.914" y="227.695"/><use xlink:href="#d" x="116.773" y="227.695"/><use xlink:href="#e" x="125.328" y="227.695"/><use xlink:href="#f" x="132.32" y="227.695"/><use xlink:href="#g" x="136.422" y="227.695"/><use xlink:href="#h" x="141.285" y="227.695"/><use xlink:href="#i" x="145.777" y="227.695"/><use xlink:href="#d" x="154.762" y="227.695"/><use xlink:href="#f" x="163.316" y="227.695"/><use xlink:href="#E" x="167.418" y="227.695"/><path d="M 197.3125 200.167969 L 605.3125 200.167969 L 605.3125 240.167969 L 197.3125 240.167969 Z M 197.3125 200.167969" fill-rule="evenodd" fill="#f2f2f2"/><path d="M 197.3125 206.167969 L 197.3125 200.167969 C 194 200.167969 191.3125 202.855469 191.3125 206.167969 Z M 197.3125 206.167969" fill-rule="evenodd" fill="#f2f2f2"/><path d="M 605.3125 206.167969 L 611.3125 206.167969 C 611.3125 202.855469 608.625 200.167969 605.3125 200.167969 Z M 605.3125 206.167969" fill-rule="evenodd" fill="#f2f2f2"/><path d="M 191.3125 206.167969 L 611.3125 206.167969 L 611.3125 234.167969 L 191.3125 234.167969 Z M 191.3125 206.167969" fill-rule="evenodd" fill="#f2f2f2"/><path d="M 197.3125 234.167969 L 191.3125 234.167969 C 191.3125 237.480469 194 240.167969 197.3125 240.167969 Z M 197.3125 234.167969" fill-rule="evenodd" fill="#f2f2f2"/><path d="M 605.3125 234.167969 L 605.3125 240.167969 C 608.625 240.167969 611.3125 237.480469 611.3125 234.167969 Z M 605.3125 234.167969" fill-rule="evenodd" fill="#f2f2f2"/><path d="M 34.051825 50.527598 L 54.451825 50.527598" transform="matrix(20 0 0 20 -483.724 -810.384)" fill="none" stroke-width=".1" stroke="#4d4d4d" stroke-miterlimit="10"/><path d="M 34.051825 52.527598 L 54.451825 52.527598" transform="matrix(20 0 0 20 -483.724 -810.384)" fill="none" stroke-width=".1" stroke="#4d4d4d" stroke-miterlimit="10"/><path d="M 34.051825 50.527598 L 34.051825 50.527598 C 33.8862 50.527598 33.751825 50.661973 33.751825 50.827598" transform="matrix(20 0 0 20 -483.724 -810.384)" fill="none" stroke-width=".1" stroke="#4d4d4d" stroke-miterlimit="10"/><path d="M 54.751825 50.827598 L 54.751825 50.827598 C 54.751825 50.661973 54.61745 50.527598 54.451825 50.527598" transform="matrix(20 0 0 20 -483.724 -810.384)" fill="none" stroke-width=".1" stroke="#4d4d4d" stroke-miterlimit="10"/><path d="M 33.751825 50.827598 L 33.751825 52.227598" transform="matrix(20 0 0 20 -483.724 -810.384)" fill="none" stroke-width=".1" stroke="#4d4d4d" stroke-miterlimit="10"/><path d="M 54.751825 50.827598 L 54.751825 52.227598" transform="matrix(20 0 0 20 -483.724 -810.384)" fill="none" stroke-width=".1" stroke="#4d4d4d" stroke-miterlimit="10"/><path d="M 33.751825 52.227598 L 33.751825 52.227598 C 33.751825 52.393223 33.8862 52.527598 34.051825 52.527598" transform="matrix(20 0 0 20 -483.724 -810.384)" fill="none" stroke-width=".1" stroke="#4d4d4d" stroke-miterlimit="10"/><path d="M 54.451825 52.527598 L 54.451825 52.527598 C 54.61745 52.527598 54.751825 52.393223 54.751825 52.227598" transform="matrix(20 0 0 20 -483.724 -810.384)" fill="none" stroke-width=".1" stroke="#4d4d4d" stroke-miterlimit="10"/><path d="M 190.8125 242.433594 L 415.710938 242.433594 L 415.710938 265.832031 L 190.8125 265.832031 Z M 190.8125 242.433594" fill-rule="evenodd" fill="#fff"/><g fill="#4d4d4d"><use xlink:href="#F" x="190.813" y="260.836"/><use xlink:href="#B" x="199.328" y="260.836"/><use xlink:href="#p" x="207.16" y="260.836"/><use xlink:href="#m" x="214.367" y="260.836"/><use xlink:href="#l" x="219.738" y="260.836"/><use xlink:href="#A" x="224.68" y="260.836"/><use xlink:href="#n" x="236.398" y="260.836"/><use xlink:href="#C" x="243.84" y="260.836"/><use xlink:href="#l" x="251.75" y="260.836"/><use xlink:href="#s" x="256.691" y="260.836"/><use xlink:href="#o" x="258.859" y="260.836"/><use xlink:href="#r" x="262.668" y="260.836"/><use xlink:href="#G" x="268.742" y="260.836"/><use xlink:href="#H" x="276.555" y="260.836"/><use xlink:href="#l" x="280.461" y="260.836"/><use xlink:href="#n" x="285.285" y="260.836"/><use xlink:href="#s" x="292.727" y="260.836"/><use xlink:href="#o" x="294.895" y="260.836"/><use xlink:href="#G" x="298.703" y="260.836"/><use xlink:href="#C" x="306.516" y="260.836"/><use xlink:href="#H" x="314.426" y="260.836"/><use xlink:href="#l" x="318.332" y="260.836"/><use xlink:href="#s" x="323.273" y="260.836"/><use xlink:href="#o" x="325.441" y="260.836"/><use xlink:href="#w" x="329.25" y="260.836"/><use xlink:href="#G" x="337.063" y="260.836"/><use xlink:href="#H" x="344.875" y="260.836"/><use xlink:href="#I" x="348.781" y="260.836"/><use xlink:href="#q" x="352.98" y="260.836"/><use xlink:href="#H" x="360.773" y="260.836"/><use xlink:href="#C" x="364.68" y="260.836"/><use xlink:href="#J" x="372.59" y="260.836"/><use xlink:href="#s" x="380.363" y="260.836"/><use xlink:href="#o" x="382.531" y="260.836"/><use xlink:href="#K" x="386.34" y="260.836"/><use xlink:href="#x" x="394.777" y="260.836"/><use xlink:href="#x" x="402.551" y="260.836"/><use xlink:href="#m" x="410.324" y="260.836"/></g><path d="M 148.910156 290.542969 L 176.308594 290.542969 L 176.308594 316.792969 L 148.910156 316.792969 Z M 148.910156 290.542969" fill-rule="evenodd" fill="#fff"/><use xlink:href="#L" x="149.242" y="311.195"/><use xlink:href="#h" x="158.383" y="311.195"/><use xlink:href="#M" x="162.875" y="311.195"/><use xlink:href="#N" x="168.305" y="311.195"/><path d="M 197.3125 283.667969 L 385.3125 283.667969 L 385.3125 323.667969 L 197.3125 323.667969 Z M 197.3125 283.667969" fill-rule="evenodd" fill="#f2f2f2"/><path d="M 197.3125 289.667969 L 197.3125 283.667969 C 194 283.667969 191.3125 286.355469 191.3125 289.667969 Z M 197.3125 289.667969" fill-rule="evenodd" fill="#f2f2f2"/><path d="M 385.3125 289.667969 L 391.3125 289.667969 C 391.3125 286.355469 388.625 283.667969 385.3125 283.667969 Z M 385.3125 289.667969" fill-rule="evenodd" fill="#f2f2f2"/><path d="M 191.3125 289.667969 L 391.3125 289.667969 L 391.3125 317.667969 L 191.3125 317.667969 Z M 191.3125 289.667969" fill-rule="evenodd" fill="#f2f2f2"/><path d="M 197.3125 317.667969 L 191.3125 317.667969 C 191.3125 320.980469 194 323.667969 197.3125 323.667969 Z M 197.3125 317.667969" fill-rule="evenodd" fill="#f2f2f2"/><path d="M 385.3125 317.667969 L 385.3125 323.667969 C 388.625 323.667969 391.3125 320.980469 391.3125 317.667969 Z M 385.3125 317.667969" fill-rule="evenodd" fill="#f2f2f2"/><path d="M 34.051825 54.702598 L 43.451825 54.702598" transform="matrix(20 0 0 20 -483.724 -810.384)" fill="none" stroke-width=".1" stroke="#4d4d4d" stroke-miterlimit="10"/><path d="M 34.051825 56.702598 L 43.451825 56.702598" transform="matrix(20 0 0 20 -483.724 -810.384)" fill="none" stroke-width=".1" stroke="#4d4d4d" stroke-miterlimit="10"/><path d="M 34.051825 54.702598 L 34.051825 54.702598 C 33.8862 54.702598 33.751825 54.836973 33.751825 55.002598" transform="matrix(20 0 0 20 -483.724 -810.384)" fill="none" stroke-width=".1" stroke="#4d4d4d" stroke-miterlimit="10"/><path d="M 43.751825 55.002598 L 43.751825 55.002598 C 43.751825 54.836973 43.61745 54.702598 43.451825 54.702598" transform="matrix(20 0 0 20 -483.724 -810.384)" fill="none" stroke-width=".1" stroke="#4d4d4d" stroke-miterlimit="10"/><path d="M 33.751825 55.002598 L 33.751825 56.402598" transform="matrix(20 0 0 20 -483.724 -810.384)" fill="none" stroke-width=".1" stroke="#4d4d4d" stroke-miterlimit="10"/><path d="M 43.751825 55.002598 L 43.751825 56.402598" transform="matrix(20 0 0 20 -483.724 -810.384)" fill="none" stroke-width=".1" stroke="#4d4d4d" stroke-miterlimit="10"/><path d="M 33.751825 56.402598 L 33.751825 56.402598 C 33.751825 56.568223 33.8862 56.702598 34.051825 56.702598" transform="matrix(20 0 0 20 -483.724 -810.384)" fill="none" stroke-width=".1" stroke="#4d4d4d" stroke-miterlimit="10"/><path d="M 43.451825 56.702598 L 43.451825 56.702598 C 43.61745 56.702598 43.751825 56.568223 43.751825 56.402598" transform="matrix(20 0 0 20 -483.724 -810.384)" fill="none" stroke-width=".1" stroke="#4d4d4d" stroke-miterlimit="10"/><path d="M 113.960938 361.773438 L 176.3125 361.773438 L 176.3125 388.023438 L 113.960938 388.023438 Z M 113.960938 361.773438" fill-rule="evenodd" fill="#fff"/><use xlink:href="#O" x="114.887" y="382.422"/><use xlink:href="#P" x="123.793" y="382.422"/><use xlink:href="#Q" x="128.559" y="382.422"/><use xlink:href="#f" x="137.465" y="382.422"/><use xlink:href="#L" x="141.352" y="382.422"/><use xlink:href="#R" x="149.945" y="382.422"/><use xlink:href="#b" x="158.852" y="382.422"/><use xlink:href="#d" x="167.758" y="382.422"/><path d="M 197.3125 354.898438 L 305.3125 354.898438 L 305.3125 394.898438 L 197.3125 394.898438 Z M 197.3125 354.898438" fill-rule="evenodd" fill="#f2f2f2"/><path d="M 197.3125 360.898438 L 197.3125 354.898438 C 194 354.898438 191.3125 357.585938 191.3125 360.898438 Z M 197.3125 360.898438" fill-rule="evenodd" fill="#f2f2f2"/><path d="M 305.3125 360.898438 L 311.3125 360.898438 C 311.3125 357.585938 308.625 354.898438 305.3125 354.898438 Z M 305.3125 360.898438" fill-rule="evenodd" fill="#f2f2f2"/><path d="M 191.3125 360.898438 L 311.3125 360.898438 L 311.3125 388.898438 L 191.3125 388.898438 Z M 191.3125 360.898438" fill-rule="evenodd" fill="#f2f2f2"/><path d="M 197.3125 388.898438 L 191.3125 388.898438 C 191.3125 392.210938 194 394.898438 197.3125 394.898438 Z M 197.3125 388.898438" fill-rule="evenodd" fill="#f2f2f2"/><path d="M 305.3125 388.898438 L 305.3125 394.898438 C 308.625 394.898438 311.3125 392.210938 311.3125 388.898438 Z M 305.3125 388.898438" fill-rule="evenodd" fill="#f2f2f2"/><path d="M 34.051825 58.264122 L 39.451825 58.264122" transform="matrix(20 0 0 20 -483.724 -810.384)" fill="none" stroke-width=".1" stroke="#4d4d4d" stroke-miterlimit="10"/><path d="M 34.051825 60.264122 L 39.451825 60.264122" transform="matrix(20 0 0 20 -483.724 -810.384)" fill="none" stroke-width=".1" stroke="#4d4d4d" stroke-miterlimit="10"/><path d="M 34.051825 58.264122 L 34.051825 58.264122 C 33.8862 58.264122 33.751825 58.398497 33.751825 58.564122" transform="matrix(20 0 0 20 -483.724 -810.384)" fill="none" stroke-width=".1" stroke="#4d4d4d" stroke-miterlimit="10"/><path d="M 39.751825 58.564122 L 39.751825 58.564122 C 39.751825 58.398497 39.61745 58.264122 39.451825 58.264122" transform="matrix(20 0 0 20 -483.724 -810.384)" fill="none" stroke-width=".1" stroke="#4d4d4d" stroke-miterlimit="10"/><path d="M 33.751825 58.564122 L 33.751825 59.964122" transform="matrix(20 0 0 20 -483.724 -810.384)" fill="none" stroke-width=".1" stroke="#4d4d4d" stroke-miterlimit="10"/><path d="M 39.751825 58.564122 L 39.751825 59.964122" transform="matrix(20 0 0 20 -483.724 -810.384)" fill="none" stroke-width=".1" stroke="#4d4d4d" stroke-miterlimit="10"/><path d="M 33.751825 59.964122 L 33.751825 59.964122 C 33.751825 60.129747 33.8862 60.264122 34.051825 60.264122" transform="matrix(20 0 0 20 -483.724 -810.384)" fill="none" stroke-width=".1" stroke="#4d4d4d" stroke-miterlimit="10"/><path d="M 39.451825 60.264122 L 39.451825 60.264122 C 39.61745 60.264122 39.751825 60.129747 39.751825 59.964122" transform="matrix(20 0 0 20 -483.724 -810.384)" fill="none" stroke-width=".1" stroke="#4d4d4d" stroke-miterlimit="10"/><path d="M 477.3125 283.667969 L 605.3125 283.667969 L 605.3125 323.667969 L 477.3125 323.667969 Z M 477.3125 283.667969" fill-rule="evenodd" fill="#f2f2f2"/><path d="M 477.3125 289.667969 L 477.3125 283.667969 C 474 283.667969 471.3125 286.355469 471.3125 289.667969 Z M 477.3125 289.667969" fill-rule="evenodd" fill="#f2f2f2"/><path d="M 605.3125 289.667969 L 611.3125 289.667969 C 611.3125 286.355469 608.625 283.667969 605.3125 283.667969 Z M 605.3125 289.667969" fill-rule="evenodd" fill="#f2f2f2"/><path d="M 471.3125 289.667969 L 611.3125 289.667969 L 611.3125 317.667969 L 471.3125 317.667969 Z M 471.3125 289.667969" fill-rule="evenodd" fill="#f2f2f2"/><path d="M 477.3125 317.667969 L 471.3125 317.667969 C 471.3125 320.980469 474 323.667969 477.3125 323.667969 Z M 477.3125 317.667969" fill-rule="evenodd" fill="#f2f2f2"/><path d="M 605.3125 317.667969 L 605.3125 323.667969 C 608.625 323.667969 611.3125 320.980469 611.3125 317.667969 Z M 605.3125 317.667969" fill-rule="evenodd" fill="#f2f2f2"/><path d="M 48.051825 54.702598 L 54.451825 54.702598" transform="matrix(20 0 0 20 -483.724 -810.384)" fill="none" stroke-width=".1" stroke="#4d4d4d" stroke-miterlimit="10"/><path d="M 48.051825 56.702598 L 54.451825 56.702598" transform="matrix(20 0 0 20 -483.724 -810.384)" fill="none" stroke-width=".1" stroke="#4d4d4d" stroke-miterlimit="10"/><path d="M 48.051825 54.702598 L 48.051825 54.702598 C 47.8862 54.702598 47.751825 54.836973 47.751825 55.002598" transform="matrix(20 0 0 20 -483.724 -810.384)" fill="none" stroke-width=".1" stroke="#4d4d4d" stroke-miterlimit="10"/><path d="M 54.751825 55.002598 L 54.751825 55.002598 C 54.751825 54.836973 54.61745 54.702598 54.451825 54.702598" transform="matrix(20 0 0 20 -483.724 -810.384)" fill="none" stroke-width=".1" stroke="#4d4d4d" stroke-miterlimit="10"/><path d="M 47.751825 55.002598 L 47.751825 56.402598" transform="matrix(20 0 0 20 -483.724 -810.384)" fill="none" stroke-width=".1" stroke="#4d4d4d" stroke-miterlimit="10"/><path d="M 54.751825 55.002598 L 54.751825 56.402598" transform="matrix(20 0 0 20 -483.724 -810.384)" fill="none" stroke-width=".1" stroke="#4d4d4d" stroke-miterlimit="10"/><path d="M 47.751825 56.402598 L 47.751825 56.402598 C 47.751825 56.568223 47.8862 56.702598 48.051825 56.702598" transform="matrix(20 0 0 20 -483.724 -810.384)" fill="none" stroke-width=".1" stroke="#4d4d4d" stroke-miterlimit="10"/><path d="M 54.451825 56.702598 L 54.451825 56.702598 C 54.61745 56.702598 54.751825 56.568223 54.751825 56.402598" transform="matrix(20 0 0 20 -483.724 -810.384)" fill="none" stroke-width=".1" stroke="#4d4d4d" stroke-miterlimit="10"/><path d="M 422.511719 290.542969 L 460.3125 290.542969 L 460.3125 316.792969 L 422.511719 316.792969 Z M 422.511719 290.542969" fill-rule="evenodd" fill="#fff"/><g><use xlink:href="#S" x="423.066" y="311.195"/><use xlink:href="#M" x="431.855" y="311.195"/><use xlink:href="#T" x="437.676" y="311.195"/><use xlink:href="#M" x="445.938" y="311.195"/><use xlink:href="#d" x="451.758" y="311.195"/></g><path d="M 27.900653 42.973497 L 27.905536 44.871934" transform="matrix(20 0 0 20 -483.724 -810.384)" fill="none" stroke-width=".1" stroke="#000" stroke-miterlimit="10"/><path d="M 27.905536 44.871934 C 27.780536 44.87213 27.655145 44.74752 27.65495 44.62252 C 27.654559 44.49752 27.779169 44.37213 27.904169 44.371934 C 28.029169 44.371544 28.154559 44.496348 28.15495 44.621348 C 28.155145 44.746348 28.030536 44.871544 27.905536 44.871934" transform="matrix(20 0 0 20 -483.724 -810.384)" fill-rule="evenodd" stroke-width=".1" stroke="#000" stroke-miterlimit="10"/><path d="M 46.275067 43.802208 L 46.249091 49.473887" transform="matrix(20 0 0 20 -483.724 -810.384)" fill="none" stroke-width=".1" stroke="#000" stroke-miterlimit="10"/><path d="M 46.249091 49.473887 C 46.124091 49.473302 45.999481 49.347716 46.000067 49.222716 C 46.000653 49.097716 46.126239 48.973302 46.251239 48.973887 C 46.376239 48.974473 46.500653 49.100059 46.500067 49.225059 C 46.499481 49.350059 46.374091 49.474473 46.249091 49.473887" transform="matrix(20 0 0 20 -483.724 -810.384)" fill-rule="evenodd" stroke-width=".1" stroke="#000" stroke-miterlimit="10"/><path d="M 519.304688 458.691406 L 696.003906 458.691406 L 696.003906 482.089844 L 519.304688 482.089844 Z M 519.304688 458.691406" fill-rule="evenodd" fill="#fff"/><g><use xlink:href="#B" x="519.305" y="477.09"/><use xlink:href="#x" x="527.137" y="477.09"/><use xlink:href="#r" x="534.91" y="477.09"/><use xlink:href="#l" x="540.984" y="477.09"/><use xlink:href="#p" x="545.926" y="477.09"/><use xlink:href="#I" x="553.133" y="477.09"/><use xlink:href="#U" x="557.332" y="477.09"/><use xlink:href="#p" x="563.348" y="477.09"/><use xlink:href="#q" x="570.555" y="477.09"/><use xlink:href="#q" x="578.348" y="477.09"/><use xlink:href="#m" x="586.141" y="477.09"/><use xlink:href="#n" x="591.082" y="477.09"/><use xlink:href="#r" x="598.523" y="477.09"/><use xlink:href="#r" x="604.598" y="477.09"/><use xlink:href="#U" x="610.672" y="477.09"/><use xlink:href="#r" x="616.688" y="477.09"/><use xlink:href="#l" x="622.762" y="477.09"/><use xlink:href="#p" x="627.703" y="477.09"/><use xlink:href="#l" x="634.91" y="477.09"/><use xlink:href="#n" x="639.734" y="477.09"/><use xlink:href="#U" x="647.176" y="477.09"/><use xlink:href="#V" x="653.191" y="477.09"/><use xlink:href="#H" x="663.816" y="477.09"/><use xlink:href="#q" x="667.723" y="477.09"/><use xlink:href="#J" x="675.516" y="477.09"/><use xlink:href="#n" x="683.289" y="477.09"/><use xlink:href="#l" x="690.73" y="477.09"/></g><path d="M 44.988281 24.355469 L 165.839844 24.355469 L 165.839844 47.753906 L 44.988281 47.753906 Z M 44.988281 24.355469" fill-rule="evenodd" fill="#fff"/><g><use xlink:href="#B" x="44.988" y="42.754"/><use xlink:href="#x" x="52.82" y="42.754"/><use xlink:href="#r" x="60.594" y="42.754"/><use xlink:href="#l" x="66.668" y="42.754"/><use xlink:href="#p" x="71.609" y="42.754"/><use xlink:href="#I" x="78.816" y="42.754"/><use xlink:href="#U" x="83.016" y="42.754"/><use xlink:href="#p" x="89.031" y="42.754"/><use xlink:href="#q" x="96.238" y="42.754"/><use xlink:href="#q" x="104.031" y="42.754"/><use xlink:href="#m" x="111.824" y="42.754"/><use xlink:href="#n" x="116.766" y="42.754"/><use xlink:href="#r" x="124.207" y="42.754"/><use xlink:href="#r" x="130.281" y="42.754"/><use xlink:href="#U" x="136.355" y="42.754"/><use xlink:href="#m" x="142.371" y="42.754"/><use xlink:href="#x" x="147.313" y="42.754"/><use xlink:href="#V" x="154.949" y="42.754"/></g><path d="M 311.148438 41.605469 L 524.5 41.605469 L 524.5 65.003906 L 311.148438 65.003906 Z M 311.148438 41.605469" fill-rule="evenodd" fill="#fff"/><g><use xlink:href="#B" x="311.148" y="60.008"/><use xlink:href="#x" x="318.98" y="60.008"/><use xlink:href="#r" x="326.754" y="60.008"/><use xlink:href="#l" x="332.828" y="60.008"/><use xlink:href="#p" x="337.77" y="60.008"/><use xlink:href="#I" x="344.977" y="60.008"/><use xlink:href="#U" x="349.176" y="60.008"/><use xlink:href="#p" x="355.191" y="60.008"/><use xlink:href="#q" x="362.398" y="60.008"/><use xlink:href="#q" x="370.191" y="60.008"/><use xlink:href="#m" x="377.984" y="60.008"/><use xlink:href="#n" x="382.926" y="60.008"/><use xlink:href="#r" x="390.367" y="60.008"/><use xlink:href="#r" x="396.441" y="60.008"/><use xlink:href="#U" x="402.516" y="60.008"/><use xlink:href="#p" x="408.531" y="60.008"/><use xlink:href="#q" x="415.738" y="60.008"/><use xlink:href="#q" x="423.531" y="60.008"/><use xlink:href="#m" x="431.324" y="60.008"/><use xlink:href="#n" x="436.266" y="60.008"/><use xlink:href="#r" x="443.707" y="60.008"/><use xlink:href="#r" x="449.781" y="60.008"/><use xlink:href="#W" x="455.855" y="60.008"/><use xlink:href="#H" x="463.316" y="60.008"/><use xlink:href="#C" x="467.223" y="60.008"/><use xlink:href="#n" x="475.133" y="60.008"/><use xlink:href="#X" x="482.574" y="60.008"/><use xlink:href="#U" x="490.68" y="60.008"/><use xlink:href="#Y" x="496.695" y="60.008"/><use xlink:href="#n" x="504.625" y="60.008"/><use xlink:href="#I" x="512.066" y="60.008"/><use xlink:href="#B" x="516.266" y="60.008"/></g><path d="M 54.402344 467.421875 L 238.003906 467.421875 L 238.003906 490.820312 L 54.402344 490.820312 Z M 54.402344 467.421875" fill-rule="evenodd" fill="#fff"/><g><use xlink:href="#B" x="54.402" y="485.82"/><use xlink:href="#x" x="62.234" y="485.82"/><use xlink:href="#r" x="70.008" y="485.82"/><use xlink:href="#l" x="76.082" y="485.82"/><use xlink:href="#p" x="81.023" y="485.82"/><use xlink:href="#I" x="88.23" y="485.82"/><use xlink:href="#U" x="92.43" y="485.82"/><use xlink:href="#p" x="98.445" y="485.82"/><use xlink:href="#q" x="105.652" y="485.82"/><use xlink:href="#q" x="113.445" y="485.82"/><use xlink:href="#m" x="121.238" y="485.82"/><use xlink:href="#n" x="126.18" y="485.82"/><use xlink:href="#r" x="133.621" y="485.82"/><use xlink:href="#r" x="139.695" y="485.82"/><use xlink:href="#U" x="145.77" y="485.82"/><use xlink:href="#Z" x="151.785" y="485.82"/><use xlink:href="#H" x="158.27" y="485.82"/><use xlink:href="#B" x="162.176" y="485.82"/><use xlink:href="#aa" x="170.008" y="485.82"/><use xlink:href="#x" x="177.781" y="485.82"/><use xlink:href="#q" x="185.555" y="485.82"/><use xlink:href="#n" x="193.348" y="485.82"/><use xlink:href="#U" x="200.789" y="485.82"/><use xlink:href="#I" x="206.805" y="485.82"/><use xlink:href="#p" x="211.004" y="485.82"/><use xlink:href="#w" x="218.211" y="485.82"/><use xlink:href="#n" x="226.023" y="485.82"/><use xlink:href="#I" x="233.465" y="485.82"/></g><path d="M 53.802606 63.60045 L 53.829364 56.467247" transform="matrix(20 0 0 20 -483.724 -810.384)" fill="none" stroke-width=".1" stroke="#000" stroke-miterlimit="10"/><path d="M 53.829364 56.467247 C 53.954364 56.467637 54.078778 56.593223 54.078387 56.718223 C 54.077997 56.843223 53.952411 56.967637 53.827411 56.967247 C 53.702411 56.966661 53.577997 56.84127 53.578387 56.71627 C 53.578778 56.59127 53.704364 56.466661 53.829364 56.467247" transform="matrix(20 0 0 20 -483.724 -810.384)" fill-rule="evenodd" stroke-width=".1" stroke="#000" stroke-miterlimit="10"/><path d="M 29.356122 63.967833 L 29.382684 59.091075" transform="matrix(20 0 0 20 -483.724 -810.384)" fill="none" stroke-width=".1" stroke="#000" stroke-miterlimit="10"/><path d="M 29.382684 59.091075 C 29.507684 59.091856 29.632098 59.217442 29.631317 59.342442 C 29.630731 59.467442 29.50495 59.591856 29.37995 59.591075 C 29.25495 59.590489 29.130731 59.464708 29.131317 59.339708 C 29.132098 59.214708 29.257684 59.090489 29.382684 59.091075" transform="matrix(20 0 0 20 -483.724 -810.384)" fill-rule="evenodd" stroke-width=".1" stroke="#000" stroke-miterlimit="10"/></svg>
