<svg xmlns="http://www.w3.org/2000/svg" xmlns:xlink="http://www.w3.org/1999/xlink" height="800" viewBox="0 0 680 960"><defs><symbol overflow="visible" id="a"><path d="M 7.484375 0.453125 C 7.484375 1.753906 7.195312 2.707031 6.625 3.3125 C 6.050781 3.925781 5.21875 4.234375 4.125 4.234375 C 3.457031 4.234375 2.910156 4.175781 2.484375 4.0625 C 2.054688 3.957031 1.707031 3.832031 1.4375 3.6875 L 1.859375 2.4375 C 2.128906 2.5625 2.421875 2.675781 2.734375 2.78125 C 3.054688 2.882812 3.453125 2.9375 3.921875 2.9375 C 4.734375 2.9375 5.289062 2.707031 5.59375 2.25 C 5.894531 1.800781 6.046875 1.046875 6.046875 -0.015625 L 6.046875 -0.765625 L 5.984375 -0.765625 C 5.765625 -0.453125 5.488281 -0.207031 5.15625 -0.03125 C 4.820312 0.132812 4.394531 0.21875 3.875 0.21875 C 2.800781 0.21875 2.007812 -0.195312 1.5 -1.03125 C 0.988281 -1.863281 0.734375 -3.171875 0.734375 -4.953125 C 0.734375 -6.679688 1.0625 -7.984375 1.71875 -8.859375 C 2.382812 -9.742188 3.363281 -10.1875 4.65625 -10.1875 C 5.28125 -10.1875 5.816406 -10.125 6.265625 -10 C 6.722656 -9.875 7.128906 -9.734375 7.484375 -9.578125 Z M 6.046875 -8.5625 C 5.640625 -8.769531 5.125 -8.875 4.5 -8.875 C 3.820312 -8.875 3.273438 -8.5625 2.859375 -7.9375 C 2.441406 -7.320312 2.234375 -6.335938 2.234375 -4.984375 C 2.234375 -4.421875 2.265625 -3.898438 2.328125 -3.421875 C 2.398438 -2.953125 2.515625 -2.539062 2.671875 -2.1875 C 2.835938 -1.832031 3.039062 -1.554688 3.28125 -1.359375 C 3.53125 -1.171875 3.835938 -1.078125 4.203125 -1.078125 C 4.703125 -1.078125 5.097656 -1.207031 5.390625 -1.46875 C 5.691406 -1.738281 5.910156 -2.144531 6.046875 -2.6875 Z M 6.046875 -8.5625"/></symbol><symbol overflow="visible" id="b"><path d="M 7.15625 -0.6875 C 6.84375 -0.382812 6.4375 -0.15625 5.9375 0 C 5.445312 0.15625 4.925781 0.234375 4.375 0.234375 C 3.75 0.234375 3.207031 0.113281 2.75 -0.125 C 2.289062 -0.375 1.910156 -0.726562 1.609375 -1.1875 C 1.304688 -1.644531 1.082031 -2.191406 0.9375 -2.828125 C 0.800781 -3.472656 0.734375 -4.195312 0.734375 -5 C 0.734375 -6.707031 1.046875 -8.003906 1.671875 -8.890625 C 2.304688 -9.785156 3.195312 -10.234375 4.34375 -10.234375 C 4.71875 -10.234375 5.085938 -10.1875 5.453125 -10.09375 C 5.816406 -10 6.144531 -9.8125 6.4375 -9.53125 C 6.726562 -9.257812 6.960938 -8.867188 7.140625 -8.359375 C 7.328125 -7.847656 7.421875 -7.1875 7.421875 -6.375 C 7.421875 -6.15625 7.410156 -5.914062 7.390625 -5.65625 C 7.367188 -5.394531 7.34375 -5.125 7.3125 -4.84375 L 2.234375 -4.84375 C 2.234375 -4.269531 2.28125 -3.75 2.375 -3.28125 C 2.46875 -2.8125 2.613281 -2.410156 2.8125 -2.078125 C 3.019531 -1.753906 3.28125 -1.503906 3.59375 -1.328125 C 3.90625 -1.148438 4.296875 -1.0625 4.765625 -1.0625 C 5.117188 -1.0625 5.472656 -1.125 5.828125 -1.25 C 6.179688 -1.382812 6.453125 -1.546875 6.640625 -1.734375 Z M 6.046875 -6.046875 C 6.066406 -7.046875 5.921875 -7.773438 5.609375 -8.234375 C 5.304688 -8.703125 4.890625 -8.9375 4.359375 -8.9375 C 3.742188 -8.9375 3.253906 -8.703125 2.890625 -8.234375 C 2.535156 -7.773438 2.328125 -7.046875 2.265625 -6.046875 Z M 6.046875 -6.046875"/></symbol><symbol overflow="visible" id="c"><path d="M 0.1875 -10 L 1.40625 -10 L 1.40625 -11.984375 L 2.84375 -12.4375 L 2.84375 -10 L 5 -10 L 5 -8.703125 L 2.84375 -8.703125 L 2.84375 -2.734375 C 2.84375 -2.148438 2.910156 -1.726562 3.046875 -1.46875 C 3.191406 -1.207031 3.421875 -1.078125 3.734375 -1.078125 C 4.003906 -1.078125 4.234375 -1.109375 4.421875 -1.171875 C 4.617188 -1.234375 4.832031 -1.3125 5.0625 -1.40625 L 5.34375 -0.265625 C 5.050781 -0.117188 4.726562 -0.00390625 4.375 0.078125 C 4.019531 0.171875 3.648438 0.21875 3.265625 0.21875 C 2.597656 0.21875 2.117188 0.00390625 1.828125 -0.421875 C 1.546875 -0.859375 1.40625 -1.566406 1.40625 -2.546875 L 1.40625 -8.703125 L 0.1875 -8.703125 Z M 0.1875 -10"/></symbol><symbol overflow="visible" id="d"><path d="M 8.59375 -0.546875 C 8.257812 -0.265625 7.835938 -0.0664062 7.328125 0.046875 C 6.828125 0.171875 6.296875 0.234375 5.734375 0.234375 C 5.035156 0.234375 4.382812 0.101562 3.78125 -0.15625 C 3.175781 -0.425781 2.65625 -0.847656 2.21875 -1.421875 C 1.789062 -2.003906 1.457031 -2.753906 1.21875 -3.671875 C 0.976562 -4.597656 0.859375 -5.707031 0.859375 -7 C 0.859375 -8.332031 0.992188 -9.457031 1.265625 -10.375 C 1.546875 -11.300781 1.910156 -12.050781 2.359375 -12.625 C 2.816406 -13.195312 3.335938 -13.609375 3.921875 -13.859375 C 4.515625 -14.109375 5.128906 -14.234375 5.765625 -14.234375 C 6.398438 -14.234375 6.925781 -14.1875 7.34375 -14.09375 C 7.769531 -14 8.132812 -13.890625 8.4375 -13.765625 L 8.078125 -12.40625 C 7.816406 -12.550781 7.503906 -12.660156 7.140625 -12.734375 C 6.773438 -12.816406 6.363281 -12.859375 5.90625 -12.859375 C 5.4375 -12.859375 4.992188 -12.753906 4.578125 -12.546875 C 4.160156 -12.335938 3.789062 -12.003906 3.46875 -11.546875 C 3.15625 -11.085938 2.90625 -10.484375 2.71875 -9.734375 C 2.53125 -8.992188 2.4375 -8.082031 2.4375 -7 C 2.4375 -5.050781 2.769531 -3.585938 3.4375 -2.609375 C 4.101562 -1.628906 4.988281 -1.140625 6.09375 -1.140625 C 6.550781 -1.140625 6.957031 -1.203125 7.3125 -1.328125 C 7.675781 -1.453125 7.984375 -1.601562 8.234375 -1.78125 Z M 8.59375 -0.546875"/></symbol><symbol overflow="visible" id="e"><path d="M 1.1875 -10 L 2.203125 -10 L 2.453125 -8.9375 L 2.515625 -8.9375 C 2.703125 -9.320312 2.945312 -9.625 3.25 -9.84375 C 3.550781 -10.070312 3.914062 -10.1875 4.34375 -10.1875 C 4.644531 -10.1875 4.988281 -10.125 5.375 -10 L 5.09375 -8.546875 C 4.75 -8.660156 4.445312 -8.71875 4.1875 -8.71875 C 3.757812 -8.71875 3.410156 -8.59375 3.140625 -8.34375 C 2.867188 -8.101562 2.695312 -7.773438 2.625 -7.359375 L 2.625 0 L 1.1875 0 Z M 1.1875 -10"/></symbol><symbol overflow="visible" id="f"><path d="M 7.484375 -3.4375 C 7.484375 -2.757812 7.488281 -2.144531 7.5 -1.59375 C 7.507812 -1.039062 7.554688 -0.492188 7.640625 0.046875 L 6.65625 0.046875 L 6.34375 -1.15625 L 6.265625 -1.15625 C 6.078125 -0.757812 5.78125 -0.425781 5.375 -0.15625 C 4.976562 0.101562 4.5 0.234375 3.9375 0.234375 C 2.851562 0.234375 2.046875 -0.179688 1.515625 -1.015625 C 0.992188 -1.859375 0.734375 -3.179688 0.734375 -4.984375 C 0.734375 -6.691406 1.054688 -7.984375 1.703125 -8.859375 C 2.359375 -9.742188 3.25 -10.1875 4.375 -10.1875 C 4.757812 -10.1875 5.066406 -10.160156 5.296875 -10.109375 C 5.523438 -10.066406 5.773438 -9.988281 6.046875 -9.875 L 6.046875 -14 L 7.484375 -14 Z M 6.046875 -8.421875 C 5.859375 -8.578125 5.644531 -8.691406 5.40625 -8.765625 C 5.175781 -8.835938 4.867188 -8.875 4.484375 -8.875 C 3.773438 -8.875 3.222656 -8.550781 2.828125 -7.90625 C 2.429688 -7.269531 2.234375 -6.285156 2.234375 -4.953125 C 2.234375 -4.367188 2.269531 -3.835938 2.34375 -3.359375 C 2.414062 -2.890625 2.53125 -2.484375 2.6875 -2.140625 C 2.84375 -1.796875 3.039062 -1.53125 3.28125 -1.34375 C 3.53125 -1.15625 3.835938 -1.0625 4.203125 -1.0625 C 5.160156 -1.0625 5.773438 -1.628906 6.046875 -2.765625 Z M 6.046875 -8.421875"/></symbol><symbol overflow="visible" id="g"><path d="M 6.296875 0 L 6.296875 -6.09375 C 6.296875 -7.09375 6.175781 -7.816406 5.9375 -8.265625 C 5.707031 -8.710938 5.296875 -8.9375 4.703125 -8.9375 C 4.171875 -8.9375 3.726562 -8.773438 3.375 -8.453125 C 3.03125 -8.140625 2.78125 -7.75 2.625 -7.28125 L 2.625 0 L 1.1875 0 L 1.1875 -10 L 2.21875 -10 L 2.484375 -8.9375 L 2.546875 -8.9375 C 2.796875 -9.300781 3.132812 -9.609375 3.5625 -9.859375 C 4 -10.109375 4.519531 -10.234375 5.125 -10.234375 C 5.550781 -10.234375 5.925781 -10.171875 6.25 -10.046875 C 6.570312 -9.929688 6.84375 -9.726562 7.0625 -9.4375 C 7.289062 -9.15625 7.457031 -8.773438 7.5625 -8.296875 C 7.675781 -7.816406 7.734375 -7.210938 7.734375 -6.484375 L 7.734375 0 Z M 6.296875 0"/></symbol><symbol overflow="visible" id="h"><path d="M 1.421875 -10 L 2.859375 -10 L 2.859375 0 L 1.421875 0 Z M 1.15625 -13.046875 C 1.15625 -13.359375 1.242188 -13.613281 1.421875 -13.8125 C 1.609375 -14.019531 1.847656 -14.125 2.140625 -14.125 C 2.429688 -14.125 2.671875 -14.023438 2.859375 -13.828125 C 3.054688 -13.640625 3.15625 -13.378906 3.15625 -13.046875 C 3.15625 -12.722656 3.054688 -12.46875 2.859375 -12.28125 C 2.671875 -12.101562 2.429688 -12.015625 2.140625 -12.015625 C 1.847656 -12.015625 1.609375 -12.109375 1.421875 -12.296875 C 1.242188 -12.484375 1.15625 -12.734375 1.15625 -13.046875 Z M 1.15625 -13.046875"/></symbol><symbol overflow="visible" id="i"><path d="M 1.078125 -9.40625 C 1.460938 -9.644531 1.929688 -9.828125 2.484375 -9.953125 C 3.035156 -10.085938 3.617188 -10.15625 4.234375 -10.15625 C 4.796875 -10.15625 5.242188 -10.070312 5.578125 -9.90625 C 5.921875 -9.738281 6.191406 -9.507812 6.390625 -9.21875 C 6.585938 -8.9375 6.710938 -8.613281 6.765625 -8.25 C 6.828125 -7.882812 6.859375 -7.5 6.859375 -7.09375 C 6.859375 -6.300781 6.84375 -5.523438 6.8125 -4.765625 C 6.78125 -4.003906 6.765625 -3.28125 6.765625 -2.59375 C 6.765625 -2.09375 6.78125 -1.625 6.8125 -1.1875 C 6.84375 -0.757812 6.90625 -0.347656 7 0.046875 L 5.90625 0.046875 L 5.5625 -1.140625 L 5.484375 -1.140625 C 5.285156 -0.796875 4.988281 -0.492188 4.59375 -0.234375 C 4.207031 0.015625 3.691406 0.140625 3.046875 0.140625 C 2.316406 0.140625 1.722656 -0.109375 1.265625 -0.609375 C 0.804688 -1.109375 0.578125 -1.800781 0.578125 -2.6875 C 0.578125 -3.257812 0.671875 -3.738281 0.859375 -4.125 C 1.054688 -4.507812 1.332031 -4.820312 1.6875 -5.0625 C 2.039062 -5.300781 2.460938 -5.46875 2.953125 -5.5625 C 3.441406 -5.664062 3.984375 -5.71875 4.578125 -5.71875 C 4.710938 -5.71875 4.847656 -5.71875 4.984375 -5.71875 C 5.117188 -5.71875 5.257812 -5.710938 5.40625 -5.703125 C 5.4375 -6.109375 5.453125 -6.472656 5.453125 -6.796875 C 5.453125 -7.554688 5.335938 -8.085938 5.109375 -8.390625 C 4.890625 -8.703125 4.476562 -8.859375 3.875 -8.859375 C 3.5 -8.859375 3.09375 -8.800781 2.65625 -8.6875 C 2.21875 -8.570312 1.851562 -8.429688 1.5625 -8.265625 Z M 5.421875 -4.5625 C 5.285156 -4.570312 5.148438 -4.578125 5.015625 -4.578125 C 4.878906 -4.585938 4.75 -4.59375 4.625 -4.59375 C 4.300781 -4.59375 3.984375 -4.566406 3.671875 -4.515625 C 3.367188 -4.460938 3.097656 -4.367188 2.859375 -4.234375 C 2.617188 -4.109375 2.425781 -3.929688 2.28125 -3.703125 C 2.144531 -3.472656 2.078125 -3.1875 2.078125 -2.84375 C 2.078125 -2.3125 2.207031 -1.894531 2.46875 -1.59375 C 2.726562 -1.300781 3.066406 -1.15625 3.484375 -1.15625 C 4.035156 -1.15625 4.460938 -1.285156 4.765625 -1.546875 C 5.078125 -1.816406 5.296875 -2.113281 5.421875 -2.4375 Z M 5.421875 -4.5625"/></symbol><symbol overflow="visible" id="j"><path d="M 2.71875 -2.375 C 2.71875 -1.914062 2.78125 -1.582031 2.90625 -1.375 C 3.03125 -1.175781 3.207031 -1.078125 3.4375 -1.078125 C 3.71875 -1.078125 4.046875 -1.148438 4.421875 -1.296875 L 4.5625 -0.140625 C 4.382812 -0.0351562 4.140625 0.046875 3.828125 0.109375 C 3.515625 0.179688 3.234375 0.21875 2.984375 0.21875 C 2.472656 0.21875 2.0625 0.0625 1.75 -0.25 C 1.4375 -0.5625 1.28125 -1.113281 1.28125 -1.90625 L 1.28125 -14 L 2.71875 -14 Z M 2.71875 -2.375"/></symbol><symbol overflow="visible" id="k"><path d="M 1.015625 -1.640625 C 1.285156 -1.484375 1.601562 -1.347656 1.96875 -1.234375 C 2.332031 -1.117188 2.707031 -1.0625 3.09375 -1.0625 C 3.539062 -1.0625 3.914062 -1.171875 4.21875 -1.390625 C 4.53125 -1.609375 4.6875 -1.960938 4.6875 -2.453125 C 4.6875 -2.867188 4.59375 -3.207031 4.40625 -3.46875 C 4.21875 -3.738281 3.976562 -3.976562 3.6875 -4.1875 C 3.40625 -4.40625 3.097656 -4.601562 2.765625 -4.78125 C 2.429688 -4.96875 2.117188 -5.1875 1.828125 -5.4375 C 1.546875 -5.6875 1.3125 -5.984375 1.125 -6.328125 C 0.9375 -6.679688 0.84375 -7.125 0.84375 -7.65625 C 0.84375 -8.507812 1.070312 -9.148438 1.53125 -9.578125 C 1.988281 -10.015625 2.640625 -10.234375 3.484375 -10.234375 C 4.023438 -10.234375 4.492188 -10.179688 4.890625 -10.078125 C 5.296875 -9.984375 5.644531 -9.851562 5.9375 -9.6875 L 5.5625 -8.484375 C 5.3125 -8.617188 5.019531 -8.726562 4.6875 -8.8125 C 4.351562 -8.894531 4.007812 -8.9375 3.65625 -8.9375 C 3.175781 -8.9375 2.828125 -8.835938 2.609375 -8.640625 C 2.390625 -8.441406 2.28125 -8.128906 2.28125 -7.703125 C 2.28125 -7.367188 2.375 -7.082031 2.5625 -6.84375 C 2.75 -6.613281 2.984375 -6.398438 3.265625 -6.203125 C 3.554688 -6.015625 3.867188 -5.816406 4.203125 -5.609375 C 4.535156 -5.410156 4.84375 -5.175781 5.125 -4.90625 C 5.414062 -4.632812 5.65625 -4.304688 5.84375 -3.921875 C 6.03125 -3.546875 6.125 -3.070312 6.125 -2.5 C 6.125 -2.125 6.0625 -1.769531 5.9375 -1.4375 C 5.820312 -1.101562 5.640625 -0.8125 5.390625 -0.5625 C 5.140625 -0.320312 4.832031 -0.128906 4.46875 0.015625 C 4.101562 0.160156 3.675781 0.234375 3.1875 0.234375 C 2.59375 0.234375 2.082031 0.175781 1.65625 0.0625 C 1.226562 -0.0390625 0.867188 -0.1875 0.578125 -0.375 Z M 1.015625 -1.640625"/></symbol><symbol overflow="visible" id="l"><path d="M 1.28125 -13.859375 C 1.71875 -13.960938 2.195312 -14.035156 2.71875 -14.078125 C 3.25 -14.128906 3.738281 -14.15625 4.1875 -14.15625 C 4.695312 -14.15625 5.1875 -14.09375 5.65625 -13.96875 C 6.125 -13.84375 6.53125 -13.628906 6.875 -13.328125 C 7.226562 -13.023438 7.503906 -12.628906 7.703125 -12.140625 C 7.910156 -11.660156 8.015625 -11.050781 8.015625 -10.3125 C 8.015625 -9.207031 7.785156 -8.320312 7.328125 -7.65625 C 6.867188 -6.988281 6.257812 -6.539062 5.5 -6.3125 L 6.265625 -5.578125 L 9.015625 0 L 7.28125 0 L 4.28125 -6.09375 L 2.78125 -6.40625 L 2.78125 0 L 1.28125 0 Z M 2.78125 -7.40625 L 3.984375 -7.40625 C 4.742188 -7.40625 5.34375 -7.632812 5.78125 -8.09375 C 6.21875 -8.5625 6.4375 -9.273438 6.4375 -10.234375 C 6.4375 -10.972656 6.253906 -11.582031 5.890625 -12.0625 C 5.523438 -12.539062 4.984375 -12.78125 4.265625 -12.78125 C 3.992188 -12.78125 3.710938 -12.769531 3.421875 -12.75 C 3.140625 -12.726562 2.925781 -12.695312 2.78125 -12.65625 Z M 2.78125 -7.40625"/></symbol><symbol overflow="visible" id="m"><path d="M 7.484375 4 L 6.046875 4 L 6.046875 -0.8125 L 5.953125 -0.8125 C 5.742188 -0.476562 5.472656 -0.21875 5.140625 -0.03125 C 4.816406 0.144531 4.394531 0.234375 3.875 0.234375 C 2.820312 0.234375 2.035156 -0.1875 1.515625 -1.03125 C 0.992188 -1.875 0.734375 -3.179688 0.734375 -4.953125 C 0.734375 -6.679688 1.070312 -7.984375 1.75 -8.859375 C 2.4375 -9.742188 3.425781 -10.1875 4.71875 -10.1875 C 5.28125 -10.1875 5.8125 -10.117188 6.3125 -9.984375 C 6.820312 -9.847656 7.210938 -9.707031 7.484375 -9.5625 Z M 6.046875 -8.546875 C 5.671875 -8.765625 5.140625 -8.875 4.453125 -8.875 C 3.765625 -8.875 3.222656 -8.550781 2.828125 -7.90625 C 2.429688 -7.269531 2.234375 -6.296875 2.234375 -4.984375 C 2.234375 -4.421875 2.265625 -3.898438 2.328125 -3.421875 C 2.398438 -2.941406 2.515625 -2.523438 2.671875 -2.171875 C 2.828125 -1.816406 3.023438 -1.539062 3.265625 -1.34375 C 3.515625 -1.15625 3.820312 -1.0625 4.1875 -1.0625 C 4.6875 -1.0625 5.082031 -1.207031 5.375 -1.5 C 5.664062 -1.789062 5.890625 -2.21875 6.046875 -2.78125 Z M 6.046875 -8.546875"/></symbol><symbol overflow="visible" id="n"><path d="M 2.484375 -10 L 2.484375 -3.875 C 2.484375 -2.863281 2.582031 -2.140625 2.78125 -1.703125 C 2.988281 -1.273438 3.367188 -1.0625 3.921875 -1.0625 C 4.203125 -1.0625 4.453125 -1.117188 4.671875 -1.234375 C 4.890625 -1.347656 5.082031 -1.492188 5.25 -1.671875 C 5.425781 -1.859375 5.582031 -2.070312 5.71875 -2.3125 C 5.851562 -2.5625 5.960938 -2.8125 6.046875 -3.0625 L 6.046875 -10 L 7.484375 -10 L 7.484375 -2.84375 C 7.484375 -2.363281 7.5 -1.863281 7.53125 -1.34375 C 7.5625 -0.832031 7.613281 -0.382812 7.6875 0 L 6.65625 0 L 6.296875 -1.40625 L 6.234375 -1.40625 C 6.015625 -0.957031 5.691406 -0.570312 5.265625 -0.25 C 4.835938 0.0703125 4.300781 0.234375 3.65625 0.234375 C 3.226562 0.234375 2.851562 0.179688 2.53125 0.078125 C 2.21875 -0.0234375 1.945312 -0.21875 1.71875 -0.5 C 1.488281 -0.78125 1.316406 -1.160156 1.203125 -1.640625 C 1.097656 -2.128906 1.046875 -2.753906 1.046875 -3.515625 L 1.046875 -10 Z M 2.484375 -10"/></symbol><symbol overflow="visible" id="o"><path d="M 7.703125 -14 L 9.140625 -14 L 9.140625 -4.625 C 9.140625 -2.925781 8.804688 -1.695312 8.140625 -0.9375 C 7.484375 -0.1875 6.550781 0.1875 5.34375 0.1875 C 3.925781 0.1875 2.894531 -0.175781 2.25 -0.90625 C 1.601562 -1.644531 1.28125 -2.773438 1.28125 -4.296875 L 1.28125 -14 L 2.78125 -14 L 2.78125 -5.078125 C 2.78125 -4.359375 2.828125 -3.75 2.921875 -3.25 C 3.015625 -2.757812 3.164062 -2.359375 3.375 -2.046875 C 3.59375 -1.742188 3.859375 -1.523438 4.171875 -1.390625 C 4.492188 -1.265625 4.890625 -1.203125 5.359375 -1.203125 C 6.242188 -1.203125 6.851562 -1.507812 7.1875 -2.125 C 7.53125 -2.738281 7.703125 -3.722656 7.703125 -5.078125 Z M 7.703125 -14"/></symbol><symbol overflow="visible" id="p"><path d="M 6.703125 -0.5 C 6.367188 -0.25 5.988281 -0.0664062 5.5625 0.046875 C 5.132812 0.171875 4.6875 0.234375 4.21875 0.234375 C 3.582031 0.234375 3.039062 0.113281 2.59375 -0.125 C 2.15625 -0.375 1.800781 -0.726562 1.53125 -1.1875 C 1.257812 -1.644531 1.054688 -2.195312 0.921875 -2.84375 C 0.796875 -3.488281 0.734375 -4.207031 0.734375 -5 C 0.734375 -6.707031 1.035156 -8.003906 1.640625 -8.890625 C 2.253906 -9.785156 3.128906 -10.234375 4.265625 -10.234375 C 4.785156 -10.234375 5.226562 -10.1875 5.59375 -10.09375 C 5.96875 -10 6.289062 -9.878906 6.5625 -9.734375 L 6.15625 -8.484375 C 5.625 -8.785156 5.046875 -8.9375 4.421875 -8.9375 C 3.703125 -8.9375 3.15625 -8.617188 2.78125 -7.984375 C 2.414062 -7.359375 2.234375 -6.363281 2.234375 -5 C 2.234375 -4.457031 2.273438 -3.941406 2.359375 -3.453125 C 2.441406 -2.972656 2.578125 -2.554688 2.765625 -2.203125 C 2.953125 -1.859375 3.191406 -1.582031 3.484375 -1.375 C 3.773438 -1.164062 4.140625 -1.0625 4.578125 -1.0625 C 4.921875 -1.0625 5.242188 -1.117188 5.546875 -1.234375 C 5.847656 -1.359375 6.09375 -1.5 6.28125 -1.65625 Z M 6.703125 -0.5"/></symbol><symbol overflow="visible" id="q"><path d="M 6.296875 0 L 6.296875 -6.078125 C 6.296875 -7.015625 6.1875 -7.722656 5.96875 -8.203125 C 5.75 -8.691406 5.3125 -8.9375 4.65625 -8.9375 C 4.1875 -8.9375 3.757812 -8.769531 3.375 -8.4375 C 3 -8.101562 2.75 -7.6875 2.625 -7.1875 L 2.625 0 L 1.1875 0 L 1.1875 -14 L 2.625 -14 L 2.625 -9.0625 L 2.6875 -9.0625 C 2.945312 -9.40625 3.273438 -9.6875 3.671875 -9.90625 C 4.066406 -10.125 4.554688 -10.234375 5.140625 -10.234375 C 5.578125 -10.234375 5.957031 -10.171875 6.28125 -10.046875 C 6.613281 -9.929688 6.882812 -9.726562 7.09375 -9.4375 C 7.3125 -9.144531 7.472656 -8.753906 7.578125 -8.265625 C 7.679688 -7.785156 7.734375 -7.179688 7.734375 -6.453125 L 7.734375 0 Z M 6.296875 0"/></symbol><symbol overflow="visible" id="r"><path d="M 3.359375 -4.5 L 2.625 -4.5 L 2.625 0 L 1.1875 0 L 1.1875 -14 L 2.625 -14 L 2.625 -5.484375 L 3.28125 -5.765625 L 5.625 -10 L 7.28125 -10 L 4.921875 -5.953125 L 4.21875 -5.3125 L 5.046875 -4.546875 L 7.625 0 L 5.875 0 Z M 3.359375 -4.5"/></symbol><symbol overflow="visible" id="s"><path d="M 6.65625 -3.921875 L 2.703125 -3.921875 L 1.578125 0 L 0.09375 0 L 4.3125 -14.21875 L 5.140625 -14.21875 L 9.359375 0 L 7.796875 0 Z M 3.09375 -5.265625 L 6.296875 -5.265625 L 5.078125 -9.578125 L 4.703125 -11.6875 L 4.65625 -11.6875 L 4.28125 -9.546875 Z M 3.09375 -5.265625"/></symbol><symbol overflow="visible" id="t"><path d="M 8.65625 -12.625 L 5.21875 -12.625 L 5.21875 0 L 3.71875 0 L 3.71875 -12.625 L 0.28125 -12.625 L 0.28125 -14 L 8.65625 -14 Z M 8.65625 -12.625"/></symbol><symbol overflow="visible" id="u"><path d="M 0.734375 -5 C 0.734375 -6.800781 1.039062 -8.125 1.65625 -8.96875 C 2.28125 -9.8125 3.164062 -10.234375 4.3125 -10.234375 C 5.539062 -10.234375 6.445312 -9.800781 7.03125 -8.9375 C 7.613281 -8.070312 7.90625 -6.757812 7.90625 -5 C 7.90625 -3.1875 7.585938 -1.859375 6.953125 -1.015625 C 6.328125 -0.179688 5.445312 0.234375 4.3125 0.234375 C 3.09375 0.234375 2.191406 -0.195312 1.609375 -1.0625 C 1.023438 -1.925781 0.734375 -3.238281 0.734375 -5 Z M 2.234375 -5 C 2.234375 -4.414062 2.269531 -3.882812 2.34375 -3.40625 C 2.414062 -2.925781 2.535156 -2.507812 2.703125 -2.15625 C 2.867188 -1.8125 3.085938 -1.539062 3.359375 -1.34375 C 3.628906 -1.15625 3.945312 -1.0625 4.3125 -1.0625 C 5.007812 -1.0625 5.53125 -1.367188 5.875 -1.984375 C 6.226562 -2.609375 6.40625 -3.613281 6.40625 -5 C 6.40625 -5.570312 6.367188 -6.097656 6.296875 -6.578125 C 6.222656 -7.066406 6.101562 -7.484375 5.9375 -7.828125 C 5.769531 -8.179688 5.550781 -8.453125 5.28125 -8.640625 C 5.007812 -8.835938 4.6875 -8.9375 4.3125 -8.9375 C 3.632812 -8.9375 3.117188 -8.625 2.765625 -8 C 2.410156 -7.375 2.234375 -6.375 2.234375 -5 Z M 2.234375 -5"/></symbol><symbol overflow="visible" id="v"><path d="M 1.1875 -1.859375 C 1.4375 -1.679688 1.789062 -1.515625 2.25 -1.359375 C 2.707031 -1.210938 3.226562 -1.140625 3.8125 -1.140625 C 4.5625 -1.140625 5.171875 -1.320312 5.640625 -1.6875 C 6.109375 -2.050781 6.34375 -2.628906 6.34375 -3.421875 C 6.34375 -3.941406 6.207031 -4.394531 5.9375 -4.78125 C 5.675781 -5.164062 5.34375 -5.519531 4.9375 -5.84375 C 4.539062 -6.175781 4.109375 -6.5 3.640625 -6.8125 C 3.179688 -7.125 2.753906 -7.46875 2.359375 -7.84375 C 1.960938 -8.226562 1.628906 -8.664062 1.359375 -9.15625 C 1.085938 -9.65625 0.953125 -10.25 0.953125 -10.9375 C 0.953125 -12.0625 1.289062 -12.890625 1.96875 -13.421875 C 2.644531 -13.960938 3.519531 -14.234375 4.59375 -14.234375 C 5.257812 -14.234375 5.851562 -14.171875 6.375 -14.046875 C 6.894531 -13.929688 7.316406 -13.78125 7.640625 -13.59375 L 7.15625 -12.28125 C 6.914062 -12.425781 6.570312 -12.554688 6.125 -12.671875 C 5.675781 -12.796875 5.160156 -12.859375 4.578125 -12.859375 C 3.859375 -12.859375 3.320312 -12.679688 2.96875 -12.328125 C 2.625 -11.972656 2.453125 -11.53125 2.453125 -11 C 2.453125 -10.53125 2.585938 -10.113281 2.859375 -9.75 C 3.128906 -9.394531 3.460938 -9.054688 3.859375 -8.734375 C 4.253906 -8.421875 4.679688 -8.097656 5.140625 -7.765625 C 5.609375 -7.441406 6.039062 -7.078125 6.4375 -6.671875 C 6.84375 -6.273438 7.175781 -5.820312 7.4375 -5.3125 C 7.707031 -4.8125 7.84375 -4.210938 7.84375 -3.515625 C 7.84375 -2.347656 7.492188 -1.429688 6.796875 -0.765625 C 6.109375 -0.0976562 5.128906 0.234375 3.859375 0.234375 C 3.054688 0.234375 2.398438 0.160156 1.890625 0.015625 C 1.378906 -0.128906 0.96875 -0.296875 0.65625 -0.484375 Z M 1.1875 -1.859375"/></symbol><symbol overflow="visible" id="w"><path d="M 1.28125 -14 L 7.5 -14 L 7.5 -12.625 L 2.78125 -12.625 L 2.78125 -7.6875 L 7.1875 -7.6875 L 7.1875 -6.296875 L 2.78125 -6.296875 L 2.78125 0 L 1.28125 0 Z M 1.28125 -14"/></symbol><symbol overflow="visible" id="x"><path d="M 1.1875 -10 L 2.203125 -10 L 2.421875 -8.921875 L 2.5 -8.921875 C 2.988281 -9.796875 3.757812 -10.234375 4.8125 -10.234375 C 5.875 -10.234375 6.664062 -9.835938 7.1875 -9.046875 C 7.71875 -8.265625 7.984375 -6.984375 7.984375 -5.203125 C 7.984375 -4.359375 7.894531 -3.597656 7.71875 -2.921875 C 7.539062 -2.253906 7.289062 -1.679688 6.96875 -1.203125 C 6.65625 -0.734375 6.269531 -0.375 5.8125 -0.125 C 5.351562 0.113281 4.84375 0.234375 4.28125 0.234375 C 3.894531 0.234375 3.585938 0.207031 3.359375 0.15625 C 3.128906 0.113281 2.882812 0.0195312 2.625 -0.125 L 2.625 4 L 1.1875 4 Z M 2.625 -1.578125 C 2.8125 -1.421875 3.019531 -1.296875 3.25 -1.203125 C 3.476562 -1.109375 3.789062 -1.0625 4.1875 -1.0625 C 4.882812 -1.0625 5.441406 -1.421875 5.859375 -2.140625 C 6.273438 -2.859375 6.484375 -3.882812 6.484375 -5.21875 C 6.484375 -5.78125 6.445312 -6.285156 6.375 -6.734375 C 6.300781 -7.191406 6.179688 -7.582031 6.015625 -7.90625 C 5.859375 -8.238281 5.65625 -8.492188 5.40625 -8.671875 C 5.164062 -8.847656 4.863281 -8.9375 4.5 -8.9375 C 3.53125 -8.9375 2.90625 -8.34375 2.625 -7.15625 Z M 2.625 -1.578125"/></symbol><symbol overflow="visible" id="y"><path d="M 5.859375 0 L 5.859375 -5.9375 C 5.859375 -6.46875 5.84375 -6.921875 5.8125 -7.296875 C 5.78125 -7.679688 5.707031 -7.992188 5.59375 -8.234375 C 5.488281 -8.472656 5.34375 -8.648438 5.15625 -8.765625 C 4.96875 -8.878906 4.722656 -8.9375 4.421875 -8.9375 C 3.960938 -8.9375 3.578125 -8.757812 3.265625 -8.40625 C 2.953125 -8.050781 2.738281 -7.648438 2.625 -7.203125 L 2.625 0 L 1.1875 0 L 1.1875 -10 L 2.203125 -10 L 2.453125 -8.9375 L 2.515625 -8.9375 C 2.796875 -9.320312 3.128906 -9.632812 3.515625 -9.875 C 3.898438 -10.113281 4.394531 -10.234375 5 -10.234375 C 5.507812 -10.234375 5.925781 -10.125 6.25 -9.90625 C 6.570312 -9.6875 6.828125 -9.296875 7.015625 -8.734375 C 7.253906 -9.203125 7.597656 -9.566406 8.046875 -9.828125 C 8.492188 -10.097656 8.984375 -10.234375 9.515625 -10.234375 C 9.960938 -10.234375 10.34375 -10.175781 10.65625 -10.0625 C 10.96875 -9.957031 11.21875 -9.757812 11.40625 -9.46875 C 11.601562 -9.1875 11.75 -8.804688 11.84375 -8.328125 C 11.9375 -7.859375 11.984375 -7.265625 11.984375 -6.546875 L 11.984375 0 L 10.546875 0 L 10.546875 -6.359375 C 10.546875 -7.222656 10.460938 -7.867188 10.296875 -8.296875 C 10.128906 -8.722656 9.742188 -8.9375 9.140625 -8.9375 C 8.628906 -8.9375 8.222656 -8.78125 7.921875 -8.46875 C 7.628906 -8.15625 7.421875 -7.734375 7.296875 -7.203125 L 7.296875 0 Z M 5.859375 0"/></symbol><symbol overflow="visible" id="z"><path d="M 1.1875 -14 L 2.625 -14 L 2.625 -9.234375 L 2.6875 -9.234375 C 3.226562 -9.898438 3.953125 -10.234375 4.859375 -10.234375 C 5.890625 -10.234375 6.660156 -9.828125 7.171875 -9.015625 C 7.679688 -8.203125 7.9375 -6.914062 7.9375 -5.15625 C 7.9375 -3.351562 7.59375 -2.007812 6.90625 -1.125 C 6.21875 -0.25 5.25 0.1875 4 0.1875 C 3.382812 0.1875 2.820312 0.117188 2.3125 -0.015625 C 1.8125 -0.160156 1.4375 -0.328125 1.1875 -0.515625 Z M 2.625 -1.453125 C 2.8125 -1.347656 3.039062 -1.265625 3.3125 -1.203125 C 3.582031 -1.148438 3.875 -1.125 4.1875 -1.125 C 4.875 -1.125 5.421875 -1.453125 5.828125 -2.109375 C 6.234375 -2.765625 6.4375 -3.78125 6.4375 -5.15625 C 6.4375 -5.726562 6.398438 -6.242188 6.328125 -6.703125 C 6.253906 -7.171875 6.140625 -7.570312 5.984375 -7.90625 C 5.835938 -8.238281 5.640625 -8.492188 5.390625 -8.671875 C 5.140625 -8.847656 4.84375 -8.9375 4.5 -8.9375 C 4.019531 -8.9375 3.625 -8.789062 3.3125 -8.5 C 3 -8.21875 2.769531 -7.832031 2.625 -7.34375 Z M 2.625 -1.453125"/></symbol><symbol overflow="visible" id="A"><path d="M 9.953125 -9.203125 L 10.140625 -11.3125 L 10.0625 -11.3125 L 9.421875 -9.34375 L 6.59375 -3.265625 L 6.09375 -3.265625 L 3.140625 -9.34375 L 2.515625 -11.3125 L 2.4375 -11.3125 L 2.71875 -9.203125 L 2.71875 0 L 1.28125 0 L 1.28125 -14 L 2.546875 -14 L 5.921875 -7.125 L 6.421875 -5.484375 L 6.453125 -5.484375 L 6.9375 -7.140625 L 10.140625 -14 L 11.453125 -14 L 11.453125 0 L 9.953125 0 Z M 9.953125 -9.203125"/></symbol><symbol overflow="visible" id="B"><path d="M 5.671875 0 L 5.671875 -5.484375 C 5.671875 -6.390625 5.566406 -7.039062 5.359375 -7.4375 C 5.148438 -7.84375 4.773438 -8.046875 4.234375 -8.046875 C 3.753906 -8.046875 3.359375 -7.898438 3.046875 -7.609375 C 2.734375 -7.328125 2.503906 -6.972656 2.359375 -6.546875 L 2.359375 0 L 1.0625 0 L 1.0625 -9 L 2 -9 L 2.234375 -8.046875 L 2.28125 -8.046875 C 2.507812 -8.367188 2.816406 -8.644531 3.203125 -8.875 C 3.597656 -9.101562 4.066406 -9.21875 4.609375 -9.21875 C 4.992188 -9.21875 5.332031 -9.160156 5.625 -9.046875 C 5.914062 -8.941406 6.160156 -8.757812 6.359375 -8.5 C 6.554688 -8.25 6.707031 -7.90625 6.8125 -7.46875 C 6.914062 -7.039062 6.96875 -6.492188 6.96875 -5.828125 L 6.96875 0 Z M 5.671875 0"/></symbol><symbol overflow="visible" id="C"><path d="M 0.671875 -4.5 C 0.671875 -6.125 0.945312 -7.316406 1.5 -8.078125 C 2.0625 -8.835938 2.859375 -9.21875 3.890625 -9.21875 C 4.992188 -9.21875 5.804688 -8.828125 6.328125 -8.046875 C 6.847656 -7.265625 7.109375 -6.082031 7.109375 -4.5 C 7.109375 -2.863281 6.828125 -1.664062 6.265625 -0.90625 C 5.703125 -0.15625 4.910156 0.21875 3.890625 0.21875 C 2.785156 0.21875 1.972656 -0.171875 1.453125 -0.953125 C 0.929688 -1.734375 0.671875 -2.914062 0.671875 -4.5 Z M 2.015625 -4.5 C 2.015625 -3.96875 2.046875 -3.484375 2.109375 -3.046875 C 2.179688 -2.617188 2.289062 -2.25 2.4375 -1.9375 C 2.582031 -1.625 2.773438 -1.378906 3.015625 -1.203125 C 3.265625 -1.035156 3.554688 -0.953125 3.890625 -0.953125 C 4.515625 -0.953125 4.984375 -1.226562 5.296875 -1.78125 C 5.609375 -2.34375 5.765625 -3.25 5.765625 -4.5 C 5.765625 -5.019531 5.726562 -5.5 5.65625 -5.9375 C 5.59375 -6.375 5.484375 -6.75 5.328125 -7.0625 C 5.179688 -7.375 4.988281 -7.613281 4.75 -7.78125 C 4.507812 -7.957031 4.222656 -8.046875 3.890625 -8.046875 C 3.273438 -8.046875 2.804688 -7.765625 2.484375 -7.203125 C 2.171875 -6.640625 2.015625 -5.738281 2.015625 -4.5 Z M 2.015625 -4.5"/></symbol><symbol overflow="visible" id="D"><path d="M 0.15625 -9 L 1.265625 -9 L 1.265625 -10.78125 L 2.5625 -11.203125 L 2.5625 -9 L 4.5 -9 L 4.5 -7.828125 L 2.5625 -7.828125 L 2.5625 -2.46875 C 2.5625 -1.9375 2.625 -1.550781 2.75 -1.3125 C 2.875 -1.082031 3.078125 -0.96875 3.359375 -0.96875 C 3.597656 -0.96875 3.804688 -0.992188 3.984375 -1.046875 C 4.160156 -1.109375 4.347656 -1.179688 4.546875 -1.265625 L 4.8125 -0.234375 C 4.539062 -0.0976562 4.242188 0.00390625 3.921875 0.078125 C 3.609375 0.160156 3.28125 0.203125 2.9375 0.203125 C 2.332031 0.203125 1.898438 0.0078125 1.640625 -0.375 C 1.390625 -0.769531 1.265625 -1.40625 1.265625 -2.28125 L 1.265625 -7.828125 L 0.15625 -7.828125 Z M 0.15625 -9"/></symbol><symbol overflow="visible" id="F"><path d="M 2.234375 -9 L 2.234375 -3.484375 C 2.234375 -2.578125 2.328125 -1.925781 2.515625 -1.53125 C 2.703125 -1.144531 3.039062 -0.953125 3.53125 -0.953125 C 3.78125 -0.953125 4.003906 -1.003906 4.203125 -1.109375 C 4.398438 -1.210938 4.578125 -1.347656 4.734375 -1.515625 C 4.890625 -1.679688 5.023438 -1.867188 5.140625 -2.078125 C 5.265625 -2.296875 5.363281 -2.519531 5.4375 -2.75 L 5.4375 -9 L 6.734375 -9 L 6.734375 -2.5625 C 6.734375 -2.125 6.75 -1.671875 6.78125 -1.203125 C 6.8125 -0.742188 6.851562 -0.34375 6.90625 0 L 6 0 L 5.671875 -1.265625 L 5.609375 -1.265625 C 5.410156 -0.867188 5.117188 -0.519531 4.734375 -0.21875 C 4.347656 0.0703125 3.867188 0.21875 3.296875 0.21875 C 2.910156 0.21875 2.570312 0.164062 2.28125 0.0625 C 2 -0.03125 1.753906 -0.203125 1.546875 -0.453125 C 1.335938 -0.703125 1.179688 -1.046875 1.078125 -1.484375 C 0.984375 -1.921875 0.9375 -2.484375 0.9375 -3.171875 L 0.9375 -9 Z M 2.234375 -9"/></symbol><symbol overflow="visible" id="G"><path d="M 2.453125 -2.140625 C 2.453125 -1.722656 2.507812 -1.421875 2.625 -1.234375 C 2.738281 -1.054688 2.894531 -0.96875 3.09375 -0.96875 C 3.34375 -0.96875 3.640625 -1.035156 3.984375 -1.171875 L 4.109375 -0.125 C 3.953125 -0.03125 3.734375 0.046875 3.453125 0.109375 C 3.171875 0.171875 2.914062 0.203125 2.6875 0.203125 C 2.226562 0.203125 1.859375 0.0625 1.578125 -0.21875 C 1.296875 -0.5 1.15625 -0.992188 1.15625 -1.703125 L 1.15625 -12.59375 L 2.453125 -12.59375 Z M 2.453125 -2.140625"/></symbol><symbol overflow="visible" id="H"><path d="M 3.296875 3.953125 C 2.835938 3.378906 2.453125 2.75 2.140625 2.0625 C 1.835938 1.375 1.585938 0.664062 1.390625 -0.0625 C 1.203125 -0.789062 1.066406 -1.519531 0.984375 -2.25 C 0.898438 -2.988281 0.859375 -3.695312 0.859375 -4.375 C 0.859375 -5.03125 0.898438 -5.722656 0.984375 -6.453125 C 1.066406 -7.191406 1.203125 -7.929688 1.390625 -8.671875 C 1.585938 -9.410156 1.84375 -10.128906 2.15625 -10.828125 C 2.476562 -11.535156 2.867188 -12.195312 3.328125 -12.8125 L 4.140625 -12.328125 C 3.753906 -11.710938 3.4375 -11.066406 3.1875 -10.390625 C 2.9375 -9.722656 2.734375 -9.046875 2.578125 -8.359375 C 2.429688 -7.671875 2.320312 -6.988281 2.25 -6.3125 C 2.1875 -5.632812 2.15625 -4.988281 2.15625 -4.375 C 2.15625 -3.800781 2.191406 -3.164062 2.265625 -2.46875 C 2.335938 -1.78125 2.453125 -1.085938 2.609375 -0.390625 C 2.773438 0.296875 2.984375 0.96875 3.234375 1.625 C 3.492188 2.289062 3.796875 2.890625 4.140625 3.421875 Z M 3.296875 3.953125"/></symbol><symbol overflow="visible" id="I"><path d="M 0.96875 -8.453125 C 1.320312 -8.671875 1.742188 -8.835938 2.234375 -8.953125 C 2.734375 -9.078125 3.257812 -9.140625 3.8125 -9.140625 C 4.320312 -9.140625 4.726562 -9.0625 5.03125 -8.90625 C 5.332031 -8.757812 5.570312 -8.554688 5.75 -8.296875 C 5.925781 -8.046875 6.039062 -7.753906 6.09375 -7.421875 C 6.144531 -7.097656 6.171875 -6.753906 6.171875 -6.390625 C 6.171875 -5.671875 6.15625 -4.96875 6.125 -4.28125 C 6.09375 -3.601562 6.078125 -2.957031 6.078125 -2.34375 C 6.078125 -1.882812 6.09375 -1.457031 6.125 -1.0625 C 6.15625 -0.675781 6.210938 -0.3125 6.296875 0.03125 L 5.3125 0.03125 L 5 -1.03125 L 4.9375 -1.03125 C 4.75 -0.71875 4.484375 -0.445312 4.140625 -0.21875 C 3.796875 0.0078125 3.328125 0.125 2.734375 0.125 C 2.085938 0.125 1.554688 -0.0976562 1.140625 -0.546875 C 0.722656 -0.992188 0.515625 -1.613281 0.515625 -2.40625 C 0.515625 -2.925781 0.601562 -3.359375 0.78125 -3.703125 C 0.957031 -4.054688 1.203125 -4.335938 1.515625 -4.546875 C 1.835938 -4.765625 2.21875 -4.914062 2.65625 -5 C 3.09375 -5.09375 3.582031 -5.140625 4.125 -5.140625 C 4.238281 -5.140625 4.351562 -5.140625 4.46875 -5.140625 C 4.59375 -5.140625 4.722656 -5.132812 4.859375 -5.125 C 4.890625 -5.5 4.90625 -5.832031 4.90625 -6.125 C 4.90625 -6.800781 4.800781 -7.273438 4.59375 -7.546875 C 4.394531 -7.828125 4.023438 -7.96875 3.484375 -7.96875 C 3.148438 -7.96875 2.785156 -7.914062 2.390625 -7.8125 C 1.992188 -7.71875 1.664062 -7.59375 1.40625 -7.4375 Z M 4.875 -4.109375 C 4.757812 -4.117188 4.640625 -4.125 4.515625 -4.125 C 4.398438 -4.132812 4.28125 -4.140625 4.15625 -4.140625 C 3.863281 -4.140625 3.578125 -4.113281 3.296875 -4.0625 C 3.023438 -4.019531 2.78125 -3.9375 2.5625 -3.8125 C 2.351562 -3.695312 2.1875 -3.535156 2.0625 -3.328125 C 1.9375 -3.128906 1.875 -2.875 1.875 -2.5625 C 1.875 -2.082031 1.988281 -1.707031 2.21875 -1.4375 C 2.457031 -1.175781 2.757812 -1.046875 3.125 -1.046875 C 3.632812 -1.046875 4.023438 -1.164062 4.296875 -1.40625 C 4.578125 -1.644531 4.769531 -1.910156 4.875 -2.203125 Z M 4.875 -4.109375"/></symbol><symbol overflow="visible" id="J"><path d="M 5.671875 0 L 5.671875 -5.46875 C 5.671875 -6.3125 5.570312 -6.953125 5.375 -7.390625 C 5.175781 -7.828125 4.78125 -8.046875 4.1875 -8.046875 C 3.769531 -8.046875 3.390625 -7.894531 3.046875 -7.59375 C 2.703125 -7.289062 2.472656 -6.914062 2.359375 -6.46875 L 2.359375 0 L 1.0625 0 L 1.0625 -12.59375 L 2.359375 -12.59375 L 2.359375 -8.15625 L 2.40625 -8.15625 C 2.644531 -8.46875 2.941406 -8.722656 3.296875 -8.921875 C 3.648438 -9.117188 4.09375 -9.21875 4.625 -9.21875 C 5.019531 -9.21875 5.363281 -9.160156 5.65625 -9.046875 C 5.957031 -8.941406 6.203125 -8.753906 6.390625 -8.484375 C 6.578125 -8.222656 6.71875 -7.875 6.8125 -7.4375 C 6.914062 -7 6.96875 -6.457031 6.96875 -5.8125 L 6.96875 0 Z M 5.671875 0"/></symbol><symbol overflow="visible" id="K"><path d="M 6.4375 -0.609375 C 6.15625 -0.347656 5.789062 -0.144531 5.34375 0 C 4.90625 0.144531 4.4375 0.21875 3.9375 0.21875 C 3.375 0.21875 2.882812 0.109375 2.46875 -0.109375 C 2.0625 -0.335938 1.722656 -0.65625 1.453125 -1.0625 C 1.179688 -1.476562 0.984375 -1.972656 0.859375 -2.546875 C 0.734375 -3.128906 0.671875 -3.78125 0.671875 -4.5 C 0.671875 -6.03125 0.953125 -7.195312 1.515625 -8 C 2.078125 -8.8125 2.875 -9.21875 3.90625 -9.21875 C 4.238281 -9.21875 4.570312 -9.175781 4.90625 -9.09375 C 5.238281 -9.007812 5.535156 -8.835938 5.796875 -8.578125 C 6.054688 -8.328125 6.265625 -7.972656 6.421875 -7.515625 C 6.585938 -7.066406 6.671875 -6.472656 6.671875 -5.734375 C 6.671875 -5.535156 6.660156 -5.316406 6.640625 -5.078125 C 6.628906 -4.847656 6.613281 -4.609375 6.59375 -4.359375 L 2.015625 -4.359375 C 2.015625 -3.835938 2.054688 -3.367188 2.140625 -2.953125 C 2.222656 -2.535156 2.351562 -2.175781 2.53125 -1.875 C 2.71875 -1.582031 2.953125 -1.351562 3.234375 -1.1875 C 3.515625 -1.03125 3.863281 -0.953125 4.28125 -0.953125 C 4.601562 -0.953125 4.921875 -1.007812 5.234375 -1.125 C 5.554688 -1.25 5.800781 -1.394531 5.96875 -1.5625 Z M 5.4375 -5.4375 C 5.457031 -6.332031 5.328125 -6.988281 5.046875 -7.40625 C 4.773438 -7.832031 4.398438 -8.046875 3.921875 -8.046875 C 3.367188 -8.046875 2.929688 -7.832031 2.609375 -7.40625 C 2.285156 -6.988281 2.09375 -6.332031 2.03125 -5.4375 Z M 5.4375 -5.4375"/></symbol><symbol overflow="visible" id="L"><path d="M 1.28125 -9 L 2.578125 -9 L 2.578125 0 L 1.28125 0 Z M 1.046875 -11.734375 C 1.046875 -12.023438 1.125 -12.257812 1.28125 -12.4375 C 1.445312 -12.613281 1.660156 -12.703125 1.921875 -12.703125 C 2.191406 -12.703125 2.410156 -12.613281 2.578125 -12.4375 C 2.753906 -12.269531 2.84375 -12.035156 2.84375 -11.734375 C 2.84375 -11.441406 2.753906 -11.210938 2.578125 -11.046875 C 2.410156 -10.890625 2.191406 -10.8125 1.921875 -10.8125 C 1.660156 -10.8125 1.445312 -10.894531 1.28125 -11.0625 C 1.125 -11.238281 1.046875 -11.460938 1.046875 -11.734375 Z M 1.046875 -11.734375"/></symbol><symbol overflow="visible" id="M"><path d="M 6.03125 -0.453125 C 5.726562 -0.222656 5.382812 -0.0546875 5 0.046875 C 4.613281 0.160156 4.210938 0.21875 3.796875 0.21875 C 3.222656 0.21875 2.738281 0.109375 2.34375 -0.109375 C 1.945312 -0.335938 1.625 -0.65625 1.375 -1.0625 C 1.132812 -1.476562 0.957031 -1.976562 0.84375 -2.5625 C 0.726562 -3.144531 0.671875 -3.789062 0.671875 -4.5 C 0.671875 -6.03125 0.941406 -7.195312 1.484375 -8 C 2.023438 -8.8125 2.804688 -9.21875 3.828125 -9.21875 C 4.296875 -9.21875 4.695312 -9.175781 5.03125 -9.09375 C 5.375 -9.007812 5.664062 -8.898438 5.90625 -8.765625 L 5.546875 -7.625 C 5.066406 -7.90625 4.546875 -8.046875 3.984375 -8.046875 C 3.328125 -8.046875 2.832031 -7.757812 2.5 -7.1875 C 2.175781 -6.625 2.015625 -5.726562 2.015625 -4.5 C 2.015625 -4.007812 2.050781 -3.546875 2.125 -3.109375 C 2.195312 -2.679688 2.316406 -2.304688 2.484375 -1.984375 C 2.648438 -1.671875 2.863281 -1.421875 3.125 -1.234375 C 3.394531 -1.046875 3.726562 -0.953125 4.125 -0.953125 C 4.4375 -0.953125 4.726562 -1.003906 5 -1.109375 C 5.269531 -1.222656 5.488281 -1.351562 5.65625 -1.5 Z M 6.03125 -0.453125"/></symbol><symbol overflow="visible" id="N"><path d="M 0.921875 -1.46875 C 1.160156 -1.332031 1.441406 -1.210938 1.765625 -1.109375 C 2.097656 -1.003906 2.441406 -0.953125 2.796875 -0.953125 C 3.191406 -0.953125 3.523438 -1.050781 3.796875 -1.25 C 4.078125 -1.445312 4.21875 -1.769531 4.21875 -2.21875 C 4.21875 -2.582031 4.128906 -2.882812 3.953125 -3.125 C 3.785156 -3.363281 3.570312 -3.578125 3.3125 -3.765625 C 3.0625 -3.960938 2.785156 -4.140625 2.484375 -4.296875 C 2.179688 -4.460938 1.898438 -4.660156 1.640625 -4.890625 C 1.390625 -5.117188 1.175781 -5.390625 1 -5.703125 C 0.832031 -6.015625 0.75 -6.410156 0.75 -6.890625 C 0.75 -7.660156 0.957031 -8.238281 1.375 -8.625 C 1.789062 -9.019531 2.375 -9.21875 3.125 -9.21875 C 3.625 -9.21875 4.050781 -9.171875 4.40625 -9.078125 C 4.769531 -8.992188 5.082031 -8.875 5.34375 -8.71875 L 5 -7.625 C 4.769531 -7.75 4.503906 -7.847656 4.203125 -7.921875 C 3.910156 -8.003906 3.609375 -8.046875 3.296875 -8.046875 C 2.859375 -8.046875 2.539062 -7.953125 2.34375 -7.765625 C 2.144531 -7.585938 2.046875 -7.3125 2.046875 -6.9375 C 2.046875 -6.632812 2.128906 -6.375 2.296875 -6.15625 C 2.472656 -5.945312 2.6875 -5.753906 2.9375 -5.578125 C 3.195312 -5.410156 3.476562 -5.234375 3.78125 -5.046875 C 4.082031 -4.867188 4.359375 -4.65625 4.609375 -4.40625 C 4.867188 -4.164062 5.082031 -3.875 5.25 -3.53125 C 5.425781 -3.195312 5.515625 -2.769531 5.515625 -2.25 C 5.515625 -1.914062 5.457031 -1.597656 5.34375 -1.296875 C 5.238281 -0.992188 5.070312 -0.734375 4.84375 -0.515625 C 4.625 -0.296875 4.347656 -0.117188 4.015625 0.015625 C 3.691406 0.148438 3.304688 0.21875 2.859375 0.21875 C 2.328125 0.21875 1.867188 0.164062 1.484375 0.0625 C 1.109375 -0.0390625 0.785156 -0.175781 0.515625 -0.34375 Z M 0.921875 -1.46875"/></symbol><symbol overflow="visible" id="O"><path d="M 3.03125 -4.046875 L 2.359375 -4.046875 L 2.359375 0 L 1.0625 0 L 1.0625 -12.59375 L 2.359375 -12.59375 L 2.359375 -4.9375 L 2.953125 -5.1875 L 5.0625 -9 L 6.546875 -9 L 4.421875 -5.359375 L 3.796875 -4.78125 L 4.53125 -4.09375 L 6.859375 0 L 5.296875 0 Z M 3.03125 -4.046875"/></symbol><symbol overflow="visible" id="P"><path d="M 1.0625 -9 L 1.984375 -9 L 2.171875 -8.03125 L 2.25 -8.03125 C 2.695312 -8.820312 3.394531 -9.21875 4.34375 -9.21875 C 5.289062 -9.21875 6 -8.863281 6.46875 -8.15625 C 6.945312 -7.445312 7.1875 -6.289062 7.1875 -4.6875 C 7.1875 -3.925781 7.109375 -3.242188 6.953125 -2.640625 C 6.796875 -2.035156 6.570312 -1.519531 6.28125 -1.09375 C 5.988281 -0.664062 5.632812 -0.335938 5.21875 -0.109375 C 4.8125 0.109375 4.359375 0.21875 3.859375 0.21875 C 3.503906 0.21875 3.222656 0.195312 3.015625 0.15625 C 2.816406 0.113281 2.597656 0.0234375 2.359375 -0.109375 L 2.359375 3.59375 L 1.0625 3.59375 Z M 2.359375 -1.421875 C 2.523438 -1.273438 2.710938 -1.160156 2.921875 -1.078125 C 3.128906 -0.992188 3.410156 -0.953125 3.765625 -0.953125 C 4.398438 -0.953125 4.898438 -1.273438 5.265625 -1.921875 C 5.640625 -2.566406 5.828125 -3.492188 5.828125 -4.703125 C 5.828125 -5.203125 5.796875 -5.65625 5.734375 -6.0625 C 5.671875 -6.46875 5.566406 -6.816406 5.421875 -7.109375 C 5.273438 -7.410156 5.085938 -7.640625 4.859375 -7.796875 C 4.640625 -7.960938 4.367188 -8.046875 4.046875 -8.046875 C 3.171875 -8.046875 2.609375 -7.507812 2.359375 -6.4375 Z M 2.359375 -1.421875"/></symbol><symbol overflow="visible" id="Q"><path d="M 6.734375 -3.09375 C 6.734375 -2.476562 6.738281 -1.921875 6.75 -1.421875 C 6.757812 -0.929688 6.800781 -0.445312 6.875 0.03125 L 6 0.03125 L 5.703125 -1.046875 L 5.640625 -1.046875 C 5.460938 -0.679688 5.191406 -0.378906 4.828125 -0.140625 C 4.472656 0.0976562 4.046875 0.21875 3.546875 0.21875 C 2.578125 0.21875 1.851562 -0.15625 1.375 -0.90625 C 0.90625 -1.664062 0.671875 -2.859375 0.671875 -4.484375 C 0.671875 -6.015625 0.957031 -7.175781 1.53125 -7.96875 C 2.113281 -8.757812 2.914062 -9.15625 3.9375 -9.15625 C 4.289062 -9.15625 4.566406 -9.132812 4.765625 -9.09375 C 4.972656 -9.050781 5.195312 -8.984375 5.4375 -8.890625 L 5.4375 -12.59375 L 6.734375 -12.59375 Z M 5.4375 -7.578125 C 5.269531 -7.722656 5.078125 -7.828125 4.859375 -7.890625 C 4.648438 -7.953125 4.375 -7.984375 4.03125 -7.984375 C 3.394531 -7.984375 2.898438 -7.695312 2.546875 -7.125 C 2.191406 -6.550781 2.015625 -5.664062 2.015625 -4.46875 C 2.015625 -3.9375 2.046875 -3.457031 2.109375 -3.03125 C 2.179688 -2.601562 2.285156 -2.234375 2.421875 -1.921875 C 2.554688 -1.609375 2.734375 -1.367188 2.953125 -1.203125 C 3.179688 -1.035156 3.457031 -0.953125 3.78125 -0.953125 C 4.644531 -0.953125 5.195312 -1.460938 5.4375 -2.484375 Z M 5.4375 -7.578125"/></symbol><symbol overflow="visible" id="R"><path d="M 0.859375 3.421875 C 1.210938 2.890625 1.515625 2.289062 1.765625 1.625 C 2.015625 0.96875 2.21875 0.296875 2.375 -0.390625 C 2.539062 -1.085938 2.660156 -1.78125 2.734375 -2.46875 C 2.804688 -3.164062 2.84375 -3.800781 2.84375 -4.375 C 2.84375 -4.988281 2.804688 -5.632812 2.734375 -6.3125 C 2.671875 -6.988281 2.566406 -7.671875 2.421875 -8.359375 C 2.273438 -9.046875 2.070312 -9.722656 1.8125 -10.390625 C 1.550781 -11.066406 1.234375 -11.710938 0.859375 -12.328125 L 1.671875 -12.8125 C 2.128906 -12.195312 2.515625 -11.535156 2.828125 -10.828125 C 3.148438 -10.128906 3.40625 -9.410156 3.59375 -8.671875 C 3.789062 -7.929688 3.929688 -7.191406 4.015625 -6.453125 C 4.097656 -5.722656 4.140625 -5.03125 4.140625 -4.375 C 4.140625 -3.695312 4.097656 -2.988281 4.015625 -2.25 C 3.929688 -1.519531 3.789062 -0.789062 3.59375 -0.0625 C 3.40625 0.664062 3.15625 1.375 2.84375 2.0625 C 2.53125 2.75 2.148438 3.378906 1.703125 3.953125 Z M 0.859375 3.421875"/></symbol><symbol overflow="visible" id="S"><path d="M 6.9375 -12.59375 L 8.21875 -12.59375 L 8.21875 -4.15625 C 8.21875 -2.632812 7.921875 -1.535156 7.328125 -0.859375 C 6.734375 -0.179688 5.894531 0.15625 4.8125 0.15625 C 3.53125 0.15625 2.597656 -0.171875 2.015625 -0.828125 C 1.441406 -1.484375 1.15625 -2.5 1.15625 -3.875 L 1.15625 -12.59375 L 2.5 -12.59375 L 2.5 -4.578125 C 2.5 -3.921875 2.539062 -3.367188 2.625 -2.921875 C 2.707031 -2.484375 2.84375 -2.125 3.03125 -1.84375 C 3.226562 -1.570312 3.46875 -1.375 3.75 -1.25 C 4.039062 -1.132812 4.398438 -1.078125 4.828125 -1.078125 C 5.617188 -1.078125 6.164062 -1.351562 6.46875 -1.90625 C 6.78125 -2.457031 6.9375 -3.347656 6.9375 -4.578125 Z M 6.9375 -12.59375"/></symbol><symbol overflow="visible" id="T"><path d="M 1.0625 -9 L 1.984375 -9 L 2.21875 -8.046875 L 2.265625 -8.046875 C 2.429688 -8.390625 2.648438 -8.660156 2.921875 -8.859375 C 3.191406 -9.054688 3.519531 -9.15625 3.90625 -9.15625 C 4.175781 -9.15625 4.488281 -9.101562 4.84375 -9 L 4.59375 -7.6875 C 4.28125 -7.789062 4.003906 -7.84375 3.765625 -7.84375 C 3.378906 -7.84375 3.066406 -7.734375 2.828125 -7.515625 C 2.585938 -7.296875 2.429688 -7 2.359375 -6.625 L 2.359375 0 L 1.0625 0 Z M 1.0625 -9"/></symbol><symbol overflow="visible" id="U"><path d="M 1.421875 -12.59375 L 2.765625 -12.59375 L 2.765625 0 L 1.421875 0 Z M 1.421875 -12.59375"/></symbol><symbol overflow="visible" id="V"><path d="M 0.28125 -9 L 1.390625 -9 L 1.390625 -9.5 C 1.390625 -10.632812 1.550781 -11.453125 1.875 -11.953125 C 2.195312 -12.453125 2.75 -12.703125 3.53125 -12.703125 C 3.84375 -12.703125 4.125 -12.679688 4.375 -12.640625 C 4.625 -12.609375 4.878906 -12.535156 5.140625 -12.421875 L 4.828125 -11.296875 C 4.609375 -11.398438 4.40625 -11.460938 4.21875 -11.484375 C 4.03125 -11.515625 3.851562 -11.53125 3.6875 -11.53125 C 3.445312 -11.53125 3.257812 -11.484375 3.125 -11.390625 C 3 -11.296875 2.898438 -11.144531 2.828125 -10.9375 C 2.765625 -10.738281 2.722656 -10.476562 2.703125 -10.15625 C 2.691406 -9.84375 2.6875 -9.457031 2.6875 -9 L 4.546875 -9 L 4.546875 -7.828125 L 2.6875 -7.828125 L 2.6875 0 L 1.390625 0 L 1.390625 -7.828125 L 0.28125 -7.828125 Z M 0.28125 -9"/></symbol><symbol overflow="visible" id="W"><path d="M 5.875 -9 L 7.46875 -3.75 L 7.796875 -2.015625 L 7.828125 -2.015625 L 8.09375 -3.78125 L 9.328125 -9 L 10.546875 -9 L 8.15625 0.203125 L 7.421875 0.203125 L 5.59375 -5.703125 L 5.34375 -7.21875 L 5.3125 -7.21875 L 5.0625 -5.6875 L 3.296875 0.203125 L 2.5625 0.203125 L 0.09375 -9 L 1.46875 -9 L 2.859375 -3.765625 L 3.078125 -2.015625 L 3.109375 -2.015625 L 3.4375 -3.796875 L 4.90625 -9 Z M 5.875 -9"/></symbol><symbol overflow="visible" id="X"><path d="M 6 -3.53125 L 2.4375 -3.53125 L 1.421875 0 L 0.09375 0 L 3.890625 -12.796875 L 4.625 -12.796875 L 8.421875 0 L 7.015625 0 Z M 2.796875 -4.734375 L 5.671875 -4.734375 L 4.578125 -8.625 L 4.234375 -10.515625 L 4.1875 -10.515625 L 3.859375 -8.59375 Z M 2.796875 -4.734375"/></symbol><symbol overflow="visible" id="Y"><path d="M 1.15625 -12.59375 L 6.75 -12.59375 L 6.75 -11.359375 L 2.5 -11.359375 L 2.5 -7.09375 L 6.40625 -7.09375 L 6.40625 -5.84375 L 2.5 -5.84375 L 2.5 -1.234375 L 6.84375 -1.234375 L 6.84375 0 L 1.15625 0 Z M 1.15625 -12.59375"/></symbol><symbol overflow="visible" id="Z"><path d="M 2.890625 -4.609375 L 0.515625 -9 L 2.0625 -9 L 3.40625 -6.421875 L 3.765625 -5.421875 L 4.140625 -6.421875 L 5.515625 -9 L 6.9375 -9 L 4.53125 -4.6875 L 7.078125 0 L 5.59375 0 L 4.09375 -2.828125 L 3.6875 -3.90625 L 3.28125 -2.828125 L 1.765625 0 L 0.34375 0 Z M 2.890625 -4.609375"/></symbol><symbol overflow="visible" id="aa"><path d="M 3.296875 -3.1875 L 3.671875 -1.4375 L 3.765625 -1.4375 L 4.03125 -3.1875 L 5.40625 -9 L 6.71875 -9 L 4.578125 -0.921875 C 4.398438 -0.273438 4.226562 0.328125 4.0625 0.890625 C 3.894531 1.460938 3.710938 1.953125 3.515625 2.359375 C 3.316406 2.773438 3.09375 3.097656 2.84375 3.328125 C 2.601562 3.566406 2.316406 3.6875 1.984375 3.6875 C 1.640625 3.6875 1.34375 3.632812 1.09375 3.53125 L 1.3125 2.296875 C 1.476562 2.359375 1.644531 2.367188 1.8125 2.328125 C 1.976562 2.296875 2.132812 2.195312 2.28125 2.03125 C 2.4375 1.863281 2.578125 1.613281 2.703125 1.28125 C 2.828125 0.957031 2.941406 0.53125 3.046875 0 L 0.125 -9 L 1.609375 -9 Z M 3.296875 -3.1875"/></symbol><symbol overflow="visible" id="ab"><path d="M 3.234375 -3.71875 L 3.59375 -1.9375 L 3.640625 -1.9375 L 3.953125 -3.765625 L 5.546875 -9 L 6.90625 -9 L 3.828125 0.203125 L 3.203125 0.203125 L 0.078125 -9 L 1.546875 -9 Z M 3.234375 -3.71875"/></symbol><symbol overflow="visible" id="ac"><path d="M 5.28125 0 L 5.28125 -5.34375 C 5.28125 -5.820312 5.265625 -6.234375 5.234375 -6.578125 C 5.203125 -6.921875 5.132812 -7.195312 5.03125 -7.40625 C 4.9375 -7.625 4.804688 -7.785156 4.640625 -7.890625 C 4.472656 -7.992188 4.253906 -8.046875 3.984375 -8.046875 C 3.566406 -8.046875 3.21875 -7.882812 2.9375 -7.5625 C 2.65625 -7.25 2.460938 -6.890625 2.359375 -6.484375 L 2.359375 0 L 1.0625 0 L 1.0625 -9 L 1.984375 -9 L 2.21875 -8.046875 L 2.265625 -8.046875 C 2.515625 -8.390625 2.8125 -8.671875 3.15625 -8.890625 C 3.507812 -9.109375 3.957031 -9.21875 4.5 -9.21875 C 4.957031 -9.21875 5.332031 -9.117188 5.625 -8.921875 C 5.914062 -8.722656 6.144531 -8.367188 6.3125 -7.859375 C 6.53125 -8.285156 6.835938 -8.617188 7.234375 -8.859375 C 7.640625 -9.097656 8.082031 -9.21875 8.5625 -9.21875 C 8.957031 -9.21875 9.296875 -9.164062 9.578125 -9.0625 C 9.867188 -8.957031 10.097656 -8.773438 10.265625 -8.515625 C 10.441406 -8.265625 10.570312 -7.925781 10.65625 -7.5 C 10.738281 -7.070312 10.78125 -6.535156 10.78125 -5.890625 L 10.78125 0 L 9.484375 0 L 9.484375 -5.71875 C 9.484375 -6.5 9.40625 -7.082031 9.25 -7.46875 C 9.101562 -7.851562 8.757812 -8.046875 8.21875 -8.046875 C 7.769531 -8.046875 7.410156 -7.90625 7.140625 -7.625 C 6.867188 -7.34375 6.675781 -6.960938 6.5625 -6.484375 L 6.5625 0 Z M 5.28125 0"/></symbol><symbol overflow="visible" id="ad"><path d="M 4.625 -6.28125 L 8.09375 -6.28125 L 8.09375 -0.734375 C 7.757812 -0.421875 7.328125 -0.179688 6.796875 -0.015625 C 6.273438 0.140625 5.742188 0.21875 5.203125 0.21875 C 4.523438 0.21875 3.914062 0.09375 3.375 -0.15625 C 2.832031 -0.414062 2.367188 -0.8125 1.984375 -1.34375 C 1.597656 -1.875 1.300781 -2.546875 1.09375 -3.359375 C 0.882812 -4.179688 0.78125 -5.160156 0.78125 -6.296875 C 0.78125 -7.472656 0.90625 -8.472656 1.15625 -9.296875 C 1.40625 -10.117188 1.742188 -10.789062 2.171875 -11.3125 C 2.597656 -11.832031 3.082031 -12.210938 3.625 -12.453125 C 4.175781 -12.691406 4.738281 -12.8125 5.3125 -12.8125 C 5.882812 -12.8125 6.363281 -12.769531 6.75 -12.6875 C 7.144531 -12.613281 7.484375 -12.515625 7.765625 -12.390625 L 7.4375 -11.15625 C 7.195312 -11.289062 6.910156 -11.394531 6.578125 -11.46875 C 6.242188 -11.539062 5.863281 -11.578125 5.4375 -11.578125 C 5.019531 -11.578125 4.617188 -11.484375 4.234375 -11.296875 C 3.847656 -11.117188 3.5 -10.820312 3.1875 -10.40625 C 2.882812 -10 2.644531 -9.457031 2.46875 -8.78125 C 2.289062 -8.113281 2.203125 -7.285156 2.203125 -6.296875 C 2.203125 -4.492188 2.484375 -3.164062 3.046875 -2.3125 C 3.617188 -1.457031 4.40625 -1.03125 5.40625 -1.03125 C 6.03125 -1.03125 6.546875 -1.175781 6.953125 -1.46875 L 6.953125 -5.140625 L 4.625 -5.484375 Z M 4.625 -6.28125"/></symbol><symbol overflow="visible" id="ae"><path d="M 7.796875 -11.359375 L 4.703125 -11.359375 L 4.703125 0 L 3.34375 0 L 3.34375 -11.359375 L 0.25 -11.359375 L 0.25 -12.59375 L 7.796875 -12.59375 Z M 7.796875 -11.359375"/></symbol><symbol overflow="visible" id="af"><path d="M 1.15625 -12.46875 C 1.550781 -12.570312 1.984375 -12.644531 2.453125 -12.6875 C 2.929688 -12.726562 3.367188 -12.75 3.765625 -12.75 C 4.234375 -12.75 4.675781 -12.691406 5.09375 -12.578125 C 5.507812 -12.460938 5.875 -12.269531 6.1875 -12 C 6.5 -11.726562 6.75 -11.375 6.9375 -10.9375 C 7.125 -10.5 7.21875 -9.945312 7.21875 -9.28125 C 7.21875 -8.289062 7.007812 -7.492188 6.59375 -6.890625 C 6.175781 -6.296875 5.628906 -5.894531 4.953125 -5.6875 L 5.640625 -5.015625 L 8.125 0 L 6.546875 0 L 3.859375 -5.484375 L 2.5 -5.765625 L 2.5 0 L 1.15625 0 Z M 2.5 -6.65625 L 3.578125 -6.65625 C 4.265625 -6.65625 4.804688 -6.863281 5.203125 -7.28125 C 5.597656 -7.707031 5.796875 -8.351562 5.796875 -9.21875 C 5.796875 -9.875 5.628906 -10.414062 5.296875 -10.84375 C 4.972656 -11.28125 4.484375 -11.5 3.828125 -11.5 C 3.585938 -11.5 3.335938 -11.488281 3.078125 -11.46875 C 2.828125 -11.457031 2.632812 -11.429688 2.5 -11.390625 Z M 2.5 -6.65625"/></symbol></defs><path fill="#fff" d="M0 0H680V960H0z"/><path d="M 0.357198 -15.076822 L 34.298409 -15.076822 L 34.298409 32.864975 L 0.357198 32.864975 Z M 0.357198 -15.076822" transform="matrix(20 0 0 20 -6.144 302.536)" fill-rule="evenodd" fill="#fff" stroke-width=".1" stroke="#fff" stroke-miterlimit="10"/><path d="M 200.675781 107.011719 L 342.707031 107.011719 L 342.707031 162.421875 L 200.675781 162.421875 Z M 200.675781 107.011719" fill-rule="evenodd" fill="#fff"/><path d="M 200.675781 113.011719 L 200.675781 107.011719 C 197.363281 107.011719 194.675781 109.695312 194.675781 113.011719 Z M 200.675781 113.011719" fill-rule="evenodd" fill="#fff"/><path d="M 342.707031 113.011719 L 348.707031 113.011719 C 348.707031 109.695312 346.019531 107.011719 342.707031 107.011719 Z M 342.707031 113.011719" fill-rule="evenodd" fill="#fff"/><path d="M 194.675781 113.011719 L 348.707031 113.011719 L 348.707031 156.421875 L 194.675781 156.421875 Z M 194.675781 113.011719" fill-rule="evenodd" fill="#fff"/><path d="M 200.675781 156.421875 L 194.675781 156.421875 C 194.675781 159.734375 197.363281 162.421875 200.675781 162.421875 Z M 200.675781 156.421875" fill-rule="evenodd" fill="#fff"/><path d="M 342.707031 156.421875 L 342.707031 162.421875 C 346.019531 162.421875 348.707031 159.734375 348.707031 156.421875 Z M 342.707031 156.421875" fill-rule="evenodd" fill="#fff"/><path d="M 10.340987 -9.776236 L 17.442549 -9.776236" transform="matrix(20 0 0 20 -6.144 302.536)" fill="none" stroke-width=".1" stroke="#000" stroke-miterlimit="10"/><path d="M 10.340987 -7.005729 L 17.442549 -7.005729" transform="matrix(20 0 0 20 -6.144 302.536)" fill="none" stroke-width=".1" stroke="#000" stroke-miterlimit="10"/><path d="M 10.340987 -9.776236 L 10.340987 -9.776236 C 10.175362 -9.776236 10.040987 -9.642057 10.040987 -9.476236" transform="matrix(20 0 0 20 -6.144 302.536)" fill="none" stroke-width=".1" stroke="#000" stroke-miterlimit="10"/><path d="M 17.742549 -9.476236 L 17.742549 -9.476236 C 17.742549 -9.642057 17.608174 -9.776236 17.442549 -9.776236" transform="matrix(20 0 0 20 -6.144 302.536)" fill="none" stroke-width=".1" stroke="#000" stroke-miterlimit="10"/><path d="M 10.040987 -9.476236 L 10.040987 -7.305729" transform="matrix(20 0 0 20 -6.144 302.536)" fill="none" stroke-width=".1" stroke="#000" stroke-miterlimit="10"/><path d="M 17.742549 -9.476236 L 17.742549 -7.305729" transform="matrix(20 0 0 20 -6.144 302.536)" fill="none" stroke-width=".1" stroke="#000" stroke-miterlimit="10"/><path d="M 10.040987 -7.305729 L 10.040987 -7.305729 C 10.040987 -7.140104 10.175362 -7.005729 10.340987 -7.005729" transform="matrix(20 0 0 20 -6.144 302.536)" fill="none" stroke-width=".1" stroke="#000" stroke-miterlimit="10"/><path d="M 17.442549 -7.005729 L 17.442549 -7.005729 C 17.608174 -7.005729 17.742549 -7.140104 17.742549 -7.305729" transform="matrix(20 0 0 20 -6.144 302.536)" fill="none" stroke-width=".1" stroke="#000" stroke-miterlimit="10"/><use xlink:href="#a" x="221.672" y="142.664"/><use xlink:href="#b" x="230.305" y="142.664"/><use xlink:href="#c" x="238.566" y="142.664"/><use xlink:href="#d" x="244.074" y="142.664"/><use xlink:href="#e" x="253" y="142.664"/><use xlink:href="#b" x="258.488" y="142.664"/><use xlink:href="#f" x="266.75" y="142.664"/><use xlink:href="#b" x="275.402" y="142.664"/><use xlink:href="#g" x="283.664" y="142.664"/><use xlink:href="#c" x="292.453" y="142.664"/><use xlink:href="#h" x="297.961" y="142.664"/><use xlink:href="#i" x="302.297" y="142.664"/><use xlink:href="#j" x="310.305" y="142.664"/><use xlink:href="#k" x="314.973" y="142.664"/><path d="M 11.565401 -14.210025 L 16.218135 -14.210025 C 16.860518 -14.210025 17.381416 -13.685025 17.381416 -13.037565 C 17.381416 -12.389908 16.860518 -11.865104 16.218135 -11.865104 L 11.565401 -11.865104 C 10.923018 -11.865104 10.402119 -12.389908 10.402119 -13.037565 C 10.402119 -13.685025 10.923018 -14.210025 11.565401 -14.210025" transform="matrix(20 0 0 20 -6.144 302.536)" fill-rule="evenodd" fill="#b2d4eb" stroke-width=".1" stroke="#000" stroke-miterlimit="10"/><use xlink:href="#l" x="244.289" y="49.406"/><use xlink:href="#b" x="253.137" y="49.406"/><use xlink:href="#m" x="261.262" y="49.406"/><use xlink:href="#n" x="269.895" y="49.406"/><use xlink:href="#b" x="278.566" y="49.406"/><use xlink:href="#k" x="286.828" y="49.406"/><use xlink:href="#c" x="293.586" y="49.406"/><path d="M 200.675781 240.027344 L 342.707031 240.027344 L 342.707031 295.4375 L 200.675781 295.4375 Z M 200.675781 240.027344" fill-rule="evenodd" fill="#fff"/><path d="M 200.675781 246.027344 L 200.675781 240.027344 C 197.363281 240.027344 194.675781 242.714844 194.675781 246.027344 Z M 200.675781 246.027344" fill-rule="evenodd" fill="#fff"/><path d="M 342.707031 246.027344 L 348.707031 246.027344 C 348.707031 242.714844 346.019531 240.027344 342.707031 240.027344 Z M 342.707031 246.027344" fill-rule="evenodd" fill="#fff"/><path d="M 194.675781 246.027344 L 348.707031 246.027344 L 348.707031 289.4375 L 194.675781 289.4375 Z M 194.675781 246.027344" fill-rule="evenodd" fill="#fff"/><path d="M 200.675781 289.441406 L 194.675781 289.441406 C 194.675781 292.753906 197.363281 295.441406 200.675781 295.441406 Z M 200.675781 289.441406" fill-rule="evenodd" fill="#fff"/><path d="M 342.707031 289.441406 L 342.707031 295.441406 C 346.019531 295.441406 348.707031 292.753906 348.707031 289.441406 Z M 342.707031 289.441406" fill-rule="evenodd" fill="#fff"/><path d="M 10.340987 -3.125455 L 17.442549 -3.125455" transform="matrix(20 0 0 20 -6.144 302.536)" fill="none" stroke-width=".1" stroke="#000" stroke-miterlimit="10"/><path d="M 10.340987 -0.354752 L 17.442549 -0.354752" transform="matrix(20 0 0 20 -6.144 302.536)" fill="none" stroke-width=".1" stroke="#000" stroke-miterlimit="10"/><path d="M 10.340987 -3.125455 L 10.340987 -3.125455 C 10.175362 -3.125455 10.040987 -2.99108 10.040987 -2.825455" transform="matrix(20 0 0 20 -6.144 302.536)" fill="none" stroke-width=".1" stroke="#000" stroke-miterlimit="10"/><path d="M 17.742549 -2.825455 L 17.742549 -2.825455 C 17.742549 -2.99108 17.608174 -3.125455 17.442549 -3.125455" transform="matrix(20 0 0 20 -6.144 302.536)" fill="none" stroke-width=".1" stroke="#000" stroke-miterlimit="10"/><path d="M 10.040987 -2.825455 L 10.040987 -0.654752" transform="matrix(20 0 0 20 -6.144 302.536)" fill="none" stroke-width=".1" stroke="#000" stroke-miterlimit="10"/><path d="M 17.742549 -2.825455 L 17.742549 -0.654752" transform="matrix(20 0 0 20 -6.144 302.536)" fill="none" stroke-width=".1" stroke="#000" stroke-miterlimit="10"/><path d="M 10.040987 -0.654752 L 10.040987 -0.654752 C 10.040987 -0.489127 10.175362 -0.354752 10.340987 -0.354752" transform="matrix(20 0 0 20 -6.144 302.536)" fill="none" stroke-width=".1" stroke="#000" stroke-miterlimit="10"/><path d="M 17.442549 -0.354752 L 17.442549 -0.354752 C 17.608174 -0.354752 17.742549 -0.489127 17.742549 -0.654752" transform="matrix(20 0 0 20 -6.144 302.536)" fill="none" stroke-width=".1" stroke="#000" stroke-miterlimit="10"/><use xlink:href="#a" x="245.031" y="275.684"/><use xlink:href="#b" x="253.664" y="275.684"/><use xlink:href="#c" x="261.926" y="275.684"/><use xlink:href="#o" x="267.434" y="275.684"/><use xlink:href="#k" x="277.863" y="275.684"/><use xlink:href="#b" x="284.621" y="275.684"/><use xlink:href="#e" x="292.883" y="275.684"/><path d="M 200.675781 380.679688 L 342.707031 380.679688 L 342.707031 436.089844 L 200.675781 436.089844 Z M 200.675781 380.679688" fill-rule="evenodd" fill="#fff"/><path d="M 200.675781 386.679688 L 200.675781 380.679688 C 197.363281 380.679688 194.675781 383.367188 194.675781 386.679688 Z M 200.675781 386.679688" fill-rule="evenodd" fill="#fff"/><path d="M 342.707031 386.679688 L 348.707031 386.679688 C 348.707031 383.367188 346.019531 380.679688 342.707031 380.679688 Z M 342.707031 386.679688" fill-rule="evenodd" fill="#fff"/><path d="M 194.675781 386.679688 L 348.707031 386.679688 L 348.707031 430.089844 L 194.675781 430.089844 Z M 194.675781 386.679688" fill-rule="evenodd" fill="#fff"/><path d="M 200.675781 430.09375 L 194.675781 430.09375 C 194.675781 433.40625 197.363281 436.09375 200.675781 436.09375 Z M 200.675781 430.09375" fill-rule="evenodd" fill="#fff"/><path d="M 342.707031 430.09375 L 342.707031 436.09375 C 346.019531 436.09375 348.707031 433.40625 348.707031 430.09375 Z M 342.707031 430.09375" fill-rule="evenodd" fill="#fff"/><path d="M 10.340987 3.907162 L 17.442549 3.907162" transform="matrix(20 0 0 20 -6.144 302.536)" fill="none" stroke-width=".1" stroke="#000" stroke-miterlimit="10"/><path d="M 10.340987 6.677865 L 17.442549 6.677865" transform="matrix(20 0 0 20 -6.144 302.536)" fill="none" stroke-width=".1" stroke="#000" stroke-miterlimit="10"/><path d="M 10.340987 3.907162 L 10.340987 3.907162 C 10.175362 3.907162 10.040987 4.041537 10.040987 4.207162" transform="matrix(20 0 0 20 -6.144 302.536)" fill="none" stroke-width=".1" stroke="#000" stroke-miterlimit="10"/><path d="M 17.742549 4.207162 L 17.742549 4.207162 C 17.742549 4.041537 17.608174 3.907162 17.442549 3.907162" transform="matrix(20 0 0 20 -6.144 302.536)" fill="none" stroke-width=".1" stroke="#000" stroke-miterlimit="10"/><path d="M 10.040987 4.207162 L 10.040987 6.377865" transform="matrix(20 0 0 20 -6.144 302.536)" fill="none" stroke-width=".1" stroke="#000" stroke-miterlimit="10"/><path d="M 17.742549 4.207162 L 17.742549 6.377865" transform="matrix(20 0 0 20 -6.144 302.536)" fill="none" stroke-width=".1" stroke="#000" stroke-miterlimit="10"/><path d="M 10.040987 6.377865 L 10.040987 6.377865 C 10.040987 6.54349 10.175362 6.677865 10.340987 6.677865" transform="matrix(20 0 0 20 -6.144 302.536)" fill="none" stroke-width=".1" stroke="#000" stroke-miterlimit="10"/><path d="M 17.442549 6.677865 L 17.442549 6.677865 C 17.608174 6.677865 17.742549 6.54349 17.742549 6.377865" transform="matrix(20 0 0 20 -6.144 302.536)" fill="none" stroke-width=".1" stroke="#000" stroke-miterlimit="10"/><use xlink:href="#p" x="213.391" y="416.336"/><use xlink:href="#q" x="220.52" y="416.336"/><use xlink:href="#b" x="229.328" y="416.336"/><use xlink:href="#p" x="237.453" y="416.336"/><use xlink:href="#r" x="244.582" y="416.336"/><use xlink:href="#d" x="252.336" y="416.336"/><use xlink:href="#e" x="261.262" y="416.336"/><use xlink:href="#b" x="266.75" y="416.336"/><use xlink:href="#f" x="275.012" y="416.336"/><use xlink:href="#b" x="283.664" y="416.336"/><use xlink:href="#g" x="291.926" y="416.336"/><use xlink:href="#c" x="300.715" y="416.336"/><use xlink:href="#h" x="306.223" y="416.336"/><use xlink:href="#i" x="310.559" y="416.336"/><use xlink:href="#j" x="318.566" y="416.336"/><use xlink:href="#k" x="323.234" y="416.336"/><path d="M 28.089844 533.339844 L 220.191406 533.339844 L 220.191406 588.75 L 28.089844 588.75 Z M 28.089844 533.339844" fill-rule="evenodd" fill="#fff"/><path d="M 28.089844 539.339844 L 28.089844 533.339844 C 24.773438 533.339844 22.089844 536.027344 22.089844 539.339844 Z M 28.089844 539.339844" fill-rule="evenodd" fill="#fff"/><path d="M 220.1875 539.339844 L 226.1875 539.339844 C 226.1875 536.027344 223.5 533.339844 220.1875 533.339844 Z M 220.1875 539.339844" fill-rule="evenodd" fill="#fff"/><path d="M 22.089844 539.339844 L 226.191406 539.339844 L 226.191406 582.75 L 22.089844 582.75 Z M 22.089844 539.339844" fill-rule="evenodd" fill="#fff"/><path d="M 28.089844 582.75 L 22.089844 582.75 C 22.089844 586.066406 24.773438 588.75 28.089844 588.75 Z M 28.089844 582.75" fill-rule="evenodd" fill="#fff"/><path d="M 220.1875 582.75 L 220.1875 588.75 C 223.5 588.75 226.1875 586.066406 226.1875 582.75 Z M 220.1875 582.75" fill-rule="evenodd" fill="#fff"/><path d="M 1.71169 11.54017 L 11.316573 11.54017" transform="matrix(20 0 0 20 -6.144 302.536)" fill="none" stroke-width=".1" stroke="#000" stroke-miterlimit="10"/><path d="M 1.71169 14.310678 L 11.316573 14.310678" transform="matrix(20 0 0 20 -6.144 302.536)" fill="none" stroke-width=".1" stroke="#000" stroke-miterlimit="10"/><path d="M 1.71169 11.54017 L 1.71169 11.54017 C 1.545869 11.54017 1.41169 11.674545 1.41169 11.84017" transform="matrix(20 0 0 20 -6.144 302.536)" fill="none" stroke-width=".1" stroke="#000" stroke-miterlimit="10"/><path d="M 11.616573 11.84017 L 11.616573 11.84017 C 11.616573 11.674545 11.482198 11.54017 11.316573 11.54017" transform="matrix(20 0 0 20 -6.144 302.536)" fill="none" stroke-width=".1" stroke="#000" stroke-miterlimit="10"/><path d="M 1.41169 11.84017 L 1.41169 14.010678" transform="matrix(20 0 0 20 -6.144 302.536)" fill="none" stroke-width=".1" stroke="#000" stroke-miterlimit="10"/><path d="M 11.616573 11.84017 L 11.616573 14.010678" transform="matrix(20 0 0 20 -6.144 302.536)" fill="none" stroke-width=".1" stroke="#000" stroke-miterlimit="10"/><path d="M 1.41169 14.010678 L 1.41169 14.010678 C 1.41169 14.176498 1.545869 14.310678 1.71169 14.310678" transform="matrix(20 0 0 20 -6.144 302.536)" fill="none" stroke-width=".1" stroke="#000" stroke-miterlimit="10"/><path d="M 11.316573 14.310678 L 11.316573 14.310678 C 11.482198 14.310678 11.616573 14.176498 11.616573 14.010678" transform="matrix(20 0 0 20 -6.144 302.536)" fill="none" stroke-width=".1" stroke="#000" stroke-miterlimit="10"/><use xlink:href="#p" x="34.41" y="568.996"/><use xlink:href="#e" x="41.539" y="568.996"/><use xlink:href="#b" x="47.027" y="568.996"/><use xlink:href="#i" x="55.289" y="568.996"/><use xlink:href="#c" x="63.297" y="568.996"/><use xlink:href="#b" x="68.668" y="568.996"/><use xlink:href="#s" x="76.93" y="568.996"/><use xlink:href="#n" x="86.383" y="568.996"/><use xlink:href="#c" x="95.055" y="568.996"/><use xlink:href="#q" x="100.563" y="568.996"/><use xlink:href="#b" x="109.371" y="568.996"/><use xlink:href="#g" x="117.633" y="568.996"/><use xlink:href="#c" x="126.422" y="568.996"/><use xlink:href="#h" x="131.93" y="568.996"/><use xlink:href="#p" x="136.266" y="568.996"/><use xlink:href="#i" x="143.395" y="568.996"/><use xlink:href="#c" x="151.402" y="568.996"/><use xlink:href="#b" x="156.773" y="568.996"/><use xlink:href="#f" x="165.035" y="568.996"/><use xlink:href="#t" x="173.688" y="568.996"/><use xlink:href="#u" x="180.602" y="568.996"/><use xlink:href="#r" x="189.234" y="568.996"/><use xlink:href="#b" x="196.813" y="568.996"/><use xlink:href="#g" x="205.074" y="568.996"/><path d="M 28.089844 658.441406 L 220.191406 658.441406 L 220.191406 713.851562 L 28.089844 713.851562 Z M 28.089844 658.441406" fill-rule="evenodd" fill="#b2dec7"/><path d="M 28.089844 664.441406 L 28.089844 658.441406 C 24.773438 658.441406 22.089844 661.128906 22.089844 664.441406 Z M 28.089844 664.441406" fill-rule="evenodd" fill="#b2dec7"/><path d="M 220.1875 664.441406 L 226.1875 664.441406 C 226.1875 661.128906 223.5 658.441406 220.1875 658.441406 Z M 220.1875 664.441406" fill-rule="evenodd" fill="#b2dec7"/><path d="M 22.089844 664.441406 L 226.191406 664.441406 L 226.191406 707.851562 L 22.089844 707.851562 Z M 22.089844 664.441406" fill-rule="evenodd" fill="#b2dec7"/><path d="M 28.089844 707.851562 L 22.089844 707.851562 C 22.089844 711.164062 24.773438 713.851562 28.089844 713.851562 Z M 28.089844 707.851562" fill-rule="evenodd" fill="#b2dec7"/><path d="M 220.1875 707.851562 L 220.1875 713.851562 C 223.5 713.851562 226.1875 711.164062 226.1875 707.851562 Z M 220.1875 707.851562" fill-rule="evenodd" fill="#b2dec7"/><path d="M 1.71169 17.795248 L 11.316573 17.795248" transform="matrix(20 0 0 20 -6.144 302.536)" fill="none" stroke-width=".1" stroke="#000" stroke-miterlimit="10"/><path d="M 1.71169 20.565756 L 11.316573 20.565756" transform="matrix(20 0 0 20 -6.144 302.536)" fill="none" stroke-width=".1" stroke="#000" stroke-miterlimit="10"/><path d="M 1.71169 17.795248 L 1.71169 17.795248 C 1.545869 17.795248 1.41169 17.929623 1.41169 18.095248" transform="matrix(20 0 0 20 -6.144 302.536)" fill="none" stroke-width=".1" stroke="#000" stroke-miterlimit="10"/><path d="M 11.616573 18.095248 L 11.616573 18.095248 C 11.616573 17.929623 11.482198 17.795248 11.316573 17.795248" transform="matrix(20 0 0 20 -6.144 302.536)" fill="none" stroke-width=".1" stroke="#000" stroke-miterlimit="10"/><path d="M 1.41169 18.095248 L 1.41169 20.265756" transform="matrix(20 0 0 20 -6.144 302.536)" fill="none" stroke-width=".1" stroke="#000" stroke-miterlimit="10"/><path d="M 11.616573 18.095248 L 11.616573 20.265756" transform="matrix(20 0 0 20 -6.144 302.536)" fill="none" stroke-width=".1" stroke="#000" stroke-miterlimit="10"/><path d="M 1.41169 20.265756 L 1.41169 20.265756 C 1.41169 20.431381 1.545869 20.565756 1.71169 20.565756" transform="matrix(20 0 0 20 -6.144 302.536)" fill="none" stroke-width=".1" stroke="#000" stroke-miterlimit="10"/><path d="M 11.316573 20.565756 L 11.316573 20.565756 C 11.482198 20.565756 11.616573 20.431381 11.616573 20.265756" transform="matrix(20 0 0 20 -6.144 302.536)" fill="none" stroke-width=".1" stroke="#000" stroke-miterlimit="10"/><use xlink:href="#u" x="38.238" y="694.098"/><use xlink:href="#g" x="46.871" y="694.098"/><use xlink:href="#s" x="55.66" y="694.098"/><use xlink:href="#n" x="65.113" y="694.098"/><use xlink:href="#c" x="73.785" y="694.098"/><use xlink:href="#q" x="79.293" y="694.098"/><use xlink:href="#b" x="88.102" y="694.098"/><use xlink:href="#g" x="96.363" y="694.098"/><use xlink:href="#c" x="105.152" y="694.098"/><use xlink:href="#h" x="110.66" y="694.098"/><use xlink:href="#p" x="114.996" y="694.098"/><use xlink:href="#i" x="122.125" y="694.098"/><use xlink:href="#c" x="130.133" y="694.098"/><use xlink:href="#h" x="135.641" y="694.098"/><use xlink:href="#u" x="139.977" y="694.098"/><use xlink:href="#g" x="148.609" y="694.098"/><use xlink:href="#v" x="157.398" y="694.098"/><use xlink:href="#n" x="165.953" y="694.098"/><use xlink:href="#p" x="174.625" y="694.098"/><use xlink:href="#p" x="181.441" y="694.098"/><use xlink:href="#b" x="188.258" y="694.098"/><use xlink:href="#k" x="196.52" y="694.098"/><use xlink:href="#k" x="203.277" y="694.098"/><path d="M 324.796875 658.082031 L 516.898438 658.082031 L 516.898438 713.492188 L 324.796875 713.492188 Z M 324.796875 658.082031" fill-rule="evenodd" fill="#ecbec0"/><path d="M 324.796875 664.082031 L 324.796875 658.082031 C 321.480469 658.082031 318.796875 660.769531 318.796875 664.082031 Z M 324.796875 664.082031" fill-rule="evenodd" fill="#ecbec0"/><path d="M 516.894531 664.082031 L 522.894531 664.082031 C 522.894531 660.769531 520.207031 658.082031 516.894531 658.082031 Z M 516.894531 664.082031" fill-rule="evenodd" fill="#ecbec0"/><path d="M 318.796875 664.082031 L 522.898438 664.082031 L 522.898438 707.492188 L 318.796875 707.492188 Z M 318.796875 664.082031" fill-rule="evenodd" fill="#ecbec0"/><path d="M 324.796875 707.492188 L 318.796875 707.492188 C 318.796875 710.808594 321.480469 713.492188 324.796875 713.492188 Z M 324.796875 707.492188" fill-rule="evenodd" fill="#ecbec0"/><path d="M 516.894531 707.492188 L 516.894531 713.492188 C 520.207031 713.492188 522.894531 710.808594 522.894531 707.492188 Z M 516.894531 707.492188" fill-rule="evenodd" fill="#ecbec0"/><path d="M 16.547041 17.777279 L 26.151924 17.777279" transform="matrix(20 0 0 20 -6.144 302.536)" fill="none" stroke-width=".1" stroke="#000" stroke-miterlimit="10"/><path d="M 16.547041 20.547787 L 26.151924 20.547787" transform="matrix(20 0 0 20 -6.144 302.536)" fill="none" stroke-width=".1" stroke="#000" stroke-miterlimit="10"/><path d="M 16.547041 17.777279 L 16.547041 17.777279 C 16.381221 17.777279 16.247041 17.911654 16.247041 18.077279" transform="matrix(20 0 0 20 -6.144 302.536)" fill="none" stroke-width=".1" stroke="#000" stroke-miterlimit="10"/><path d="M 26.451924 18.077279 L 26.451924 18.077279 C 26.451924 17.911654 26.317549 17.777279 26.151924 17.777279" transform="matrix(20 0 0 20 -6.144 302.536)" fill="none" stroke-width=".1" stroke="#000" stroke-miterlimit="10"/><path d="M 16.247041 18.077279 L 16.247041 20.247787" transform="matrix(20 0 0 20 -6.144 302.536)" fill="none" stroke-width=".1" stroke="#000" stroke-miterlimit="10"/><path d="M 26.451924 18.077279 L 26.451924 20.247787" transform="matrix(20 0 0 20 -6.144 302.536)" fill="none" stroke-width=".1" stroke="#000" stroke-miterlimit="10"/><path d="M 16.247041 20.247787 L 16.247041 20.247787 C 16.247041 20.413607 16.381221 20.547787 16.547041 20.547787" transform="matrix(20 0 0 20 -6.144 302.536)" fill="none" stroke-width=".1" stroke="#000" stroke-miterlimit="10"/><path d="M 26.151924 20.547787 L 26.151924 20.547787 C 26.317549 20.547787 26.451924 20.413607 26.451924 20.247787" transform="matrix(20 0 0 20 -6.144 302.536)" fill="none" stroke-width=".1" stroke="#000" stroke-miterlimit="10"/><use xlink:href="#u" x="337.426" y="693.738"/><use xlink:href="#g" x="346.059" y="693.738"/><use xlink:href="#s" x="354.848" y="693.738"/><use xlink:href="#n" x="364.301" y="693.738"/><use xlink:href="#c" x="372.973" y="693.738"/><use xlink:href="#q" x="378.48" y="693.738"/><use xlink:href="#b" x="387.289" y="693.738"/><use xlink:href="#g" x="395.551" y="693.738"/><use xlink:href="#c" x="404.34" y="693.738"/><use xlink:href="#h" x="409.848" y="693.738"/><use xlink:href="#p" x="414.184" y="693.738"/><use xlink:href="#i" x="421.313" y="693.738"/><use xlink:href="#c" x="429.32" y="693.738"/><use xlink:href="#h" x="434.828" y="693.738"/><use xlink:href="#u" x="439.164" y="693.738"/><use xlink:href="#g" x="447.797" y="693.738"/><use xlink:href="#w" x="456.586" y="693.738"/><use xlink:href="#i" x="464.848" y="693.738"/><use xlink:href="#h" x="472.855" y="693.738"/><use xlink:href="#j" x="477.191" y="693.738"/><use xlink:href="#n" x="481.859" y="693.738"/><use xlink:href="#e" x="490.531" y="693.738"/><use xlink:href="#b" x="496.02" y="693.738"/><path d="M 28.089844 783.542969 L 220.191406 783.542969 L 220.191406 838.953125 L 28.089844 838.953125 Z M 28.089844 783.542969" fill-rule="evenodd" fill="#fff"/><path d="M 28.089844 789.542969 L 28.089844 783.542969 C 24.773438 783.542969 22.089844 786.226562 22.089844 789.542969 Z M 28.089844 789.542969" fill-rule="evenodd" fill="#fff"/><path d="M 220.1875 789.542969 L 226.1875 789.542969 C 226.1875 786.226562 223.5 783.542969 220.1875 783.542969 Z M 220.1875 789.542969" fill-rule="evenodd" fill="#fff"/><path d="M 22.089844 789.542969 L 226.191406 789.542969 L 226.191406 832.953125 L 22.089844 832.953125 Z M 22.089844 789.542969" fill-rule="evenodd" fill="#fff"/><path d="M 28.089844 832.953125 L 22.089844 832.953125 C 22.089844 836.265625 24.773438 838.953125 28.089844 838.953125 Z M 28.089844 832.953125" fill-rule="evenodd" fill="#fff"/><path d="M 220.1875 832.953125 L 220.1875 838.953125 C 223.5 838.953125 226.1875 836.265625 226.1875 832.953125 Z M 220.1875 832.953125" fill-rule="evenodd" fill="#fff"/><path d="M 1.71169 24.050326 L 11.316573 24.050326" transform="matrix(20 0 0 20 -6.144 302.536)" fill="none" stroke-width=".1" stroke="#000" stroke-miterlimit="10"/><path d="M 1.71169 26.820834 L 11.316573 26.820834" transform="matrix(20 0 0 20 -6.144 302.536)" fill="none" stroke-width=".1" stroke="#000" stroke-miterlimit="10"/><path d="M 1.71169 24.050326 L 1.71169 24.050326 C 1.545869 24.050326 1.41169 24.184506 1.41169 24.350326" transform="matrix(20 0 0 20 -6.144 302.536)" fill="none" stroke-width=".1" stroke="#000" stroke-miterlimit="10"/><path d="M 11.616573 24.350326 L 11.616573 24.350326 C 11.616573 24.184506 11.482198 24.050326 11.316573 24.050326" transform="matrix(20 0 0 20 -6.144 302.536)" fill="none" stroke-width=".1" stroke="#000" stroke-miterlimit="10"/><path d="M 1.41169 24.350326 L 1.41169 26.520834" transform="matrix(20 0 0 20 -6.144 302.536)" fill="none" stroke-width=".1" stroke="#000" stroke-miterlimit="10"/><path d="M 11.616573 24.350326 L 11.616573 26.520834" transform="matrix(20 0 0 20 -6.144 302.536)" fill="none" stroke-width=".1" stroke="#000" stroke-miterlimit="10"/><path d="M 1.41169 26.520834 L 1.41169 26.520834 C 1.41169 26.686459 1.545869 26.820834 1.71169 26.820834" transform="matrix(20 0 0 20 -6.144 302.536)" fill="none" stroke-width=".1" stroke="#000" stroke-miterlimit="10"/><path d="M 11.316573 26.820834 L 11.316573 26.820834 C 11.482198 26.820834 11.616573 26.686459 11.616573 26.520834" transform="matrix(20 0 0 20 -6.144 302.536)" fill="none" stroke-width=".1" stroke="#000" stroke-miterlimit="10"/><g><use xlink:href="#k" x="46.891" y="819.195"/><use xlink:href="#n" x="53.648" y="819.195"/><use xlink:href="#x" x="62.32" y="819.195"/><use xlink:href="#x" x="71.012" y="819.195"/><use xlink:href="#u" x="79.703" y="819.195"/><use xlink:href="#e" x="88.336" y="819.195"/><use xlink:href="#c" x="94.293" y="819.195"/><use xlink:href="#k" x="99.801" y="819.195"/><use xlink:href="#l" x="106.559" y="819.195"/><use xlink:href="#b" x="115.406" y="819.195"/><use xlink:href="#y" x="123.668" y="819.195"/><use xlink:href="#b" x="136.695" y="819.195"/><use xlink:href="#y" x="144.957" y="819.195"/><use xlink:href="#z" x="157.984" y="819.195"/><use xlink:href="#b" x="166.656" y="819.195"/><use xlink:href="#e" x="174.918" y="819.195"/><use xlink:href="#A" x="180.406" y="819.195"/><use xlink:href="#b" x="193.141" y="819.195"/></g><path d="M 11.525362 29.550912 L 16.178096 29.550912 C 16.820479 29.550912 17.341377 30.075717 17.341377 30.723373 C 17.341377 31.370834 16.820479 31.895834 16.178096 31.895834 L 11.525362 31.895834 C 10.882979 31.895834 10.36208 31.370834 10.36208 30.723373 C 10.36208 30.075717 10.882979 29.550912 11.525362 29.550912" transform="matrix(20 0 0 20 -6.144 302.536)" fill-rule="evenodd" fill="#b2d4eb" stroke-width=".1" stroke="#000" stroke-miterlimit="10"/><g><use xlink:href="#l" x="238.391" y="924.621"/><use xlink:href="#b" x="247.238" y="924.621"/><use xlink:href="#k" x="255.5" y="924.621"/><use xlink:href="#x" x="262.258" y="924.621"/><use xlink:href="#u" x="270.949" y="924.621"/><use xlink:href="#g" x="279.582" y="924.621"/><use xlink:href="#k" x="288.371" y="924.621"/><use xlink:href="#b" x="295.129" y="924.621"/></g><path d="M 13.891768 -7.005729 L 13.891768 -3.675455" transform="matrix(20 0 0 20 -6.144 302.536)" fill="none" stroke-width=".1" stroke="#000" stroke-miterlimit="10"/><path d="M 13.641768 -3.675455 L 13.891768 -3.175455 L 14.141768 -3.675455 Z M 13.641768 -3.675455" transform="matrix(20 0 0 20 -6.144 302.536)" fill-rule="evenodd" stroke-width=".1" stroke="#000" stroke-miterlimit="10"/><path d="M 242.59375 193.753906 L 291.242188 193.753906 L 291.242188 217.152344 L 242.59375 217.152344 Z M 242.59375 193.753906" fill-rule="evenodd" fill="#fff"/><g><use xlink:href="#B" x="242.594" y="212.152"/><use xlink:href="#C" x="250.504" y="212.152"/><use xlink:href="#D" x="258.277" y="212.152"/><use xlink:href="#E" x="263.219" y="212.152"/><use xlink:href="#B" x="267.027" y="212.152"/><use xlink:href="#F" x="274.938" y="212.152"/><use xlink:href="#G" x="282.75" y="212.152"/><use xlink:href="#G" x="286.949" y="212.152"/></g><path d="M 13.891768 -6.344205 L 13.891768 -6.344205 C 13.891768 -6.178385 14.026143 -6.044205 14.191768 -6.044205" transform="matrix(20 0 0 20 -6.144 302.536)" fill="none" stroke-width=".1" stroke-linejoin="round" stroke="#000" stroke-dasharray=".1,.1" stroke-miterlimit="10"/><path d="M 13.891768 -7.005729 L 13.891768 -6.344205" transform="matrix(20 0 0 20 -6.144 302.536)" fill="none" stroke-width=".1" stroke-linejoin="round" stroke="#000" stroke-dasharray=".1,.1" stroke-miterlimit="10"/><path d="M 33.247041 -5.744205 L 33.247041 -5.744205 C 33.247041 -5.90983 33.112666 -6.044205 32.947041 -6.044205" transform="matrix(20 0 0 20 -6.144 302.536)" fill="none" stroke-width=".1" stroke-linejoin="round" stroke="#000" stroke-dasharray=".1,.1" stroke-miterlimit="10"/><path d="M 14.191768 -6.044205 L 32.947041 -6.044205" transform="matrix(20 0 0 20 -6.144 302.536)" fill="none" stroke-width=".1" stroke-linejoin="round" stroke="#000" stroke-dasharray=".1,.1" stroke-miterlimit="10"/><path d="M 32.947041 30.723373 L 32.947041 30.723373 C 33.112666 30.723373 33.247041 30.588998 33.247041 30.423373" transform="matrix(20 0 0 20 -6.144 302.536)" fill="none" stroke-width=".1" stroke-linejoin="round" stroke="#000" stroke-dasharray=".1,.1" stroke-miterlimit="10"/><path d="M 33.247041 -5.744205 L 33.247041 30.423373" transform="matrix(20 0 0 20 -6.144 302.536)" fill="none" stroke-width=".1" stroke-linejoin="round" stroke="#000" stroke-dasharray=".1,.1" stroke-miterlimit="10"/><path d="M 32.947041 30.723373 L 17.891377 30.723373" transform="matrix(20 0 0 20 -6.144 302.536)" fill="none" stroke-width=".1" stroke-linejoin="round" stroke="#000" stroke-dasharray=".1,.1" stroke-miterlimit="10"/><path d="M 17.891377 30.473373 L 17.391377 30.723373 L 17.891377 30.973373 Z M 17.891377 30.473373" transform="matrix(20 0 0 20 -6.144 302.536)" fill-rule="evenodd" stroke-width=".1" stroke="#000" stroke-miterlimit="10"/><path d="M 378.59375 159.253906 L 542.992188 159.253906 L 542.992188 205.230469 L 378.59375 205.230469 Z M 378.59375 159.253906" fill-rule="evenodd" fill="#fff"/><g><use xlink:href="#B" x="448.746" y="177.652"/><use xlink:href="#F" x="456.656" y="177.652"/><use xlink:href="#G" x="464.469" y="177.652"/><use xlink:href="#G" x="468.668" y="177.652"/></g><g><use xlink:href="#H" x="378.746" y="200.23"/><use xlink:href="#I" x="382.945" y="200.23"/><use xlink:href="#F" x="390.152" y="200.23"/><use xlink:href="#D" x="397.965" y="200.23"/><use xlink:href="#J" x="402.906" y="200.23"/><use xlink:href="#K" x="410.836" y="200.23"/><use xlink:href="#B" x="418.277" y="200.23"/><use xlink:href="#D" x="426.188" y="200.23"/><use xlink:href="#L" x="431.129" y="200.23"/><use xlink:href="#M" x="435.035" y="200.23"/><use xlink:href="#I" x="441.441" y="200.23"/><use xlink:href="#D" x="448.648" y="200.23"/><use xlink:href="#L" x="453.59" y="200.23"/><use xlink:href="#C" x="457.496" y="200.23"/><use xlink:href="#B" x="465.27" y="200.23"/><use xlink:href="#E" x="473.18" y="200.23"/><use xlink:href="#L" x="476.988" y="200.23"/><use xlink:href="#N" x="480.895" y="200.23"/><use xlink:href="#E" x="486.969" y="200.23"/><use xlink:href="#N" x="490.777" y="200.23"/><use xlink:href="#O" x="496.852" y="200.23"/><use xlink:href="#L" x="503.844" y="200.23"/><use xlink:href="#P" x="507.75" y="200.23"/><use xlink:href="#P" x="515.582" y="200.23"/><use xlink:href="#K" x="523.414" y="200.23"/><use xlink:href="#Q" x="530.855" y="200.23"/><use xlink:href="#R" x="538.648" y="200.23"/></g><path d="M 13.891768 -0.354752 L 13.891768 3.357162" transform="matrix(20 0 0 20 -6.144 302.536)" fill="none" stroke-width=".1" stroke="#000" stroke-miterlimit="10"/><path d="M 13.641768 3.357162 L 13.891768 3.857162 L 14.141768 3.357162 Z M 13.641768 3.357162" transform="matrix(20 0 0 20 -6.144 302.536)" fill-rule="evenodd" stroke-width=".1" stroke="#000" stroke-miterlimit="10"/><path d="M 225.625 335.984375 L 308.273438 335.984375 L 308.273438 359.382812 L 225.625 359.382812 Z M 225.625 335.984375" fill-rule="evenodd" fill="#fff"/><g><use xlink:href="#S" x="225.625" y="354.383"/><use xlink:href="#N" x="235" y="354.383"/><use xlink:href="#K" x="241.074" y="354.383"/><use xlink:href="#T" x="248.516" y="354.383"/><use xlink:href="#U" x="253.457" y="354.383"/><use xlink:href="#B" x="257.656" y="354.383"/><use xlink:href="#D" x="265.566" y="354.383"/><use xlink:href="#K" x="270.391" y="354.383"/><use xlink:href="#T" x="277.832" y="354.383"/><use xlink:href="#V" x="282.773" y="354.383"/><use xlink:href="#I" x="287.402" y="354.383"/><use xlink:href="#M" x="294.609" y="354.383"/><use xlink:href="#K" x="300.723" y="354.383"/></g><path d="M 13.591768 8.443295 L 13.591768 8.443295 C 13.67126 8.443295 13.747627 8.411654 13.803877 8.355404 C 13.860127 8.299154 13.891768 8.222982 13.891768 8.143295" transform="matrix(20 0 0 20 -6.144 302.536)" fill="none" stroke-width=".1" stroke-linejoin="round" stroke="#000" stroke-miterlimit="10"/><path d="M 13.891768 6.677865 L 13.891768 8.143295" transform="matrix(20 0 0 20 -6.144 302.536)" fill="none" stroke-width=".1" stroke-linejoin="round" stroke="#000" stroke-miterlimit="10"/><path d="M 6.814034 8.443295 L 6.814034 8.443295 C 6.734541 8.443295 6.658174 8.474935 6.601924 8.531185 C 6.545674 8.587435 6.514034 8.663803 6.514034 8.743295" transform="matrix(20 0 0 20 -6.144 302.536)" fill="none" stroke-width=".1" stroke-linejoin="round" stroke="#000" stroke-miterlimit="10"/><path d="M 13.591768 8.443295 L 6.814034 8.443295" transform="matrix(20 0 0 20 -6.144 302.536)" fill="none" stroke-width=".1" stroke-linejoin="round" stroke="#000" stroke-miterlimit="10"/><path d="M 6.514034 8.743295 L 6.514034 10.99017" transform="matrix(20 0 0 20 -6.144 302.536)" fill="none" stroke-width=".1" stroke-linejoin="round" stroke="#000" stroke-miterlimit="10"/><path d="M 6.264034 10.99017 L 6.514034 11.49017 L 6.764034 10.99017 Z M 6.264034 10.99017" transform="matrix(20 0 0 20 -6.144 302.536)" fill-rule="evenodd" stroke-width=".1" stroke="#000" stroke-miterlimit="10"/><path d="M 6.514034 14.310678 L 6.514034 17.245248" transform="matrix(20 0 0 20 -6.144 302.536)" fill="none" stroke-width=".1" stroke="#000" stroke-miterlimit="10"/><path d="M 6.264034 17.245248 L 6.514034 17.745248 L 6.764034 17.245248 Z M 6.264034 17.245248" transform="matrix(20 0 0 20 -6.144 302.536)" fill-rule="evenodd" stroke-width=".1" stroke="#000" stroke-miterlimit="10"/><path d="M 6.514034 20.565756 L 6.514034 23.500326" transform="matrix(20 0 0 20 -6.144 302.536)" fill="none" stroke-width=".1" stroke="#000" stroke-miterlimit="10"/><path d="M 6.264034 23.500326 L 6.514034 24.000326 L 6.764034 23.500326 Z M 6.264034 23.500326" transform="matrix(20 0 0 20 -6.144 302.536)" fill-rule="evenodd" stroke-width=".1" stroke="#000" stroke-miterlimit="10"/><path d="M 21.049385 25.04935 L 21.049385 25.04935 C 21.215205 25.04935 21.349385 24.914975 21.349385 24.74935" transform="matrix(20 0 0 20 -6.144 302.536)" fill="none" stroke-width=".1" stroke-linejoin="round" stroke="#000" stroke-dasharray=".1,.1" stroke-miterlimit="10"/><path d="M 21.349385 20.547787 L 21.349385 24.74935" transform="matrix(20 0 0 20 -6.144 302.536)" fill="none" stroke-width=".1" stroke-linejoin="round" stroke="#000" stroke-dasharray=".1,.1" stroke-miterlimit="10"/><path d="M 14.151729 25.04935 L 14.151729 25.04935 C 14.072237 25.04935 13.995869 25.08099 13.939619 25.13724 C 13.883369 25.19349 13.851729 25.269857 13.851729 25.34935" transform="matrix(20 0 0 20 -6.144 302.536)" fill="none" stroke-width=".1" stroke-linejoin="round" stroke="#000" stroke-dasharray=".1,.1" stroke-miterlimit="10"/><path d="M 21.049385 25.04935 L 14.151729 25.04935" transform="matrix(20 0 0 20 -6.144 302.536)" fill="none" stroke-width=".1" stroke-linejoin="round" stroke="#000" stroke-dasharray=".1,.1" stroke-miterlimit="10"/><path d="M 13.851729 25.34935 L 13.851729 29.000912" transform="matrix(20 0 0 20 -6.144 302.536)" fill="none" stroke-width=".1" stroke-linejoin="round" stroke="#000" stroke-dasharray=".1,.1" stroke-miterlimit="10"/><path d="M 13.601729 29.000912 L 13.851729 29.500912 L 14.101729 29.000912 Z M 13.601729 29.000912" transform="matrix(20 0 0 20 -6.144 302.536)" fill-rule="evenodd" stroke-width=".1" stroke="#000" stroke-miterlimit="10"/><path d="M 13.891768 0.395248 L 13.891768 0.395248 C 13.891768 0.560873 14.026143 0.695248 14.191768 0.695248" transform="matrix(20 0 0 20 -6.144 302.536)" fill="none" stroke-width=".1" stroke-linejoin="round" stroke="#000" stroke-miterlimit="10"/><path d="M 13.891768 -0.354752 L 13.891768 0.395248" transform="matrix(20 0 0 20 -6.144 302.536)" fill="none" stroke-width=".1" stroke-linejoin="round" stroke="#000" stroke-miterlimit="10"/><path d="M 27.501924 0.995248 L 27.501924 0.995248 C 27.501924 0.829428 27.367549 0.695248 27.201924 0.695248" transform="matrix(20 0 0 20 -6.144 302.536)" fill="none" stroke-width=".1" stroke-linejoin="round" stroke="#000" stroke-miterlimit="10"/><path d="M 14.191768 0.695248 L 27.201924 0.695248" transform="matrix(20 0 0 20 -6.144 302.536)" fill="none" stroke-width=".1" stroke-linejoin="round" stroke="#000" stroke-miterlimit="10"/><path d="M 27.325166 19.162631 L 27.325166 19.162631 C 27.422823 19.162631 27.501924 19.083529 27.501924 18.985873" transform="matrix(20 0 0 20 -6.144 302.536)" fill="none" stroke-width=".1" stroke-linejoin="round" stroke="#000" stroke-miterlimit="10"/><path d="M 27.501924 0.995248 L 27.501924 18.985873" transform="matrix(20 0 0 20 -6.144 302.536)" fill="none" stroke-width=".1" stroke-linejoin="round" stroke="#000" stroke-miterlimit="10"/><path d="M 27.325166 19.162631 L 27.001924 19.162631" transform="matrix(20 0 0 20 -6.144 302.536)" fill="none" stroke-width=".1" stroke-linejoin="round" stroke="#000" stroke-miterlimit="10"/><path d="M 27.001924 18.912631 L 26.501924 19.162631 L 27.001924 19.412631 Z M 27.001924 18.912631" transform="matrix(20 0 0 20 -6.144 302.536)" fill-rule="evenodd" stroke-width=".1" stroke="#000" stroke-miterlimit="10"/><path d="M 446.144531 346.703125 L 637.84375 346.703125 L 637.84375 392.679688 L 446.144531 392.679688 Z M 446.144531 346.703125" fill-rule="evenodd" fill="#fff"/><g><use xlink:href="#B" x="521.684" y="365.105"/><use xlink:href="#F" x="529.594" y="365.105"/><use xlink:href="#G" x="537.406" y="365.105"/><use xlink:href="#G" x="541.605" y="365.105"/><use xlink:href="#E" x="545.805" y="365.105"/><use xlink:href="#C" x="549.613" y="365.105"/><use xlink:href="#T" x="557.387" y="365.105"/></g><g><use xlink:href="#D" x="446.313" y="387.68"/><use xlink:href="#J" x="451.254" y="387.68"/><use xlink:href="#T" x="459.184" y="387.68"/><use xlink:href="#C" x="464.125" y="387.68"/><use xlink:href="#W" x="471.762" y="387.68"/><use xlink:href="#E" x="482.074" y="387.68"/><use xlink:href="#X" x="485.414" y="387.68"/><use xlink:href="#F" x="493.93" y="387.68"/><use xlink:href="#D" x="501.742" y="387.68"/><use xlink:href="#J" x="506.684" y="387.68"/><use xlink:href="#K" x="514.613" y="387.68"/><use xlink:href="#B" x="522.055" y="387.68"/><use xlink:href="#D" x="529.965" y="387.68"/><use xlink:href="#L" x="534.906" y="387.68"/><use xlink:href="#M" x="538.813" y="387.68"/><use xlink:href="#I" x="545.219" y="387.68"/><use xlink:href="#D" x="552.426" y="387.68"/><use xlink:href="#L" x="557.367" y="387.68"/><use xlink:href="#C" x="561.273" y="387.68"/><use xlink:href="#B" x="569.047" y="387.68"/><use xlink:href="#Y" x="576.957" y="387.68"/><use xlink:href="#Z" x="584.672" y="387.68"/><use xlink:href="#M" x="591.781" y="387.68"/><use xlink:href="#K" x="597.895" y="387.68"/><use xlink:href="#P" x="605.336" y="387.68"/><use xlink:href="#D" x="613.168" y="387.68"/><use xlink:href="#L" x="618.109" y="387.68"/><use xlink:href="#C" x="622.016" y="387.68"/><use xlink:href="#B" x="629.789" y="387.68"/></g><path d="M 13.891768 8.144271 L 13.891768 8.144271 C 13.891768 8.309896 14.026143 8.444271 14.191768 8.444271" transform="matrix(20 0 0 20 -6.144 302.536)" fill="none" stroke-width=".1" stroke-linejoin="round" stroke="#000" stroke-miterlimit="10"/><path d="M 13.891768 6.677865 L 13.891768 8.144271" transform="matrix(20 0 0 20 -6.144 302.536)" fill="none" stroke-width=".1" stroke-linejoin="round" stroke="#000" stroke-miterlimit="10"/><path d="M 21.349385 8.744271 L 21.349385 8.744271 C 21.349385 8.578646 21.215205 8.444271 21.049385 8.444271" transform="matrix(20 0 0 20 -6.144 302.536)" fill="none" stroke-width=".1" stroke-linejoin="round" stroke="#000" stroke-miterlimit="10"/><path d="M 14.191768 8.444271 L 21.049385 8.444271" transform="matrix(20 0 0 20 -6.144 302.536)" fill="none" stroke-width=".1" stroke-linejoin="round" stroke="#000" stroke-miterlimit="10"/><path d="M 21.349385 8.744271 L 21.349385 17.227279" transform="matrix(20 0 0 20 -6.144 302.536)" fill="none" stroke-width=".1" stroke-linejoin="round" stroke="#000" stroke-miterlimit="10"/><path d="M 21.099385 17.227279 L 21.349385 17.727279 L 21.599385 17.227279 Z M 21.099385 17.227279" transform="matrix(20 0 0 20 -6.144 302.536)" fill-rule="evenodd" stroke-width=".1" stroke="#000" stroke-miterlimit="10"/><path d="M 322.195312 487.703125 L 517.09375 487.703125 L 517.09375 533.679688 L 322.195312 533.679688 Z M 322.195312 487.703125" fill-rule="evenodd" fill="#fff"/><g><use xlink:href="#I" x="322.418" y="506.105"/><use xlink:href="#B" x="329.625" y="506.105"/><use xlink:href="#aa" x="337.535" y="506.105"/><use xlink:href="#E" x="343.824" y="506.105"/><use xlink:href="#ab" x="347.555" y="506.105"/><use xlink:href="#I" x="354.547" y="506.105"/><use xlink:href="#G" x="361.754" y="506.105"/><use xlink:href="#F" x="365.953" y="506.105"/><use xlink:href="#K" x="373.766" y="506.105"/><use xlink:href="#E" x="381.207" y="506.105"/><use xlink:href="#Q" x="385.016" y="506.105"/><use xlink:href="#L" x="392.809" y="506.105"/><use xlink:href="#V" x="396.715" y="506.105"/><use xlink:href="#V" x="401.344" y="506.105"/><use xlink:href="#K" x="405.855" y="506.105"/><use xlink:href="#T" x="413.297" y="506.105"/><use xlink:href="#K" x="418.238" y="506.105"/><use xlink:href="#B" x="425.68" y="506.105"/><use xlink:href="#D" x="433.59" y="506.105"/><use xlink:href="#E" x="438.531" y="506.105"/><use xlink:href="#V" x="442.34" y="506.105"/><use xlink:href="#T" x="446.969" y="506.105"/><use xlink:href="#C" x="451.91" y="506.105"/><use xlink:href="#ac" x="459.684" y="506.105"/><use xlink:href="#E" x="471.402" y="506.105"/><use xlink:href="#D" x="475.211" y="506.105"/><use xlink:href="#T" x="480.152" y="506.105"/><use xlink:href="#F" x="485.094" y="506.105"/><use xlink:href="#K" x="492.906" y="506.105"/><use xlink:href="#E" x="500.348" y="506.105"/><use xlink:href="#C" x="504.156" y="506.105"/><use xlink:href="#T" x="511.93" y="506.105"/></g><g><use xlink:href="#D" x="323.961" y="528.68"/><use xlink:href="#J" x="328.902" y="528.68"/><use xlink:href="#T" x="336.832" y="528.68"/><use xlink:href="#C" x="341.773" y="528.68"/><use xlink:href="#W" x="349.41" y="528.68"/><use xlink:href="#E" x="359.723" y="528.68"/><use xlink:href="#X" x="363.063" y="528.68"/><use xlink:href="#F" x="371.578" y="528.68"/><use xlink:href="#D" x="379.391" y="528.68"/><use xlink:href="#J" x="384.332" y="528.68"/><use xlink:href="#K" x="392.262" y="528.68"/><use xlink:href="#B" x="399.703" y="528.68"/><use xlink:href="#D" x="407.613" y="528.68"/><use xlink:href="#L" x="412.555" y="528.68"/><use xlink:href="#M" x="416.461" y="528.68"/><use xlink:href="#I" x="422.867" y="528.68"/><use xlink:href="#D" x="430.074" y="528.68"/><use xlink:href="#L" x="435.016" y="528.68"/><use xlink:href="#C" x="438.922" y="528.68"/><use xlink:href="#B" x="446.695" y="528.68"/><use xlink:href="#Y" x="454.605" y="528.68"/><use xlink:href="#Z" x="462.32" y="528.68"/><use xlink:href="#M" x="469.43" y="528.68"/><use xlink:href="#K" x="475.543" y="528.68"/><use xlink:href="#P" x="482.984" y="528.68"/><use xlink:href="#D" x="490.816" y="528.68"/><use xlink:href="#L" x="495.758" y="528.68"/><use xlink:href="#C" x="499.664" y="528.68"/><use xlink:href="#B" x="507.438" y="528.68"/></g><path d="M 109.796875 490.703125 L 134.996094 490.703125 L 134.996094 514.101562 L 109.796875 514.101562 Z M 109.796875 490.703125" fill-rule="evenodd" fill="#fff"/><g><use xlink:href="#D" x="109.797" y="509.105"/><use xlink:href="#T" x="114.738" y="509.105"/><use xlink:href="#F" x="119.68" y="509.105"/><use xlink:href="#K" x="127.492" y="509.105"/></g><path d="M 65.382812 602.683594 L 192.984375 602.683594 L 192.984375 626.082031 L 65.382812 626.082031 Z M 65.382812 602.683594" fill-rule="evenodd" fill="#fff"/><g><use xlink:href="#ad" x="65.383" y="621.086"/><use xlink:href="#F" x="74.23" y="621.086"/><use xlink:href="#I" x="82.043" y="621.086"/><use xlink:href="#T" x="89.25" y="621.086"/><use xlink:href="#Q" x="94.191" y="621.086"/><use xlink:href="#ae" x="101.984" y="621.086"/><use xlink:href="#C" x="108.195" y="621.086"/><use xlink:href="#O" x="115.969" y="621.086"/><use xlink:href="#K" x="122.805" y="621.086"/><use xlink:href="#B" x="130.246" y="621.086"/><use xlink:href="#U" x="138.156" y="621.086"/><use xlink:href="#B" x="142.355" y="621.086"/><use xlink:href="#D" x="150.266" y="621.086"/><use xlink:href="#K" x="155.09" y="621.086"/><use xlink:href="#T" x="162.531" y="621.086"/><use xlink:href="#V" x="167.473" y="621.086"/><use xlink:href="#I" x="172.102" y="621.086"/><use xlink:href="#M" x="179.309" y="621.086"/><use xlink:href="#K" x="185.422" y="621.086"/></g><path d="M 70.964844 731.636719 L 174.164062 731.636719 L 174.164062 755.035156 L 70.964844 755.035156 Z M 70.964844 731.636719" fill-rule="evenodd" fill="#fff"/><g><use xlink:href="#af" x="70.965" y="750.039"/><use xlink:href="#K" x="78.914" y="750.039"/><use xlink:href="#N" x="86.355" y="750.039"/><use xlink:href="#P" x="92.43" y="750.039"/><use xlink:href="#C" x="100.262" y="750.039"/><use xlink:href="#B" x="108.035" y="750.039"/><use xlink:href="#N" x="115.945" y="750.039"/><use xlink:href="#K" x="122.02" y="750.039"/><use xlink:href="#E" x="129.461" y="750.039"/><use xlink:href="#C" x="133.27" y="750.039"/><use xlink:href="#T" x="141.043" y="750.039"/><use xlink:href="#E" x="145.984" y="750.039"/><use xlink:href="#B" x="149.793" y="750.039"/><use xlink:href="#F" x="157.703" y="750.039"/><use xlink:href="#G" x="165.516" y="750.039"/><use xlink:href="#G" x="169.715" y="750.039"/></g><path d="M 369.609375 731.636719 L 472.808594 731.636719 L 472.808594 755.035156 L 369.609375 755.035156 Z M 369.609375 731.636719" fill-rule="evenodd" fill="#fff"/><g><use xlink:href="#af" x="369.609" y="750.039"/><use xlink:href="#K" x="377.559" y="750.039"/><use xlink:href="#N" x="385" y="750.039"/><use xlink:href="#P" x="391.074" y="750.039"/><use xlink:href="#C" x="398.906" y="750.039"/><use xlink:href="#B" x="406.68" y="750.039"/><use xlink:href="#N" x="414.59" y="750.039"/><use xlink:href="#K" x="420.664" y="750.039"/><use xlink:href="#E" x="428.105" y="750.039"/><use xlink:href="#C" x="431.914" y="750.039"/><use xlink:href="#T" x="439.688" y="750.039"/><use xlink:href="#E" x="444.629" y="750.039"/><use xlink:href="#B" x="448.438" y="750.039"/><use xlink:href="#F" x="456.348" y="750.039"/><use xlink:href="#G" x="464.16" y="750.039"/><use xlink:href="#G" x="468.359" y="750.039"/></g><path d="M 6.514034 30.423373 L 6.514034 30.423373 C 6.514034 30.502865 6.545674 30.579232 6.601924 30.635482 C 6.658174 30.691732 6.734541 30.723373 6.814034 30.723373" transform="matrix(20 0 0 20 -6.144 302.536)" fill="none" stroke-width=".1" stroke-linejoin="round" stroke="#000" stroke-dasharray=".1,.1" stroke-miterlimit="10"/><path d="M 6.514034 26.820834 L 6.514034 30.423373" transform="matrix(20 0 0 20 -6.144 302.536)" fill="none" stroke-width=".1" stroke-linejoin="round" stroke="#000" stroke-dasharray=".1,.1" stroke-miterlimit="10"/><path d="M 6.814034 30.723373 L 9.81208 30.723373" transform="matrix(20 0 0 20 -6.144 302.536)" fill="none" stroke-width=".1" stroke-linejoin="round" stroke="#000" stroke-dasharray=".1,.1" stroke-miterlimit="10"/><path d="M 9.81208 30.973373 L 10.31208 30.723373 L 9.81208 30.473373 Z M 9.81208 30.973373" transform="matrix(20 0 0 20 -6.144 302.536)" fill-rule="evenodd" stroke-width=".1" stroke="#000" stroke-miterlimit="10"/><path d="M 13.891768 -11.865104 L 13.891768 -10.326236" transform="matrix(20 0 0 20 -6.144 302.536)" fill="none" stroke-width=".1" stroke="#000" stroke-dasharray=".1,.1" stroke-miterlimit="10"/><path d="M 13.641768 -10.326236 L 13.891768 -9.826236 L 14.141768 -10.326236 Z M 13.641768 -10.326236" transform="matrix(20 0 0 20 -6.144 302.536)" fill-rule="evenodd" stroke-width=".1" stroke="#000" stroke-miterlimit="10"/></svg>
