<svg xmlns="http://www.w3.org/2000/svg" xmlns:xlink="http://www.w3.org/1999/xlink" height="850" viewBox="0 0 680 1103"><defs><symbol overflow="visible" id="a"><path d="M7.484.453c0 1.3-.289 2.254-.859 2.86-.574.613-1.406.921-2.5.921-.668 0-1.215-.058-1.64-.171a4.519 4.519 0 0 1-1.047-.375l.421-1.25c.27.124.563.238.875.343.32.102.72.156 1.188.156.812 0 1.367-.23 1.672-.687.3-.45.453-1.203.453-2.266v-.75h-.063a2.335 2.335 0 0 1-.828.735c-.336.164-.761.25-1.281.25-1.074 0-1.867-.414-2.375-1.25-.512-.832-.766-2.14-.766-3.922 0-1.727.329-3.031.985-3.906.664-.883 1.644-1.329 2.937-1.329.625 0 1.16.063 1.61.188.457.125.863.266 1.218.422zM6.047-8.562c-.406-.208-.922-.313-1.547-.313-.68 0-1.227.313-1.64.938-.419.617-.626 1.601-.626 2.953 0 .562.032 1.086.094 1.562a4.8 4.8 0 0 0 .344 1.235c.164.355.367.632.61.828.25.187.554.28.921.28.5 0 .895-.128 1.188-.39.3-.27.52-.676.656-1.218zm0 0"/></symbol><symbol overflow="visible" id="b"><path d="M7.156-.688c-.312.305-.718.532-1.218.688a5.128 5.128 0 0 1-1.563.234c-.625 0-1.168-.12-1.625-.359-.46-.25-.84-.602-1.14-1.063-.305-.457-.528-1.003-.673-1.64A10.503 10.503 0 0 1 .734-5c0-1.707.313-3.004.938-3.89.633-.895 1.523-1.344 2.672-1.344.375 0 .742.046 1.11.14.362.094.69.281.984.563.289.273.523.664.703 1.172.187.511.28 1.171.28 1.984 0 .219-.01.46-.03.719-.024.261-.047.531-.079.812H2.234c0 .574.047 1.094.141 1.563.094.469.238.87.438 1.203.207.324.468.574.78.75.313.18.704.266 1.173.266.351 0 .707-.063 1.062-.188.352-.133.625-.297.813-.484zm-1.11-5.359c.02-1-.124-1.726-.437-2.187-.304-.47-.718-.704-1.25-.704-.617 0-1.105.235-1.468.704-.356.46-.563 1.187-.625 2.187zm0 0"/></symbol><symbol overflow="visible" id="c"><path d="M.188-10h1.218v-1.984l1.438-.454V-10H5v1.297H2.844v5.969c0 .586.066 1.007.203 1.265.144.262.375.39.687.39.27 0 .5-.03.688-.093.195-.062.41-.14.64-.234l.282 1.14a4.299 4.299 0 0 1-.969.344 4.34 4.34 0 0 1-1.11.14c-.667 0-1.148-.214-1.437-.64-.281-.437-.422-1.144-.422-2.125v-6.156H.188zm0 0"/></symbol><symbol overflow="visible" id="d"><path d="M8.594-.547c-.336.281-.758.48-1.266.594-.5.125-1.031.187-1.594.187-.699 0-1.351-.132-1.953-.39-.605-.27-1.125-.692-1.562-1.266-.43-.582-.762-1.332-1-2.25C.977-4.598.859-5.707.859-7c0-1.332.133-2.457.407-3.375.28-.926.644-1.676 1.093-2.25.457-.57.977-.984 1.563-1.234a4.701 4.701 0 0 1 1.844-.375c.632 0 1.16.046 1.578.14.426.094.789.203 1.093.328l-.359 1.36a3.3 3.3 0 0 0-.937-.328 5.663 5.663 0 0 0-1.235-.125c-.468 0-.914.105-1.328.312-.418.211-.789.543-1.11 1-.312.461-.562 1.063-.75 1.813-.187.742-.28 1.652-.28 2.734 0 1.95.332 3.414 1 4.39.664.981 1.55 1.47 2.656 1.47.457 0 .863-.063 1.218-.188.364-.125.672-.274.922-.453zm0 0"/></symbol><symbol overflow="visible" id="e"><path d="M1.188-10h1.015l.25 1.063h.063c.187-.383.43-.688.734-.907.3-.226.664-.344 1.094-.344.3 0 .644.063 1.031.188l-.281 1.453a2.973 2.973 0 0 0-.907-.172c-.43 0-.777.125-1.046.375-.274.242-.446.57-.516.985V0H1.187zm0 0"/></symbol><symbol overflow="visible" id="f"><path d="M7.484-3.438c0 .68.004 1.293.016 1.844.008.555.055 1.102.14 1.64h-.984l-.312-1.202h-.078c-.188.398-.485.73-.891 1-.398.258-.875.39-1.438.39-1.085 0-1.89-.414-2.421-1.25C.992-1.859.734-3.18.734-4.984c0-1.707.32-3 .97-3.875.655-.883 1.546-1.329 2.671-1.329.383 0 .691.028.922.079.226.043.476.12.75.234V-14h1.437zM6.047-8.421a1.848 1.848 0 0 0-.64-.344c-.231-.07-.54-.109-.923-.109-.71 0-1.261.324-1.656.969-.398.636-.594 1.62-.594 2.953 0 .586.036 1.117.11 1.594.07.468.187.875.344 1.218.156.344.351.61.593.797.25.188.555.282.922.282.957 0 1.57-.567 1.844-1.704zm0 0"/></symbol><symbol overflow="visible" id="g"><path d="M6.297 0v-6.094c0-1-.121-1.722-.36-2.172-.23-.445-.64-.671-1.234-.671-.531 0-.976.164-1.328.484a2.71 2.71 0 0 0-.75 1.172V0H1.187v-10H2.22l.265 1.063h.063a3.1 3.1 0 0 1 1.015-.922c.438-.25.958-.375 1.563-.375.426 0 .8.062 1.125.187.32.117.594.32.813.61.226.28.394.664.5 1.14.113.48.171 1.086.171 1.813V0zm0 0"/></symbol><symbol overflow="visible" id="h"><path d="M1.422-10h1.437V0H1.422zm-.266-3.047c0-.312.086-.566.266-.765a.926.926 0 0 1 .719-.313.96.96 0 0 1 .718.297c.196.187.297.45.297.781 0 .324-.101.578-.297.766-.187.18-.43.265-.718.265a.971.971 0 0 1-.72-.28c-.179-.188-.265-.438-.265-.75zm0 0"/></symbol><symbol overflow="visible" id="i"><path d="M1.078-9.406c.383-.239.852-.422 1.406-.547a7.435 7.435 0 0 1 1.75-.203c.563 0 1.008.086 1.344.25.344.168.613.398.813.687.195.281.32.606.375.969.062.367.093.75.093 1.156 0 .793-.015 1.57-.046 2.328a53.04 53.04 0 0 0-.047 2.172c0 .5.015.969.046 1.406.032.43.094.84.188 1.235H5.906l-.343-1.188h-.079a2.73 2.73 0 0 1-.89.907C4.207.016 3.69.14 3.047.14c-.73 0-1.324-.25-1.781-.75-.461-.5-.688-1.192-.688-2.079 0-.57.094-1.05.281-1.437.196-.383.473-.695.829-.938a3.346 3.346 0 0 1 1.265-.5 7.995 7.995 0 0 1 1.625-.156h.406c.133 0 .274.008.422.016.032-.406.047-.77.047-1.094 0-.758-.117-1.289-.344-1.594-.218-.312-.632-.468-1.234-.468a4.89 4.89 0 0 0-1.219.171 4.705 4.705 0 0 0-1.094.422zm4.344 4.844c-.137-.008-.274-.016-.406-.016-.137-.008-.266-.016-.391-.016-.324 0-.64.028-.953.078a2.594 2.594 0 0 0-.813.282 1.485 1.485 0 0 0-.578.53c-.136.231-.203.517-.203.86 0 .531.129.95.39 1.25.259.293.598.438 1.016.438.551 0 .977-.13 1.282-.39.312-.27.53-.567.656-.891zm0 0"/></symbol><symbol overflow="visible" id="j"><path d="M2.719-2.375c0 .46.062.793.187 1 .125.2.301.297.531.297.282 0 .61-.07.985-.219l.14 1.156c-.18.106-.421.188-.734.25-.312.07-.594.11-.844.11-.511 0-.921-.157-1.234-.469-.313-.313-.469-.863-.469-1.656V-14H2.72zm0 0"/></symbol><symbol overflow="visible" id="k"><path d="M1.016-1.64a4.6 4.6 0 0 0 .953.406c.363.117.738.171 1.125.171.445 0 .82-.109 1.125-.328.312-.218.468-.57.468-1.062 0-.414-.093-.754-.28-1.016a3.06 3.06 0 0 0-.72-.719 6.653 6.653 0 0 0-.921-.593 5.605 5.605 0 0 1-.938-.657 3.284 3.284 0 0 1-.703-.89C.937-6.68.844-7.125.844-7.656c0-.852.226-1.492.687-1.922.457-.438 1.11-.656 1.953-.656.54 0 1.008.054 1.407.156.406.094.754.226 1.046.39l-.375 1.204a4.009 4.009 0 0 0-.875-.329 4.333 4.333 0 0 0-1.03-.124c-.481 0-.829.101-1.048.296-.218.2-.328.512-.328.938 0 .336.094.621.281.86.188.23.422.445.704.64.289.187.601.387.937.594.332.199.64.433.922.703.29.273.531.601.719.984.187.375.281.852.281 1.422 0 .375-.063.73-.188 1.063a2.273 2.273 0 0 1-.546.875c-.25.242-.559.433-.922.578a3.478 3.478 0 0 1-1.282.218c-.593 0-1.105-.058-1.53-.172-.43-.101-.79-.25-1.079-.437zm0 0"/></symbol><symbol overflow="visible" id="l"><path d="M1.281-13.86a9.944 9.944 0 0 1 1.438-.218c.531-.05 1.02-.078 1.469-.078.507 0 1 .062 1.468.187.469.125.875.34 1.219.64.352.306.629.7.828 1.188.207.48.313 1.09.313 1.829 0 1.105-.23 1.992-.688 2.656A3.328 3.328 0 0 1 5.5-6.313l.766.735L9.016 0H7.28l-3-6.094-1.5-.312V0h-1.5zm1.5 6.454h1.203c.758 0 1.36-.227 1.797-.688.438-.469.657-1.18.657-2.14 0-.739-.184-1.348-.547-1.829-.368-.476-.907-.718-1.625-.718-.274 0-.555.011-.844.031a3.876 3.876 0 0 0-.64.094zm0 0"/></symbol><symbol overflow="visible" id="m"><path d="M7.484 4H6.047V-.813h-.094c-.21.336-.48.594-.812.782-.325.176-.746.265-1.266.265-1.055 0-1.84-.421-2.36-1.265-.523-.844-.78-2.149-.78-3.922 0-1.727.335-3.031 1.015-3.906.688-.883 1.676-1.329 2.969-1.329.562 0 1.093.07 1.593.204.508.136.899.277 1.172.421zM6.047-8.547c-.375-.219-.906-.328-1.594-.328-.687 0-1.23.324-1.625.969-.398.636-.594 1.61-.594 2.922 0 .562.032 1.086.094 1.562.07.48.188.899.344 1.25.156.356.351.633.594.828.25.188.554.282.921.282.5 0 .895-.145 1.188-.438.29-.29.516-.719.672-1.281zm0 0"/></symbol><symbol overflow="visible" id="n"><path d="M2.484-10v6.125c0 1.012.098 1.734.297 2.172.207.43.586.64 1.14.64.282 0 .532-.054.75-.171.22-.114.411-.258.579-.438.176-.187.332-.398.469-.64.133-.25.242-.5.328-.75V-10h1.437v7.156c0 .48.016.98.047 1.5.032.512.082.961.157 1.344H6.655l-.36-1.406h-.062c-.218.449-.543.836-.968 1.156-.43.32-.965.484-1.61.484-.43 0-.804-.054-1.125-.156A1.725 1.725 0 0 1 1.72-.5c-.23-.281-.403-.66-.516-1.14-.105-.489-.156-1.114-.156-1.876V-10zm0 0"/></symbol><symbol overflow="visible" id="o"><path d="M7.703-14h1.438v9.375c0 1.7-.336 2.93-1 3.688C7.484-.188 6.55.188 5.344.188c-1.418 0-2.45-.364-3.094-1.094-.648-.739-.969-1.867-.969-3.39V-14h1.5v8.922c0 .719.047 1.328.14 1.828.095.492.243.89.454 1.203.219.305.484.524.797.656.32.125.719.188 1.187.188.883 0 1.493-.305 1.829-.922.343-.613.515-1.598.515-2.953zm0 0"/></symbol><symbol overflow="visible" id="p"><path d="M6.703-.5a3.32 3.32 0 0 1-1.14.547c-.43.125-.875.187-1.344.187-.637 0-1.18-.12-1.625-.359A2.859 2.859 0 0 1 1.53-1.188c-.273-.457-.476-1.007-.61-1.656A11.366 11.366 0 0 1 .735-5c0-1.707.301-3.004.907-3.89.613-.895 1.488-1.344 2.625-1.344.52 0 .96.046 1.328.14.375.094.695.215.968.36l-.406 1.25a3.462 3.462 0 0 0-1.734-.454c-.719 0-1.266.32-1.64.954-.368.625-.548 1.62-.548 2.984 0 .543.04 1.059.125 1.547.082.48.22.898.407 1.25.187.344.425.621.718.828.29.21.657.313 1.094.313.344 0 .664-.055.969-.172.3-.125.547-.266.734-.422zm0 0"/></symbol><symbol overflow="visible" id="q"><path d="M6.297 0v-6.078c0-.938-.11-1.645-.328-2.125-.219-.488-.657-.735-1.313-.735-.468 0-.898.168-1.281.5-.375.336-.625.75-.75 1.25V0H1.187v-14h1.438v4.938h.063a3.04 3.04 0 0 1 .984-.844c.394-.219.883-.328 1.469-.328.437 0 .816.062 1.14.187.332.117.602.32.813.61.218.292.379.683.484 1.171.102.48.156 1.086.156 1.813V0zm0 0"/></symbol><symbol overflow="visible" id="r"><path d="M3.36-4.5h-.735V0H1.187v-14h1.438v8.516l.656-.282L5.625-10h1.656l-2.36 4.047-.702.64.828.766L7.625 0h-1.75zm0 0"/></symbol><symbol overflow="visible" id="s"><path d="M6.656-3.922H2.703L1.578 0H.094l4.218-14.219h.829L9.359 0H7.797zM3.094-5.266h3.203L5.078-9.578l-.375-2.11h-.047l-.375 2.141zm0 0"/></symbol><symbol overflow="visible" id="t"><path d="M8.656-12.625H5.22V0h-1.5v-12.625H.28V-14h8.375zm0 0"/></symbol><symbol overflow="visible" id="u"><path d="M.734-5c0-1.8.305-3.125.922-3.969.625-.844 1.508-1.265 2.657-1.265 1.226 0 2.132.433 2.718 1.296.582.868.875 2.18.875 3.938 0 1.813-.32 3.14-.953 3.984-.625.836-1.508 1.25-2.64 1.25-1.22 0-2.122-.43-2.704-1.296C1.023-1.926.734-3.239.734-5zm1.5 0c0 .586.036 1.117.11 1.594.07.48.191.898.36 1.25.163.344.382.617.655.812.27.188.586.282.954.282.695 0 1.218-.305 1.562-.922.352-.625.531-1.63.531-3.016 0-.57-.039-1.098-.11-1.578a4.47 4.47 0 0 0-.359-1.25c-.167-.352-.386-.625-.656-.813a1.62 1.62 0 0 0-.968-.296c-.68 0-1.196.312-1.547.937-.356.625-.532 1.625-.532 3zm0 0"/></symbol><symbol overflow="visible" id="v"><path d="M1.188-1.86c.25.18.601.344 1.062.5.457.15.977.22 1.563.22.75 0 1.359-.18 1.828-.548.468-.363.703-.94.703-1.734 0-.52-.137-.973-.407-1.36a4.904 4.904 0 0 0-1-1.062 15.135 15.135 0 0 0-1.296-.968 10 10 0 0 1-1.282-1.032 5.407 5.407 0 0 1-1-1.312c-.273-.5-.406-1.094-.406-1.781 0-1.126.336-1.954 1.016-2.485.676-.539 1.55-.812 2.625-.812.664 0 1.258.062 1.781.187.52.117.941.266 1.266.453l-.485 1.313c-.242-.145-.586-.274-1.031-.39a5.786 5.786 0 0 0-1.547-.188c-.719 0-1.258.18-1.61.53-.343.356-.515.798-.515 1.329 0 .469.133.887.406 1.25.27.355.602.695 1 1.016.395.312.82.636 1.282.968a8.9 8.9 0 0 1 1.296 1.094c.407.399.739.852 1 1.36.27.5.407 1.101.407 1.796 0 1.168-.352 2.086-1.047 2.75-.688.668-1.668 1-2.938 1C3.055.234 2.4.16 1.891.016 1.379-.13.969-.297.656-.484zm0 0"/></symbol><symbol overflow="visible" id="w"><path d="M1.281-14H7.5v1.375H2.781v4.938h4.406v1.39H2.782V0h-1.5zm0 0"/></symbol><symbol overflow="visible" id="x"><path d="M1.188-10h1.015l.219 1.078H2.5c.488-.875 1.258-1.312 2.313-1.312 1.062 0 1.851.398 2.375 1.187.53.781.796 2.063.796 3.844 0 .844-.09 1.605-.265 2.281-.18.668-.43 1.242-.75 1.719A3.27 3.27 0 0 1 5.812-.125c-.46.238-.968.36-1.53.36-.387 0-.696-.028-.923-.079a2.43 2.43 0 0 1-.734-.281V4H1.187zm1.437 8.422c.188.156.395.281.625.375.227.094.54.14.938.14.695 0 1.253-.359 1.671-1.078.414-.718.625-1.742.625-3.078 0-.562-.039-1.066-.109-1.515a4.02 4.02 0 0 0-.36-1.172 1.925 1.925 0 0 0-.609-.766c-.242-.176-.543-.265-.906-.265-.969 0-1.594.593-1.875 1.78zm0 0"/></symbol><symbol overflow="visible" id="y"><path d="M5.86 0v-5.938c0-.53-.016-.984-.048-1.359-.03-.383-.105-.695-.218-.937a1.15 1.15 0 0 0-.438-.532c-.187-.113-.433-.171-.734-.171-.461 0-.844.18-1.156.53a2.88 2.88 0 0 0-.641 1.204V0H1.187v-10h1.016l.25 1.063h.063a3.617 3.617 0 0 1 1-.938c.382-.238.879-.36 1.484-.36.508 0 .926.11 1.25.329.32.219.578.61.766 1.172a2.604 2.604 0 0 1 1.03-1.094c.446-.27.938-.406 1.47-.406.445 0 .828.058 1.14.171.313.106.563.305.75.594.196.281.344.664.438 1.14.094.47.14 1.063.14 1.782V0h-1.437v-6.36c0-.863-.086-1.507-.25-1.937-.168-.426-.555-.64-1.156-.64-.512 0-.918.156-1.22.468-.292.313-.5.735-.624 1.266V0zm0 0"/></symbol><symbol overflow="visible" id="z"><path d="M1.188-14h1.437v4.766h.063c.539-.664 1.265-1 2.171-1 1.032 0 1.801.406 2.313 1.218.508.813.766 2.102.766 3.86 0 1.804-.344 3.148-1.032 4.031C6.22-.25 5.25.188 4 .188a6.66 6.66 0 0 1-1.688-.204c-.5-.144-.874-.312-1.124-.5zM2.625-1.453c.188.105.414.187.688.25.269.055.562.078.874.078.688 0 1.235-.328 1.641-.984.406-.657.61-1.672.61-3.047 0-.57-.04-1.086-.11-1.547a4.528 4.528 0 0 0-.344-1.203c-.148-.332-.343-.586-.593-.766a1.51 1.51 0 0 0-.891-.265c-.48 0-.875.148-1.188.437-.312.281-.542.668-.687 1.156zm0 0"/></symbol><symbol overflow="visible" id="A"><path d="M9.953-9.203l.188-2.11h-.079l-.64 1.97-2.828 6.077h-.5L3.14-9.344l-.625-1.969h-.079l.282 2.11V0H1.28v-14h1.266l3.375 6.875.5 1.64h.031l.484-1.656L10.142-14h1.312V0h-1.5zm0 0"/></symbol><symbol overflow="visible" id="B"><path d="M5.672 0v-5.484c0-.907-.106-1.555-.313-1.954-.21-.406-.586-.609-1.125-.609-.48 0-.875.149-1.187.438a2.472 2.472 0 0 0-.688 1.062V0H1.063v-9H2l.234.953h.047c.227-.32.535-.598.922-.828.395-.227.863-.344 1.406-.344.383 0 .723.059 1.016.172.29.106.535.29.734.547.196.25.348.594.454 1.031.101.43.156.977.156 1.64V0zm0 0"/></symbol><symbol overflow="visible" id="C"><path d="M.672-4.5c0-1.625.273-2.816.828-3.578.563-.758 1.36-1.14 2.39-1.14 1.102 0 1.915.39 2.438 1.171.52.781.781 1.965.781 3.547 0 1.637-.28 2.836-.843 3.594C5.703-.156 4.91.219 3.89.219c-1.106 0-1.918-.39-2.438-1.172C.93-1.734.672-2.914.672-4.5zm1.344 0c0 .531.03 1.016.093 1.453.07.43.18.797.329 1.11.144.312.335.558.578.734.25.168.539.25.875.25.625 0 1.093-.274 1.406-.828.312-.563.469-1.469.469-2.719 0-.52-.04-1-.11-1.438a3.673 3.673 0 0 0-.328-1.125 1.793 1.793 0 0 0-.578-.718 1.422 1.422 0 0 0-.86-.266c-.617 0-1.085.281-1.406.844-.312.562-.468 1.465-.468 2.703zm0 0"/></symbol><symbol overflow="visible" id="D"><path d="M.156-9h1.11v-1.781l1.296-.422V-9H4.5v1.172H2.562v5.36c0 .53.063.917.188 1.155.125.231.328.344.61.344.238 0 .445-.023.624-.078.176-.062.364-.133.563-.219l.266 1.032c-.274.136-.57.238-.891.312-.313.082-.64.125-.985.125-.605 0-1.039-.195-1.296-.578-.25-.395-.375-1.031-.375-1.906v-5.547H.156zm0 0"/></symbol><symbol overflow="visible" id="F"><path d="M2.234-9v5.516c0 .906.094 1.558.282 1.953.187.386.523.578 1.015.578.25 0 .473-.05.672-.156.195-.102.375-.239.531-.407.157-.164.29-.351.407-.562.125-.219.222-.442.296-.672V-9h1.297v6.438c0 .437.016.89.047 1.359.032.46.07.86.125 1.203H6l-.328-1.266h-.063c-.199.399-.492.746-.875 1.047-.386.29-.867.438-1.437.438C2.91.219 2.57.164 2.28.062a1.605 1.605 0 0 1-.734-.515c-.211-.25-.367-.594-.469-1.031-.094-.438-.14-1-.14-1.688V-9zm0 0"/></symbol><symbol overflow="visible" id="G"><path d="M2.453-2.14c0 .417.055.718.172.906.113.18.27.265.469.265.25 0 .547-.066.89-.203L4.11-.125a2.248 2.248 0 0 1-.656.234c-.281.063-.539.094-.765.094-.461 0-.829-.14-1.11-.422-.281-.281-.422-.773-.422-1.484v-10.89h1.297zm0 0"/></symbol><symbol overflow="visible" id="H"><path d="M3.297 3.953a8.849 8.849 0 0 1-1.156-1.89 14.597 14.597 0 0 1-.75-2.126A15.823 15.823 0 0 1 .984-2.25a17.766 17.766 0 0 1 0-4.203c.082-.738.22-1.477.407-2.219.195-.738.453-1.457.765-2.156.32-.707.711-1.367 1.172-1.985l.813.485a10.49 10.49 0 0 0-.954 1.937 15.73 15.73 0 0 0-.609 2.032 19.04 19.04 0 0 0-.328 2.046c-.063.68-.094 1.325-.094 1.938 0 .574.035 1.21.11 1.906.07.688.187 1.383.343 2.078.164.688.375 1.36.625 2.016.258.664.563 1.266.907 1.797zm0 0"/></symbol><symbol overflow="visible" id="I"><path d="M.969-8.453c.351-.219.773-.383 1.265-.5a6.47 6.47 0 0 1 1.579-.188c.507 0 .914.079 1.218.235.301.148.54.351.719.61.176.25.29.542.344.874.05.324.078.668.078 1.031 0 .72-.016 1.422-.047 2.11-.031.68-.047 1.324-.047 1.937 0 .461.016.887.047 1.281.031.387.086.75.172 1.094h-.984L5-1.03h-.063a2.544 2.544 0 0 1-.796.812c-.344.227-.813.344-1.407.344-.648 0-1.18-.223-1.593-.672C.723-.992.516-1.613.516-2.407c0-.519.086-.952.265-1.296a2.17 2.17 0 0 1 .735-.844A3.04 3.04 0 0 1 2.656-5c.438-.094.926-.14 1.469-.14h.344c.125 0 .254.007.39.015.032-.375.047-.707.047-1 0-.676-.105-1.148-.312-1.422-.2-.281-.57-.422-1.11-.422-.336 0-.699.055-1.093.157a3.41 3.41 0 0 0-.985.375zM4.875-4.11a5.296 5.296 0 0 0-.36-.016c-.117-.008-.234-.016-.359-.016-.293 0-.578.028-.86.079a2.122 2.122 0 0 0-.733.25c-.211.117-.376.277-.5.484-.126.2-.188.453-.188.765 0 .481.113.856.344 1.126.238.261.539.39.906.39.508 0 .898-.117 1.172-.36.281-.238.473-.503.578-.796zm0 0"/></symbol><symbol overflow="visible" id="J"><path d="M5.672 0v-5.469c0-.843-.102-1.484-.297-1.922-.2-.437-.594-.656-1.188-.656-.417 0-.796.152-1.14.453-.344.305-.574.68-.688 1.125V0H1.063v-12.594h1.296v4.438h.047c.239-.313.535-.567.89-.766.352-.195.798-.297 1.329-.297.395 0 .738.059 1.031.172.301.106.547.293.735.563.187.261.328.609.421 1.046.102.438.157.981.157 1.625V0zm0 0"/></symbol><symbol overflow="visible" id="K"><path d="M6.438-.61c-.282.262-.649.465-1.094.61a4.456 4.456 0 0 1-1.407.219c-.562 0-1.054-.11-1.468-.328a2.921 2.921 0 0 1-1.016-.954C1.18-1.476.984-1.973.86-2.546A9.338 9.338 0 0 1 .672-4.5c0-1.531.281-2.695.844-3.5.562-.813 1.359-1.219 2.39-1.219.332 0 .664.043 1 .125.332.086.63.258.89.516.259.25.47.605.626 1.062.164.45.25 1.043.25 1.782 0 .199-.012.418-.031.656-.012.23-.028.469-.047.719H2.016c0 .523.039.992.125 1.406.082.418.21.777.39 1.078.188.293.422.523.703.688.282.156.63.234 1.047.234.32 0 .64-.055.953-.172.32-.125.567-.27.735-.438zm-1-4.827c.019-.895-.11-1.551-.391-1.97-.274-.425-.649-.64-1.125-.64-.555 0-.992.215-1.313.64-.324.419-.515 1.075-.578 1.97zm0 0"/></symbol><symbol overflow="visible" id="L"><path d="M1.281-9h1.297v9H1.281zm-.234-2.734c0-.29.078-.524.234-.704a.84.84 0 0 1 .64-.265c.27 0 .49.09.657.265.176.168.266.403.266.704 0 .293-.09.523-.266.687-.168.156-.387.235-.656.235a.856.856 0 0 1-.64-.25c-.157-.176-.235-.399-.235-.672zm0 0"/></symbol><symbol overflow="visible" id="M"><path d="M6.031-.453c-.304.23-.648.398-1.031.5-.387.113-.79.172-1.203.172-.574 0-1.059-.11-1.453-.328a2.695 2.695 0 0 1-.969-.954c-.242-.414-.418-.914-.531-1.5A9.847 9.847 0 0 1 .672-4.5c0-1.531.27-2.695.812-3.5.54-.813 1.32-1.219 2.344-1.219.469 0 .867.043 1.203.125.344.086.633.196.875.328l-.36 1.141c-.48-.281-1-.422-1.562-.422-.656 0-1.152.29-1.484.86-.324.562-.484 1.46-.484 2.687 0 .492.035.953.109 1.39.07.43.191.805.36 1.126.163.312.378.562.64.75.27.187.602.28 1 .28A2.4 2.4 0 0 0 5-1.108c.27-.114.488-.243.656-.391zm0 0"/></symbol><symbol overflow="visible" id="N"><path d="M.922-1.469c.238.137.52.258.844.36.332.105.675.156 1.03.156.395 0 .727-.098 1-.297.282-.195.423-.52.423-.969 0-.363-.09-.664-.266-.906a2.769 2.769 0 0 0-.64-.64 5.361 5.361 0 0 0-.829-.532 4.38 4.38 0 0 1-.843-.594A3.22 3.22 0 0 1 1-5.703C.832-6.016.75-6.41.75-6.891c0-.77.207-1.347.625-1.734.414-.395 1-.594 1.75-.594.5 0 .926.047 1.281.14.364.087.676.204.938.36L5-7.625a3.35 3.35 0 0 0-.797-.297 3.34 3.34 0 0 0-.906-.125c-.438 0-.758.094-.953.281-.2.18-.297.454-.297.829 0 .304.082.562.25.78.176.212.39.403.64.579.258.168.54.344.844.531.301.18.578.39.828.64.258.243.473.532.641.876.176.336.266.761.266 1.281 0 .336-.059.652-.172.953a1.961 1.961 0 0 1-.5.781 2.439 2.439 0 0 1-.828.532c-.325.132-.711.203-1.157.203-.53 0-.992-.055-1.375-.157a3.615 3.615 0 0 1-.968-.406zm0 0"/></symbol><symbol overflow="visible" id="O"><path d="M3.031-4.047H2.36V0H1.063v-12.594h1.296v7.656l.594-.25L5.063-9h1.484L4.422-5.36l-.625.579.734.687L6.86 0H5.297zm0 0"/></symbol><symbol overflow="visible" id="P"><path d="M1.063-9h.921l.188.969h.078c.445-.79 1.145-1.188 2.094-1.188.945 0 1.656.356 2.125 1.063.476.71.718 1.867.718 3.469 0 .761-.078 1.445-.234 2.046a4.926 4.926 0 0 1-.672 1.547c-.293.43-.648.758-1.062.985a2.82 2.82 0 0 1-1.36.328 4.71 4.71 0 0 1-.843-.063 2.434 2.434 0 0 1-.657-.265v3.703H1.063zm1.296 7.578c.164.149.352.262.563.344.207.086.488.125.844.125.632 0 1.132-.32 1.5-.969.375-.644.562-1.57.562-2.781 0-.5-.031-.953-.094-1.36a3.593 3.593 0 0 0-.312-1.046c-.149-.301-.336-.532-.563-.688a1.323 1.323 0 0 0-.812-.25c-.875 0-1.438.54-1.688 1.61zm0 0"/></symbol><symbol overflow="visible" id="Q"><path d="M6.734-3.094c0 .617.004 1.172.016 1.672.008.492.05.977.125 1.453H6l-.297-1.078h-.062c-.18.367-.45.668-.813.906-.355.239-.781.36-1.281.36-.969 0-1.695-.375-2.172-1.125C.906-1.664.672-2.86.672-4.484c0-1.532.285-2.692.86-3.485.581-.789 1.382-1.187 2.405-1.187.352 0 .63.023.829.062.207.043.43.11.671.203v-3.703h1.297zM5.438-7.578a1.513 1.513 0 0 0-.579-.313c-.21-.062-.484-.093-.828-.093-.636 0-1.133.289-1.484.859-.356.574-.531 1.46-.531 2.656 0 .532.03 1.012.093 1.438.07.43.176.797.313 1.11.133.312.312.554.531.718.227.168.504.25.828.25.864 0 1.414-.508 1.656-1.531zm0 0"/></symbol><symbol overflow="visible" id="R"><path d="M.86 3.422a8.992 8.992 0 0 0 .906-1.797c.25-.656.453-1.328.609-2.016.164-.695.285-1.39.36-2.078.07-.695.109-1.332.109-1.906 0-.613-.04-1.258-.11-1.938a18.03 18.03 0 0 0-.312-2.046 13.602 13.602 0 0 0-.61-2.032 12.212 12.212 0 0 0-.953-1.937l.813-.485c.457.618.844 1.278 1.156 1.985.32.7.578 1.418.766 2.156.195.742.336 1.48.422 2.219.082.73.125 1.422.125 2.078 0 .68-.043 1.387-.125 2.125-.086.73-.227 1.46-.422 2.188a12.958 12.958 0 0 1-.75 2.124 9.467 9.467 0 0 1-1.14 1.891zm0 0"/></symbol><symbol overflow="visible" id="S"><path d="M6.938-12.594h1.28v8.438c0 1.523-.296 2.62-.89 3.297C6.734-.18 5.895.156 4.812.156c-1.28 0-2.214-.328-2.796-.984-.575-.656-.86-1.672-.86-3.047v-8.719H2.5v8.016c0 .656.04 1.21.125 1.656.082.438.219.797.406 1.078.196.274.438.469.719.594.29.117.648.172 1.078.172.79 0 1.336-.274 1.64-.828.313-.551.47-1.442.47-2.672zm0 0"/></symbol><symbol overflow="visible" id="T"><path d="M1.063-9h.921l.235.953h.047c.164-.344.382-.613.656-.812.27-.196.598-.297.984-.297.27 0 .582.054.938.156l-.25 1.313a2.75 2.75 0 0 0-.828-.157c-.387 0-.7.11-.938.328-.242.22-.398.516-.469.891V0H1.063zm0 0"/></symbol><symbol overflow="visible" id="U"><path d="M1.422-12.594h1.344V0H1.422zm0 0"/></symbol><symbol overflow="visible" id="V"><path d="M.281-9h1.11v-.5c0-1.133.16-1.953.484-2.453.32-.5.875-.75 1.656-.75.313 0 .594.023.844.062.25.032.504.106.766.22l-.313 1.124a2.074 2.074 0 0 0-.61-.187 3.263 3.263 0 0 0-.53-.047c-.243 0-.43.047-.563.14-.125.094-.227.246-.297.454-.062.199-.105.46-.125.78-.012.313-.015.7-.015 1.157h1.859v1.172h-1.86V0H1.391v-7.828H.28zm0 0"/></symbol><symbol overflow="visible" id="W"><path d="M5.875-9l1.594 5.25.328 1.734h.031l.266-1.765L9.328-9h1.219L8.157.203h-.735L5.594-5.703l-.25-1.516h-.032l-.25 1.532L3.298.202h-.735L.095-9h1.375l1.39 5.234.22 1.75h.03l.329-1.78L4.905-9zm0 0"/></symbol><symbol overflow="visible" id="X"><path d="M6-3.531H2.437L1.423 0H.094L3.89-12.797h.734L8.422 0H7.016zM2.797-4.734h2.875L4.578-8.625l-.344-1.89h-.046l-.329 1.921zm0 0"/></symbol><symbol overflow="visible" id="Y"><path d="M1.156-12.594H6.75v1.235H2.5v4.265h3.906v1.25H2.5v4.61h4.344V0H1.156zm0 0"/></symbol><symbol overflow="visible" id="Z"><path d="M2.89-4.61L.517-9h1.546l1.344 2.578.36 1 .375-1L5.516-9h1.421L4.531-4.687 7.078 0H5.594l-1.5-2.828-.407-1.078-.406 1.078L1.766 0H.344zm0 0"/></symbol><symbol overflow="visible" id="aa"><path d="M3.297-3.188l.375 1.75h.094l.265-1.75L5.406-9H6.72L4.579-.922c-.18.649-.352 1.25-.516 1.813a9.848 9.848 0 0 1-.547 1.468c-.2.414-.422.739-.672.97-.242.237-.528.358-.86.358-.343 0-.64-.054-.89-.156l.218-1.234c.165.062.333.07.5.031.165-.031.32-.133.47-.297.155-.168.296-.418.421-.75.125-.324.238-.75.344-1.281L.125-9h1.484zm0 0"/></symbol><symbol overflow="visible" id="ab"><path d="M3.234-3.719l.36 1.781h.047l.312-1.828L5.547-9h1.36L3.827.203h-.625L.078-9h1.469zm0 0"/></symbol><symbol overflow="visible" id="ac"><path d="M5.281 0v-5.344c0-.476-.015-.89-.047-1.234a2.42 2.42 0 0 0-.203-.828 1.046 1.046 0 0 0-.39-.485c-.168-.101-.387-.156-.657-.156a1.34 1.34 0 0 0-1.046.485 2.5 2.5 0 0 0-.579 1.078V0H1.063v-9h.921l.235.953h.047c.25-.344.546-.625.89-.844.352-.218.801-.328 1.344-.328.457 0 .832.102 1.125.297.29.2.52.555.688 1.063.218-.426.523-.758.921-1 .407-.239.848-.36 1.329-.36a3 3 0 0 1 1.015.156c.29.106.52.29.688.547.175.25.304.59.39 1.016.082.43.125.965.125 1.61V0H9.484v-5.719c0-.781-.078-1.363-.234-1.75-.148-.383-.492-.578-1.031-.578-.45 0-.809.14-1.078.422-.274.281-.465.664-.579 1.14V0zm0 0"/></symbol><symbol overflow="visible" id="ad"><path d="M4.625-6.281h3.469v5.547c-.336.312-.766.554-1.297.718A5.544 5.544 0 0 1 5.203.22c-.68 0-1.289-.125-1.828-.375a3.63 3.63 0 0 1-1.39-1.188c-.387-.531-.684-1.203-.891-2.015C.883-4.18.78-5.16.78-6.297c0-1.176.125-2.176.375-3 .25-.82.586-1.492 1.016-2.015.426-.52.91-.899 1.453-1.141a4.214 4.214 0 0 1 1.688-.36c.57 0 1.05.043 1.437.126a4.63 4.63 0 0 1 1.016.296l-.329 1.235a3.257 3.257 0 0 0-.859-.313 5.57 5.57 0 0 0-1.14-.11c-.418 0-.82.095-1.204.282-.386.18-.734.477-1.046.89-.305.407-.543.95-.72 1.626-.179.668-.265 1.496-.265 2.484 0 1.805.281 3.133.844 3.984.57.856 1.36 1.282 2.36 1.282.624 0 1.14-.145 1.546-.438V-5.14l-2.328-.343zm0 0"/></symbol><symbol overflow="visible" id="ae"><path d="M7.797-11.36H4.703V0h-1.36v-11.36H.25v-1.234h7.547zm0 0"/></symbol><symbol overflow="visible" id="af"><path d="M1.156-12.469a8.225 8.225 0 0 1 1.297-.219c.477-.039.914-.062 1.313-.062.468 0 .91.059 1.328.172.414.117.781.308 1.093.578a2.9 2.9 0 0 1 .75 1.063c.188.437.282.992.282 1.656 0 .992-.211 1.789-.625 2.39a3.058 3.058 0 0 1-1.64 1.204l.687.671L8.125 0H6.547L3.859-5.484 2.5-5.766V0H1.156zM2.5-6.656h1.078c.688 0 1.227-.207 1.625-.625.395-.426.594-1.07.594-1.938 0-.656-.168-1.195-.5-1.625-.324-.437-.813-.656-1.469-.656-.242 0-.492.012-.75.031-.25.012-.445.04-.578.078zm0 0"/></symbol><symbol overflow="visible" id="ag"><path d="M1.063-12.594h1.296v4.281h.047c.5-.601 1.156-.906 1.969-.906.926 0 1.617.371 2.078 1.11.457.73.688 1.886.688 3.468 0 1.618-.309 2.82-.922 3.61C5.602-.238 4.727.156 3.594.156A5.73 5.73 0 0 1 2.078-.03c-.45-.125-.789-.27-1.015-.438zM2.359-1.313c.164.094.368.168.61.22.25.054.515.077.797.077.625 0 1.117-.296 1.484-.89.363-.594.547-1.504.547-2.735a8.2 8.2 0 0 0-.11-1.39 4.309 4.309 0 0 0-.296-1.078c-.137-.301-.32-.532-.547-.688a1.293 1.293 0 0 0-.797-.25c-.43 0-.781.133-1.063.39-.28.262-.492.61-.625 1.048zm0 0"/></symbol><symbol overflow="visible" id="ah"><path d="M0 2.516h6.016v1.171H0zm0 0"/></symbol><symbol overflow="visible" id="ai"><path d="M6.766-9v9H5.469v-7.828H2.687V0H1.391v-7.828H.28V-9h1.11v-.5c0-1.133.222-1.953.671-2.453.458-.508 1.126-.766 2-.766.594 0 1.11.059 1.547.172.438.106.79.23 1.063.375l-.406 1.078a3.42 3.42 0 0 0-.97-.36 5.714 5.714 0 0 0-1.109-.108c-.335 0-.601.058-.796.171-.2.118-.356.29-.47.516a2.425 2.425 0 0 0-.202.813c-.024.312-.031.667-.031 1.062zm0 0"/></symbol><symbol overflow="visible" id="aj"><path d="M6.734.406c0 1.164-.261 2.024-.78 2.578-.513.551-1.263.829-2.25.829-.595 0-1.087-.055-1.47-.157a3.77 3.77 0 0 1-.937-.344l.375-1.109c.238.102.5.203.781.297.29.094.649.14 1.078.14.727 0 1.227-.203 1.5-.609.27-.406.407-1.09.407-2.047v-.671h-.063c-.188.28-.434.5-.734.656-.305.156-.688.234-1.157.234-.968 0-1.683-.375-2.14-1.125-.45-.75-.672-1.93-.672-3.547 0-1.539.297-2.707.89-3.5.594-.789 1.47-1.187 2.625-1.187.57 0 1.063.054 1.47.156.405.105.765.23 1.077.375zm-1.296-8.11c-.368-.187-.829-.28-1.391-.28-.617 0-1.11.28-1.484.843-.368.555-.547 1.438-.547 2.657 0 .511.03.98.093 1.406.063.418.16.789.297 1.11a2 2 0 0 0 .547.734c.227.18.504.265.828.265.457 0 .817-.117 1.078-.36.258-.237.454-.597.579-1.077zm0 0"/></symbol></defs><path fill="#fff" d="M0 0h680v1103H0z"/><path d="M1 1h678.824v1101.535H1zm0 0" fill-rule="evenodd" fill="#fff" stroke-width="2" stroke="#fff" stroke-miterlimit="10"/><path d="M201.266 240.59h142.03V296h-142.03zm0 0M201.266 246.59v-6c-3.313 0-6 2.687-6 6zm0 0M343.297 246.59h6c0-3.313-2.688-6-6-6zm0 0" fill-rule="evenodd" fill="#fff"/><path d="M195.266 246.59h154.03V290h-154.03zm0 0M201.266 290h-6c0 3.316 2.687 6 6 6zm0 0M343.297 290v6c3.312 0 6-2.684 6-6zm0 0" fill-rule="evenodd" fill="#fff"/><path d="M201.266 240.59h142.03M201.266 296h142.03M201.266 240.59c-3.313 0-6 2.687-6 6M349.297 246.59c0-3.313-2.688-6-6-6M195.266 246.59V290M349.297 246.59V290M195.266 290a6 6 0 0 0 6 6M343.297 296a6 6 0 0 0 6-6" fill="none" stroke-width="2" stroke="#000" stroke-miterlimit="10"/><use xlink:href="#a" x="222.262" y="276.246"/><use xlink:href="#b" x="230.895" y="276.246"/><use xlink:href="#c" x="239.156" y="276.246"/><use xlink:href="#d" x="244.664" y="276.246"/><use xlink:href="#e" x="253.59" y="276.246"/><use xlink:href="#b" x="259.078" y="276.246"/><use xlink:href="#f" x="267.34" y="276.246"/><use xlink:href="#b" x="275.992" y="276.246"/><use xlink:href="#g" x="284.254" y="276.246"/><use xlink:href="#c" x="293.043" y="276.246"/><use xlink:href="#h" x="298.551" y="276.246"/><use xlink:href="#i" x="302.887" y="276.246"/><use xlink:href="#j" x="310.895" y="276.246"/><use xlink:href="#k" x="315.563" y="276.246"/><path d="M225.754 26.918h93.055c12.847 0 23.265 10.5 23.265 23.45 0 12.948-10.418 23.448-23.265 23.448h-93.055c-12.852 0-23.266-10.5-23.266-23.449 0-12.949 10.414-23.449 23.266-23.449" fill-rule="evenodd" fill="#b2d4eb" stroke-width="2" stroke="#000" stroke-miterlimit="10"/><use xlink:href="#l" x="244.879" y="57.988"/><use xlink:href="#b" x="253.727" y="57.988"/><use xlink:href="#m" x="261.852" y="57.988"/><use xlink:href="#n" x="270.484" y="57.988"/><use xlink:href="#b" x="279.156" y="57.988"/><use xlink:href="#k" x="287.418" y="57.988"/><use xlink:href="#c" x="294.176" y="57.988"/><path d="M201.266 373.61h142.03v55.41h-142.03zm0 0M201.266 379.61v-6c-3.313 0-6 2.687-6 6zm0 0M343.297 379.61h6c0-3.313-2.688-6-6-6zm0 0" fill-rule="evenodd" fill="#fff"/><path d="M195.266 379.61h154.03v43.41h-154.03zm0 0M201.266 423.02h-6c0 3.312 2.687 6 6 6zm0 0M343.297 423.02v6c3.312 0 6-2.688 6-6zm0 0" fill-rule="evenodd" fill="#fff"/><path d="M201.266 373.61h142.03M201.266 429.02h142.03M201.266 373.61c-3.313 0-6 2.687-6 6M349.297 379.61c0-3.313-2.688-6-6-6M195.266 379.61v43.41M349.297 379.61v43.41M195.266 423.02c0 3.312 2.687 6 6 6M343.297 429.02c3.312 0 6-2.688 6-6" fill="none" stroke-width="2" stroke="#000" stroke-miterlimit="10"/><use xlink:href="#a" x="245.621" y="409.266"/><use xlink:href="#b" x="254.254" y="409.266"/><use xlink:href="#c" x="262.516" y="409.266"/><use xlink:href="#o" x="268.023" y="409.266"/><use xlink:href="#k" x="278.453" y="409.266"/><use xlink:href="#b" x="285.211" y="409.266"/><use xlink:href="#e" x="293.473" y="409.266"/><path d="M200.676 514.262h142.031v55.41H200.676zm0 0M200.676 520.262v-6c-3.313 0-6 2.687-6 6zm0 0M342.707 520.262h6c0-3.313-2.687-6-6-6zm0 0" fill-rule="evenodd" fill="#fff"/><path d="M194.676 520.262h154.031v43.41H194.676zm0 0M200.676 563.672h-6c0 3.316 2.687 6 6 6zm0 0M342.707 563.672v6c3.313 0 6-2.684 6-6zm0 0" fill-rule="evenodd" fill="#fff"/><path d="M200.676 514.262h142.031M200.676 569.672h142.031M200.676 514.262c-3.313 0-6 2.687-6 6M348.707 520.262c0-3.313-2.687-6-6-6M194.676 520.262v43.41M348.707 520.262v43.41M194.676 563.672a6 6 0 0 0 6 6M342.707 569.672a6 6 0 0 0 6-6" fill="none" stroke-width="2" stroke="#000" stroke-miterlimit="10"/><use xlink:href="#p" x="213.391" y="549.918"/><use xlink:href="#q" x="220.52" y="549.918"/><use xlink:href="#b" x="229.328" y="549.918"/><use xlink:href="#p" x="237.453" y="549.918"/><use xlink:href="#r" x="244.582" y="549.918"/><use xlink:href="#d" x="252.336" y="549.918"/><use xlink:href="#e" x="261.262" y="549.918"/><use xlink:href="#b" x="266.75" y="549.918"/><use xlink:href="#f" x="275.012" y="549.918"/><use xlink:href="#b" x="283.664" y="549.918"/><use xlink:href="#g" x="291.926" y="549.918"/><use xlink:href="#c" x="300.715" y="549.918"/><use xlink:href="#h" x="306.223" y="549.918"/><use xlink:href="#i" x="310.559" y="549.918"/><use xlink:href="#j" x="318.566" y="549.918"/><use xlink:href="#k" x="323.234" y="549.918"/><path d="M28.09 666.922H220.19v55.41H28.09zm0 0M28.09 672.922v-6c-3.317 0-6 2.683-6 6zm0 0" fill-rule="evenodd" fill="#fff"/><path d="M220.188 672.922h6c0-3.317-2.688-6-6-6zm0 0M22.09 672.922H226.19v43.41H22.09zm0 0M28.09 716.332h-6c0 3.313 2.683 6 6 6zm0 0M220.188 716.332v6c3.312 0 6-2.687 6-6zm0 0" fill-rule="evenodd" fill="#fff"/><path d="M28.09 666.922h192.098M28.09 722.332h192.098M28.09 666.922c-3.317 0-6 2.683-6 6M226.188 672.922c0-3.317-2.688-6-6-6M22.09 672.922v43.41M226.188 672.922v43.41M22.09 716.332a6 6 0 0 0 6 6M220.188 722.332c3.312 0 6-2.687 6-6" fill="none" stroke-width="2" stroke="#000" stroke-miterlimit="10"/><use xlink:href="#p" x="34.41" y="702.574"/><use xlink:href="#e" x="41.539" y="702.574"/><use xlink:href="#b" x="47.027" y="702.574"/><use xlink:href="#i" x="55.289" y="702.574"/><use xlink:href="#c" x="63.297" y="702.574"/><use xlink:href="#b" x="68.668" y="702.574"/><use xlink:href="#s" x="76.93" y="702.574"/><use xlink:href="#n" x="86.383" y="702.574"/><use xlink:href="#c" x="95.055" y="702.574"/><use xlink:href="#q" x="100.563" y="702.574"/><use xlink:href="#b" x="109.371" y="702.574"/><use xlink:href="#g" x="117.633" y="702.574"/><use xlink:href="#c" x="126.422" y="702.574"/><use xlink:href="#h" x="131.93" y="702.574"/><use xlink:href="#p" x="136.266" y="702.574"/><use xlink:href="#i" x="143.395" y="702.574"/><use xlink:href="#c" x="151.402" y="702.574"/><use xlink:href="#b" x="156.773" y="702.574"/><use xlink:href="#f" x="165.035" y="702.574"/><use xlink:href="#t" x="173.688" y="702.574"/><use xlink:href="#u" x="180.602" y="702.574"/><use xlink:href="#r" x="189.234" y="702.574"/><use xlink:href="#b" x="196.813" y="702.574"/><use xlink:href="#g" x="205.074" y="702.574"/><path d="M28.09 792.02H220.19v55.41H28.09zm0 0M28.09 798.02v-6c-3.317 0-6 2.687-6 6zm0 0" fill-rule="evenodd" fill="#b2dec7"/><path d="M220.188 798.02h6c0-3.313-2.688-6-6-6zm0 0M22.09 798.02H226.19v43.41H22.09zm0 0M28.09 841.43h-6c0 3.316 2.683 6 6 6zm0 0M220.188 841.43v6c3.312 0 6-2.684 6-6zm0 0" fill-rule="evenodd" fill="#b2dec7"/><path d="M28.09 792.02h192.098M28.09 847.43h192.098M28.09 792.02a6 6 0 0 0-6 6M226.188 798.02c0-3.313-2.688-6-6-6M22.09 798.02v43.41M226.188 798.02v43.41M22.09 841.43c0 3.316 2.683 6 6 6M220.188 847.43c3.312 0 6-2.684 6-6" fill="none" stroke-width="2" stroke="#000" stroke-miterlimit="10"/><use xlink:href="#u" x="38.238" y="827.676"/><use xlink:href="#g" x="46.871" y="827.676"/><use xlink:href="#s" x="55.66" y="827.676"/><use xlink:href="#n" x="65.113" y="827.676"/><use xlink:href="#c" x="73.785" y="827.676"/><use xlink:href="#q" x="79.293" y="827.676"/><use xlink:href="#b" x="88.102" y="827.676"/><use xlink:href="#g" x="96.363" y="827.676"/><use xlink:href="#c" x="105.152" y="827.676"/><use xlink:href="#h" x="110.66" y="827.676"/><use xlink:href="#p" x="114.996" y="827.676"/><use xlink:href="#i" x="122.125" y="827.676"/><use xlink:href="#c" x="130.133" y="827.676"/><use xlink:href="#h" x="135.641" y="827.676"/><use xlink:href="#u" x="139.977" y="827.676"/><use xlink:href="#g" x="148.609" y="827.676"/><use xlink:href="#v" x="157.398" y="827.676"/><use xlink:href="#n" x="165.953" y="827.676"/><use xlink:href="#p" x="174.625" y="827.676"/><use xlink:href="#p" x="181.441" y="827.676"/><use xlink:href="#b" x="188.258" y="827.676"/><use xlink:href="#k" x="196.52" y="827.676"/><use xlink:href="#k" x="203.277" y="827.676"/><path d="M324.797 791.66h192.101v55.41H324.797zm0 0M324.797 797.66v-6c-3.317 0-6 2.688-6 6zm0 0" fill-rule="evenodd" fill="#ecbec0"/><path d="M516.895 797.66h6c0-3.312-2.684-6-6-6zm0 0M318.797 797.66h204.101v43.41H318.797zm0 0M324.797 841.074h-6c0 3.313 2.683 6 6 6zm0 0M516.895 841.074v6c3.316 0 6-2.687 6-6zm0 0" fill-rule="evenodd" fill="#ecbec0"/><path d="M324.797 791.66h192.098M324.797 847.074h192.098M324.797 791.66c-3.317 0-6 2.688-6 6M522.895 797.66a6 6 0 0 0-6-6M318.797 797.66v43.414M522.895 797.66v43.414M318.797 841.074c0 3.313 2.683 6 6 6M516.895 847.074a6 6 0 0 0 6-6" fill="none" stroke-width="2" stroke="#000" stroke-miterlimit="10"/><use xlink:href="#u" x="337.43" y="827.316"/><use xlink:href="#g" x="346.063" y="827.316"/><use xlink:href="#s" x="354.852" y="827.316"/><use xlink:href="#n" x="364.305" y="827.316"/><use xlink:href="#c" x="372.977" y="827.316"/><use xlink:href="#q" x="378.484" y="827.316"/><use xlink:href="#b" x="387.293" y="827.316"/><use xlink:href="#g" x="395.555" y="827.316"/><use xlink:href="#c" x="404.344" y="827.316"/><use xlink:href="#h" x="409.852" y="827.316"/><use xlink:href="#p" x="414.188" y="827.316"/><use xlink:href="#i" x="421.316" y="827.316"/><use xlink:href="#c" x="429.324" y="827.316"/><use xlink:href="#h" x="434.832" y="827.316"/><use xlink:href="#u" x="439.168" y="827.316"/><use xlink:href="#g" x="447.801" y="827.316"/><use xlink:href="#w" x="456.59" y="827.316"/><use xlink:href="#i" x="464.852" y="827.316"/><use xlink:href="#h" x="472.859" y="827.316"/><use xlink:href="#j" x="477.195" y="827.316"/><use xlink:href="#n" x="481.863" y="827.316"/><use xlink:href="#e" x="490.535" y="827.316"/><use xlink:href="#b" x="496.023" y="827.316"/><path d="M28.09 945.121H220.19v55.41H28.09zm0 0M28.09 951.121v-6c-3.317 0-6 2.684-6 6zm0 0" fill-rule="evenodd" fill="#fff"/><path d="M220.188 951.121h6c0-3.316-2.688-6-6-6zm0 0M22.09 951.121H226.19v43.41H22.09zm0 0M28.09 994.531h-6c0 3.313 2.683 6 6 6zm0 0M220.188 994.531v6c3.312 0 6-2.687 6-6zm0 0" fill-rule="evenodd" fill="#fff"/><path d="M28.09 945.121h192.098M28.09 1000.531h192.098M28.09 945.121c-3.317 0-6 2.684-6 6M226.188 951.121c0-3.316-2.688-6-6-6M22.09 951.121v43.41M226.188 951.121v43.41M22.09 994.531a6 6 0 0 0 6 6M220.188 1000.531c3.312 0 6-2.687 6-6" fill="none" stroke-width="2" stroke="#000" stroke-miterlimit="10"/><use xlink:href="#k" x="46.891" y="980.777"/><use xlink:href="#n" x="53.648" y="980.777"/><use xlink:href="#x" x="62.32" y="980.777"/><use xlink:href="#x" x="71.012" y="980.777"/><use xlink:href="#u" x="79.703" y="980.777"/><use xlink:href="#e" x="88.336" y="980.777"/><use xlink:href="#c" x="94.293" y="980.777"/><use xlink:href="#k" x="99.801" y="980.777"/><use xlink:href="#l" x="106.559" y="980.777"/><use xlink:href="#b" x="115.406" y="980.777"/><use xlink:href="#y" x="123.668" y="980.777"/><use xlink:href="#b" x="136.695" y="980.777"/><use xlink:href="#y" x="144.957" y="980.777"/><use xlink:href="#z" x="157.984" y="980.777"/><use xlink:href="#b" x="166.656" y="980.777"/><use xlink:href="#e" x="174.918" y="980.777"/><use xlink:href="#A" x="180.406" y="980.777"/><use xlink:href="#b" x="193.141" y="980.777"/><path d="M224.363 1027.133h93.055c12.848 0 23.266 10.5 23.266 23.449 0 12.953-10.418 23.45-23.266 23.45h-93.055c-12.847 0-23.265-10.497-23.265-23.45 0-12.95 10.418-23.45 23.265-23.45" fill-rule="evenodd" fill="#b2d4eb" stroke-width="2" stroke="#000" stroke-miterlimit="10"/><g><use xlink:href="#l" x="238.391" y="1058.203"/><use xlink:href="#b" x="247.238" y="1058.203"/><use xlink:href="#k" x="255.5" y="1058.203"/><use xlink:href="#x" x="262.258" y="1058.203"/><use xlink:href="#u" x="270.949" y="1058.203"/><use xlink:href="#g" x="279.582" y="1058.203"/><use xlink:href="#k" x="288.371" y="1058.203"/><use xlink:href="#b" x="295.129" y="1058.203"/></g><path d="M272.281 296v66.61" fill="none" stroke-width="2" stroke="#000" stroke-miterlimit="10"/><path d="M267.281 362.61l5 10 5-10zm0 0" fill-rule="evenodd" stroke-width="2" stroke="#000" stroke-miterlimit="10"/><path d="M242.594 327.336h48.648v23.398h-48.648zm0 0" fill-rule="evenodd" fill="#fff"/><g><use xlink:href="#B" x="242.594" y="345.734"/><use xlink:href="#C" x="250.504" y="345.734"/><use xlink:href="#D" x="258.277" y="345.734"/><use xlink:href="#E" x="263.219" y="345.734"/><use xlink:href="#B" x="267.027" y="345.734"/><use xlink:href="#F" x="274.938" y="345.734"/><use xlink:href="#G" x="282.75" y="345.734"/><use xlink:href="#G" x="286.949" y="345.734"/></g><path d="M272.281 309.234c0 3.313 2.688 6 6 6M272.281 296v13.234M658.797 321.234c0-3.312-2.688-6-6-6M278.281 315.234h374.516M652.797 1050.582a6 6 0 0 0 6-6M658.797 321.234v723.348M652.797 1050.582H351.684" fill="none" stroke-width="2" stroke-linejoin="round" stroke="#000" stroke-dasharray=".1,.1" stroke-miterlimit="10"/><path d="M351.684 1045.582l-10 5 10 5zm0 0" fill-rule="evenodd" stroke-width="2" stroke="#000" stroke-miterlimit="10"/><path d="M378.598 292.832h164.398v45.977H378.598zm0 0" fill-rule="evenodd" fill="#fff"/><g><use xlink:href="#B" x="448.746" y="311.234"/><use xlink:href="#F" x="456.656" y="311.234"/><use xlink:href="#G" x="464.469" y="311.234"/><use xlink:href="#G" x="468.668" y="311.234"/></g><g><use xlink:href="#H" x="378.746" y="333.813"/><use xlink:href="#I" x="382.945" y="333.813"/><use xlink:href="#F" x="390.152" y="333.813"/><use xlink:href="#D" x="397.965" y="333.813"/><use xlink:href="#J" x="402.906" y="333.813"/><use xlink:href="#K" x="410.836" y="333.813"/><use xlink:href="#B" x="418.277" y="333.813"/><use xlink:href="#D" x="426.188" y="333.813"/><use xlink:href="#L" x="431.129" y="333.813"/><use xlink:href="#M" x="435.035" y="333.813"/><use xlink:href="#I" x="441.441" y="333.813"/><use xlink:href="#D" x="448.648" y="333.813"/><use xlink:href="#L" x="453.59" y="333.813"/><use xlink:href="#C" x="457.496" y="333.813"/><use xlink:href="#B" x="465.27" y="333.813"/><use xlink:href="#E" x="473.18" y="333.813"/><use xlink:href="#L" x="476.988" y="333.813"/><use xlink:href="#N" x="480.895" y="333.813"/><use xlink:href="#E" x="486.969" y="333.813"/><use xlink:href="#N" x="490.777" y="333.813"/><use xlink:href="#O" x="496.852" y="333.813"/><use xlink:href="#L" x="503.844" y="333.813"/><use xlink:href="#P" x="507.75" y="333.813"/><use xlink:href="#P" x="515.582" y="333.813"/><use xlink:href="#K" x="523.414" y="333.813"/><use xlink:href="#Q" x="530.855" y="333.813"/><use xlink:href="#R" x="538.648" y="333.813"/></g><path d="M272.281 429.02l-.511 74.242" fill="none" stroke-width="2" stroke="#000" stroke-miterlimit="10"/><path d="M266.77 503.227l4.93 10.035 5.07-9.965zm0 0" fill-rule="evenodd" stroke-width="2" stroke="#000" stroke-miterlimit="10"/><path d="M225.625 469.563h82.648v23.398h-82.648zm0 0" fill-rule="evenodd" fill="#fff"/><g><use xlink:href="#S" x="225.625" y="487.961"/><use xlink:href="#N" x="235" y="487.961"/><use xlink:href="#K" x="241.074" y="487.961"/><use xlink:href="#T" x="248.516" y="487.961"/><use xlink:href="#U" x="253.457" y="487.961"/><use xlink:href="#B" x="257.656" y="487.961"/><use xlink:href="#D" x="265.566" y="487.961"/><use xlink:href="#K" x="270.391" y="487.961"/><use xlink:href="#T" x="277.832" y="487.961"/><use xlink:href="#V" x="282.773" y="487.961"/><use xlink:href="#I" x="287.402" y="487.961"/><use xlink:href="#M" x="294.609" y="487.961"/><use xlink:href="#K" x="300.723" y="487.961"/></g><path d="M265.691 604.984a6.002 6.002 0 0 0 6-6M271.691 569.672v29.312M130.137 604.984a6.002 6.002 0 0 0-6 6M265.691 604.984H130.137M124.137 610.984v44.938" fill="none" stroke-width="2" stroke-linejoin="round" stroke="#000" stroke-miterlimit="10"/><path d="M119.137 655.922l5 10 5-10zm0 0" fill-rule="evenodd" stroke-width="2" stroke="#000" stroke-miterlimit="10"/><path d="M124.137 722.332v58.688" fill="none" stroke-width="2" stroke="#000" stroke-miterlimit="10"/><path d="M119.137 781.02l5 10 5-10zm0 0" fill-rule="evenodd" stroke-width="2" stroke="#000" stroke-miterlimit="10"/><path d="M73.113 847.43v86.691" fill="none" stroke-width="2" stroke="#000" stroke-miterlimit="10"/><path d="M68.113 934.121l5 10 5-10zm0 0" fill-rule="evenodd" stroke-width="2" stroke="#000" stroke-miterlimit="10"/><path d="M414.848 937.102a6 6 0 0 0 6-6M420.848 847.074v84.028M323.418 937.102c-3.313 0-6 2.687-6 6M414.848 937.102h-91.43M317.418 943.102v73.03" fill="none" stroke-width="2" stroke-linejoin="round" stroke="#000" stroke-dasharray=".1,.1" stroke-miterlimit="10"/><path d="M312.418 1016.133l5 10 5-10zm0 0" fill-rule="evenodd" stroke-width="2" stroke="#000" stroke-miterlimit="10"/><path d="M272.281 444.02a6.002 6.002 0 0 0 6 6M272.281 429.02v15M543.895 456.02a5.999 5.999 0 0 0-6-6M278.281 450.02h259.614M540.36 819.367a3.534 3.534 0 0 0 3.535-3.535M543.895 456.02v359.812M540.36 819.367h-6.465" fill="none" stroke-width="2" stroke-linejoin="round" stroke="#000" stroke-miterlimit="10"/><path d="M533.895 814.367l-10 5 10 5zm0 0" fill-rule="evenodd" stroke-width="2" stroke="#000" stroke-miterlimit="10"/><path d="M446.145 480.285h191.699v45.977h-191.7zm0 0" fill-rule="evenodd" fill="#fff"/><g><use xlink:href="#B" x="521.684" y="498.684"/><use xlink:href="#F" x="529.594" y="498.684"/><use xlink:href="#G" x="537.406" y="498.684"/><use xlink:href="#G" x="541.605" y="498.684"/><use xlink:href="#E" x="545.805" y="498.684"/><use xlink:href="#C" x="549.613" y="498.684"/><use xlink:href="#T" x="557.387" y="498.684"/></g><g><use xlink:href="#D" x="446.313" y="521.262"/><use xlink:href="#J" x="451.254" y="521.262"/><use xlink:href="#T" x="459.184" y="521.262"/><use xlink:href="#C" x="464.125" y="521.262"/><use xlink:href="#W" x="471.762" y="521.262"/><use xlink:href="#E" x="482.074" y="521.262"/><use xlink:href="#X" x="485.414" y="521.262"/><use xlink:href="#F" x="493.93" y="521.262"/><use xlink:href="#D" x="501.742" y="521.262"/><use xlink:href="#J" x="506.684" y="521.262"/><use xlink:href="#K" x="514.613" y="521.262"/><use xlink:href="#B" x="522.055" y="521.262"/><use xlink:href="#D" x="529.965" y="521.262"/><use xlink:href="#L" x="534.906" y="521.262"/><use xlink:href="#M" x="538.813" y="521.262"/><use xlink:href="#I" x="545.219" y="521.262"/><use xlink:href="#D" x="552.426" y="521.262"/><use xlink:href="#L" x="557.367" y="521.262"/><use xlink:href="#C" x="561.273" y="521.262"/><use xlink:href="#B" x="569.047" y="521.262"/><use xlink:href="#Y" x="576.957" y="521.262"/><use xlink:href="#Z" x="584.672" y="521.262"/><use xlink:href="#M" x="591.781" y="521.262"/><use xlink:href="#K" x="597.895" y="521.262"/><use xlink:href="#P" x="605.336" y="521.262"/><use xlink:href="#D" x="613.168" y="521.262"/><use xlink:href="#L" x="618.109" y="521.262"/><use xlink:href="#C" x="622.016" y="521.262"/><use xlink:href="#B" x="629.789" y="521.262"/></g><path d="M271.691 599.004a6.003 6.003 0 0 0 6 6M271.691 569.672v29.332M420.848 611.004a6 6 0 0 0-6-6M277.691 605.004h137.157M420.848 611.004V780.66" fill="none" stroke-width="2" stroke-linejoin="round" stroke="#000" stroke-miterlimit="10"/><path d="M415.848 780.66l5 10 5-10zm0 0" fill-rule="evenodd" stroke-width="2" stroke="#000" stroke-miterlimit="10"/><path d="M322.195 621.285h194.899v45.977H322.195zm0 0" fill-rule="evenodd" fill="#fff"/><g><use xlink:href="#I" x="322.418" y="639.684"/><use xlink:href="#B" x="329.625" y="639.684"/><use xlink:href="#aa" x="337.535" y="639.684"/><use xlink:href="#E" x="343.824" y="639.684"/><use xlink:href="#ab" x="347.555" y="639.684"/><use xlink:href="#I" x="354.547" y="639.684"/><use xlink:href="#G" x="361.754" y="639.684"/><use xlink:href="#F" x="365.953" y="639.684"/><use xlink:href="#K" x="373.766" y="639.684"/><use xlink:href="#E" x="381.207" y="639.684"/><use xlink:href="#Q" x="385.016" y="639.684"/><use xlink:href="#L" x="392.809" y="639.684"/><use xlink:href="#V" x="396.715" y="639.684"/><use xlink:href="#V" x="401.344" y="639.684"/><use xlink:href="#K" x="405.855" y="639.684"/><use xlink:href="#T" x="413.297" y="639.684"/><use xlink:href="#K" x="418.238" y="639.684"/><use xlink:href="#B" x="425.68" y="639.684"/><use xlink:href="#D" x="433.59" y="639.684"/><use xlink:href="#E" x="438.531" y="639.684"/><use xlink:href="#V" x="442.34" y="639.684"/><use xlink:href="#T" x="446.969" y="639.684"/><use xlink:href="#C" x="451.91" y="639.684"/><use xlink:href="#ac" x="459.684" y="639.684"/><use xlink:href="#E" x="471.402" y="639.684"/><use xlink:href="#D" x="475.211" y="639.684"/><use xlink:href="#T" x="480.152" y="639.684"/><use xlink:href="#F" x="485.094" y="639.684"/><use xlink:href="#K" x="492.906" y="639.684"/><use xlink:href="#E" x="500.348" y="639.684"/><use xlink:href="#C" x="504.156" y="639.684"/><use xlink:href="#T" x="511.93" y="639.684"/></g><g><use xlink:href="#D" x="323.961" y="662.262"/><use xlink:href="#J" x="328.902" y="662.262"/><use xlink:href="#T" x="336.832" y="662.262"/><use xlink:href="#C" x="341.773" y="662.262"/><use xlink:href="#W" x="349.41" y="662.262"/><use xlink:href="#E" x="359.723" y="662.262"/><use xlink:href="#X" x="363.063" y="662.262"/><use xlink:href="#F" x="371.578" y="662.262"/><use xlink:href="#D" x="379.391" y="662.262"/><use xlink:href="#J" x="384.332" y="662.262"/><use xlink:href="#K" x="392.262" y="662.262"/><use xlink:href="#B" x="399.703" y="662.262"/><use xlink:href="#D" x="407.613" y="662.262"/><use xlink:href="#L" x="412.555" y="662.262"/><use xlink:href="#M" x="416.461" y="662.262"/><use xlink:href="#I" x="422.867" y="662.262"/><use xlink:href="#D" x="430.074" y="662.262"/><use xlink:href="#L" x="435.016" y="662.262"/><use xlink:href="#C" x="438.922" y="662.262"/><use xlink:href="#B" x="446.695" y="662.262"/><use xlink:href="#Y" x="454.605" y="662.262"/><use xlink:href="#Z" x="462.32" y="662.262"/><use xlink:href="#M" x="469.43" y="662.262"/><use xlink:href="#K" x="475.543" y="662.262"/><use xlink:href="#P" x="482.984" y="662.262"/><use xlink:href="#D" x="490.816" y="662.262"/><use xlink:href="#L" x="495.758" y="662.262"/><use xlink:href="#C" x="499.664" y="662.262"/><use xlink:href="#B" x="507.438" y="662.262"/></g><path d="M109.797 624.285h25.2v23.399h-25.2zm0 0" fill-rule="evenodd" fill="#fff"/><g><use xlink:href="#D" x="109.797" y="642.684"/><use xlink:href="#T" x="114.738" y="642.684"/><use xlink:href="#F" x="119.68" y="642.684"/><use xlink:href="#K" x="127.492" y="642.684"/></g><path d="M65.379 736.266H192.98v23.398H65.38zm0 0" fill-rule="evenodd" fill="#fff"/><g><use xlink:href="#ad" x="65.379" y="754.664"/><use xlink:href="#F" x="74.227" y="754.664"/><use xlink:href="#I" x="82.039" y="754.664"/><use xlink:href="#T" x="89.246" y="754.664"/><use xlink:href="#Q" x="94.188" y="754.664"/><use xlink:href="#ae" x="101.98" y="754.664"/><use xlink:href="#C" x="108.191" y="754.664"/><use xlink:href="#O" x="115.965" y="754.664"/><use xlink:href="#K" x="122.801" y="754.664"/><use xlink:href="#B" x="130.242" y="754.664"/><use xlink:href="#U" x="138.152" y="754.664"/><use xlink:href="#B" x="142.352" y="754.664"/><use xlink:href="#D" x="150.262" y="754.664"/><use xlink:href="#K" x="155.086" y="754.664"/><use xlink:href="#T" x="162.527" y="754.664"/><use xlink:href="#V" x="167.469" y="754.664"/><use xlink:href="#I" x="172.098" y="754.664"/><use xlink:href="#M" x="179.305" y="754.664"/><use xlink:href="#K" x="185.418" y="754.664"/></g><path d="M.246 863.883h192.95v45.976H.245zm0 0" fill-rule="evenodd" fill="#fff"/><g><use xlink:href="#af" x="45.258" y="882.281"/><use xlink:href="#K" x="53.207" y="882.281"/><use xlink:href="#N" x="60.648" y="882.281"/><use xlink:href="#P" x="66.723" y="882.281"/><use xlink:href="#C" x="74.555" y="882.281"/><use xlink:href="#B" x="82.328" y="882.281"/><use xlink:href="#N" x="90.238" y="882.281"/><use xlink:href="#K" x="96.313" y="882.281"/><use xlink:href="#E" x="103.754" y="882.281"/><use xlink:href="#C" x="107.563" y="882.281"/><use xlink:href="#T" x="115.336" y="882.281"/><use xlink:href="#E" x="120.277" y="882.281"/><use xlink:href="#B" x="124.086" y="882.281"/><use xlink:href="#F" x="131.996" y="882.281"/><use xlink:href="#G" x="139.809" y="882.281"/><use xlink:href="#G" x="144.008" y="882.281"/></g><g><use xlink:href="#H" x=".531" y="904.859"/><use xlink:href="#L" x="4.73" y="904.859"/><use xlink:href="#V" x="8.637" y="904.859"/><use xlink:href="#E" x="13.266" y="904.859"/><use xlink:href="#T" x="17.074" y="904.859"/><use xlink:href="#K" x="22.016" y="904.859"/><use xlink:href="#ac" x="29.457" y="904.859"/><use xlink:href="#K" x="41.176" y="904.859"/><use xlink:href="#ac" x="48.617" y="904.859"/><use xlink:href="#ag" x="60.336" y="904.859"/><use xlink:href="#K" x="68.148" y="904.859"/><use xlink:href="#T" x="75.59" y="904.859"/><use xlink:href="#ah" x="80.531" y="904.859"/><use xlink:href="#ac" x="86.547" y="904.859"/><use xlink:href="#K" x="98.266" y="904.859"/><use xlink:href="#E" x="105.707" y="904.859"/><use xlink:href="#L" x="109.516" y="904.859"/><use xlink:href="#N" x="113.422" y="904.859"/><use xlink:href="#E" x="119.496" y="904.859"/><use xlink:href="#M" x="123.305" y="904.859"/><use xlink:href="#C" x="129.418" y="904.859"/><use xlink:href="#B" x="137.191" y="904.859"/><use xlink:href="#ai" x="145.102" y="904.859"/><use xlink:href="#aj" x="152.973" y="904.859"/><use xlink:href="#F" x="160.746" y="904.859"/><use xlink:href="#T" x="168.559" y="904.859"/><use xlink:href="#K" x="173.5" y="904.859"/><use xlink:href="#Q" x="180.941" y="904.859"/><use xlink:href="#R" x="188.734" y="904.859"/></g><path d="M369.613 865.215h103.2v23.398h-103.2zm0 0" fill-rule="evenodd" fill="#fff"/><g><use xlink:href="#af" x="369.613" y="883.617"/><use xlink:href="#K" x="377.563" y="883.617"/><use xlink:href="#N" x="385.004" y="883.617"/><use xlink:href="#P" x="391.078" y="883.617"/><use xlink:href="#C" x="398.91" y="883.617"/><use xlink:href="#B" x="406.684" y="883.617"/><use xlink:href="#N" x="414.594" y="883.617"/><use xlink:href="#K" x="420.668" y="883.617"/><use xlink:href="#E" x="428.109" y="883.617"/><use xlink:href="#C" x="431.918" y="883.617"/><use xlink:href="#T" x="439.691" y="883.617"/><use xlink:href="#E" x="444.633" y="883.617"/><use xlink:href="#B" x="448.441" y="883.617"/><use xlink:href="#F" x="456.352" y="883.617"/><use xlink:href="#G" x="464.164" y="883.617"/><use xlink:href="#G" x="468.363" y="883.617"/></g><path d="M73.113 1044.582a6 6 0 0 0 6 6M73.113 1000.531v44.051M79.113 1050.582h110.985" fill="none" stroke-width="2" stroke-linejoin="round" stroke="#000" stroke-dasharray=".1,.1" stroke-miterlimit="10"/><path d="M190.098 1055.582l10-5-10-5zm0 0" fill-rule="evenodd" stroke-width="2" stroke="#000" stroke-miterlimit="10"/><path d="M272.281 73.816v31.301" fill="none" stroke-width="2" stroke="#000" stroke-dasharray=".1,.1" stroke-miterlimit="10"/><path d="M267.281 105.117l5 10 5-10zm0 0" fill-rule="evenodd" stroke-width="2" stroke="#000" stroke-miterlimit="10"/><path d="M201.266 116.117h142.03v55.41h-142.03zm0 0M201.266 122.117v-6c-3.313 0-6 2.688-6 6zm0 0M343.297 122.117h6c0-3.312-2.688-6-6-6zm0 0" fill-rule="evenodd" fill="#fff"/><path d="M195.266 122.117h154.03v43.41h-154.03zm0 0M201.266 165.527h-6c0 3.313 2.687 6 6 6zm0 0M343.297 165.527v6c3.312 0 6-2.687 6-6zm0 0" fill-rule="evenodd" fill="#fff"/><path d="M201.266 116.117h142.03M201.266 171.527h142.03M201.266 116.117c-3.313 0-6 2.688-6 6M349.297 122.117c0-3.312-2.688-6-6-6M195.266 122.117v43.41M349.297 122.117v43.41M195.266 165.527c0 3.313 2.687 6 6 6M343.297 171.527c3.312 0 6-2.687 6-6" fill="none" stroke-width="2" stroke="#000" stroke-miterlimit="10"/><g><use xlink:href="#k" x="242.457" y="151.773"/><use xlink:href="#n" x="249.215" y="151.773"/><use xlink:href="#x" x="257.887" y="151.773"/><use xlink:href="#x" x="266.578" y="151.773"/><use xlink:href="#u" x="275.27" y="151.773"/><use xlink:href="#e" x="283.902" y="151.773"/><use xlink:href="#c" x="289.859" y="151.773"/><use xlink:href="#k" x="295.367" y="151.773"/></g><path d="M272.281 171.527v58.063" fill="none" stroke-width="2" stroke="#000" stroke-miterlimit="10"/><path d="M267.281 229.59l5 10 5-10zm0 0" fill-rule="evenodd" stroke-width="2" stroke="#000" stroke-miterlimit="10"/><path d="M261.855 195.719h25.2v23.398h-25.2zm0 0" fill-rule="evenodd" fill="#fff"/><g><use xlink:href="#D" x="261.855" y="214.117"/><use xlink:href="#T" x="266.797" y="214.117"/><use xlink:href="#F" x="271.738" y="214.117"/><use xlink:href="#K" x="279.551" y="214.117"/></g><path d="M272.281 185.117a6.002 6.002 0 0 0 6 6M272.281 171.527v13.59M658.855 197.117a6.002 6.002 0 0 0-6-6M278.281 191.117h374.574M652.855 1050.582a6 6 0 0 0 6-6M658.855 197.117v847.465M652.855 1050.582H351.684" fill="none" stroke-width="2" stroke-linejoin="round" stroke="#000" stroke-dasharray=".1,.1" stroke-miterlimit="10"/><path d="M351.684 1045.582l-10 5 10 5zm0 0" fill-rule="evenodd" stroke-width="2" stroke="#000" stroke-miterlimit="10"/><path d="M371.656 168.426h164.399v45.976H371.656zm0 0" fill-rule="evenodd" fill="#fff"/><g><use xlink:href="#V" x="439.09" y="186.828"/><use xlink:href="#I" x="443.719" y="186.828"/><use xlink:href="#G" x="450.926" y="186.828"/><use xlink:href="#N" x="455.125" y="186.828"/><use xlink:href="#K" x="461.199" y="186.828"/></g><g><use xlink:href="#H" x="371.805" y="209.402"/><use xlink:href="#I" x="376.004" y="209.402"/><use xlink:href="#F" x="383.211" y="209.402"/><use xlink:href="#D" x="391.023" y="209.402"/><use xlink:href="#J" x="395.965" y="209.402"/><use xlink:href="#K" x="403.895" y="209.402"/><use xlink:href="#B" x="411.336" y="209.402"/><use xlink:href="#D" x="419.246" y="209.402"/><use xlink:href="#L" x="424.188" y="209.402"/><use xlink:href="#M" x="428.094" y="209.402"/><use xlink:href="#I" x="434.5" y="209.402"/><use xlink:href="#D" x="441.707" y="209.402"/><use xlink:href="#L" x="446.648" y="209.402"/><use xlink:href="#C" x="450.555" y="209.402"/><use xlink:href="#B" x="458.328" y="209.402"/><use xlink:href="#E" x="466.238" y="209.402"/><use xlink:href="#L" x="470.047" y="209.402"/><use xlink:href="#N" x="473.953" y="209.402"/><use xlink:href="#E" x="480.027" y="209.402"/><use xlink:href="#N" x="483.836" y="209.402"/><use xlink:href="#O" x="489.91" y="209.402"/><use xlink:href="#L" x="496.902" y="209.402"/><use xlink:href="#P" x="500.809" y="209.402"/><use xlink:href="#P" x="508.641" y="209.402"/><use xlink:href="#K" x="516.473" y="209.402"/><use xlink:href="#Q" x="523.914" y="209.402"/><use xlink:href="#R" x="531.707" y="209.402"/></g><path d="M209.871 896.535a6 6 0 0 0 6 6M209.871 847.43v49.105M270.89 908.535c0-3.312-2.687-6-6-6M215.871 902.535h49.02M270.89 908.535v107.598" fill="none" stroke-width="2" stroke-linejoin="round" stroke="#000" stroke-miterlimit="10"/><path d="M265.89 1016.133l5 10 5-10zm0 0" fill-rule="evenodd" stroke-width="2" stroke="#000" stroke-miterlimit="10"/><path d="M191.234 863.8h103.2v23.4h-103.2zm0 0" fill-rule="evenodd" fill="#fff"/><g><use xlink:href="#af" x="191.234" y="882.199"/><use xlink:href="#K" x="199.184" y="882.199"/><use xlink:href="#N" x="206.625" y="882.199"/><use xlink:href="#P" x="212.699" y="882.199"/><use xlink:href="#C" x="220.531" y="882.199"/><use xlink:href="#B" x="228.305" y="882.199"/><use xlink:href="#N" x="236.215" y="882.199"/><use xlink:href="#K" x="242.289" y="882.199"/><use xlink:href="#E" x="249.73" y="882.199"/><use xlink:href="#C" x="253.539" y="882.199"/><use xlink:href="#T" x="261.313" y="882.199"/><use xlink:href="#E" x="266.254" y="882.199"/><use xlink:href="#B" x="270.063" y="882.199"/><use xlink:href="#F" x="277.973" y="882.199"/><use xlink:href="#G" x="285.785" y="882.199"/><use xlink:href="#G" x="289.984" y="882.199"/></g></svg>
