<svg xmlns="http://www.w3.org/2000/svg" xmlns:xlink="http://www.w3.org/1999/xlink" width="600" viewBox="0 0 642 542"><defs><symbol overflow="visible" id="a"><path d="M1.281-13.86a9.944 9.944 0 0 1 1.438-.218c.531-.05 1.02-.078 1.469-.078.507 0 1 .062 1.468.187.469.125.875.34 1.219.64.352.306.629.7.828 1.188.207.48.313 1.09.313 1.829 0 1.105-.23 1.992-.688 2.656A3.328 3.328 0 0 1 5.5-6.313l.766.735L9.016 0H7.28l-3-6.094-1.5-.312V0h-1.5zm1.5 6.454h1.203c.758 0 1.36-.227 1.797-.688.438-.469.657-1.18.657-2.14 0-.739-.184-1.348-.547-1.829-.368-.476-.907-.718-1.625-.718-.274 0-.555.011-.844.031a3.876 3.876 0 0 0-.64.094zm0 0"/></symbol><symbol overflow="visible" id="b"><path d="M7.156-.688c-.312.305-.718.532-1.218.688a5.128 5.128 0 0 1-1.563.234c-.625 0-1.168-.12-1.625-.359-.46-.25-.84-.602-1.14-1.063-.305-.457-.528-1.003-.673-1.64A10.503 10.503 0 0 1 .734-5c0-1.707.313-3.004.938-3.89.633-.895 1.523-1.344 2.672-1.344.375 0 .742.046 1.11.14.362.094.69.281.984.563.289.273.523.664.703 1.172.187.511.28 1.171.28 1.984 0 .219-.01.46-.03.719-.024.261-.047.531-.079.812H2.234c0 .574.047 1.094.141 1.563.094.469.238.87.438 1.203.207.324.468.574.78.75.313.18.704.266 1.173.266.351 0 .707-.063 1.062-.188.352-.133.625-.297.813-.484zm-1.11-5.359c.02-1-.124-1.726-.437-2.187-.304-.47-.718-.704-1.25-.704-.617 0-1.105.235-1.468.704-.356.46-.563 1.187-.625 2.187zm0 0"/></symbol><symbol overflow="visible" id="c"><path d="M6.703-.5a3.32 3.32 0 0 1-1.14.547c-.43.125-.875.187-1.344.187-.637 0-1.18-.12-1.625-.359A2.859 2.859 0 0 1 1.53-1.188c-.273-.457-.476-1.007-.61-1.656A11.366 11.366 0 0 1 .735-5c0-1.707.301-3.004.907-3.89.613-.895 1.488-1.344 2.625-1.344.52 0 .96.046 1.328.14.375.094.695.215.968.36l-.406 1.25a3.462 3.462 0 0 0-1.734-.454c-.719 0-1.266.32-1.64.954-.368.625-.548 1.62-.548 2.984 0 .543.04 1.059.125 1.547.082.48.22.898.407 1.25.187.344.425.621.718.828.29.21.657.313 1.094.313.344 0 .664-.055.969-.172.3-.125.547-.266.734-.422zm0 0"/></symbol><symbol overflow="visible" id="d"><path d="M1.422-10h1.437V0H1.422zm-.266-3.047c0-.312.086-.566.266-.765a.926.926 0 0 1 .719-.313.96.96 0 0 1 .718.297c.196.187.297.45.297.781 0 .324-.101.578-.297.766-.187.18-.43.265-.718.265a.971.971 0 0 1-.72-.28c-.179-.188-.265-.438-.265-.75zm0 0"/></symbol><symbol overflow="visible" id="e"><path d="M3.594-4.14L4-2.157h.047l.36-2.031L6.156-10h1.53L4.267.219h-.704L.079-10h1.64zm0 0"/></symbol><symbol overflow="visible" id="f"><path d="M1.188-10h1.015l.25 1.063h.063c.187-.383.43-.688.734-.907.3-.226.664-.344 1.094-.344.3 0 .644.063 1.031.188l-.281 1.453a2.973 2.973 0 0 0-.907-.172c-.43 0-.777.125-1.046.375-.274.242-.446.57-.516.985V0H1.187zm0 0"/></symbol><symbol overflow="visible" id="g"><path d="M8.219-10.813c0 .344-.043.688-.125 1.032-.074.344-.2.672-.375.984-.18.305-.399.574-.657.813a2.42 2.42 0 0 1-.937.546v.079c.313.062.613.171.906.328.301.156.563.37.782.64.226.274.41.606.546 1 .133.399.204.868.204 1.407 0 .718-.118 1.343-.344 1.875-.23.53-.543.964-.938 1.296-.386.336-.84.579-1.36.735a5.541 5.541 0 0 1-1.624.234H3.64c-.243 0-.5-.011-.782-.031a25.977 25.977 0 0 1-.828-.078 4.932 4.932 0 0 1-.75-.14v-13.782c.395-.082.864-.148 1.407-.203.539-.05 1.124-.078 1.75-.078.457 0 .91.043 1.359.125.457.086.863.246 1.219.484.363.242.656.578.875 1.016.218.437.328 1.011.328 1.719zM4.422-1.219c.351 0 .68-.054.984-.172.313-.113.582-.28.813-.5a2.43 2.43 0 0 0 .562-.828c.133-.332.203-.719.203-1.156 0-.55-.086-.992-.25-1.328A2.029 2.029 0 0 0 6.078-6a2.21 2.21 0 0 0-.906-.375 5.234 5.234 0 0 0-1.047-.11H2.781v5.126c.082.03.188.054.313.062.125.012.258.027.406.047.156.012.313.023.469.031h.453zM3.594-7.78c.187 0 .398-.004.64-.016a4.08 4.08 0 0 0 .61-.062 3.05 3.05 0 0 0 1.265-.97c.352-.444.532-1 .532-1.655 0-.438-.063-.805-.188-1.11a1.651 1.651 0 0 0-.484-.703c-.211-.176-.453-.3-.735-.375a3.604 3.604 0 0 0-.875-.11c-.343 0-.656.012-.937.032-.281.023-.496.043-.64.063v4.906zm0 0"/></symbol><symbol overflow="visible" id="h"><path d="M2.484-10v6.125c0 1.012.098 1.734.297 2.172.207.43.586.64 1.14.64.282 0 .532-.054.75-.171.22-.114.411-.258.579-.438.176-.187.332-.398.469-.64.133-.25.242-.5.328-.75V-10h1.437v7.156c0 .48.016.98.047 1.5.032.512.082.961.157 1.344H6.655l-.36-1.406h-.062c-.218.449-.543.836-.968 1.156-.43.32-.965.484-1.61.484-.43 0-.804-.054-1.125-.156A1.725 1.725 0 0 1 1.72-.5c-.23-.281-.403-.66-.516-1.14-.105-.489-.156-1.114-.156-1.876V-10zm0 0"/></symbol><symbol overflow="visible" id="i"><path d="M1.016-1.64a4.6 4.6 0 0 0 .953.406c.363.117.738.171 1.125.171.445 0 .82-.109 1.125-.328.312-.218.468-.57.468-1.062 0-.414-.093-.754-.28-1.016a3.06 3.06 0 0 0-.72-.719 6.653 6.653 0 0 0-.921-.593 5.605 5.605 0 0 1-.938-.657 3.284 3.284 0 0 1-.703-.89C.937-6.68.844-7.125.844-7.656c0-.852.226-1.492.687-1.922.457-.438 1.11-.656 1.953-.656.54 0 1.008.054 1.407.156.406.094.754.226 1.046.39l-.375 1.204a4.009 4.009 0 0 0-.875-.329 4.333 4.333 0 0 0-1.03-.124c-.481 0-.829.101-1.048.296-.218.2-.328.512-.328.938 0 .336.094.621.281.86.188.23.422.445.704.64.289.187.601.387.937.594.332.199.64.433.922.703.29.273.531.601.719.984.187.375.281.852.281 1.422 0 .375-.063.73-.188 1.063a2.273 2.273 0 0 1-.546.875c-.25.242-.559.433-.922.578a3.478 3.478 0 0 1-1.282.218c-.593 0-1.105-.058-1.53-.172-.43-.101-.79-.25-1.079-.437zm0 0"/></symbol><symbol overflow="visible" id="j"><path d="M7.938-6.453H2.78V0h-1.5v-14h1.5v6.156h5.156V-14h1.5V0h-1.5zm0 0"/></symbol><symbol overflow="visible" id="k"><path d="M1.078-9.406c.383-.239.852-.422 1.406-.547a7.435 7.435 0 0 1 1.75-.203c.563 0 1.008.086 1.344.25.344.168.613.398.813.687.195.281.32.606.375.969.062.367.093.75.093 1.156 0 .793-.015 1.57-.046 2.328a53.04 53.04 0 0 0-.047 2.172c0 .5.015.969.046 1.406.032.43.094.84.188 1.235H5.906l-.343-1.188h-.079a2.73 2.73 0 0 1-.89.907C4.207.016 3.69.14 3.047.14c-.73 0-1.324-.25-1.781-.75-.461-.5-.688-1.192-.688-2.079 0-.57.094-1.05.281-1.437.196-.383.473-.695.829-.938a3.346 3.346 0 0 1 1.265-.5 7.995 7.995 0 0 1 1.625-.156h.406c.133 0 .274.008.422.016.032-.406.047-.77.047-1.094 0-.758-.117-1.289-.344-1.594-.218-.312-.632-.468-1.234-.468a4.89 4.89 0 0 0-1.219.171 4.705 4.705 0 0 0-1.094.422zm4.344 4.844c-.137-.008-.274-.016-.406-.016-.137-.008-.266-.016-.391-.016-.324 0-.64.028-.953.078a2.594 2.594 0 0 0-.813.282 1.485 1.485 0 0 0-.578.53c-.136.231-.203.517-.203.86 0 .531.129.95.39 1.25.259.293.598.438 1.016.438.551 0 .977-.13 1.282-.39.312-.27.53-.567.656-.891zm0 0"/></symbol><symbol overflow="visible" id="l"><path d="M6.297 0v-6.094c0-1-.121-1.722-.36-2.172-.23-.445-.64-.671-1.234-.671-.531 0-.976.164-1.328.484a2.71 2.71 0 0 0-.75 1.172V0H1.187v-10H2.22l.265 1.063h.063a3.1 3.1 0 0 1 1.015-.922c.438-.25.958-.375 1.563-.375.426 0 .8.062 1.125.187.32.117.594.32.813.61.226.28.394.664.5 1.14.113.48.171 1.086.171 1.813V0zm0 0"/></symbol><symbol overflow="visible" id="m"><path d="M7.484-3.438c0 .68.004 1.293.016 1.844.008.555.055 1.102.14 1.64h-.984l-.312-1.202h-.078c-.188.398-.485.73-.891 1-.398.258-.875.39-1.438.39-1.085 0-1.89-.414-2.421-1.25C.992-1.859.734-3.18.734-4.984c0-1.707.32-3 .97-3.875.655-.883 1.546-1.329 2.671-1.329.383 0 .691.028.922.079.226.043.476.12.75.234V-14h1.437zM6.047-8.421a1.848 1.848 0 0 0-.64-.344c-.231-.07-.54-.109-.923-.109-.71 0-1.261.324-1.656.969-.398.636-.594 1.62-.594 2.953 0 .586.036 1.117.11 1.594.07.468.187.875.344 1.218.156.344.351.61.593.797.25.188.555.282.922.282.957 0 1.57-.567 1.844-1.704zm0 0"/></symbol><symbol overflow="visible" id="n"><path d="M2.719-2.375c0 .46.062.793.187 1 .125.2.301.297.531.297.282 0 .61-.07.985-.219l.14 1.156c-.18.106-.421.188-.734.25-.312.07-.594.11-.844.11-.511 0-.921-.157-1.234-.469-.313-.313-.469-.863-.469-1.656V-14H2.72zm0 0"/></symbol><symbol overflow="visible" id="o"><path d="M.734-5c0-1.8.305-3.125.922-3.969.625-.844 1.508-1.265 2.657-1.265 1.226 0 2.132.433 2.718 1.296.582.868.875 2.18.875 3.938 0 1.813-.32 3.14-.953 3.984-.625.836-1.508 1.25-2.64 1.25-1.22 0-2.122-.43-2.704-1.296C1.023-1.926.734-3.239.734-5zm1.5 0c0 .586.036 1.117.11 1.594.07.48.191.898.36 1.25.163.344.382.617.655.812.27.188.586.282.954.282.695 0 1.218-.305 1.562-.922.352-.625.531-1.63.531-3.016 0-.57-.039-1.098-.11-1.578a4.47 4.47 0 0 0-.359-1.25c-.167-.352-.386-.625-.656-.813a1.62 1.62 0 0 0-.968-.296c-.68 0-1.196.312-1.547.937-.356.625-.532 1.625-.532 3zm0 0"/></symbol><symbol overflow="visible" id="p"><path d="M1.188-10h1.015l.219 1.078H2.5c.488-.875 1.258-1.312 2.313-1.312 1.062 0 1.851.398 2.375 1.187.53.781.796 2.063.796 3.844 0 .844-.09 1.605-.265 2.281-.18.668-.43 1.242-.75 1.719A3.27 3.27 0 0 1 5.812-.125c-.46.238-.968.36-1.53.36-.387 0-.696-.028-.923-.079a2.43 2.43 0 0 1-.734-.281V4H1.187zm1.437 8.422c.188.156.395.281.625.375.227.094.54.14.938.14.695 0 1.253-.359 1.671-1.078.414-.718.625-1.742.625-3.078 0-.562-.039-1.066-.109-1.515a4.02 4.02 0 0 0-.36-1.172 1.925 1.925 0 0 0-.609-.766c-.242-.176-.543-.265-.906-.265-.969 0-1.594.593-1.875 1.78zm0 0"/></symbol><symbol overflow="visible" id="r"><path d="M1.875-1.344h2.266v-9.734l.171-1.188-.671.97-1.688 1.358-.75-.906 3.64-3.39h.735v12.89h2.188V0H1.875zm0 0"/></symbol><symbol overflow="visible" id="s"><path d="M1.188-1.86c.25.18.601.344 1.062.5.457.15.977.22 1.563.22.75 0 1.359-.18 1.828-.548.468-.363.703-.94.703-1.734 0-.52-.137-.973-.407-1.36a4.904 4.904 0 0 0-1-1.062 15.135 15.135 0 0 0-1.296-.968 10 10 0 0 1-1.282-1.032 5.407 5.407 0 0 1-1-1.312c-.273-.5-.406-1.094-.406-1.781 0-1.126.336-1.954 1.016-2.485.676-.539 1.55-.812 2.625-.812.664 0 1.258.062 1.781.187.52.117.941.266 1.266.453l-.485 1.313c-.242-.145-.586-.274-1.031-.39a5.786 5.786 0 0 0-1.547-.188c-.719 0-1.258.18-1.61.53-.343.356-.515.798-.515 1.329 0 .469.133.887.406 1.25.27.355.602.695 1 1.016.395.312.82.636 1.282.968a8.9 8.9 0 0 1 1.296 1.094c.407.399.739.852 1 1.36.27.5.407 1.101.407 1.796 0 1.168-.352 2.086-1.047 2.75-.688.668-1.668 1-2.938 1C3.055.234 2.4.16 1.891.016 1.379-.13.969-.297.656-.484zm0 0"/></symbol><symbol overflow="visible" id="t"><path d="M6.656-3.922H2.703L1.578 0H.094l4.218-14.219h.829L9.359 0H7.797zM3.094-5.266h3.203L5.078-9.578l-.375-2.11h-.047l-.375 2.141zm0 0"/></symbol><symbol overflow="visible" id="u"><path d="M.188-10h1.218v-1.984l1.438-.454V-10H5v1.297H2.844v5.969c0 .586.066 1.007.203 1.265.144.262.375.39.687.39.27 0 .5-.03.688-.093.195-.062.41-.14.64-.234l.282 1.14a4.299 4.299 0 0 1-.969.344 4.34 4.34 0 0 1-1.11.14c-.667 0-1.148-.214-1.437-.64-.281-.437-.422-1.144-.422-2.125v-6.156H.188zm0 0"/></symbol><symbol overflow="visible" id="v"><path d="M7.36-10.938c0 .731-.11 1.497-.329 2.297-.218.805-.5 1.594-.843 2.375a19.589 19.589 0 0 1-1.141 2.25c-.418.72-.828 1.36-1.234 1.922l-.797.875v.063l1.062-.188h3.5V0H1.094v-.64c.258-.301.554-.688.89-1.157.332-.469.676-.976 1.032-1.531.351-.55.695-1.133 1.03-1.75.345-.625.645-1.254.907-1.89.27-.645.488-1.282.656-1.907.164-.625.25-1.227.25-1.813 0-.675-.156-1.21-.468-1.609-.313-.406-.774-.61-1.375-.61a3.02 3.02 0 0 0-1.125.22 3.349 3.349 0 0 0-.954.53l-.562-1.062c.363-.32.805-.57 1.328-.75a5.085 5.085 0 0 1 1.64-.265c.977 0 1.723.304 2.235.906.52.605.781 1.402.781 2.39zm0 0"/></symbol></defs><path fill="#fff" d="M0 0h642v542H0z"/><path d="M1 1h640v540H1zm0 0" fill-rule="evenodd" fill="#fff" stroke-width="2" stroke="#fff" stroke-miterlimit="10"/><path d="M65.57 221h83.239v63.707H65.57zm0 0M65.57 227v-6c-3.312 0-6 2.688-6 6zm0 0M148.809 227h6c0-3.313-2.684-6-6-6zm0 0" fill-rule="evenodd" fill="#fddfbb"/><path d="M59.57 227h95.239v51.707H59.57zm0 0M65.57 278.707h-6c0 3.313 2.688 6 6 6zm0 0M148.809 278.707v6c3.316 0 6-2.687 6-6zm0 0" fill-rule="evenodd" fill="#fddfbb"/><path d="M65.57 221h83.239M65.57 284.707h83.239M65.57 221c-3.312 0-6 2.687-6 6M154.809 227a6 6 0 0 0-6-6M59.57 227v51.707M154.809 227v51.707M59.57 278.707c0 3.313 2.688 6 6 6M148.809 284.707a6 6 0 0 0 6-6" fill="none" stroke-width="2" stroke="#000" stroke-miterlimit="10"/><use xlink:href="#a" x="78.246" y="260.805"/><use xlink:href="#b" x="87.094" y="260.805"/><use xlink:href="#c" x="95.219" y="260.805"/><use xlink:href="#b" x="102.035" y="260.805"/><use xlink:href="#d" x="110.297" y="260.805"/><use xlink:href="#e" x="114.633" y="260.805"/><use xlink:href="#b" x="122.387" y="260.805"/><use xlink:href="#f" x="130.648" y="260.805"/><path d="M207 221h228v63.707H207zm0 0M207 227v-6c-3.313 0-6 2.688-6 6zm0 0M435 227h6c0-3.313-2.688-6-6-6zm0 0" fill-rule="evenodd" fill="#fddfbb"/><path d="M201 227h240v51.707H201zm0 0M207 278.707h-6c0 3.313 2.688 6 6 6zm0 0M435 278.707v6c3.313 0 6-2.687 6-6zm0 0" fill-rule="evenodd" fill="#fddfbb"/><path d="M207 221h228M207 284.707h228M207 221c-3.312 0-6 2.687-6 6M441 227c0-3.312-2.687-6-6-6M201 227v51.707M441 227v51.707M201 278.707c0 3.313 2.687 6 6 6M435 284.707c3.312 0 6-2.687 6-6" fill="none" stroke-width="2" stroke="#000" stroke-miterlimit="10"/><use xlink:href="#g" x="308.578" y="260.805"/><use xlink:href="#h" x="317.992" y="260.805"/><use xlink:href="#i" x="326.664" y="260.805"/><path d="M169.555 441h123.238v63.707H169.555zm0 0M169.555 447v-6c-3.313 0-6 2.688-6 6zm0 0M292.793 447h6c0-3.313-2.688-6-6-6zm0 0" fill-rule="evenodd" fill="#b2d4eb"/><path d="M163.555 447h135.238v51.707H163.555zm0 0M169.555 498.707h-6c0 3.313 2.687 6 6 6zm0 0M292.793 498.707v6c3.312 0 6-2.687 6-6zm0 0" fill-rule="evenodd" fill="#b2d4eb"/><path d="M169.555 441h123.238M169.555 504.707h123.238M169.555 441c-3.313 0-6 2.687-6 6M298.793 447c0-3.312-2.688-6-6-6M163.555 447v51.707M298.793 447v51.707M163.555 498.707c0 3.313 2.687 6 6 6M292.793 504.707c3.312 0 6-2.687 6-6" fill="none" stroke-width="2" stroke="#000" stroke-miterlimit="10"/><use xlink:href="#j" x="203.887" y="480.805"/><use xlink:href="#k" x="214.609" y="480.805"/><use xlink:href="#l" x="222.617" y="480.805"/><use xlink:href="#m" x="231.406" y="480.805"/><use xlink:href="#n" x="240.059" y="480.805"/><use xlink:href="#b" x="244.727" y="480.805"/><use xlink:href="#f" x="252.988" y="480.805"/><path d="M107.191 176.852V210" fill="none" stroke-width="2" stroke="#000" stroke-miterlimit="10"/><path d="M102.191 210l5 10 5-10zm0 0" fill-rule="evenodd" stroke-width="2" stroke="#000" stroke-miterlimit="10"/><path d="M154.809 252.852H190" fill="none" stroke-width="2" stroke="#000" stroke-miterlimit="10"/><path d="M190 257.852l10-5-10-5zm0 0" fill-rule="evenodd" stroke-width="2" stroke="#000" stroke-miterlimit="10"/><path d="M441 252.852h49" fill="none" stroke-width="2" stroke="#000" stroke-miterlimit="10"/><path d="M490 257.852l10-5-10-5zm0 0" fill-rule="evenodd" stroke-width="2" stroke="#000" stroke-miterlimit="10"/><path d="M127.191 58.074c0 11.047-8.957 20-20 20-11.046 0-20-8.953-20-20 0-11.043 8.954-20 20-20 11.043 0 20 8.957 20 20" fill-rule="evenodd" fill="#b2d4eb" stroke-width="2" stroke="#000" stroke-miterlimit="10"/><path d="M57.191 123.992h100v51.785c-20-8.632-30-8.632-50 0-20 8.63-30 8.63-50 0v-51.785" fill-rule="evenodd" fill="#f2f2f2" stroke-width="2" stroke="#000" stroke-miterlimit="10"/><use xlink:href="#b" x="68.91" y="153.188"/><use xlink:href="#l" x="77.172" y="153.188"/><use xlink:href="#e" x="85.961" y="153.188"/><use xlink:href="#b" x="93.715" y="153.188"/><use xlink:href="#n" x="101.977" y="153.188"/><use xlink:href="#o" x="106.645" y="153.188"/><use xlink:href="#p" x="115.277" y="153.188"/><use xlink:href="#b" x="123.969" y="153.188"/><use xlink:href="#q" x="132.23" y="153.188"/><use xlink:href="#r" x="136.469" y="153.188"/><path d="M507 221h83.238v63.707H507zm0 0M507 227v-6c-3.313 0-6 2.688-6 6zm0 0M590.238 227h6c0-3.313-2.687-6-6-6zm0 0" fill-rule="evenodd" fill="#fddfbb"/><path d="M501 227h95.238v51.707H501zm0 0M507 278.707h-6c0 3.313 2.688 6 6 6zm0 0M590.238 278.707v6c3.313 0 6-2.687 6-6zm0 0" fill-rule="evenodd" fill="#fddfbb"/><path d="M507 221h83.238M507 284.707h83.238M507 221c-3.312 0-6 2.687-6 6M596.238 227c0-3.312-2.687-6-6-6M501 227v51.707M596.238 227v51.707M501 278.707c0 3.313 2.687 6 6 6M590.238 284.707c3.313 0 6-2.687 6-6" fill="none" stroke-width="2" stroke="#000" stroke-miterlimit="10"/><use xlink:href="#s" x="524.617" y="260.805"/><use xlink:href="#b" x="533.172" y="260.805"/><use xlink:href="#l" x="541.434" y="260.805"/><use xlink:href="#m" x="550.223" y="260.805"/><use xlink:href="#b" x="558.875" y="260.805"/><use xlink:href="#f" x="567.137" y="260.805"/><path d="M107.191 78.074v34.918" fill="none" stroke-width="2" stroke="#000" stroke-miterlimit="10"/><path d="M102.191 112.992l5 10 5-10zm0 0" fill-rule="evenodd" stroke-width="2" stroke="#000" stroke-miterlimit="10"/><path d="M346.148 441h123.239v63.707H346.148zm0 0M346.148 447v-6c-3.312 0-6 2.688-6 6zm0 0" fill-rule="evenodd" fill="#b2d4eb"/><path d="M469.387 447h6c0-3.313-2.688-6-6-6zm0 0M340.148 447h135.239v51.707H340.148zm0 0M346.148 498.707h-6c0 3.313 2.688 6 6 6zm0 0M469.387 498.707v6c3.312 0 6-2.687 6-6zm0 0" fill-rule="evenodd" fill="#b2d4eb"/><path d="M346.148 441h123.239M346.148 504.707h123.239M346.148 441c-3.312 0-6 2.687-6 6M475.387 447c0-3.312-2.688-6-6-6M340.148 447v51.707M475.387 447v51.707M340.148 498.707c0 3.313 2.688 6 6 6M469.387 504.707c3.312 0 6-2.687 6-6" fill="none" stroke-width="2" stroke="#000" stroke-miterlimit="10"/><g><use xlink:href="#t" x="368.645" y="480.805"/><use xlink:href="#p" x="378.098" y="480.805"/><use xlink:href="#p" x="386.789" y="480.805"/><use xlink:href="#n" x="395.48" y="480.805"/><use xlink:href="#d" x="400.148" y="480.805"/><use xlink:href="#c" x="404.484" y="480.805"/><use xlink:href="#k" x="411.613" y="480.805"/><use xlink:href="#u" x="419.621" y="480.805"/><use xlink:href="#d" x="425.129" y="480.805"/><use xlink:href="#o" x="429.465" y="480.805"/><use xlink:href="#l" x="438.098" y="480.805"/></g><path d="M407.77 441l-.344-145.293" fill="none" stroke-width="2" stroke="#000" stroke-miterlimit="10"/><path d="M412.426 295.695l-5.028-9.988-4.972 10.012zm0 0" fill-rule="evenodd" stroke-width="2" stroke="#000" stroke-miterlimit="10"/><path d="M231.195 284.707L231.175 430" fill="none" stroke-width="2" stroke="#000" stroke-miterlimit="10"/><path d="M226.176 430l5 10 5-10zm0 0" fill-rule="evenodd" stroke-width="2" stroke="#000" stroke-miterlimit="10"/><path d="M548.957 187.496L548.621 221" fill="none" stroke-width="2" stroke="#000" stroke-miterlimit="10"/><path d="M553.957 187.547l-4.898-10.05-5.102 9.948zm0 0" fill-rule="evenodd" stroke-width="2" stroke="#000" stroke-miterlimit="10"/><path d="M569.297 57.64c0 11.047-8.957 20-20 20-11.047 0-20-8.953-20-20 0-11.046 8.953-20 20-20 11.043 0 20 8.954 20 20" fill-rule="evenodd" fill="#b2d4eb" stroke-width="2" stroke="#000" stroke-miterlimit="10"/><path d="M499.297 123.555h100v51.78c-20-8.628-30-8.628-50 0-20 8.634-30 8.634-50 0v-51.78" fill-rule="evenodd" fill="#f2f2f2" stroke-width="2" stroke="#000" stroke-miterlimit="10"/><g><use xlink:href="#b" x="511.016" y="152.75"/><use xlink:href="#l" x="519.277" y="152.75"/><use xlink:href="#e" x="528.066" y="152.75"/><use xlink:href="#b" x="535.82" y="152.75"/><use xlink:href="#n" x="544.082" y="152.75"/><use xlink:href="#o" x="548.75" y="152.75"/><use xlink:href="#p" x="557.383" y="152.75"/><use xlink:href="#b" x="566.074" y="152.75"/><use xlink:href="#q" x="574.336" y="152.75"/><use xlink:href="#v" x="578.574" y="152.75"/></g><path d="M549.297 88.64v34.915" fill="none" stroke-width="2" stroke="#000" stroke-miterlimit="10"/><path d="M554.297 88.64l-5-10-5 10zm0 0" fill-rule="evenodd" stroke-width="2" stroke="#000" stroke-miterlimit="10"/><path d="M21 317.594h600" fill="none" stroke-width="2" stroke="#000" stroke-dasharray=".1,.1" stroke-miterlimit="10"/><path d="M181 345.258h100v51.785c-20-8.633-30-8.633-50 0-20 8.629-30 8.629-50 0v-51.785" fill-rule="evenodd" fill="#f2f2f2" stroke-width="2" stroke="#000" stroke-miterlimit="10"/><g><use xlink:href="#b" x="192.719" y="374.453"/><use xlink:href="#l" x="200.98" y="374.453"/><use xlink:href="#e" x="209.77" y="374.453"/><use xlink:href="#b" x="217.523" y="374.453"/><use xlink:href="#n" x="225.785" y="374.453"/><use xlink:href="#o" x="230.453" y="374.453"/><use xlink:href="#p" x="239.086" y="374.453"/><use xlink:href="#b" x="247.777" y="374.453"/><use xlink:href="#q" x="256.039" y="374.453"/><use xlink:href="#r" x="260.277" y="374.453"/></g><path d="M356.742 345.258h100v51.785c-20-8.633-30-8.633-50 0-20 8.629-30 8.629-50 0v-51.785" fill-rule="evenodd" fill="#f2f2f2" stroke-width="2" stroke="#000" stroke-miterlimit="10"/><g><use xlink:href="#b" x="368.461" y="374.453"/><use xlink:href="#l" x="376.723" y="374.453"/><use xlink:href="#e" x="385.512" y="374.453"/><use xlink:href="#b" x="393.266" y="374.453"/><use xlink:href="#n" x="401.527" y="374.453"/><use xlink:href="#o" x="406.195" y="374.453"/><use xlink:href="#p" x="414.828" y="374.453"/><use xlink:href="#b" x="423.52" y="374.453"/><use xlink:href="#q" x="431.781" y="374.453"/><use xlink:href="#v" x="436.02" y="374.453"/></g></svg>
