<svg xmlns="http://www.w3.org/2000/svg" xmlns:xlink="http://www.w3.org/1999/xlink" width="600" viewBox="0 0 642 542"><defs><symbol id="a" overflow="visible"><path d="M10.047-10.125c-.086-.906-.418-1.586-1-2.047-.574-.457-1.402-.687-2.485-.687-.98 0-1.777.183-2.39.546-.606.368-.906.899-.906 1.594 0 .617.234 1.074.703 1.375.469.305 1.375.606 2.719.906 1.175.262 2.14.528 2.89.797.75.274 1.39.7 1.922 1.282.54.574.813 1.343.813 2.312 0 1.23-.497 2.258-1.485 3.078C9.848-.156 8.57.25 7 .25c-2.012 0-3.516-.445-4.516-1.344-1-.906-1.527-2.07-1.578-3.5l1.797-.156c.082 1.148.52 1.98 1.313 2.5.8.523 1.77.781 2.906.781 1.062 0 1.922-.218 2.578-.656.656-.438.984-1.023.984-1.766 0-.78-.343-1.347-1.03-1.703-.688-.363-1.84-.718-3.454-1.062-1.605-.352-2.762-.844-3.469-1.469-.71-.633-1.062-1.457-1.062-2.469 0-1.144.445-2.094 1.343-2.844.895-.75 2.118-1.124 3.672-1.124 1.594 0 2.868.374 3.829 1.124.968.743 1.484 1.797 1.546 3.172Zm0 0" style="stroke:none"/></symbol><symbol id="b" overflow="visible"><path d="M10.344-4.734H2.578c.07 1.148.399 2.023.985 2.625.582.605 1.312.906 2.187.906.664 0 1.223-.176 1.672-.531.457-.352.812-.891 1.062-1.61l1.797.235c-.293 1.074-.828 1.902-1.61 2.484-.78.586-1.757.875-2.921.875-1.563 0-2.781-.477-3.656-1.438C1.219-2.144.78-3.445.78-5.094c0-1.633.422-2.957 1.266-3.968.851-1.02 2.05-1.532 3.594-1.532.757 0 1.488.168 2.187.5.695.336 1.29.903 1.781 1.703.489.793.735 2.012.735 3.657ZM8.53-6.188c-.074-1.05-.402-1.804-.984-2.265-.574-.469-1.211-.703-1.906-.703-.825 0-1.508.277-2.047.828-.531.555-.84 1.265-.922 2.14Zm0 0" style="stroke:none"/></symbol><symbol id="c" overflow="visible"><path d="M9.813 0H8.03v-6.297c0-1.062-.195-1.789-.578-2.187-.375-.395-.902-.594-1.578-.594-.523 0-1.016.125-1.484.375-.461.25-.79.61-.985 1.078-.199.46-.297 1.11-.297 1.953V0H1.36v-10.36h1.579v1.47h.046c.364-.57.817-1 1.36-1.282.55-.281 1.18-.422 1.89-.422.551 0 1.094.102 1.625.297.532.188.946.48 1.25.875.313.387.504.805.579 1.25.082.438.124 1.04.124 1.797Zm0 0" style="stroke:none"/></symbol><symbol id="d" overflow="visible"><path d="M9.719 0h-1.64v-1.313H8.03C7.406-.27 6.453.25 5.171.25c-1.273 0-2.335-.504-3.187-1.516C1.141-2.273.72-3.578.72-5.172c0-1.676.398-3 1.203-3.969.8-.968 1.86-1.453 3.172-1.453 1.238 0 2.18.469 2.828 1.406h.031v-5.124H9.72Zm-4.36-1.203c.77 0 1.422-.313 1.954-.938.53-.632.796-1.593.796-2.875 0-1.27-.246-2.273-.734-3.015-.48-.75-1.18-1.125-2.094-1.125-.906 0-1.593.367-2.062 1.094-.469.73-.703 1.695-.703 2.89 0 .856.125 1.586.375 2.188.25.593.597 1.043 1.046 1.343.458.293.93.438 1.422.438Zm0 0" style="stroke:none"/></symbol><symbol id="e" overflow="visible"><path d="m6.922-10.047-.61 1.625c-.43-.25-.851-.375-1.265-.375-.668 0-1.172.297-1.516.89-.336.587-.5 1.407-.5 2.47V0h-1.75v-10.36h1.594v1.563h.047c.562-1.195 1.297-1.797 2.203-1.797.594 0 1.191.184 1.797.547Zm0 0" style="stroke:none"/></symbol><symbol id="f" overflow="visible"><path d="M9.625-7.625c.895.281 1.566.73 2.016 1.344a3.54 3.54 0 0 1 .671 2.125 4.14 4.14 0 0 1-.609 2.203A3.67 3.67 0 0 1 9.984-.47C9.242-.156 8.238 0 6.97 0H1.484v-14.313H6.86c1.739 0 2.961.383 3.672 1.141.719.75 1.078 1.586 1.078 2.5 0 .625-.168 1.203-.5 1.735-.336.53-.828.968-1.484 1.312Zm-6.25-.703h3.11c.632 0 1.163-.031 1.593-.094.438-.07.82-.258 1.156-.562.332-.313.5-.79.5-1.438 0-.676-.168-1.176-.5-1.5a2.2 2.2 0 0 0-1.203-.594 12.46 12.46 0 0 0-1.797-.109H3.375Zm0 6.625h3.563c1.28 0 2.164-.219 2.656-.656.5-.438.75-1.036.75-1.797 0-.782-.266-1.383-.797-1.813-.524-.437-1.469-.656-2.844-.656H3.375Zm0 0" style="stroke:none"/></symbol><symbol id="g" overflow="visible"><path d="M9.734 0H8.172v-1.531h-.063C7.316-.344 6.234.25 4.86.25a4.14 4.14 0 0 1-2-.5c-.617-.344-1.027-.805-1.234-1.39-.21-.594-.313-1.36-.313-2.298v-6.421h1.766v5.734c0 .918.04 1.578.125 1.984.094.399.32.727.688.985.375.25.816.375 1.328.375.664 0 1.289-.227 1.875-.688.593-.457.89-1.41.89-2.86v-5.53h1.75Zm0 0" style="stroke:none"/></symbol><symbol id="h" overflow="visible"><path d="M7.125-7.469c-.086-.562-.32-.984-.703-1.265-.375-.282-.902-.422-1.578-.422-.668 0-1.211.117-1.625.344-.418.218-.625.546-.625.984 0 .418.16.715.484.89.332.168.988.383 1.969.641 1.094.281 1.91.531 2.453.75.54.211.96.508 1.266.89.3.387.453.93.453 1.626 0 .918-.383 1.695-1.14 2.328-.75.637-1.759.953-3.017.953-1.312 0-2.34-.273-3.078-.828C1.242-1.141.785-1.977.61-3.094l1.75-.265c.094.718.364 1.261.813 1.625.445.355 1.07.53 1.875.53.758 0 1.344-.16 1.75-.484.414-.32.625-.71.625-1.171 0-.313-.094-.563-.281-.75a1.773 1.773 0 0 0-.72-.422c-.28-.102-.917-.274-1.905-.516-1.47-.344-2.438-.766-2.907-1.266a2.584 2.584 0 0 1-.703-1.812c0-.863.344-1.57 1.031-2.125.688-.563 1.614-.844 2.782-.844 1.238 0 2.203.246 2.89.735.688.48 1.098 1.199 1.235 2.156Zm0 0" style="stroke:none"/></symbol><symbol id="i" overflow="visible"><path d="M12.844 0h-1.906v-6.734H3.5V0H1.61v-14.313H3.5v5.876h7.438v-5.876h1.906Zm0 0" style="stroke:none"/></symbol><symbol id="j" overflow="visible"><path d="M10.328 0H8.484c-.18-.32-.304-.75-.375-1.281C6.93-.258 5.66.25 4.297.25c-1.094 0-1.961-.27-2.594-.813-.625-.55-.937-1.28-.937-2.187 0-.852.3-1.555.906-2.11.613-.562 1.672-.937 3.172-1.124l1.64-.235A9.58 9.58 0 0 0 8-6.579c0-.53-.016-.905-.047-1.124-.031-.219-.133-.442-.297-.672-.156-.238-.414-.426-.765-.563-.344-.144-.813-.218-1.407-.218-.761 0-1.359.14-1.796.422-.438.273-.743.793-.907 1.562l-1.719-.234c.188-1.063.672-1.86 1.454-2.39.78-.532 1.859-.798 3.234-.798 1.238 0 2.148.184 2.734.547.582.367.938.809 1.063 1.328.133.524.203 1.196.203 2.016v2.36c0 1.448.023 2.417.078 2.905.063.493.227.97.5 1.438ZM8-4.563v-.64c-.918.312-2.043.558-3.375.734-1.324.18-1.984.742-1.984 1.688 0 .469.175.86.53 1.172.364.312.88.468 1.548.468.863 0 1.625-.257 2.281-.78.664-.52 1-1.4 1-2.641Zm0 0" style="stroke:none"/></symbol><symbol id="k" overflow="visible"><path d="M3.094 0h-1.75v-14.313h1.75Zm0 0" style="stroke:none"/></symbol><symbol id="l" overflow="visible"><path d="M9.75-10.36 5.844 0h-1.64L.265-10.36h1.859l2.14 6c.395 1.126.633 1.891.72 2.298h.03c.102-.415.286-.973.548-1.672l2.39-6.625Zm0 0" style="stroke:none"/></symbol><symbol id="m" overflow="visible"><path d="M5.563-10.594c1.394 0 2.55.461 3.468 1.375.926.906 1.39 2.2 1.39 3.875 0 2.043-.5 3.485-1.5 4.328C7.93-.172 6.814.25 5.564.25 4.25.25 3.108-.18 2.14-1.047 1.18-1.922.703-3.297.703-5.172c0-1.82.461-3.18 1.39-4.078.938-.895 2.095-1.344 3.47-1.344Zm0 9.39c1 0 1.757-.366 2.28-1.109.52-.738.782-1.718.782-2.937 0-1.29-.297-2.266-.89-2.922-.587-.656-1.31-.984-2.173-.984-.898 0-1.632.336-2.203 1-.574.668-.859 1.664-.859 2.984 0 1.313.29 2.305.875 2.969.582.668 1.313 1 2.188 1Zm0 0" style="stroke:none"/></symbol><symbol id="n" overflow="visible"><path d="M3-9.031c.656-1.04 1.64-1.563 2.953-1.563 1.363 0 2.438.496 3.219 1.485.789.98 1.187 2.261 1.187 3.843 0 1.688-.437 3.032-1.312 4.032C8.18-.242 7.113.25 5.844.25c-1.117 0-2.008-.441-2.672-1.328h-.063v5.062H1.36v-14.343h1.594v1.328Zm2.719 7.828c.82 0 1.5-.336 2.031-1.016.54-.687.813-1.703.813-3.047 0-1.27-.262-2.242-.782-2.921C7.27-8.876 6.61-9.22 5.797-9.22c-.836 0-1.524.383-2.063 1.14-.53.763-.796 1.747-.796 2.954 0 1.293.253 2.273.765 2.938.52.656 1.192.984 2.016.984Zm0 0" style="stroke:none"/></symbol><symbol id="p" overflow="visible"><path d="M7.5 0H5.75v-11.203c-.887.836-2.063 1.543-3.531 2.125v-1.703c2.02-.969 3.398-2.172 4.14-3.61H7.5Zm0 0" style="stroke:none"/></symbol><symbol id="q" overflow="visible"><path d="M14.219 0h-2.375c-1.43-2.25-2.32-3.629-2.672-4.14A7.78 7.78 0 0 0 8.078-5.47c-.375-.375-.73-.61-1.062-.703-.336-.094-.778-.14-1.329-.14H3.5V0H1.61v-14.313h6.327c.864 0 1.586.06 2.172.172.594.106 1.11.336 1.547.688.446.355.785.805 1.016 1.344.238.543.36 1.109.36 1.703 0 1.086-.345 1.953-1.032 2.61-.68.655-1.668 1.073-2.969 1.25v.046c.946.418 1.844 1.29 2.688 2.61ZM3.5-8.016h4.063c.82 0 1.468-.066 1.937-.203a2.09 2.09 0 0 0 1.14-.828c.29-.406.438-.86.438-1.36 0-.644-.242-1.195-.719-1.655-.468-.458-1.25-.688-2.343-.688H3.5Zm0 0" style="stroke:none"/></symbol><symbol id="r" overflow="visible"><path d="M9.828-3.578c-.23 1.312-.75 2.281-1.562 2.906A4.45 4.45 0 0 1 5.5.25C4 .25 2.836-.242 2.016-1.234 1.19-2.223.78-3.531.78-5.156c0-1.344.235-2.422.703-3.235.477-.812 1.07-1.379 1.782-1.703a5.2 5.2 0 0 1 2.234-.5c1.063 0 1.973.278 2.734.828.758.555 1.227 1.368 1.407 2.438l-1.704.266c-.18-.696-.464-1.22-.859-1.563-.387-.352-.887-.531-1.5-.531-.98 0-1.726.351-2.234 1.047-.512.687-.766 1.656-.766 2.906 0 1.281.25 2.273.75 2.969.5.687 1.219 1.03 2.156 1.03.75 0 1.336-.21 1.766-.64.438-.437.71-1.086.828-1.953Zm0 0" style="stroke:none"/></symbol><symbol id="s" overflow="visible"><path d="M3.094 0h-1.75v-10.36h1.75Zm0-12.328h-1.75v-1.985h1.75Zm0 0" style="stroke:none"/></symbol><symbol id="t" overflow="visible"><path d="M13.36 0h-2.141L9.547-4.36H3.562L1.984 0h-2l5.5-14.313h2.032ZM8.968-5.86c-1.18-3.1-1.84-4.863-1.985-5.28a21.682 21.682 0 0 1-.5-1.688h-.046a17.446 17.446 0 0 1-.735 2.687L4.11-5.859Zm0 0" style="stroke:none"/></symbol><symbol id="u" overflow="visible"><path d="M5.375-.016c-.523.102-.96.157-1.313.157-.773 0-1.335-.137-1.687-.407a1.69 1.69 0 0 1-.64-1.03c-.075-.415-.11-.993-.11-1.735V-9H.344v-1.36h1.281v-2.578L3.375-14v3.64h1.766V-9H3.375v6.063c0 .523.05.89.156 1.109.114.219.39.328.828.328.25 0 .508-.023.782-.078Zm0 0" style="stroke:none"/></symbol><symbol id="v" overflow="visible"><path d="M10.094 0H.609c0-.813.282-1.629.844-2.453.57-.82 1.629-1.86 3.172-3.11.938-.75 1.773-1.539 2.516-2.375.75-.832 1.125-1.664 1.125-2.5 0-.726-.258-1.328-.766-1.796-.512-.47-1.156-.704-1.938-.704-.792 0-1.453.247-1.984.735-.531.48-.805 1.2-.812 2.156L.953-10.25c.113-1.332.594-2.352 1.438-3.063.843-.718 1.91-1.078 3.203-1.078 1.406 0 2.5.391 3.281 1.172.79.781 1.188 1.719 1.188 2.813 0 .918-.336 1.851-1 2.797-.657.937-1.97 2.195-3.938 3.765-1.043.836-1.73 1.547-2.063 2.14h7.032Zm0 0" style="stroke:none"/></symbol></defs><path d="M0 0h642v542H0z" style="fill:#fff;fill-opacity:1;stroke:none"/><path d="M26 21h32v27H26Zm0 0" style="fill-rule:evenodd;fill:#fff;fill-opacity:1;stroke-width:.1;stroke-linecap:butt;stroke-linejoin:miter;stroke:#fff;stroke-opacity:1;stroke-miterlimit:10" transform="matrix(20 0 0 20 -519 -419)"/><path d="M65.57 221h83.239v63.707H65.57ZM65.57 227v-6c-3.312 0-6 2.688-6 6ZM148.809 227h6c0-3.313-2.684-6-6-6Zm0 0" style="stroke:none;fill-rule:evenodd;fill:#fddfbb;fill-opacity:1"/><path d="M59.57 227h95.239v51.707H59.57ZM65.57 278.707h-6c0 3.313 2.688 6 6 6ZM148.809 278.707v6c3.316 0 6-2.687 6-6Zm0 0" style="stroke:none;fill-rule:evenodd;fill:#fddfbb;fill-opacity:1"/><path d="M29.229 32h4.161M29.229 35.185h4.161M29.229 32a.3.3 0 0 0-.3.3M33.69 32.3a.3.3 0 0 0-.3-.3M28.929 32.3v2.585M33.69 32.3v2.585M28.929 34.885a.3.3 0 0 0 .3.3M33.39 35.185a.3.3 0 0 0 .3-.3" style="fill:none;stroke-width:.1;stroke-linecap:butt;stroke-linejoin:miter;stroke:#000;stroke-opacity:1;stroke-miterlimit:10" transform="matrix(20 0 0 20 -519 -419)"/><g style="fill:#000;fill-opacity:1"><use xlink:href="#a" x="74.926" y="261.852"/><use xlink:href="#b" x="88.266" y="261.852"/><use xlink:href="#c" x="99.398" y="261.852"/><use xlink:href="#d" x="110.531" y="261.852"/><use xlink:href="#b" x="121.664" y="261.852"/><use xlink:href="#e" x="132.797" y="261.852"/></g><path d="M207 221h228v63.707H207ZM207 227v-6c-3.313 0-6 2.688-6 6ZM435 227h6c0-3.313-2.688-6-6-6Zm0 0" style="stroke:none;fill-rule:evenodd;fill:#fddfbb;fill-opacity:1"/><path d="M201 227h240v51.707H201ZM207 278.707h-6c0 3.313 2.688 6 6 6ZM435 278.707v6c3.313 0 6-2.687 6-6Zm0 0" style="stroke:none;fill-rule:evenodd;fill:#fddfbb;fill-opacity:1"/><path d="M36.3 32h11.4M36.3 35.185h11.4M36.3 32a.3.3 0 0 0-.3.3M48 32.3a.3.3 0 0 0-.3-.3M36 32.3v2.585M48 32.3v2.585M36 34.885a.3.3 0 0 0 .3.3M47.7 35.185a.3.3 0 0 0 .3-.3" style="fill:none;stroke-width:.1;stroke-linecap:butt;stroke-linejoin:miter;stroke:#000;stroke-opacity:1;stroke-miterlimit:10" transform="matrix(20 0 0 20 -519 -419)"/><g style="fill:#000;fill-opacity:1"><use xlink:href="#f" x="303.773" y="261.852"/><use xlink:href="#g" x="317.113" y="261.852"/><use xlink:href="#h" x="328.246" y="261.852"/></g><path d="M169.555 441h123.238v63.707H169.555ZM169.555 447v-6c-3.313 0-6 2.688-6 6ZM292.793 447h6c0-3.313-2.688-6-6-6Zm0 0" style="stroke:none;fill-rule:evenodd;fill:#b2d4eb;fill-opacity:1"/><path d="M163.555 447h135.238v51.707H163.555ZM169.555 498.707h-6c0 3.313 2.687 6 6 6ZM292.793 498.707v6c3.312 0 6-2.687 6-6Zm0 0" style="stroke:none;fill-rule:evenodd;fill:#b2d4eb;fill-opacity:1"/><path d="M34.428 43h6.162M34.428 46.185h6.162M34.428 43a.3.3 0 0 0-.3.3M40.89 43.3a.3.3 0 0 0-.3-.3M34.128 43.3v2.585M40.89 43.3v2.585M34.128 45.885a.3.3 0 0 0 .3.3M40.59 46.185a.3.3 0 0 0 .3-.3" style="fill:none;stroke-width:.1;stroke-linecap:butt;stroke-linejoin:miter;stroke:#000;stroke-opacity:1;stroke-miterlimit:10" transform="matrix(20 0 0 20 -519 -419)"/><g style="fill:#000;fill-opacity:1"><use xlink:href="#i" x="196.133" y="481.852"/><use xlink:href="#j" x="210.586" y="481.852"/><use xlink:href="#c" x="221.719" y="481.852"/><use xlink:href="#d" x="232.852" y="481.852"/><use xlink:href="#k" x="243.984" y="481.852"/><use xlink:href="#b" x="248.438" y="481.852"/><use xlink:href="#e" x="259.57" y="481.852"/></g><path d="M31.31 29.793v1.657" style="fill:none;stroke-width:.1;stroke-linecap:butt;stroke-linejoin:miter;stroke:#000;stroke-opacity:1;stroke-miterlimit:10" transform="matrix(20 0 0 20 -519 -419)"/><path d="m31.06 31.45.25.5.25-.5Zm0 0" style="fill-rule:evenodd;fill:#000;fill-opacity:1;stroke-width:.1;stroke-linecap:butt;stroke-linejoin:miter;stroke:#000;stroke-opacity:1;stroke-miterlimit:10" transform="matrix(20 0 0 20 -519 -419)"/><path d="M33.69 33.593h1.76" style="fill:none;stroke-width:.1;stroke-linecap:butt;stroke-linejoin:miter;stroke:#000;stroke-opacity:1;stroke-miterlimit:10" transform="matrix(20 0 0 20 -519 -419)"/><path d="m35.45 33.843.5-.25-.5-.25Zm0 0" style="fill-rule:evenodd;fill:#000;fill-opacity:1;stroke-width:.1;stroke-linecap:butt;stroke-linejoin:miter;stroke:#000;stroke-opacity:1;stroke-miterlimit:10" transform="matrix(20 0 0 20 -519 -419)"/><path d="M48 33.593h2.45" style="fill:none;stroke-width:.1;stroke-linecap:butt;stroke-linejoin:miter;stroke:#000;stroke-opacity:1;stroke-miterlimit:10" transform="matrix(20 0 0 20 -519 -419)"/><path d="m50.45 33.843.5-.25-.5-.25Zm0 0" style="fill-rule:evenodd;fill:#000;fill-opacity:1;stroke-width:.1;stroke-linecap:butt;stroke-linejoin:miter;stroke:#000;stroke-opacity:1;stroke-miterlimit:10" transform="matrix(20 0 0 20 -519 -419)"/><path d="M32.31 23.854a1 1 0 1 1-2 0 1 1 0 0 1 2 0" style="fill-rule:evenodd;fill:#b2d4eb;fill-opacity:1;stroke-width:.1;stroke-linecap:butt;stroke-linejoin:miter;stroke:#000;stroke-opacity:1;stroke-miterlimit:10" transform="matrix(20 0 0 20 -519 -419)"/><path d="M28.674 27.15h5.27v2.589c-1.054-.432-1.58-.432-2.634 0-1.055.431-1.581.431-2.636 0v-2.59" style="fill-rule:evenodd;fill:#f2f2f2;fill-opacity:1;stroke-width:.1;stroke-linecap:butt;stroke-linejoin:miter;stroke:#000;stroke-opacity:1;stroke-miterlimit:10" transform="matrix(20 0 0 20 -519 -419)"/><g style="fill:#000;fill-opacity:1"><use xlink:href="#b" x="58.227" y="154.457"/><use xlink:href="#c" x="69.359" y="154.457"/><use xlink:href="#l" x="80.492" y="154.457"/><use xlink:href="#b" x="90.492" y="154.457"/><use xlink:href="#k" x="101.625" y="154.457"/><use xlink:href="#m" x="106.078" y="154.457"/><use xlink:href="#n" x="117.211" y="154.457"/><use xlink:href="#b" x="128.344" y="154.457"/><use xlink:href="#o" x="139.477" y="154.457"/><use xlink:href="#p" x="145.043" y="154.457"/></g><path d="M507 221h83.238v63.707H507ZM507 227v-6c-3.313 0-6 2.688-6 6ZM590.238 227h6c0-3.313-2.687-6-6-6Zm0 0" style="stroke:none;fill-rule:evenodd;fill:#fddfbb;fill-opacity:1"/><path d="M501 227h95.238v51.707H501ZM507 278.707h-6c0 3.313 2.688 6 6 6ZM590.238 278.707v6c3.313 0 6-2.687 6-6Zm0 0" style="stroke:none;fill-rule:evenodd;fill:#fddfbb;fill-opacity:1"/><path d="M51.3 32h4.162M51.3 35.185h4.162M51.3 32a.3.3 0 0 0-.3.3M55.762 32.3a.3.3 0 0 0-.3-.3M51 32.3v2.585M55.762 32.3v2.585M51 34.885a.3.3 0 0 0 .3.3M55.462 35.185a.3.3 0 0 0 .3-.3" style="fill:none;stroke-width:.1;stroke-linecap:butt;stroke-linejoin:miter;stroke:#000;stroke-opacity:1;stroke-miterlimit:10" transform="matrix(20 0 0 20 -519 -419)"/><g style="fill:#000;fill-opacity:1"><use xlink:href="#q" x="509.148" y="261.852"/><use xlink:href="#b" x="523.602" y="261.852"/><use xlink:href="#r" x="534.734" y="261.852"/><use xlink:href="#b" x="544.734" y="261.852"/><use xlink:href="#s" x="555.867" y="261.852"/><use xlink:href="#l" x="560.32" y="261.852"/><use xlink:href="#b" x="570.32" y="261.852"/><use xlink:href="#e" x="581.453" y="261.852"/></g><path d="M31.31 24.854V26.6" style="fill:none;stroke-width:.1;stroke-linecap:butt;stroke-linejoin:miter;stroke:#000;stroke-opacity:1;stroke-miterlimit:10" transform="matrix(20 0 0 20 -519 -419)"/><path d="m31.06 26.6.25.5.25-.5Zm0 0" style="fill-rule:evenodd;fill:#000;fill-opacity:1;stroke-width:.1;stroke-linecap:butt;stroke-linejoin:miter;stroke:#000;stroke-opacity:1;stroke-miterlimit:10" transform="matrix(20 0 0 20 -519 -419)"/><path d="M346.148 441h123.239v63.707H346.148ZM346.148 447v-6c-3.312 0-6 2.688-6 6Zm0 0" style="stroke:none;fill-rule:evenodd;fill:#b2d4eb;fill-opacity:1"/><path d="M469.387 447h6c0-3.313-2.688-6-6-6ZM340.148 447h135.239v51.707H340.148ZM346.148 498.707h-6c0 3.313 2.688 6 6 6ZM469.387 498.707v6c3.312 0 6-2.687 6-6Zm0 0" style="stroke:none;fill-rule:evenodd;fill:#b2d4eb;fill-opacity:1"/><path d="M43.257 43h6.162M43.257 46.185h6.162M43.257 43a.3.3 0 0 0-.3.3M49.72 43.3a.3.3 0 0 0-.3-.3M42.957 43.3v2.585M49.72 43.3v2.585M42.957 45.885a.3.3 0 0 0 .3.3M49.42 46.185a.3.3 0 0 0 .3-.3" style="fill:none;stroke-width:.1;stroke-linecap:butt;stroke-linejoin:miter;stroke:#000;stroke-opacity:1;stroke-miterlimit:10" transform="matrix(20 0 0 20 -519 -419)"/><g style="fill:#000;fill-opacity:1"><use xlink:href="#t" x="358.801" y="481.852"/><use xlink:href="#n" x="372.141" y="481.852"/><use xlink:href="#n" x="383.273" y="481.852"/><use xlink:href="#k" x="394.406" y="481.852"/><use xlink:href="#s" x="398.859" y="481.852"/><use xlink:href="#r" x="403.313" y="481.852"/><use xlink:href="#j" x="413.313" y="481.852"/><use xlink:href="#u" x="424.445" y="481.852"/><use xlink:href="#s" x="430.012" y="481.852"/><use xlink:href="#m" x="434.465" y="481.852"/><use xlink:href="#c" x="445.598" y="481.852"/></g><path d="m46.338 43-.017-7.265" style="fill:none;stroke-width:.1;stroke-linecap:butt;stroke-linejoin:miter;stroke:#000;stroke-opacity:1;stroke-miterlimit:10" transform="matrix(20 0 0 20 -519 -419)"/><path d="m46.571 35.735-.251-.5-.249.5Zm0 0" style="fill-rule:evenodd;fill:#000;fill-opacity:1;stroke-width:.1;stroke-linecap:butt;stroke-linejoin:miter;stroke:#000;stroke-opacity:1;stroke-miterlimit:10" transform="matrix(20 0 0 20 -519 -419)"/><path d="m37.51 35.185-.001 7.265" style="fill:none;stroke-width:.1;stroke-linecap:butt;stroke-linejoin:miter;stroke:#000;stroke-opacity:1;stroke-miterlimit:10" transform="matrix(20 0 0 20 -519 -419)"/><path d="m37.259 42.45.25.5.25-.5Zm0 0" style="fill-rule:evenodd;fill:#000;fill-opacity:1;stroke-width:.1;stroke-linecap:butt;stroke-linejoin:miter;stroke:#000;stroke-opacity:1;stroke-miterlimit:10" transform="matrix(20 0 0 20 -519 -419)"/><path d="M53.398 30.325 53.38 32" style="fill:none;stroke-width:.1;stroke-linecap:butt;stroke-linejoin:miter;stroke:#000;stroke-opacity:1;stroke-miterlimit:10" transform="matrix(20 0 0 20 -519 -419)"/><path d="m53.648 30.327-.245-.502-.255.497Zm0 0" style="fill-rule:evenodd;fill:#000;fill-opacity:1;stroke-width:.1;stroke-linecap:butt;stroke-linejoin:miter;stroke:#000;stroke-opacity:1;stroke-miterlimit:10" transform="matrix(20 0 0 20 -519 -419)"/><path d="M54.415 23.832a1 1 0 1 1-2 0 1 1 0 0 1 2 0" style="fill-rule:evenodd;fill:#b2d4eb;fill-opacity:1;stroke-width:.1;stroke-linecap:butt;stroke-linejoin:miter;stroke:#000;stroke-opacity:1;stroke-miterlimit:10" transform="matrix(20 0 0 20 -519 -419)"/><path d="M50.78 27.128h5.27v2.589c-1.054-.432-1.581-.432-2.635 0-1.054.431-1.581.431-2.635 0v-2.59" style="fill-rule:evenodd;fill:#f2f2f2;fill-opacity:1;stroke-width:.1;stroke-linecap:butt;stroke-linejoin:miter;stroke:#000;stroke-opacity:1;stroke-miterlimit:10" transform="matrix(20 0 0 20 -519 -419)"/><g style="fill:#000;fill-opacity:1"><use xlink:href="#b" x="500.332" y="154.02"/><use xlink:href="#c" x="511.465" y="154.02"/><use xlink:href="#l" x="522.598" y="154.02"/><use xlink:href="#b" x="532.598" y="154.02"/><use xlink:href="#k" x="543.73" y="154.02"/><use xlink:href="#m" x="548.184" y="154.02"/><use xlink:href="#n" x="559.316" y="154.02"/><use xlink:href="#b" x="570.449" y="154.02"/><use xlink:href="#o" x="581.582" y="154.02"/><use xlink:href="#v" x="587.148" y="154.02"/></g><path d="M53.415 25.382v1.746" style="fill:none;stroke-width:.1;stroke-linecap:butt;stroke-linejoin:miter;stroke:#000;stroke-opacity:1;stroke-miterlimit:10" transform="matrix(20 0 0 20 -519 -419)"/><path d="m53.665 25.382-.25-.5-.25.5Zm0 0" style="fill-rule:evenodd;fill:#000;fill-opacity:1;stroke-width:.1;stroke-linecap:butt;stroke-linejoin:miter;stroke:#000;stroke-opacity:1;stroke-miterlimit:10" transform="matrix(20 0 0 20 -519 -419)"/><path d="M27 36.83h30" style="fill:none;stroke-width:.1;stroke-linecap:butt;stroke-linejoin:miter;stroke:#000;stroke-opacity:1;stroke-dasharray:.1,.1;stroke-miterlimit:10" transform="matrix(20 0 0 20 -519 -419)"/><path d="M34.865 38.213h5.27v2.59c-1.054-.432-1.581-.432-2.635 0-1.054.43-1.581.43-2.635 0v-2.59" style="fill-rule:evenodd;fill:#f2f2f2;fill-opacity:1;stroke-width:.1;stroke-linecap:butt;stroke-linejoin:miter;stroke:#000;stroke-opacity:1;stroke-miterlimit:10" transform="matrix(20 0 0 20 -519 -419)"/><g style="fill:#000;fill-opacity:1"><use xlink:href="#b" x="182.035" y="375.723"/><use xlink:href="#c" x="193.168" y="375.723"/><use xlink:href="#l" x="204.301" y="375.723"/><use xlink:href="#b" x="214.301" y="375.723"/><use xlink:href="#k" x="225.434" y="375.723"/><use xlink:href="#m" x="229.887" y="375.723"/><use xlink:href="#n" x="241.02" y="375.723"/><use xlink:href="#b" x="252.152" y="375.723"/><use xlink:href="#o" x="263.285" y="375.723"/><use xlink:href="#p" x="268.852" y="375.723"/></g><path d="M43.652 38.213h5.27v2.59c-1.054-.432-1.581-.432-2.635 0-1.054.43-1.58.43-2.635 0v-2.59" style="fill-rule:evenodd;fill:#f2f2f2;fill-opacity:1;stroke-width:.1;stroke-linecap:butt;stroke-linejoin:miter;stroke:#000;stroke-opacity:1;stroke-miterlimit:10" transform="matrix(20 0 0 20 -519 -419)"/><g style="fill:#000;fill-opacity:1"><use xlink:href="#b" x="357.777" y="375.723"/><use xlink:href="#c" x="368.91" y="375.723"/><use xlink:href="#l" x="380.043" y="375.723"/><use xlink:href="#b" x="390.043" y="375.723"/><use xlink:href="#k" x="401.176" y="375.723"/><use xlink:href="#m" x="405.629" y="375.723"/><use xlink:href="#n" x="416.762" y="375.723"/><use xlink:href="#b" x="427.895" y="375.723"/><use xlink:href="#o" x="439.027" y="375.723"/><use xlink:href="#v" x="444.594" y="375.723"/></g></svg>
