<svg xmlns="http://www.w3.org/2000/svg" xmlns:xlink="http://www.w3.org/1999/xlink" viewBox="0 0 842 590"><defs><symbol overflow="visible" id="a"><path d="M 1.28125 -13.859375 C 1.71875 -13.960938 2.195312 -14.035156 2.71875 -14.078125 C 3.25 -14.128906 3.738281 -14.15625 4.1875 -14.15625 C 4.695312 -14.15625 5.1875 -14.09375 5.65625 -13.96875 C 6.125 -13.84375 6.53125 -13.628906 6.875 -13.328125 C 7.226562 -13.023438 7.503906 -12.628906 7.703125 -12.140625 C 7.910156 -11.660156 8.015625 -11.050781 8.015625 -10.3125 C 8.015625 -9.207031 7.785156 -8.320312 7.328125 -7.65625 C 6.867188 -6.988281 6.257812 -6.539062 5.5 -6.3125 L 6.265625 -5.578125 L 9.015625 0 L 7.28125 0 L 4.28125 -6.09375 L 2.78125 -6.40625 L 2.78125 0 L 1.28125 0 Z M 2.78125 -7.40625 L 3.984375 -7.40625 C 4.742188 -7.40625 5.34375 -7.632812 5.78125 -8.09375 C 6.21875 -8.5625 6.4375 -9.273438 6.4375 -10.234375 C 6.4375 -10.972656 6.253906 -11.582031 5.890625 -12.0625 C 5.523438 -12.539062 4.984375 -12.78125 4.265625 -12.78125 C 3.992188 -12.78125 3.710938 -12.769531 3.421875 -12.75 C 3.140625 -12.726562 2.925781 -12.695312 2.78125 -12.65625 Z M 2.78125 -7.40625"/></symbol><symbol overflow="visible" id="b"><path d="M 7.15625 -0.6875 C 6.84375 -0.382812 6.4375 -0.15625 5.9375 0 C 5.445312 0.15625 4.925781 0.234375 4.375 0.234375 C 3.75 0.234375 3.207031 0.113281 2.75 -0.125 C 2.289062 -0.375 1.910156 -0.726562 1.609375 -1.1875 C 1.304688 -1.644531 1.082031 -2.191406 0.9375 -2.828125 C 0.800781 -3.472656 0.734375 -4.195312 0.734375 -5 C 0.734375 -6.707031 1.046875 -8.003906 1.671875 -8.890625 C 2.304688 -9.785156 3.195312 -10.234375 4.34375 -10.234375 C 4.71875 -10.234375 5.085938 -10.1875 5.453125 -10.09375 C 5.816406 -10 6.144531 -9.8125 6.4375 -9.53125 C 6.726562 -9.257812 6.960938 -8.867188 7.140625 -8.359375 C 7.328125 -7.847656 7.421875 -7.1875 7.421875 -6.375 C 7.421875 -6.15625 7.410156 -5.914062 7.390625 -5.65625 C 7.367188 -5.394531 7.34375 -5.125 7.3125 -4.84375 L 2.234375 -4.84375 C 2.234375 -4.269531 2.28125 -3.75 2.375 -3.28125 C 2.46875 -2.8125 2.613281 -2.410156 2.8125 -2.078125 C 3.019531 -1.753906 3.28125 -1.503906 3.59375 -1.328125 C 3.90625 -1.148438 4.296875 -1.0625 4.765625 -1.0625 C 5.117188 -1.0625 5.472656 -1.125 5.828125 -1.25 C 6.179688 -1.382812 6.453125 -1.546875 6.640625 -1.734375 Z M 6.046875 -6.046875 C 6.066406 -7.046875 5.921875 -7.773438 5.609375 -8.234375 C 5.304688 -8.703125 4.890625 -8.9375 4.359375 -8.9375 C 3.742188 -8.9375 3.253906 -8.703125 2.890625 -8.234375 C 2.535156 -7.773438 2.328125 -7.046875 2.265625 -6.046875 Z M 6.046875 -6.046875"/></symbol><symbol overflow="visible" id="c"><path d="M 1.015625 -1.640625 C 1.285156 -1.484375 1.601562 -1.347656 1.96875 -1.234375 C 2.332031 -1.117188 2.707031 -1.0625 3.09375 -1.0625 C 3.539062 -1.0625 3.914062 -1.171875 4.21875 -1.390625 C 4.53125 -1.609375 4.6875 -1.960938 4.6875 -2.453125 C 4.6875 -2.867188 4.59375 -3.207031 4.40625 -3.46875 C 4.21875 -3.738281 3.976562 -3.976562 3.6875 -4.1875 C 3.40625 -4.40625 3.097656 -4.601562 2.765625 -4.78125 C 2.429688 -4.96875 2.117188 -5.1875 1.828125 -5.4375 C 1.546875 -5.6875 1.3125 -5.984375 1.125 -6.328125 C 0.9375 -6.679688 0.84375 -7.125 0.84375 -7.65625 C 0.84375 -8.507812 1.070312 -9.148438 1.53125 -9.578125 C 1.988281 -10.015625 2.640625 -10.234375 3.484375 -10.234375 C 4.023438 -10.234375 4.492188 -10.179688 4.890625 -10.078125 C 5.296875 -9.984375 5.644531 -9.851562 5.9375 -9.6875 L 5.5625 -8.484375 C 5.3125 -8.617188 5.019531 -8.726562 4.6875 -8.8125 C 4.351562 -8.894531 4.007812 -8.9375 3.65625 -8.9375 C 3.175781 -8.9375 2.828125 -8.835938 2.609375 -8.640625 C 2.390625 -8.441406 2.28125 -8.128906 2.28125 -7.703125 C 2.28125 -7.367188 2.375 -7.082031 2.5625 -6.84375 C 2.75 -6.613281 2.984375 -6.398438 3.265625 -6.203125 C 3.554688 -6.015625 3.867188 -5.816406 4.203125 -5.609375 C 4.535156 -5.410156 4.84375 -5.175781 5.125 -4.90625 C 5.414062 -4.632812 5.65625 -4.304688 5.84375 -3.921875 C 6.03125 -3.546875 6.125 -3.070312 6.125 -2.5 C 6.125 -2.125 6.0625 -1.769531 5.9375 -1.4375 C 5.820312 -1.101562 5.640625 -0.8125 5.390625 -0.5625 C 5.140625 -0.320312 4.832031 -0.128906 4.46875 0.015625 C 4.101562 0.160156 3.675781 0.234375 3.1875 0.234375 C 2.59375 0.234375 2.082031 0.175781 1.65625 0.0625 C 1.226562 -0.0390625 0.867188 -0.1875 0.578125 -0.375 Z M 1.015625 -1.640625"/></symbol><symbol overflow="visible" id="d"><path d="M 1.1875 -10 L 2.203125 -10 L 2.421875 -8.921875 L 2.5 -8.921875 C 2.988281 -9.796875 3.757812 -10.234375 4.8125 -10.234375 C 5.875 -10.234375 6.664062 -9.835938 7.1875 -9.046875 C 7.71875 -8.265625 7.984375 -6.984375 7.984375 -5.203125 C 7.984375 -4.359375 7.894531 -3.597656 7.71875 -2.921875 C 7.539062 -2.253906 7.289062 -1.679688 6.96875 -1.203125 C 6.65625 -0.734375 6.269531 -0.375 5.8125 -0.125 C 5.351562 0.113281 4.84375 0.234375 4.28125 0.234375 C 3.894531 0.234375 3.585938 0.207031 3.359375 0.15625 C 3.128906 0.113281 2.882812 0.0195312 2.625 -0.125 L 2.625 4 L 1.1875 4 Z M 2.625 -1.578125 C 2.8125 -1.421875 3.019531 -1.296875 3.25 -1.203125 C 3.476562 -1.109375 3.789062 -1.0625 4.1875 -1.0625 C 4.882812 -1.0625 5.441406 -1.421875 5.859375 -2.140625 C 6.273438 -2.859375 6.484375 -3.882812 6.484375 -5.21875 C 6.484375 -5.78125 6.445312 -6.285156 6.375 -6.734375 C 6.300781 -7.191406 6.179688 -7.582031 6.015625 -7.90625 C 5.859375 -8.238281 5.65625 -8.492188 5.40625 -8.671875 C 5.164062 -8.847656 4.863281 -8.9375 4.5 -8.9375 C 3.53125 -8.9375 2.90625 -8.34375 2.625 -7.15625 Z M 2.625 -1.578125"/></symbol><symbol overflow="visible" id="e"><path d="M 0.734375 -5 C 0.734375 -6.800781 1.039062 -8.125 1.65625 -8.96875 C 2.28125 -9.8125 3.164062 -10.234375 4.3125 -10.234375 C 5.539062 -10.234375 6.445312 -9.800781 7.03125 -8.9375 C 7.613281 -8.070312 7.90625 -6.757812 7.90625 -5 C 7.90625 -3.1875 7.585938 -1.859375 6.953125 -1.015625 C 6.328125 -0.179688 5.445312 0.234375 4.3125 0.234375 C 3.09375 0.234375 2.191406 -0.195312 1.609375 -1.0625 C 1.023438 -1.925781 0.734375 -3.238281 0.734375 -5 Z M 2.234375 -5 C 2.234375 -4.414062 2.269531 -3.882812 2.34375 -3.40625 C 2.414062 -2.925781 2.535156 -2.507812 2.703125 -2.15625 C 2.867188 -1.8125 3.085938 -1.539062 3.359375 -1.34375 C 3.628906 -1.15625 3.945312 -1.0625 4.3125 -1.0625 C 5.007812 -1.0625 5.53125 -1.367188 5.875 -1.984375 C 6.226562 -2.609375 6.40625 -3.613281 6.40625 -5 C 6.40625 -5.570312 6.367188 -6.097656 6.296875 -6.578125 C 6.222656 -7.066406 6.101562 -7.484375 5.9375 -7.828125 C 5.769531 -8.179688 5.550781 -8.453125 5.28125 -8.640625 C 5.007812 -8.835938 4.6875 -8.9375 4.3125 -8.9375 C 3.632812 -8.9375 3.117188 -8.625 2.765625 -8 C 2.410156 -7.375 2.234375 -6.375 2.234375 -5 Z M 2.234375 -5"/></symbol><symbol overflow="visible" id="f"><path d="M 6.296875 0 L 6.296875 -6.09375 C 6.296875 -7.09375 6.175781 -7.816406 5.9375 -8.265625 C 5.707031 -8.710938 5.296875 -8.9375 4.703125 -8.9375 C 4.171875 -8.9375 3.726562 -8.773438 3.375 -8.453125 C 3.03125 -8.140625 2.78125 -7.75 2.625 -7.28125 L 2.625 0 L 1.1875 0 L 1.1875 -10 L 2.21875 -10 L 2.484375 -8.9375 L 2.546875 -8.9375 C 2.796875 -9.300781 3.132812 -9.609375 3.5625 -9.859375 C 4 -10.109375 4.519531 -10.234375 5.125 -10.234375 C 5.550781 -10.234375 5.925781 -10.171875 6.25 -10.046875 C 6.570312 -9.929688 6.84375 -9.726562 7.0625 -9.4375 C 7.289062 -9.15625 7.457031 -8.773438 7.5625 -8.296875 C 7.675781 -7.816406 7.734375 -7.210938 7.734375 -6.484375 L 7.734375 0 Z M 6.296875 0"/></symbol><symbol overflow="visible" id="g"><path d="M 7.484375 4 L 6.046875 4 L 6.046875 -0.8125 L 5.953125 -0.8125 C 5.742188 -0.476562 5.472656 -0.21875 5.140625 -0.03125 C 4.816406 0.144531 4.394531 0.234375 3.875 0.234375 C 2.820312 0.234375 2.035156 -0.1875 1.515625 -1.03125 C 0.992188 -1.875 0.734375 -3.179688 0.734375 -4.953125 C 0.734375 -6.679688 1.070312 -7.984375 1.75 -8.859375 C 2.4375 -9.742188 3.425781 -10.1875 4.71875 -10.1875 C 5.28125 -10.1875 5.8125 -10.117188 6.3125 -9.984375 C 6.820312 -9.847656 7.210938 -9.707031 7.484375 -9.5625 Z M 6.046875 -8.546875 C 5.671875 -8.765625 5.140625 -8.875 4.453125 -8.875 C 3.765625 -8.875 3.222656 -8.550781 2.828125 -7.90625 C 2.429688 -7.269531 2.234375 -6.296875 2.234375 -4.984375 C 2.234375 -4.421875 2.265625 -3.898438 2.328125 -3.421875 C 2.398438 -2.941406 2.515625 -2.523438 2.671875 -2.171875 C 2.828125 -1.816406 3.023438 -1.539062 3.265625 -1.34375 C 3.515625 -1.15625 3.820312 -1.0625 4.1875 -1.0625 C 4.6875 -1.0625 5.082031 -1.207031 5.375 -1.5 C 5.664062 -1.789062 5.890625 -2.21875 6.046875 -2.78125 Z M 6.046875 -8.546875"/></symbol><symbol overflow="visible" id="h"><path d="M 2.484375 -10 L 2.484375 -3.875 C 2.484375 -2.863281 2.582031 -2.140625 2.78125 -1.703125 C 2.988281 -1.273438 3.367188 -1.0625 3.921875 -1.0625 C 4.203125 -1.0625 4.453125 -1.117188 4.671875 -1.234375 C 4.890625 -1.347656 5.082031 -1.492188 5.25 -1.671875 C 5.425781 -1.859375 5.582031 -2.070312 5.71875 -2.3125 C 5.851562 -2.5625 5.960938 -2.8125 6.046875 -3.0625 L 6.046875 -10 L 7.484375 -10 L 7.484375 -2.84375 C 7.484375 -2.363281 7.5 -1.863281 7.53125 -1.34375 C 7.5625 -0.832031 7.613281 -0.382812 7.6875 0 L 6.65625 0 L 6.296875 -1.40625 L 6.234375 -1.40625 C 6.015625 -0.957031 5.691406 -0.570312 5.265625 -0.25 C 4.835938 0.0703125 4.300781 0.234375 3.65625 0.234375 C 3.226562 0.234375 2.851562 0.179688 2.53125 0.078125 C 2.21875 -0.0234375 1.945312 -0.21875 1.71875 -0.5 C 1.488281 -0.78125 1.316406 -1.160156 1.203125 -1.640625 C 1.097656 -2.128906 1.046875 -2.753906 1.046875 -3.515625 L 1.046875 -10 Z M 2.484375 -10"/></symbol><symbol overflow="visible" id="i"><path d="M 0.1875 -10 L 1.40625 -10 L 1.40625 -11.984375 L 2.84375 -12.4375 L 2.84375 -10 L 5 -10 L 5 -8.703125 L 2.84375 -8.703125 L 2.84375 -2.734375 C 2.84375 -2.148438 2.910156 -1.726562 3.046875 -1.46875 C 3.191406 -1.207031 3.421875 -1.078125 3.734375 -1.078125 C 4.003906 -1.078125 4.234375 -1.109375 4.421875 -1.171875 C 4.617188 -1.234375 4.832031 -1.3125 5.0625 -1.40625 L 5.34375 -0.265625 C 5.050781 -0.117188 4.726562 -0.00390625 4.375 0.078125 C 4.019531 0.171875 3.648438 0.21875 3.265625 0.21875 C 2.597656 0.21875 2.117188 0.00390625 1.828125 -0.421875 C 1.546875 -0.859375 1.40625 -1.566406 1.40625 -2.546875 L 1.40625 -8.703125 L 0.1875 -8.703125 Z M 0.1875 -10"/></symbol><symbol overflow="visible" id="j"><path d="M 1.1875 -10 L 2.203125 -10 L 2.453125 -8.9375 L 2.515625 -8.9375 C 2.703125 -9.320312 2.945312 -9.625 3.25 -9.84375 C 3.550781 -10.070312 3.914062 -10.1875 4.34375 -10.1875 C 4.644531 -10.1875 4.988281 -10.125 5.375 -10 L 5.09375 -8.546875 C 4.75 -8.660156 4.445312 -8.71875 4.1875 -8.71875 C 3.757812 -8.71875 3.410156 -8.59375 3.140625 -8.34375 C 2.867188 -8.101562 2.695312 -7.773438 2.625 -7.359375 L 2.625 0 L 1.1875 0 Z M 1.1875 -10"/></symbol><symbol overflow="visible" id="k"><path d="M 2.71875 -2.375 C 2.71875 -1.914062 2.78125 -1.582031 2.90625 -1.375 C 3.03125 -1.175781 3.207031 -1.078125 3.4375 -1.078125 C 3.71875 -1.078125 4.046875 -1.148438 4.421875 -1.296875 L 4.5625 -0.140625 C 4.382812 -0.0351562 4.140625 0.046875 3.828125 0.109375 C 3.515625 0.179688 3.234375 0.21875 2.984375 0.21875 C 2.472656 0.21875 2.0625 0.0625 1.75 -0.25 C 1.4375 -0.5625 1.28125 -1.113281 1.28125 -1.90625 L 1.28125 -14 L 2.71875 -14 Z M 2.71875 -2.375"/></symbol><symbol overflow="visible" id="l"><path d="M 3.59375 -4.140625 L 4 -2.15625 L 4.046875 -2.15625 L 4.40625 -4.1875 L 6.15625 -10 L 7.6875 -10 L 4.265625 0.21875 L 3.5625 0.21875 L 0.078125 -10 L 1.71875 -10 Z M 3.59375 -4.140625"/></symbol><symbol overflow="visible" id="m"><path d="M 6.703125 -0.5 C 6.367188 -0.25 5.988281 -0.0664062 5.5625 0.046875 C 5.132812 0.171875 4.6875 0.234375 4.21875 0.234375 C 3.582031 0.234375 3.039062 0.113281 2.59375 -0.125 C 2.15625 -0.375 1.800781 -0.726562 1.53125 -1.1875 C 1.257812 -1.644531 1.054688 -2.195312 0.921875 -2.84375 C 0.796875 -3.488281 0.734375 -4.207031 0.734375 -5 C 0.734375 -6.707031 1.035156 -8.003906 1.640625 -8.890625 C 2.253906 -9.785156 3.128906 -10.234375 4.265625 -10.234375 C 4.785156 -10.234375 5.226562 -10.1875 5.59375 -10.09375 C 5.96875 -10 6.289062 -9.878906 6.5625 -9.734375 L 6.15625 -8.484375 C 5.625 -8.785156 5.046875 -8.9375 4.421875 -8.9375 C 3.703125 -8.9375 3.15625 -8.617188 2.78125 -7.984375 C 2.414062 -7.359375 2.234375 -6.363281 2.234375 -5 C 2.234375 -4.457031 2.273438 -3.941406 2.359375 -3.453125 C 2.441406 -2.972656 2.578125 -2.554688 2.765625 -2.203125 C 2.953125 -1.859375 3.191406 -1.582031 3.484375 -1.375 C 3.773438 -1.164062 4.140625 -1.0625 4.578125 -1.0625 C 4.921875 -1.0625 5.242188 -1.117188 5.546875 -1.234375 C 5.847656 -1.359375 6.09375 -1.5 6.28125 -1.65625 Z M 6.703125 -0.5"/></symbol><symbol overflow="visible" id="n"><path d="M 1.078125 -9.40625 C 1.460938 -9.644531 1.929688 -9.828125 2.484375 -9.953125 C 3.035156 -10.085938 3.617188 -10.15625 4.234375 -10.15625 C 4.796875 -10.15625 5.242188 -10.070312 5.578125 -9.90625 C 5.921875 -9.738281 6.191406 -9.507812 6.390625 -9.21875 C 6.585938 -8.9375 6.710938 -8.613281 6.765625 -8.25 C 6.828125 -7.882812 6.859375 -7.5 6.859375 -7.09375 C 6.859375 -6.300781 6.84375 -5.523438 6.8125 -4.765625 C 6.78125 -4.003906 6.765625 -3.28125 6.765625 -2.59375 C 6.765625 -2.09375 6.78125 -1.625 6.8125 -1.1875 C 6.84375 -0.757812 6.90625 -0.347656 7 0.046875 L 5.90625 0.046875 L 5.5625 -1.140625 L 5.484375 -1.140625 C 5.285156 -0.796875 4.988281 -0.492188 4.59375 -0.234375 C 4.207031 0.015625 3.691406 0.140625 3.046875 0.140625 C 2.316406 0.140625 1.722656 -0.109375 1.265625 -0.609375 C 0.804688 -1.109375 0.578125 -1.800781 0.578125 -2.6875 C 0.578125 -3.257812 0.671875 -3.738281 0.859375 -4.125 C 1.054688 -4.507812 1.332031 -4.820312 1.6875 -5.0625 C 2.039062 -5.300781 2.460938 -5.46875 2.953125 -5.5625 C 3.441406 -5.664062 3.984375 -5.71875 4.578125 -5.71875 C 4.710938 -5.71875 4.847656 -5.71875 4.984375 -5.71875 C 5.117188 -5.71875 5.257812 -5.710938 5.40625 -5.703125 C 5.4375 -6.109375 5.453125 -6.472656 5.453125 -6.796875 C 5.453125 -7.554688 5.335938 -8.085938 5.109375 -8.390625 C 4.890625 -8.703125 4.476562 -8.859375 3.875 -8.859375 C 3.5 -8.859375 3.09375 -8.800781 2.65625 -8.6875 C 2.21875 -8.570312 1.851562 -8.429688 1.5625 -8.265625 Z M 5.421875 -4.5625 C 5.285156 -4.570312 5.148438 -4.578125 5.015625 -4.578125 C 4.878906 -4.585938 4.75 -4.59375 4.625 -4.59375 C 4.300781 -4.59375 3.984375 -4.566406 3.671875 -4.515625 C 3.367188 -4.460938 3.097656 -4.367188 2.859375 -4.234375 C 2.617188 -4.109375 2.425781 -3.929688 2.28125 -3.703125 C 2.144531 -3.472656 2.078125 -3.1875 2.078125 -2.84375 C 2.078125 -2.3125 2.207031 -1.894531 2.46875 -1.59375 C 2.726562 -1.300781 3.066406 -1.15625 3.484375 -1.15625 C 4.035156 -1.15625 4.460938 -1.285156 4.765625 -1.546875 C 5.078125 -1.816406 5.296875 -2.113281 5.421875 -2.4375 Z M 5.421875 -4.5625"/></symbol><symbol overflow="visible" id="o"><path d="M 7.484375 0.453125 C 7.484375 1.753906 7.195312 2.707031 6.625 3.3125 C 6.050781 3.925781 5.21875 4.234375 4.125 4.234375 C 3.457031 4.234375 2.910156 4.175781 2.484375 4.0625 C 2.054688 3.957031 1.707031 3.832031 1.4375 3.6875 L 1.859375 2.4375 C 2.128906 2.5625 2.421875 2.675781 2.734375 2.78125 C 3.054688 2.882812 3.453125 2.9375 3.921875 2.9375 C 4.734375 2.9375 5.289062 2.707031 5.59375 2.25 C 5.894531 1.800781 6.046875 1.046875 6.046875 -0.015625 L 6.046875 -0.765625 L 5.984375 -0.765625 C 5.765625 -0.453125 5.488281 -0.207031 5.15625 -0.03125 C 4.820312 0.132812 4.394531 0.21875 3.875 0.21875 C 2.800781 0.21875 2.007812 -0.195312 1.5 -1.03125 C 0.988281 -1.863281 0.734375 -3.171875 0.734375 -4.953125 C 0.734375 -6.679688 1.0625 -7.984375 1.71875 -8.859375 C 2.382812 -9.742188 3.363281 -10.1875 4.65625 -10.1875 C 5.28125 -10.1875 5.816406 -10.125 6.265625 -10 C 6.722656 -9.875 7.128906 -9.734375 7.484375 -9.578125 Z M 6.046875 -8.5625 C 5.640625 -8.769531 5.125 -8.875 4.5 -8.875 C 3.820312 -8.875 3.273438 -8.5625 2.859375 -7.9375 C 2.441406 -7.320312 2.234375 -6.335938 2.234375 -4.984375 C 2.234375 -4.421875 2.265625 -3.898438 2.328125 -3.421875 C 2.398438 -2.953125 2.515625 -2.539062 2.671875 -2.1875 C 2.835938 -1.832031 3.039062 -1.554688 3.28125 -1.359375 C 3.53125 -1.171875 3.835938 -1.078125 4.203125 -1.078125 C 4.703125 -1.078125 5.097656 -1.207031 5.390625 -1.46875 C 5.691406 -1.738281 5.910156 -2.144531 6.046875 -2.6875 Z M 6.046875 -8.5625"/></symbol><symbol overflow="visible" id="p"><path d="M 5.859375 0 L 5.859375 -5.9375 C 5.859375 -6.46875 5.84375 -6.921875 5.8125 -7.296875 C 5.78125 -7.679688 5.707031 -7.992188 5.59375 -8.234375 C 5.488281 -8.472656 5.34375 -8.648438 5.15625 -8.765625 C 4.96875 -8.878906 4.722656 -8.9375 4.421875 -8.9375 C 3.960938 -8.9375 3.578125 -8.757812 3.265625 -8.40625 C 2.953125 -8.050781 2.738281 -7.648438 2.625 -7.203125 L 2.625 0 L 1.1875 0 L 1.1875 -10 L 2.203125 -10 L 2.453125 -8.9375 L 2.515625 -8.9375 C 2.796875 -9.320312 3.128906 -9.632812 3.515625 -9.875 C 3.898438 -10.113281 4.394531 -10.234375 5 -10.234375 C 5.507812 -10.234375 5.925781 -10.125 6.25 -9.90625 C 6.570312 -9.6875 6.828125 -9.296875 7.015625 -8.734375 C 7.253906 -9.203125 7.597656 -9.566406 8.046875 -9.828125 C 8.492188 -10.097656 8.984375 -10.234375 9.515625 -10.234375 C 9.960938 -10.234375 10.34375 -10.175781 10.65625 -10.0625 C 10.96875 -9.957031 11.21875 -9.757812 11.40625 -9.46875 C 11.601562 -9.1875 11.75 -8.804688 11.84375 -8.328125 C 11.9375 -7.859375 11.984375 -7.265625 11.984375 -6.546875 L 11.984375 0 L 10.546875 0 L 10.546875 -6.359375 C 10.546875 -7.222656 10.460938 -7.867188 10.296875 -8.296875 C 10.128906 -8.722656 9.742188 -8.9375 9.140625 -8.9375 C 8.628906 -8.9375 8.222656 -8.78125 7.921875 -8.46875 C 7.628906 -8.15625 7.421875 -7.734375 7.296875 -7.203125 L 7.296875 0 Z M 5.859375 0"/></symbol><symbol overflow="visible" id="q"><path d="M 8.59375 -0.546875 C 8.257812 -0.265625 7.835938 -0.0664062 7.328125 0.046875 C 6.828125 0.171875 6.296875 0.234375 5.734375 0.234375 C 5.035156 0.234375 4.382812 0.101562 3.78125 -0.15625 C 3.175781 -0.425781 2.65625 -0.847656 2.21875 -1.421875 C 1.789062 -2.003906 1.457031 -2.753906 1.21875 -3.671875 C 0.976562 -4.597656 0.859375 -5.707031 0.859375 -7 C 0.859375 -8.332031 0.992188 -9.457031 1.265625 -10.375 C 1.546875 -11.300781 1.910156 -12.050781 2.359375 -12.625 C 2.816406 -13.195312 3.335938 -13.609375 3.921875 -13.859375 C 4.515625 -14.109375 5.128906 -14.234375 5.765625 -14.234375 C 6.398438 -14.234375 6.925781 -14.1875 7.34375 -14.09375 C 7.769531 -14 8.132812 -13.890625 8.4375 -13.765625 L 8.078125 -12.40625 C 7.816406 -12.550781 7.503906 -12.660156 7.140625 -12.734375 C 6.773438 -12.816406 6.363281 -12.859375 5.90625 -12.859375 C 5.4375 -12.859375 4.992188 -12.753906 4.578125 -12.546875 C 4.160156 -12.335938 3.789062 -12.003906 3.46875 -11.546875 C 3.15625 -11.085938 2.90625 -10.484375 2.71875 -9.734375 C 2.53125 -8.992188 2.4375 -8.082031 2.4375 -7 C 2.4375 -5.050781 2.769531 -3.585938 3.4375 -2.609375 C 4.101562 -1.628906 4.988281 -1.140625 6.09375 -1.140625 C 6.550781 -1.140625 6.957031 -1.203125 7.3125 -1.328125 C 7.675781 -1.453125 7.984375 -1.601562 8.234375 -1.78125 Z M 8.59375 -0.546875"/></symbol><symbol overflow="visible" id="r"><path d="M 1.421875 -10 L 2.859375 -10 L 2.859375 0 L 1.421875 0 Z M 1.15625 -13.046875 C 1.15625 -13.359375 1.242188 -13.613281 1.421875 -13.8125 C 1.609375 -14.019531 1.847656 -14.125 2.140625 -14.125 C 2.429688 -14.125 2.671875 -14.023438 2.859375 -13.828125 C 3.054688 -13.640625 3.15625 -13.378906 3.15625 -13.046875 C 3.15625 -12.722656 3.054688 -12.46875 2.859375 -12.28125 C 2.671875 -12.101562 2.429688 -12.015625 2.140625 -12.015625 C 1.847656 -12.015625 1.609375 -12.109375 1.421875 -12.296875 C 1.242188 -12.484375 1.15625 -12.734375 1.15625 -13.046875 Z M 1.15625 -13.046875"/></symbol><symbol overflow="visible" id="s"><path d="M 6.515625 -10 L 8.296875 -4.15625 L 8.65625 -2.234375 L 8.703125 -2.234375 L 9 -4.203125 L 10.359375 -10 L 11.71875 -10 L 9.0625 0.21875 L 8.234375 0.21875 L 6.21875 -6.34375 L 5.9375 -8.015625 L 5.90625 -8.015625 L 5.625 -6.3125 L 3.65625 0.21875 L 2.84375 0.21875 L 0.09375 -10 L 1.640625 -10 L 3.1875 -4.1875 L 3.421875 -2.234375 L 3.453125 -2.234375 L 3.8125 -4.21875 L 5.453125 -10 Z M 6.515625 -10"/></symbol><symbol overflow="visible" id="I"><path d="M 3.21875 -5.125 L 0.578125 -10 L 2.296875 -10 L 3.78125 -7.140625 L 4.1875 -6.015625 L 4.59375 -7.140625 L 6.125 -10 L 7.703125 -10 L 5.046875 -5.203125 L 7.859375 0 L 6.21875 0 L 4.546875 -3.140625 L 4.09375 -4.34375 L 3.640625 -3.140625 L 1.953125 0 L 0.375 0 Z M 3.21875 -5.125"/></symbol><symbol overflow="visible" id="t"><path d="M 1.15625 -12.46875 C 1.550781 -12.570312 1.984375 -12.644531 2.453125 -12.6875 C 2.929688 -12.726562 3.367188 -12.75 3.765625 -12.75 C 4.234375 -12.75 4.675781 -12.691406 5.09375 -12.578125 C 5.507812 -12.460938 5.875 -12.269531 6.1875 -12 C 6.5 -11.726562 6.75 -11.375 6.9375 -10.9375 C 7.125 -10.5 7.21875 -9.945312 7.21875 -9.28125 C 7.21875 -8.289062 7.007812 -7.492188 6.59375 -6.890625 C 6.175781 -6.296875 5.628906 -5.894531 4.953125 -5.6875 L 5.640625 -5.015625 L 8.125 0 L 6.546875 0 L 3.859375 -5.484375 L 2.5 -5.765625 L 2.5 0 L 1.15625 0 Z M 2.5 -6.65625 L 3.578125 -6.65625 C 4.265625 -6.65625 4.804688 -6.863281 5.203125 -7.28125 C 5.597656 -7.707031 5.796875 -8.351562 5.796875 -9.21875 C 5.796875 -9.875 5.628906 -10.414062 5.296875 -10.84375 C 4.972656 -11.28125 4.484375 -11.5 3.828125 -11.5 C 3.585938 -11.5 3.335938 -11.488281 3.078125 -11.46875 C 2.828125 -11.457031 2.632812 -11.429688 2.5 -11.390625 Z M 2.5 -6.65625"/></symbol><symbol overflow="visible" id="u"><path d="M 6.4375 -0.609375 C 6.15625 -0.347656 5.789062 -0.144531 5.34375 0 C 4.90625 0.144531 4.4375 0.21875 3.9375 0.21875 C 3.375 0.21875 2.882812 0.109375 2.46875 -0.109375 C 2.0625 -0.335938 1.722656 -0.65625 1.453125 -1.0625 C 1.179688 -1.476562 0.984375 -1.972656 0.859375 -2.546875 C 0.734375 -3.128906 0.671875 -3.78125 0.671875 -4.5 C 0.671875 -6.03125 0.953125 -7.195312 1.515625 -8 C 2.078125 -8.8125 2.875 -9.21875 3.90625 -9.21875 C 4.238281 -9.21875 4.570312 -9.175781 4.90625 -9.09375 C 5.238281 -9.007812 5.535156 -8.835938 5.796875 -8.578125 C 6.054688 -8.328125 6.265625 -7.972656 6.421875 -7.515625 C 6.585938 -7.066406 6.671875 -6.472656 6.671875 -5.734375 C 6.671875 -5.535156 6.660156 -5.316406 6.640625 -5.078125 C 6.628906 -4.847656 6.613281 -4.609375 6.59375 -4.359375 L 2.015625 -4.359375 C 2.015625 -3.835938 2.054688 -3.367188 2.140625 -2.953125 C 2.222656 -2.535156 2.351562 -2.175781 2.53125 -1.875 C 2.71875 -1.582031 2.953125 -1.351562 3.234375 -1.1875 C 3.515625 -1.03125 3.863281 -0.953125 4.28125 -0.953125 C 4.601562 -0.953125 4.921875 -1.007812 5.234375 -1.125 C 5.554688 -1.25 5.800781 -1.394531 5.96875 -1.5625 Z M 5.4375 -5.4375 C 5.457031 -6.332031 5.328125 -6.988281 5.046875 -7.40625 C 4.773438 -7.832031 4.398438 -8.046875 3.921875 -8.046875 C 3.367188 -8.046875 2.929688 -7.832031 2.609375 -7.40625 C 2.285156 -6.988281 2.09375 -6.332031 2.03125 -5.4375 Z M 5.4375 -5.4375"/></symbol><symbol overflow="visible" id="v"><path d="M 0.921875 -1.46875 C 1.160156 -1.332031 1.441406 -1.210938 1.765625 -1.109375 C 2.097656 -1.003906 2.441406 -0.953125 2.796875 -0.953125 C 3.191406 -0.953125 3.523438 -1.050781 3.796875 -1.25 C 4.078125 -1.445312 4.21875 -1.769531 4.21875 -2.21875 C 4.21875 -2.582031 4.128906 -2.882812 3.953125 -3.125 C 3.785156 -3.363281 3.570312 -3.578125 3.3125 -3.765625 C 3.0625 -3.960938 2.785156 -4.140625 2.484375 -4.296875 C 2.179688 -4.460938 1.898438 -4.660156 1.640625 -4.890625 C 1.390625 -5.117188 1.175781 -5.390625 1 -5.703125 C 0.832031 -6.015625 0.75 -6.410156 0.75 -6.890625 C 0.75 -7.660156 0.957031 -8.238281 1.375 -8.625 C 1.789062 -9.019531 2.375 -9.21875 3.125 -9.21875 C 3.625 -9.21875 4.050781 -9.171875 4.40625 -9.078125 C 4.769531 -8.992188 5.082031 -8.875 5.34375 -8.71875 L 5 -7.625 C 4.769531 -7.75 4.503906 -7.847656 4.203125 -7.921875 C 3.910156 -8.003906 3.609375 -8.046875 3.296875 -8.046875 C 2.859375 -8.046875 2.539062 -7.953125 2.34375 -7.765625 C 2.144531 -7.585938 2.046875 -7.3125 2.046875 -6.9375 C 2.046875 -6.632812 2.128906 -6.375 2.296875 -6.15625 C 2.472656 -5.945312 2.6875 -5.753906 2.9375 -5.578125 C 3.195312 -5.410156 3.476562 -5.234375 3.78125 -5.046875 C 4.082031 -4.867188 4.359375 -4.65625 4.609375 -4.40625 C 4.867188 -4.164062 5.082031 -3.875 5.25 -3.53125 C 5.425781 -3.195312 5.515625 -2.769531 5.515625 -2.25 C 5.515625 -1.914062 5.457031 -1.597656 5.34375 -1.296875 C 5.238281 -0.992188 5.070312 -0.734375 4.84375 -0.515625 C 4.625 -0.296875 4.347656 -0.117188 4.015625 0.015625 C 3.691406 0.148438 3.304688 0.21875 2.859375 0.21875 C 2.328125 0.21875 1.867188 0.164062 1.484375 0.0625 C 1.109375 -0.0390625 0.785156 -0.175781 0.515625 -0.34375 Z M 0.921875 -1.46875"/></symbol><symbol overflow="visible" id="w"><path d="M 1.0625 -9 L 1.984375 -9 L 2.171875 -8.03125 L 2.25 -8.03125 C 2.695312 -8.820312 3.394531 -9.21875 4.34375 -9.21875 C 5.289062 -9.21875 6 -8.863281 6.46875 -8.15625 C 6.945312 -7.445312 7.1875 -6.289062 7.1875 -4.6875 C 7.1875 -3.925781 7.109375 -3.242188 6.953125 -2.640625 C 6.796875 -2.035156 6.570312 -1.519531 6.28125 -1.09375 C 5.988281 -0.664062 5.632812 -0.335938 5.21875 -0.109375 C 4.8125 0.109375 4.359375 0.21875 3.859375 0.21875 C 3.503906 0.21875 3.222656 0.195312 3.015625 0.15625 C 2.816406 0.113281 2.597656 0.0234375 2.359375 -0.109375 L 2.359375 3.59375 L 1.0625 3.59375 Z M 2.359375 -1.421875 C 2.523438 -1.273438 2.710938 -1.160156 2.921875 -1.078125 C 3.128906 -0.992188 3.410156 -0.953125 3.765625 -0.953125 C 4.398438 -0.953125 4.898438 -1.273438 5.265625 -1.921875 C 5.640625 -2.566406 5.828125 -3.492188 5.828125 -4.703125 C 5.828125 -5.203125 5.796875 -5.65625 5.734375 -6.0625 C 5.671875 -6.46875 5.566406 -6.816406 5.421875 -7.109375 C 5.273438 -7.410156 5.085938 -7.640625 4.859375 -7.796875 C 4.640625 -7.960938 4.367188 -8.046875 4.046875 -8.046875 C 3.171875 -8.046875 2.609375 -7.507812 2.359375 -6.4375 Z M 2.359375 -1.421875"/></symbol><symbol overflow="visible" id="x"><path d="M 0.671875 -4.5 C 0.671875 -6.125 0.945312 -7.316406 1.5 -8.078125 C 2.0625 -8.835938 2.859375 -9.21875 3.890625 -9.21875 C 4.992188 -9.21875 5.804688 -8.828125 6.328125 -8.046875 C 6.847656 -7.265625 7.109375 -6.082031 7.109375 -4.5 C 7.109375 -2.863281 6.828125 -1.664062 6.265625 -0.90625 C 5.703125 -0.15625 4.910156 0.21875 3.890625 0.21875 C 2.785156 0.21875 1.972656 -0.171875 1.453125 -0.953125 C 0.929688 -1.734375 0.671875 -2.914062 0.671875 -4.5 Z M 2.015625 -4.5 C 2.015625 -3.96875 2.046875 -3.484375 2.109375 -3.046875 C 2.179688 -2.617188 2.289062 -2.25 2.4375 -1.9375 C 2.582031 -1.625 2.773438 -1.378906 3.015625 -1.203125 C 3.265625 -1.035156 3.554688 -0.953125 3.890625 -0.953125 C 4.515625 -0.953125 4.984375 -1.226562 5.296875 -1.78125 C 5.609375 -2.34375 5.765625 -3.25 5.765625 -4.5 C 5.765625 -5.019531 5.726562 -5.5 5.65625 -5.9375 C 5.59375 -6.375 5.484375 -6.75 5.328125 -7.0625 C 5.179688 -7.375 4.988281 -7.613281 4.75 -7.78125 C 4.507812 -7.957031 4.222656 -8.046875 3.890625 -8.046875 C 3.273438 -8.046875 2.804688 -7.765625 2.484375 -7.203125 C 2.171875 -6.640625 2.015625 -5.738281 2.015625 -4.5 Z M 2.015625 -4.5"/></symbol><symbol overflow="visible" id="y"><path d="M 5.671875 0 L 5.671875 -5.484375 C 5.671875 -6.390625 5.566406 -7.039062 5.359375 -7.4375 C 5.148438 -7.84375 4.773438 -8.046875 4.234375 -8.046875 C 3.753906 -8.046875 3.359375 -7.898438 3.046875 -7.609375 C 2.734375 -7.328125 2.503906 -6.972656 2.359375 -6.546875 L 2.359375 0 L 1.0625 0 L 1.0625 -9 L 2 -9 L 2.234375 -8.046875 L 2.28125 -8.046875 C 2.507812 -8.367188 2.816406 -8.644531 3.203125 -8.875 C 3.597656 -9.101562 4.066406 -9.21875 4.609375 -9.21875 C 4.992188 -9.21875 5.332031 -9.160156 5.625 -9.046875 C 5.914062 -8.941406 6.160156 -8.757812 6.359375 -8.5 C 6.554688 -8.25 6.707031 -7.90625 6.8125 -7.46875 C 6.914062 -7.039062 6.96875 -6.492188 6.96875 -5.828125 L 6.96875 0 Z M 5.671875 0"/></symbol><symbol overflow="visible" id="z"><path d="M 2.21875 -3.1875 C 2.175781 -3.71875 2.207031 -4.1875 2.3125 -4.59375 C 2.414062 -5 2.554688 -5.375 2.734375 -5.71875 C 2.910156 -6.0625 3.101562 -6.378906 3.3125 -6.671875 C 3.53125 -6.972656 3.734375 -7.28125 3.921875 -7.59375 C 4.117188 -7.914062 4.28125 -8.253906 4.40625 -8.609375 C 4.53125 -8.960938 4.59375 -9.363281 4.59375 -9.8125 C 4.59375 -10.363281 4.472656 -10.804688 4.234375 -11.140625 C 3.992188 -11.472656 3.582031 -11.640625 3 -11.640625 C 2.65625 -11.640625 2.3125 -11.578125 1.96875 -11.453125 C 1.632812 -11.328125 1.335938 -11.171875 1.078125 -10.984375 L 0.578125 -11.984375 C 0.929688 -12.222656 1.320312 -12.421875 1.75 -12.578125 C 2.175781 -12.734375 2.695312 -12.8125 3.3125 -12.8125 C 4.175781 -12.8125 4.828125 -12.554688 5.265625 -12.046875 C 5.710938 -11.546875 5.9375 -10.859375 5.9375 -9.984375 C 5.9375 -9.472656 5.867188 -9.007812 5.734375 -8.59375 C 5.609375 -8.1875 5.445312 -7.8125 5.25 -7.46875 C 5.0625 -7.132812 4.851562 -6.8125 4.625 -6.5 C 4.394531 -6.1875 4.179688 -5.863281 3.984375 -5.53125 C 3.785156 -5.207031 3.617188 -4.851562 3.484375 -4.46875 C 3.359375 -4.09375 3.296875 -3.664062 3.296875 -3.1875 Z M 1.9375 -0.8125 C 1.9375 -1.144531 2.019531 -1.394531 2.1875 -1.5625 C 2.351562 -1.726562 2.570312 -1.8125 2.84375 -1.8125 C 3.125 -1.8125 3.34375 -1.726562 3.5 -1.5625 C 3.664062 -1.394531 3.75 -1.144531 3.75 -0.8125 C 3.75 -0.457031 3.664062 -0.195312 3.5 -0.03125 C 3.34375 0.132812 3.125 0.21875 2.84375 0.21875 C 2.570312 0.21875 2.351562 0.132812 2.1875 -0.03125 C 2.019531 -0.195312 1.9375 -0.457031 1.9375 -0.8125 Z M 1.9375 -0.8125"/></symbol><symbol overflow="visible" id="A"><path d="M 1.390625 -1.703125 L 3.21875 -1.703125 L 3.21875 -7.984375 L 3.421875 -9.078125 L 2.765625 -8.125 L 1.71875 -7.3125 L 0.828125 -8.390625 L 3.921875 -11.390625 L 5.046875 -11.390625 L 5.046875 -1.703125 L 6.828125 -1.703125 L 6.828125 0 L 1.390625 0 Z M 1.390625 -1.703125"/></symbol><symbol overflow="visible" id="B"><path d="M 6.4375 -8.515625 C 6.4375 -7.960938 6.351562 -7.394531 6.1875 -6.8125 C 6.03125 -6.226562 5.828125 -5.65625 5.578125 -5.09375 C 5.328125 -4.539062 5.050781 -4.015625 4.75 -3.515625 C 4.445312 -3.015625 4.15625 -2.570312 3.875 -2.1875 L 3.171875 -1.53125 L 3.171875 -1.453125 L 4.125 -1.703125 L 6.609375 -1.703125 L 6.609375 0 L 0.984375 0 L 0.984375 -1.109375 C 1.210938 -1.378906 1.457031 -1.691406 1.71875 -2.046875 C 1.976562 -2.410156 2.238281 -2.789062 2.5 -3.1875 C 2.757812 -3.59375 3.007812 -4.007812 3.25 -4.4375 C 3.5 -4.875 3.71875 -5.304688 3.90625 -5.734375 C 4.09375 -6.171875 4.242188 -6.59375 4.359375 -7 C 4.472656 -7.414062 4.519531 -7.804688 4.5 -8.171875 C 4.519531 -8.617188 4.421875 -8.984375 4.203125 -9.265625 C 3.992188 -9.546875 3.660156 -9.6875 3.203125 -9.6875 C 2.929688 -9.6875 2.65625 -9.625 2.375 -9.5 C 2.101562 -9.375 1.875 -9.226562 1.6875 -9.0625 L 0.9375 -10.453125 C 1.289062 -10.742188 1.691406 -10.976562 2.140625 -11.15625 C 2.585938 -11.332031 3.117188 -11.421875 3.734375 -11.421875 C 4.109375 -11.421875 4.460938 -11.359375 4.796875 -11.234375 C 5.128906 -11.117188 5.414062 -10.9375 5.65625 -10.6875 C 5.894531 -10.4375 6.082031 -10.128906 6.21875 -9.765625 C 6.363281 -9.410156 6.4375 -8.992188 6.4375 -8.515625 Z M 6.4375 -8.515625"/></symbol><symbol overflow="visible" id="C"><path d="M 3.203125 -1.46875 C 3.722656 -1.46875 4.117188 -1.644531 4.390625 -2 C 4.660156 -2.351562 4.796875 -2.800781 4.796875 -3.34375 C 4.796875 -4.550781 4.203125 -5.15625 3.015625 -5.15625 L 2.0625 -5.15625 L 2.0625 -6.234375 L 3.640625 -8.921875 L 4.421875 -9.640625 L 3.359375 -9.5 L 1.171875 -9.5 L 1.171875 -11.203125 L 6.28125 -11.203125 L 6.28125 -10.0625 L 4.4375 -7.046875 L 3.84375 -6.609375 L 3.84375 -6.53125 L 4.4375 -6.625 C 4.726562 -6.601562 5.015625 -6.519531 5.296875 -6.375 C 5.578125 -6.238281 5.820312 -6.039062 6.03125 -5.78125 C 6.238281 -5.53125 6.398438 -5.210938 6.515625 -4.828125 C 6.640625 -4.441406 6.703125 -3.988281 6.703125 -3.46875 C 6.703125 -2.84375 6.613281 -2.300781 6.4375 -1.84375 C 6.257812 -1.382812 6.019531 -1 5.71875 -0.6875 C 5.414062 -0.375 5.054688 -0.144531 4.640625 0 C 4.234375 0.144531 3.796875 0.21875 3.328125 0.21875 C 2.929688 0.21875 2.515625 0.175781 2.078125 0.09375 C 1.640625 0.0078125 1.296875 -0.109375 1.046875 -0.265625 L 1.546875 -1.875 C 1.773438 -1.757812 2.019531 -1.660156 2.28125 -1.578125 C 2.550781 -1.503906 2.859375 -1.46875 3.203125 -1.46875 Z M 3.203125 -1.46875"/></symbol><symbol overflow="visible" id="D"><path d="M 7.4375 -3.125 L 6.03125 -3.125 L 6.03125 0 L 4.21875 0 L 4.21875 -3.125 L 0.265625 -3.125 L 0.265625 -4.296875 L 4.375 -11.28125 L 6.03125 -11.28125 L 6.03125 -4.75 L 7.4375 -4.75 Z M 4.21875 -7.234375 L 4.40625 -8.671875 L 4.34375 -8.671875 L 3.859375 -7.375 L 2.59375 -5.234375 L 1.953125 -4.625 L 2.765625 -4.75 L 4.21875 -4.75 Z M 4.21875 -7.234375"/></symbol><symbol overflow="visible" id="E"><path d="M 2.921875 -1.515625 C 3.503906 -1.515625 3.941406 -1.703125 4.234375 -2.078125 C 4.535156 -2.453125 4.6875 -2.929688 4.6875 -3.515625 C 4.6875 -4.191406 4.507812 -4.675781 4.15625 -4.96875 C 3.800781 -5.269531 3.296875 -5.421875 2.640625 -5.421875 L 1.59375 -5.359375 L 1.59375 -11.203125 L 6.25 -11.203125 L 6.25 -9.34375 L 3.234375 -9.34375 L 3.234375 -7.0625 L 3.765625 -7.125 C 4.628906 -7.09375 5.316406 -6.769531 5.828125 -6.15625 C 6.335938 -5.550781 6.59375 -4.695312 6.59375 -3.59375 C 6.59375 -2.96875 6.5 -2.414062 6.3125 -1.9375 C 6.132812 -1.457031 5.890625 -1.054688 5.578125 -0.734375 C 5.265625 -0.410156 4.890625 -0.171875 4.453125 -0.015625 C 4.015625 0.140625 3.539062 0.21875 3.03125 0.21875 C 2.644531 0.21875 2.253906 0.175781 1.859375 0.09375 C 1.472656 0.0195312 1.15625 -0.078125 0.90625 -0.203125 L 1.40625 -1.828125 C 1.800781 -1.617188 2.304688 -1.515625 2.921875 -1.515625 Z M 2.921875 -1.515625"/></symbol><symbol overflow="visible" id="F"><path d="M 7.015625 -3.46875 C 7.015625 -2.90625 6.9375 -2.394531 6.78125 -1.9375 C 6.625 -1.476562 6.410156 -1.085938 6.140625 -0.765625 C 5.867188 -0.441406 5.539062 -0.195312 5.15625 -0.03125 C 4.78125 0.132812 4.367188 0.21875 3.921875 0.21875 C 3.453125 0.21875 3.019531 0.140625 2.625 -0.015625 C 2.226562 -0.179688 1.882812 -0.4375 1.59375 -0.78125 C 1.3125 -1.125 1.085938 -1.5625 0.921875 -2.09375 C 0.765625 -2.632812 0.6875 -3.273438 0.6875 -4.015625 C 0.6875 -5.097656 0.816406 -6.066406 1.078125 -6.921875 C 1.335938 -7.785156 1.6875 -8.523438 2.125 -9.140625 C 2.570312 -9.765625 3.082031 -10.265625 3.65625 -10.640625 C 4.226562 -11.023438 4.828125 -11.285156 5.453125 -11.421875 L 5.9375 -9.875 C 5.519531 -9.769531 5.128906 -9.597656 4.765625 -9.359375 C 4.398438 -9.128906 4.070312 -8.847656 3.78125 -8.515625 C 3.5 -8.179688 3.257812 -7.800781 3.0625 -7.375 C 2.863281 -6.957031 2.71875 -6.515625 2.625 -6.046875 C 2.800781 -6.304688 3.03125 -6.515625 3.3125 -6.671875 C 3.59375 -6.828125 3.9375 -6.90625 4.34375 -6.90625 C 4.71875 -6.90625 5.066406 -6.835938 5.390625 -6.703125 C 5.722656 -6.566406 6.007812 -6.351562 6.25 -6.0625 C 6.488281 -5.769531 6.675781 -5.410156 6.8125 -4.984375 C 6.945312 -4.554688 7.015625 -4.050781 7.015625 -3.46875 Z M 5.171875 -3.359375 C 5.171875 -4.015625 5.0625 -4.488281 4.84375 -4.78125 C 4.625 -5.070312 4.289062 -5.21875 3.84375 -5.21875 C 3.519531 -5.21875 3.242188 -5.125 3.015625 -4.9375 C 2.796875 -4.757812 2.640625 -4.546875 2.546875 -4.296875 C 2.535156 -4.179688 2.53125 -4.0625 2.53125 -3.9375 C 2.53125 -3.820312 2.53125 -3.703125 2.53125 -3.578125 C 2.53125 -3.304688 2.554688 -3.046875 2.609375 -2.796875 C 2.660156 -2.546875 2.742188 -2.320312 2.859375 -2.125 C 2.972656 -1.925781 3.109375 -1.765625 3.265625 -1.640625 C 3.429688 -1.523438 3.632812 -1.46875 3.875 -1.46875 C 4.257812 -1.46875 4.570312 -1.628906 4.8125 -1.953125 C 5.050781 -2.285156 5.171875 -2.753906 5.171875 -3.359375 Z M 5.171875 -3.359375"/></symbol><symbol overflow="visible" id="G"><path d="M 1.40625 0 L 4.4375 -8.75 L 5.015625 -9.53125 L 4.203125 -9.375 L 0.828125 -9.375 L 0.828125 -11.203125 L 6.890625 -11.203125 L 6.890625 -10.59375 L 3.265625 0 Z M 1.40625 0"/></symbol><symbol overflow="visible" id="H"><path d="M 0.796875 -2.6875 C 0.796875 -3.070312 0.835938 -3.414062 0.921875 -3.71875 C 1.015625 -4.019531 1.132812 -4.289062 1.28125 -4.53125 C 1.425781 -4.769531 1.59375 -4.984375 1.78125 -5.171875 C 1.96875 -5.367188 2.171875 -5.550781 2.390625 -5.71875 C 1.972656 -6.039062 1.644531 -6.414062 1.40625 -6.84375 C 1.164062 -7.28125 1.046875 -7.820312 1.046875 -8.46875 C 1.046875 -9.375 1.296875 -10.09375 1.796875 -10.625 C 2.304688 -11.15625 3.003906 -11.421875 3.890625 -11.421875 C 4.703125 -11.421875 5.359375 -11.1875 5.859375 -10.71875 C 6.359375 -10.25 6.609375 -9.582031 6.609375 -8.71875 C 6.609375 -8.09375 6.488281 -7.5625 6.25 -7.125 C 6.019531 -6.6875 5.6875 -6.28125 5.25 -5.90625 C 5.78125 -5.53125 6.175781 -5.109375 6.4375 -4.640625 C 6.707031 -4.171875 6.84375 -3.578125 6.84375 -2.859375 C 6.84375 -2.378906 6.765625 -1.945312 6.609375 -1.5625 C 6.460938 -1.175781 6.25 -0.847656 5.96875 -0.578125 C 5.695312 -0.316406 5.375 -0.117188 5 0.015625 C 4.632812 0.148438 4.234375 0.21875 3.796875 0.21875 C 3.347656 0.21875 2.941406 0.148438 2.578125 0.015625 C 2.210938 -0.109375 1.894531 -0.289062 1.625 -0.53125 C 1.363281 -0.78125 1.160156 -1.085938 1.015625 -1.453125 C 0.867188 -1.816406 0.796875 -2.226562 0.796875 -2.6875 Z M 5.015625 -2.859375 C 5.015625 -3.128906 4.96875 -3.367188 4.875 -3.578125 C 4.789062 -3.796875 4.675781 -3.988281 4.53125 -4.15625 C 4.382812 -4.320312 4.222656 -4.472656 4.046875 -4.609375 C 3.878906 -4.742188 3.707031 -4.878906 3.53125 -5.015625 C 3.15625 -4.722656 2.894531 -4.40625 2.75 -4.0625 C 2.613281 -3.726562 2.546875 -3.394531 2.546875 -3.0625 C 2.546875 -2.613281 2.65625 -2.234375 2.875 -1.921875 C 3.101562 -1.617188 3.421875 -1.46875 3.828125 -1.46875 C 4.191406 -1.46875 4.476562 -1.582031 4.6875 -1.8125 C 4.90625 -2.039062 5.015625 -2.390625 5.015625 -2.859375 Z M 2.859375 -8.4375 C 2.859375 -8.1875 2.894531 -7.96875 2.96875 -7.78125 C 3.039062 -7.59375 3.132812 -7.425781 3.25 -7.28125 C 3.363281 -7.132812 3.5 -7 3.65625 -6.875 C 3.8125 -6.75 3.972656 -6.632812 4.140625 -6.53125 C 4.390625 -6.8125 4.570312 -7.09375 4.6875 -7.375 C 4.8125 -7.664062 4.875 -7.992188 4.875 -8.359375 C 4.875 -8.796875 4.773438 -9.132812 4.578125 -9.375 C 4.378906 -9.613281 4.144531 -9.734375 3.875 -9.734375 C 3.519531 -9.734375 3.257812 -9.597656 3.09375 -9.328125 C 2.9375 -9.066406 2.859375 -8.769531 2.859375 -8.4375 Z M 2.859375 -8.4375"/></symbol></defs><path fill="#fff" d="M0 0H842V590H0z"/><path d="M 24.22082 15.558361 L 66.22082 15.558361 L 66.22082 44.999963 L 24.22082 44.999963 Z M 24.22082 15.558361" transform="matrix(20 0 0 20 -483.416 -310.167)" fill-rule="evenodd" fill="#fff" stroke-width=".1" stroke="#fff" stroke-miterlimit="10"/><path d="M 59.597577 24.976916 L 63.195038 24.976916 C 63.691718 24.976916 64.094452 25.50172 64.094452 26.149377 C 64.094452 26.796838 63.691718 27.321838 63.195038 27.321838 L 59.597577 27.321838 C 59.100898 27.321838 58.698163 26.796838 58.698163 26.149377 C 58.698163 25.50172 59.100898 24.976916 59.597577 24.976916" transform="matrix(20 0 0 20 -483.416 -310.167)" fill-rule="evenodd" fill="#b2d4eb" stroke-width=".1" stroke="#000" stroke-miterlimit="10"/><use xlink:href="#a" x="712.012" y="220.438"/><use xlink:href="#b" x="720.859" y="220.438"/><use xlink:href="#c" x="729.121" y="220.438"/><use xlink:href="#d" x="735.879" y="220.438"/><use xlink:href="#e" x="744.57" y="220.438"/><use xlink:href="#f" x="753.203" y="220.438"/><use xlink:href="#c" x="761.992" y="220.438"/><use xlink:href="#b" x="768.75" y="220.438"/><path d="M 26.507734 24.976916 L 30.105195 24.976916 C 30.601874 24.976916 31.004609 25.50172 31.004609 26.149377 C 31.004609 26.796838 30.601874 27.321838 30.105195 27.321838 L 26.507734 27.321838 C 26.011054 27.321838 25.60832 26.796838 25.60832 26.149377 C 25.60832 25.50172 26.011054 24.976916 26.507734 24.976916" transform="matrix(20 0 0 20 -483.416 -310.167)" fill-rule="evenodd" fill="#b2d4eb" stroke-width=".1" stroke="#000" stroke-miterlimit="10"/><use xlink:href="#a" x="55.313" y="220.438"/><use xlink:href="#b" x="64.16" y="220.438"/><use xlink:href="#g" x="72.285" y="220.438"/><use xlink:href="#h" x="80.918" y="220.438"/><use xlink:href="#b" x="89.59" y="220.438"/><use xlink:href="#c" x="97.852" y="220.438"/><use xlink:href="#i" x="104.609" y="220.438"/><path d="M 194.503906 293.136719 L 277.742188 293.136719 L 277.742188 356.84375 L 194.503906 356.84375 Z M 194.503906 293.136719" fill-rule="evenodd" fill="#fddfbb"/><path d="M 194.503906 299.136719 L 194.503906 293.136719 C 191.191406 293.136719 188.503906 295.824219 188.503906 299.136719 Z M 194.503906 299.136719" fill-rule="evenodd" fill="#fddfbb"/><path d="M 277.742188 299.136719 L 283.742188 299.136719 C 283.742188 295.824219 281.058594 293.136719 277.742188 293.136719 Z M 277.742188 299.136719" fill-rule="evenodd" fill="#fddfbb"/><path d="M 188.503906 299.136719 L 283.742188 299.136719 L 283.742188 350.84375 L 188.503906 350.84375 Z M 188.503906 299.136719" fill-rule="evenodd" fill="#fddfbb"/><path d="M 194.503906 350.84375 L 188.503906 350.84375 C 188.503906 354.15625 191.191406 356.84375 194.503906 356.84375 Z M 194.503906 350.84375" fill-rule="evenodd" fill="#fddfbb"/><path d="M 277.742188 350.84375 L 277.742188 356.84375 C 281.058594 356.84375 283.742188 354.15625 283.742188 350.84375 Z M 277.742188 350.84375" fill-rule="evenodd" fill="#fddfbb"/><path d="M 33.896015 30.165197 L 38.057929 30.165197" transform="matrix(20 0 0 20 -483.416 -310.167)" fill="none" stroke-width=".1" stroke="#000" stroke-miterlimit="10"/><path d="M 33.896015 33.350548 L 38.057929 33.350548" transform="matrix(20 0 0 20 -483.416 -310.167)" fill="none" stroke-width=".1" stroke="#000" stroke-miterlimit="10"/><path d="M 33.896015 30.165197 L 33.896015 30.165197 C 33.73039 30.165197 33.596015 30.299572 33.596015 30.465197" transform="matrix(20 0 0 20 -483.416 -310.167)" fill="none" stroke-width=".1" stroke="#000" stroke-miterlimit="10"/><path d="M 38.357929 30.465197 L 38.357929 30.465197 C 38.357929 30.299572 38.223749 30.165197 38.057929 30.165197" transform="matrix(20 0 0 20 -483.416 -310.167)" fill="none" stroke-width=".1" stroke="#000" stroke-miterlimit="10"/><path d="M 33.596015 30.465197 L 33.596015 33.050548" transform="matrix(20 0 0 20 -483.416 -310.167)" fill="none" stroke-width=".1" stroke="#000" stroke-miterlimit="10"/><path d="M 38.357929 30.465197 L 38.357929 33.050548" transform="matrix(20 0 0 20 -483.416 -310.167)" fill="none" stroke-width=".1" stroke="#000" stroke-miterlimit="10"/><path d="M 33.596015 33.050548 L 33.596015 33.050548 C 33.596015 33.216173 33.73039 33.350548 33.896015 33.350548" transform="matrix(20 0 0 20 -483.416 -310.167)" fill="none" stroke-width=".1" stroke="#000" stroke-miterlimit="10"/><path d="M 38.057929 33.350548 L 38.057929 33.350548 C 38.223749 33.350548 38.357929 33.216173 38.357929 33.050548" transform="matrix(20 0 0 20 -483.416 -310.167)" fill="none" stroke-width=".1" stroke="#000" stroke-miterlimit="10"/><use xlink:href="#j" x="211.223" y="320.242"/><use xlink:href="#b" x="216.711" y="320.242"/><use xlink:href="#c" x="224.973" y="320.242"/><use xlink:href="#e" x="231.73" y="320.242"/><use xlink:href="#k" x="240.363" y="320.242"/><use xlink:href="#l" x="245.031" y="320.242"/><use xlink:href="#b" x="252.785" y="320.242"/><use xlink:href="#m" x="202.648" y="345.641"/><use xlink:href="#e" x="209.465" y="345.641"/><use xlink:href="#f" x="218.098" y="345.641"/><use xlink:href="#i" x="226.887" y="345.641"/><use xlink:href="#j" x="232.395" y="345.641"/><use xlink:href="#e" x="237.883" y="345.641"/><use xlink:href="#k" x="246.516" y="345.641"/><use xlink:href="#k" x="251.184" y="345.641"/><use xlink:href="#b" x="255.852" y="345.641"/><use xlink:href="#j" x="264.113" y="345.641"/><path d="M 194.503906 180.964844 L 277.742188 180.964844 L 277.742188 244.671875 L 194.503906 244.671875 Z M 194.503906 180.964844" fill-rule="evenodd" fill="#b2dec7"/><path d="M 194.503906 186.964844 L 194.503906 180.964844 C 191.191406 180.964844 188.503906 183.652344 188.503906 186.964844 Z M 194.503906 186.964844" fill-rule="evenodd" fill="#b2dec7"/><path d="M 277.742188 186.964844 L 283.742188 186.964844 C 283.742188 183.652344 281.058594 180.964844 277.742188 180.964844 Z M 277.742188 186.964844" fill-rule="evenodd" fill="#b2dec7"/><path d="M 188.503906 186.964844 L 283.742188 186.964844 L 283.742188 238.671875 L 188.503906 238.671875 Z M 188.503906 186.964844" fill-rule="evenodd" fill="#b2dec7"/><path d="M 194.503906 238.671875 L 188.503906 238.671875 C 188.503906 241.984375 191.191406 244.671875 194.503906 244.671875 Z M 194.503906 238.671875" fill-rule="evenodd" fill="#b2dec7"/><path d="M 277.742188 238.671875 L 277.742188 244.671875 C 281.058594 244.671875 283.742188 241.984375 283.742188 238.671875 Z M 277.742188 238.671875" fill-rule="evenodd" fill="#b2dec7"/><path d="M 33.896015 24.556603 L 38.057929 24.556603" transform="matrix(20 0 0 20 -483.416 -310.167)" fill="none" stroke-width=".1" stroke="#000" stroke-miterlimit="10"/><path d="M 33.896015 27.741955 L 38.057929 27.741955" transform="matrix(20 0 0 20 -483.416 -310.167)" fill="none" stroke-width=".1" stroke="#000" stroke-miterlimit="10"/><path d="M 33.896015 24.556603 L 33.896015 24.556603 C 33.73039 24.556603 33.596015 24.690978 33.596015 24.856603" transform="matrix(20 0 0 20 -483.416 -310.167)" fill="none" stroke-width=".1" stroke="#000" stroke-miterlimit="10"/><path d="M 38.357929 24.856603 L 38.357929 24.856603 C 38.357929 24.690978 38.223749 24.556603 38.057929 24.556603" transform="matrix(20 0 0 20 -483.416 -310.167)" fill="none" stroke-width=".1" stroke="#000" stroke-miterlimit="10"/><path d="M 33.596015 24.856603 L 33.596015 27.441955" transform="matrix(20 0 0 20 -483.416 -310.167)" fill="none" stroke-width=".1" stroke="#000" stroke-miterlimit="10"/><path d="M 38.357929 24.856603 L 38.357929 27.441955" transform="matrix(20 0 0 20 -483.416 -310.167)" fill="none" stroke-width=".1" stroke="#000" stroke-miterlimit="10"/><path d="M 33.596015 27.441955 L 33.596015 27.441955 C 33.596015 27.60758 33.73039 27.741955 33.896015 27.741955" transform="matrix(20 0 0 20 -483.416 -310.167)" fill="none" stroke-width=".1" stroke="#000" stroke-miterlimit="10"/><path d="M 38.057929 27.741955 L 38.057929 27.741955 C 38.223749 27.741955 38.357929 27.60758 38.357929 27.441955" transform="matrix(20 0 0 20 -483.416 -310.167)" fill="none" stroke-width=".1" stroke="#000" stroke-miterlimit="10"/><use xlink:href="#j" x="210.402" y="220.77"/><use xlink:href="#b" x="215.891" y="220.77"/><use xlink:href="#g" x="224.016" y="220.77"/><use xlink:href="#h" x="232.648" y="220.77"/><use xlink:href="#b" x="241.32" y="220.77"/><use xlink:href="#c" x="249.582" y="220.77"/><use xlink:href="#i" x="256.34" y="220.77"/><path d="M 194.503906 389.136719 L 277.742188 389.136719 L 277.742188 452.84375 L 194.503906 452.84375 Z M 194.503906 389.136719" fill-rule="evenodd" fill="#f2f2f2"/><path d="M 194.503906 395.136719 L 194.503906 389.136719 C 191.191406 389.136719 188.503906 391.824219 188.503906 395.136719 Z M 194.503906 395.136719" fill-rule="evenodd" fill="#f2f2f2"/><path d="M 277.742188 395.136719 L 283.742188 395.136719 C 283.742188 391.824219 281.058594 389.136719 277.742188 389.136719 Z M 277.742188 395.136719" fill-rule="evenodd" fill="#f2f2f2"/><path d="M 188.503906 395.136719 L 283.742188 395.136719 L 283.742188 446.84375 L 188.503906 446.84375 Z M 188.503906 395.136719" fill-rule="evenodd" fill="#f2f2f2"/><path d="M 194.503906 446.84375 L 188.503906 446.84375 C 188.503906 450.15625 191.191406 452.84375 194.503906 452.84375 Z M 194.503906 446.84375" fill-rule="evenodd" fill="#f2f2f2"/><path d="M 277.742188 446.84375 L 277.742188 452.84375 C 281.058594 452.84375 283.742188 450.15625 283.742188 446.84375 Z M 277.742188 446.84375" fill-rule="evenodd" fill="#f2f2f2"/><path d="M 33.896015 34.965197 L 38.057929 34.965197" transform="matrix(20 0 0 20 -483.416 -310.167)" fill="none" stroke-width=".1" stroke="#000" stroke-miterlimit="10"/><path d="M 33.896015 38.150548 L 38.057929 38.150548" transform="matrix(20 0 0 20 -483.416 -310.167)" fill="none" stroke-width=".1" stroke="#000" stroke-miterlimit="10"/><path d="M 33.896015 34.965197 L 33.896015 34.965197 C 33.73039 34.965197 33.596015 35.099572 33.596015 35.265197" transform="matrix(20 0 0 20 -483.416 -310.167)" fill="none" stroke-width=".1" stroke="#000" stroke-miterlimit="10"/><path d="M 38.357929 35.265197 L 38.357929 35.265197 C 38.357929 35.099572 38.223749 34.965197 38.057929 34.965197" transform="matrix(20 0 0 20 -483.416 -310.167)" fill="none" stroke-width=".1" stroke="#000" stroke-miterlimit="10"/><path d="M 33.596015 35.265197 L 33.596015 37.850548" transform="matrix(20 0 0 20 -483.416 -310.167)" fill="none" stroke-width=".1" stroke="#000" stroke-miterlimit="10"/><path d="M 38.357929 35.265197 L 38.357929 37.850548" transform="matrix(20 0 0 20 -483.416 -310.167)" fill="none" stroke-width=".1" stroke="#000" stroke-miterlimit="10"/><path d="M 33.596015 37.850548 L 33.596015 37.850548 C 33.596015 38.016173 33.73039 38.150548 33.896015 38.150548" transform="matrix(20 0 0 20 -483.416 -310.167)" fill="none" stroke-width=".1" stroke="#000" stroke-miterlimit="10"/><path d="M 38.057929 38.150548 L 38.057929 38.150548 C 38.223749 38.150548 38.357929 38.016173 38.357929 37.850548" transform="matrix(20 0 0 20 -483.416 -310.167)" fill="none" stroke-width=".1" stroke="#000" stroke-miterlimit="10"/><use xlink:href="#m" x="202.648" y="428.941"/><use xlink:href="#e" x="209.465" y="428.941"/><use xlink:href="#f" x="218.098" y="428.941"/><use xlink:href="#i" x="226.887" y="428.941"/><use xlink:href="#j" x="232.395" y="428.941"/><use xlink:href="#e" x="237.883" y="428.941"/><use xlink:href="#k" x="246.516" y="428.941"/><use xlink:href="#k" x="251.184" y="428.941"/><use xlink:href="#b" x="255.852" y="428.941"/><use xlink:href="#j" x="264.113" y="428.941"/><path d="M 194.503906 485.4375 L 277.742188 485.4375 L 277.742188 549.144531 L 194.503906 549.144531 Z M 194.503906 485.4375" fill-rule="evenodd" fill="#fddfbb"/><path d="M 194.503906 491.4375 L 194.503906 485.4375 C 191.191406 485.4375 188.503906 488.125 188.503906 491.4375 Z M 194.503906 491.4375" fill-rule="evenodd" fill="#fddfbb"/><path d="M 277.742188 491.4375 L 283.742188 491.4375 C 283.742188 488.125 281.058594 485.4375 277.742188 485.4375 Z M 277.742188 491.4375" fill-rule="evenodd" fill="#fddfbb"/><path d="M 188.503906 491.4375 L 283.742188 491.4375 L 283.742188 543.144531 L 188.503906 543.144531 Z M 188.503906 491.4375" fill-rule="evenodd" fill="#fddfbb"/><path d="M 194.503906 543.144531 L 188.503906 543.144531 C 188.503906 546.457031 191.191406 549.144531 194.503906 549.144531 Z M 194.503906 543.144531" fill-rule="evenodd" fill="#fddfbb"/><path d="M 277.742188 543.144531 L 277.742188 549.144531 C 281.058594 549.144531 283.742188 546.457031 283.742188 543.144531 Z M 277.742188 543.144531" fill-rule="evenodd" fill="#fddfbb"/><path d="M 33.896015 39.780236 L 38.057929 39.780236" transform="matrix(20 0 0 20 -483.416 -310.167)" fill="none" stroke-width=".1" stroke="#000" stroke-miterlimit="10"/><path d="M 33.896015 42.965588 L 38.057929 42.965588" transform="matrix(20 0 0 20 -483.416 -310.167)" fill="none" stroke-width=".1" stroke="#000" stroke-miterlimit="10"/><path d="M 33.896015 39.780236 L 33.896015 39.780236 C 33.73039 39.780236 33.596015 39.914611 33.596015 40.080236" transform="matrix(20 0 0 20 -483.416 -310.167)" fill="none" stroke-width=".1" stroke="#000" stroke-miterlimit="10"/><path d="M 38.357929 40.080236 L 38.357929 40.080236 C 38.357929 39.914611 38.223749 39.780236 38.057929 39.780236" transform="matrix(20 0 0 20 -483.416 -310.167)" fill="none" stroke-width=".1" stroke="#000" stroke-miterlimit="10"/><path d="M 33.596015 40.080236 L 33.596015 42.665588" transform="matrix(20 0 0 20 -483.416 -310.167)" fill="none" stroke-width=".1" stroke="#000" stroke-miterlimit="10"/><path d="M 38.357929 40.080236 L 38.357929 42.665588" transform="matrix(20 0 0 20 -483.416 -310.167)" fill="none" stroke-width=".1" stroke="#000" stroke-miterlimit="10"/><path d="M 33.596015 42.665588 L 33.596015 42.665588 C 33.596015 42.831213 33.73039 42.965588 33.896015 42.965588" transform="matrix(20 0 0 20 -483.416 -310.167)" fill="none" stroke-width=".1" stroke="#000" stroke-miterlimit="10"/><path d="M 38.057929 42.965588 L 38.057929 42.965588 C 38.223749 42.965588 38.357929 42.831213 38.357929 42.665588" transform="matrix(20 0 0 20 -483.416 -310.167)" fill="none" stroke-width=".1" stroke="#000" stroke-miterlimit="10"/><use xlink:href="#j" x="211.223" y="512.539"/><use xlink:href="#b" x="216.711" y="512.539"/><use xlink:href="#c" x="224.973" y="512.539"/><use xlink:href="#e" x="231.73" y="512.539"/><use xlink:href="#k" x="240.363" y="512.539"/><use xlink:href="#l" x="245.031" y="512.539"/><use xlink:href="#b" x="252.785" y="512.539"/><use xlink:href="#n" x="199.563" y="537.941"/><use xlink:href="#j" x="207.57" y="537.941"/><use xlink:href="#o" x="213.059" y="537.941"/><use xlink:href="#h" x="221.691" y="537.941"/><use xlink:href="#p" x="230.363" y="537.941"/><use xlink:href="#b" x="243.391" y="537.941"/><use xlink:href="#f" x="251.652" y="537.941"/><use xlink:href="#i" x="260.441" y="537.941"/><use xlink:href="#c" x="265.949" y="537.941"/><path d="M 43.641327 38.788439 L 47.213007 41.372814 L 43.641327 43.957384 L 40.069452 41.372814 Z M 43.641327 38.788439" transform="matrix(20 0 0 20 -483.416 -310.167)" fill-rule="evenodd" fill="#fff" stroke-width=".1" stroke="#000" stroke-miterlimit="10"/><use xlink:href="#q" x="376.285" y="512.539"/><use xlink:href="#n" x="385.211" y="512.539"/><use xlink:href="#k" x="393.219" y="512.539"/><use xlink:href="#k" x="397.887" y="512.539"/><use xlink:href="#m" x="355.934" y="537.941"/><use xlink:href="#e" x="362.75" y="537.941"/><use xlink:href="#f" x="371.383" y="537.941"/><use xlink:href="#i" x="380.172" y="537.941"/><use xlink:href="#j" x="385.68" y="537.941"/><use xlink:href="#e" x="391.168" y="537.941"/><use xlink:href="#k" x="399.801" y="537.941"/><use xlink:href="#k" x="404.469" y="537.941"/><use xlink:href="#b" x="409.137" y="537.941"/><use xlink:href="#j" x="417.398" y="537.941"/><path d="M 551.910156 180.964844 L 635.148438 180.964844 L 635.148438 244.671875 L 551.910156 244.671875 Z M 551.910156 180.964844" fill-rule="evenodd" fill="#b2dec7"/><path d="M 551.910156 186.964844 L 551.910156 180.964844 C 548.597656 180.964844 545.910156 183.652344 545.910156 186.964844 Z M 551.910156 186.964844" fill-rule="evenodd" fill="#b2dec7"/><path d="M 635.148438 186.964844 L 641.148438 186.964844 C 641.148438 183.652344 638.464844 180.964844 635.148438 180.964844 Z M 635.148438 186.964844" fill-rule="evenodd" fill="#b2dec7"/><path d="M 545.910156 186.964844 L 641.148438 186.964844 L 641.148438 238.671875 L 545.910156 238.671875 Z M 545.910156 186.964844" fill-rule="evenodd" fill="#b2dec7"/><path d="M 551.910156 238.671875 L 545.910156 238.671875 C 545.910156 241.984375 548.597656 244.671875 551.910156 244.671875 Z M 551.910156 238.671875" fill-rule="evenodd" fill="#b2dec7"/><path d="M 635.148438 238.671875 L 635.148438 244.671875 C 638.464844 244.671875 641.148438 241.984375 641.148438 238.671875 Z M 635.148438 238.671875" fill-rule="evenodd" fill="#b2dec7"/><path d="M 51.766327 24.556603 L 55.928241 24.556603" transform="matrix(20 0 0 20 -483.416 -310.167)" fill="none" stroke-width=".1" stroke="#000" stroke-miterlimit="10"/><path d="M 51.766327 27.741955 L 55.928241 27.741955" transform="matrix(20 0 0 20 -483.416 -310.167)" fill="none" stroke-width=".1" stroke="#000" stroke-miterlimit="10"/><path d="M 51.766327 24.556603 L 51.766327 24.556603 C 51.600702 24.556603 51.466327 24.690978 51.466327 24.856603" transform="matrix(20 0 0 20 -483.416 -310.167)" fill="none" stroke-width=".1" stroke="#000" stroke-miterlimit="10"/><path d="M 56.228241 24.856603 L 56.228241 24.856603 C 56.228241 24.690978 56.094062 24.556603 55.928241 24.556603" transform="matrix(20 0 0 20 -483.416 -310.167)" fill="none" stroke-width=".1" stroke="#000" stroke-miterlimit="10"/><path d="M 51.466327 24.856603 L 51.466327 27.441955" transform="matrix(20 0 0 20 -483.416 -310.167)" fill="none" stroke-width=".1" stroke="#000" stroke-miterlimit="10"/><path d="M 56.228241 24.856603 L 56.228241 27.441955" transform="matrix(20 0 0 20 -483.416 -310.167)" fill="none" stroke-width=".1" stroke="#000" stroke-miterlimit="10"/><path d="M 51.466327 27.441955 L 51.466327 27.441955 C 51.466327 27.60758 51.600702 27.741955 51.766327 27.741955" transform="matrix(20 0 0 20 -483.416 -310.167)" fill="none" stroke-width=".1" stroke="#000" stroke-miterlimit="10"/><path d="M 55.928241 27.741955 L 55.928241 27.741955 C 56.094062 27.741955 56.228241 27.60758 56.228241 27.441955" transform="matrix(20 0 0 20 -483.416 -310.167)" fill="none" stroke-width=".1" stroke="#000" stroke-miterlimit="10"/><use xlink:href="#j" x="562.711" y="220.77"/><use xlink:href="#b" x="568.199" y="220.77"/><use xlink:href="#c" x="576.461" y="220.77"/><use xlink:href="#d" x="583.219" y="220.77"/><use xlink:href="#e" x="591.91" y="220.77"/><use xlink:href="#f" x="600.543" y="220.77"/><use xlink:href="#c" x="609.332" y="220.77"/><use xlink:href="#b" x="616.09" y="220.77"/><path d="M 496.730469 485.4375 L 579.96875 485.4375 L 579.96875 549.144531 L 496.730469 549.144531 Z M 496.730469 485.4375" fill-rule="evenodd" fill="#f2f2f2"/><path d="M 496.730469 491.4375 L 496.730469 485.4375 C 493.417969 485.4375 490.730469 488.125 490.730469 491.4375 Z M 496.730469 491.4375" fill-rule="evenodd" fill="#f2f2f2"/><path d="M 579.96875 491.4375 L 585.96875 491.4375 C 585.96875 488.125 583.285156 485.4375 579.96875 485.4375 Z M 579.96875 491.4375" fill-rule="evenodd" fill="#f2f2f2"/><path d="M 490.730469 491.4375 L 585.96875 491.4375 L 585.96875 543.144531 L 490.730469 543.144531 Z M 490.730469 491.4375" fill-rule="evenodd" fill="#f2f2f2"/><path d="M 496.730469 543.144531 L 490.730469 543.144531 C 490.730469 546.457031 493.417969 549.144531 496.730469 549.144531 Z M 496.730469 543.144531" fill-rule="evenodd" fill="#f2f2f2"/><path d="M 579.96875 543.144531 L 579.96875 549.144531 C 583.285156 549.144531 585.96875 546.457031 585.96875 543.144531 Z M 579.96875 543.144531" fill-rule="evenodd" fill="#f2f2f2"/><path d="M 49.007343 39.780236 L 53.169257 39.780236" transform="matrix(20 0 0 20 -483.416 -310.167)" fill="none" stroke-width=".1" stroke="#000" stroke-miterlimit="10"/><path d="M 49.007343 42.965588 L 53.169257 42.965588" transform="matrix(20 0 0 20 -483.416 -310.167)" fill="none" stroke-width=".1" stroke="#000" stroke-miterlimit="10"/><path d="M 49.007343 39.780236 L 49.007343 39.780236 C 48.841718 39.780236 48.707343 39.914611 48.707343 40.080236" transform="matrix(20 0 0 20 -483.416 -310.167)" fill="none" stroke-width=".1" stroke="#000" stroke-miterlimit="10"/><path d="M 53.469257 40.080236 L 53.469257 40.080236 C 53.469257 39.914611 53.335077 39.780236 53.169257 39.780236" transform="matrix(20 0 0 20 -483.416 -310.167)" fill="none" stroke-width=".1" stroke="#000" stroke-miterlimit="10"/><path d="M 48.707343 40.080236 L 48.707343 42.665588" transform="matrix(20 0 0 20 -483.416 -310.167)" fill="none" stroke-width=".1" stroke="#000" stroke-miterlimit="10"/><path d="M 53.469257 40.080236 L 53.469257 42.665588" transform="matrix(20 0 0 20 -483.416 -310.167)" fill="none" stroke-width=".1" stroke="#000" stroke-miterlimit="10"/><path d="M 48.707343 42.665588 L 48.707343 42.665588 C 48.707343 42.831213 48.841718 42.965588 49.007343 42.965588" transform="matrix(20 0 0 20 -483.416 -310.167)" fill="none" stroke-width=".1" stroke="#000" stroke-miterlimit="10"/><path d="M 53.169257 42.965588 L 53.169257 42.965588 C 53.335077 42.965588 53.469257 42.831213 53.469257 42.665588" transform="matrix(20 0 0 20 -483.416 -310.167)" fill="none" stroke-width=".1" stroke="#000" stroke-miterlimit="10"/><use xlink:href="#l" x="522.355" y="525.242"/><use xlink:href="#r" x="530.109" y="525.242"/><use xlink:href="#b" x="534.445" y="525.242"/><use xlink:href="#s" x="542.57" y="525.242"/><path d="M 702.890625 282.21875 L 786.128906 282.21875 L 786.128906 345.925781 L 702.890625 345.925781 Z M 702.890625 282.21875" fill-rule="evenodd" fill="#f2f2f2"/><path d="M 702.890625 288.21875 L 702.890625 282.21875 C 699.578125 282.21875 696.890625 284.90625 696.890625 288.21875 Z M 702.890625 288.21875" fill-rule="evenodd" fill="#f2f2f2"/><path d="M 786.128906 288.21875 L 792.128906 288.21875 C 792.128906 284.90625 789.441406 282.21875 786.128906 282.21875 Z M 786.128906 288.21875" fill-rule="evenodd" fill="#f2f2f2"/><path d="M 696.890625 288.21875 L 792.128906 288.21875 L 792.128906 339.925781 L 696.890625 339.925781 Z M 696.890625 288.21875" fill-rule="evenodd" fill="#f2f2f2"/><path d="M 702.890625 339.925781 L 696.890625 339.925781 C 696.890625 343.238281 699.578125 345.925781 702.890625 345.925781 Z M 702.890625 339.925781" fill-rule="evenodd" fill="#f2f2f2"/><path d="M 786.128906 339.925781 L 786.128906 345.925781 C 789.441406 345.925781 792.128906 343.238281 792.128906 339.925781 Z M 786.128906 339.925781" fill-rule="evenodd" fill="#f2f2f2"/><path d="M 59.315351 29.619298 L 63.477265 29.619298" transform="matrix(20 0 0 20 -483.416 -310.167)" fill="none" stroke-width=".1" stroke="#000" stroke-miterlimit="10"/><path d="M 59.315351 32.80465 L 63.477265 32.80465" transform="matrix(20 0 0 20 -483.416 -310.167)" fill="none" stroke-width=".1" stroke="#000" stroke-miterlimit="10"/><path d="M 59.315351 29.619298 L 59.315351 29.619298 C 59.149726 29.619298 59.015351 29.753673 59.015351 29.919298" transform="matrix(20 0 0 20 -483.416 -310.167)" fill="none" stroke-width=".1" stroke="#000" stroke-miterlimit="10"/><path d="M 63.777265 29.919298 L 63.777265 29.919298 C 63.777265 29.753673 63.64289 29.619298 63.477265 29.619298" transform="matrix(20 0 0 20 -483.416 -310.167)" fill="none" stroke-width=".1" stroke="#000" stroke-miterlimit="10"/><path d="M 59.015351 29.919298 L 59.015351 32.50465" transform="matrix(20 0 0 20 -483.416 -310.167)" fill="none" stroke-width=".1" stroke="#000" stroke-miterlimit="10"/><path d="M 63.777265 29.919298 L 63.777265 32.50465" transform="matrix(20 0 0 20 -483.416 -310.167)" fill="none" stroke-width=".1" stroke="#000" stroke-miterlimit="10"/><path d="M 59.015351 32.50465 L 59.015351 32.50465 C 59.015351 32.670275 59.149726 32.80465 59.315351 32.80465" transform="matrix(20 0 0 20 -483.416 -310.167)" fill="none" stroke-width=".1" stroke="#000" stroke-miterlimit="10"/><path d="M 63.477265 32.80465 L 63.477265 32.80465 C 63.64289 32.80465 63.777265 32.670275 63.777265 32.50465" transform="matrix(20 0 0 20 -483.416 -310.167)" fill="none" stroke-width=".1" stroke="#000" stroke-miterlimit="10"/><g><use xlink:href="#i" x="711.055" y="322.023"/><use xlink:href="#b" x="716.426" y="322.023"/><use xlink:href="#j" x="724.688" y="322.023"/><use xlink:href="#p" x="730.176" y="322.023"/><use xlink:href="#r" x="743.203" y="322.023"/><use xlink:href="#f" x="747.539" y="322.023"/><use xlink:href="#n" x="756.328" y="322.023"/><use xlink:href="#i" x="764.336" y="322.023"/><use xlink:href="#b" x="769.707" y="322.023"/></g><path d="M 31.004609 26.149377 L 33.046015 26.149377" transform="matrix(20 0 0 20 -483.416 -310.167)" fill="none" stroke-width=".1" stroke="#000" stroke-dasharray=".1,.1" stroke-miterlimit="10"/><path d="M 33.046015 26.399377 L 33.546015 26.149377 L 33.046015 25.899377 Z M 33.046015 26.399377" transform="matrix(20 0 0 20 -483.416 -310.167)" fill-rule="evenodd" stroke-width=".1" stroke="#000" stroke-miterlimit="10"/><path d="M 35.97707 27.741955 L 35.97707 29.615197" transform="matrix(20 0 0 20 -483.416 -310.167)" fill="none" stroke-width=".1" stroke="#000" stroke-miterlimit="10"/><path d="M 35.72707 29.615197 L 35.97707 30.115197 L 36.22707 29.615197 Z M 35.72707 29.615197" transform="matrix(20 0 0 20 -483.416 -310.167)" fill-rule="evenodd" stroke-width=".1" stroke="#000" stroke-miterlimit="10"/><path d="M 35.97707 33.350548 L 35.97707 34.415197" transform="matrix(20 0 0 20 -483.416 -310.167)" fill="none" stroke-width=".1" stroke="#000" stroke-miterlimit="10"/><path d="M 35.72707 34.415197 L 35.97707 34.915197 L 36.22707 34.415197 Z M 35.72707 34.415197" transform="matrix(20 0 0 20 -483.416 -310.167)" fill-rule="evenodd" stroke-width=".1" stroke="#000" stroke-miterlimit="10"/><path d="M 35.97707 38.150548 L 35.97707 39.230236" transform="matrix(20 0 0 20 -483.416 -310.167)" fill="none" stroke-width=".1" stroke="#000" stroke-miterlimit="10"/><path d="M 35.72707 39.230236 L 35.97707 39.730236 L 36.22707 39.230236 Z M 35.72707 39.230236" transform="matrix(20 0 0 20 -483.416 -310.167)" fill-rule="evenodd" stroke-width=".1" stroke="#000" stroke-miterlimit="10"/><path d="M 38.357929 41.372814 L 39.519452 41.372814" transform="matrix(20 0 0 20 -483.416 -310.167)" fill="none" stroke-width=".1" stroke="#000" stroke-miterlimit="10"/><path d="M 39.519452 41.622814 L 40.019452 41.372814 L 39.519452 41.122814 Z M 39.519452 41.622814" transform="matrix(20 0 0 20 -483.416 -310.167)" fill-rule="evenodd" stroke-width=".1" stroke="#000" stroke-miterlimit="10"/><path d="M 38.357929 26.149377 L 50.916327 26.149377" transform="matrix(20 0 0 20 -483.416 -310.167)" fill="none" stroke-width=".1" stroke="#000" stroke-miterlimit="10"/><path d="M 50.916327 26.399377 L 51.416327 26.149377 L 50.916327 25.899377 Z M 50.916327 26.399377" transform="matrix(20 0 0 20 -483.416 -310.167)" fill-rule="evenodd" stroke-width=".1" stroke="#000" stroke-miterlimit="10"/><path d="M 56.228241 26.149377 L 58.148163 26.149377" transform="matrix(20 0 0 20 -483.416 -310.167)" fill="none" stroke-width=".1" stroke="#000" stroke-dasharray=".1,.1" stroke-miterlimit="10"/><path d="M 58.148163 26.399377 L 58.648163 26.149377 L 58.148163 25.899377 Z M 58.148163 26.399377" transform="matrix(20 0 0 20 -483.416 -310.167)" fill-rule="evenodd" stroke-width=".1" stroke="#000" stroke-miterlimit="10"/><path d="M 47.213007 41.372814 L 48.157343 41.372814" transform="matrix(20 0 0 20 -483.416 -310.167)" fill="none" stroke-width=".1" stroke="#000" stroke-miterlimit="10"/><path d="M 48.157343 41.622814 L 48.657343 41.372814 L 48.157343 41.122814 Z M 48.157343 41.622814" transform="matrix(20 0 0 20 -483.416 -310.167)" fill-rule="evenodd" stroke-width=".1" stroke="#000" stroke-miterlimit="10"/><path d="M 54.737812 41.372814 L 54.737812 41.372814 C 54.817304 41.372814 54.893671 41.341369 54.949921 41.285119 C 55.006171 41.228869 55.037812 41.152502 55.037812 41.072814" transform="matrix(20 0 0 20 -483.416 -310.167)" fill="none" stroke-width=".1" stroke-linejoin="round" stroke="#000" stroke-miterlimit="10"/><path d="M 53.469257 41.372814 L 54.737812 41.372814" transform="matrix(20 0 0 20 -483.416 -310.167)" fill="none" stroke-width=".1" stroke-linejoin="round" stroke="#000" stroke-miterlimit="10"/><path d="M 55.037812 41.072814 L 55.037812 28.291955" transform="matrix(20 0 0 20 -483.416 -310.167)" fill="none" stroke-width=".1" stroke-linejoin="round" stroke="#000" stroke-miterlimit="10"/><path d="M 55.287812 28.291955 L 55.037812 27.791955 L 54.787812 28.291955 Z M 55.287812 28.291955" transform="matrix(20 0 0 20 -483.416 -310.167)" fill-rule="evenodd" stroke-width=".1" stroke="#000" stroke-miterlimit="10"/><path d="M 43.941327 30.515197 L 43.941327 30.515197 C 43.775702 30.515197 43.641327 30.649572 43.641327 30.815197" transform="matrix(20 0 0 20 -483.416 -310.167)" fill="none" stroke-width=".1" stroke-linejoin="round" stroke="#000" stroke-miterlimit="10"/><path d="M 43.641327 38.788439 L 43.641327 30.815197" transform="matrix(20 0 0 20 -483.416 -310.167)" fill="none" stroke-width=".1" stroke-linejoin="round" stroke="#000" stroke-miterlimit="10"/><path d="M 52.356952 30.515197 L 52.356952 30.515197 C 52.522577 30.515197 52.656952 30.381017 52.656952 30.215197" transform="matrix(20 0 0 20 -483.416 -310.167)" fill="none" stroke-width=".1" stroke-linejoin="round" stroke="#000" stroke-miterlimit="10"/><path d="M 43.941327 30.515197 L 52.356952 30.515197" transform="matrix(20 0 0 20 -483.416 -310.167)" fill="none" stroke-width=".1" stroke-linejoin="round" stroke="#000" stroke-miterlimit="10"/><path d="M 52.656952 30.215197 L 52.656952 28.291955" transform="matrix(20 0 0 20 -483.416 -310.167)" fill="none" stroke-width=".1" stroke-linejoin="round" stroke="#000" stroke-miterlimit="10"/><path d="M 52.906952 28.291955 L 52.656952 27.791955 L 52.406952 28.291955 Z M 52.906952 28.291955" transform="matrix(20 0 0 20 -483.416 -310.167)" fill-rule="evenodd" stroke-width=".1" stroke="#000" stroke-miterlimit="10"/><path d="M 301.125 187.394531 L 366.175781 187.394531 L 366.175781 210.792969 L 301.125 210.792969 Z M 301.125 187.394531" fill-rule="evenodd" fill="#fff"/><g><use xlink:href="#t" x="301.125" y="205.793"/><use xlink:href="#u" x="309.074" y="205.793"/><use xlink:href="#v" x="316.516" y="205.793"/><use xlink:href="#w" x="322.59" y="205.793"/><use xlink:href="#x" x="330.422" y="205.793"/><use xlink:href="#y" x="338.195" y="205.793"/><use xlink:href="#v" x="346.105" y="205.793"/><use xlink:href="#u" x="352.18" y="205.793"/><use xlink:href="#z" x="359.621" y="205.793"/></g><path d="M 38.944452 26.152697 C 38.944452 26.477111 38.681366 26.740197 38.356952 26.740197 C 38.032538 26.740197 37.769452 26.477111 37.769452 26.152697 C 37.769452 25.828283 38.032538 25.565197 38.356952 25.565197 C 38.681366 25.565197 38.944452 25.828283 38.944452 26.152697" transform="matrix(20 0 0 20 -483.416 -310.167)" fill-rule="evenodd" fill="#b3b3b3" stroke-width=".1" stroke="#000" stroke-miterlimit="10"/><g><use xlink:href="#A" x="279.895" y="219.109"/></g><path d="M 38.932343 30.138048 C 38.932343 30.462463 38.669257 30.725548 38.344843 30.725548 C 38.020429 30.725548 37.757343 30.462463 37.757343 30.138048 C 37.757343 29.813634 38.020429 29.550548 38.344843 29.550548 C 38.669257 29.550548 38.932343 29.813634 38.932343 30.138048" transform="matrix(20 0 0 20 -483.416 -310.167)" fill-rule="evenodd" fill="#b3b3b3" stroke-width=".1" stroke="#000" stroke-miterlimit="10"/><g><use xlink:href="#B" x="279.652" y="298.816"/></g><path d="M 38.932343 34.961291 C 38.932343 35.285705 38.669257 35.548791 38.344843 35.548791 C 38.020429 35.548791 37.757343 35.285705 37.757343 34.961291 C 37.757343 34.636877 38.020429 34.373791 38.344843 34.373791 C 38.669257 34.373791 38.932343 34.636877 38.932343 34.961291" transform="matrix(20 0 0 20 -483.416 -310.167)" fill-rule="evenodd" fill="#b3b3b3" stroke-width=".1" stroke="#000" stroke-miterlimit="10"/><g><use xlink:href="#C" x="279.652" y="395.281"/></g><path d="M 38.932343 39.749181 C 38.932343 40.073595 38.669257 40.336681 38.344843 40.336681 C 38.020429 40.336681 37.757343 40.073595 37.757343 39.749181 C 37.757343 39.424767 38.020429 39.161681 38.344843 39.161681 C 38.669257 39.161681 38.932343 39.424767 38.932343 39.749181" transform="matrix(20 0 0 20 -483.416 -310.167)" fill-rule="evenodd" fill="#b3b3b3" stroke-width=".1" stroke="#000" stroke-miterlimit="10"/><g><use xlink:href="#D" x="279.652" y="491.039"/></g><path d="M 44.215155 39.031994 C 44.215155 39.356408 43.95207 39.619494 43.627655 39.619494 C 43.303241 39.619494 43.040155 39.356408 43.040155 39.031994 C 43.040155 38.70758 43.303241 38.444494 43.627655 38.444494 C 43.95207 38.444494 44.215155 38.70758 44.215155 39.031994" transform="matrix(20 0 0 20 -483.416 -310.167)" fill-rule="evenodd" fill="#b3b3b3" stroke-width=".1" stroke="#000" stroke-miterlimit="10"/><g><use xlink:href="#E" x="385.309" y="476.695"/></g><path d="M 47.427265 41.350158 C 47.427265 41.674572 47.164374 41.937658 46.839765 41.937658 C 46.515351 41.937658 46.252265 41.674572 46.252265 41.350158 C 46.252265 41.025744 46.515351 40.762658 46.839765 40.762658 C 47.164374 40.762658 47.427265 41.025744 47.427265 41.350158" transform="matrix(20 0 0 20 -483.416 -310.167)" fill-rule="evenodd" fill="#b3b3b3" stroke-width=".1" stroke="#000" stroke-miterlimit="10"/><g><use xlink:href="#F" x="449.551" y="523.059"/></g><path d="M 56.794452 26.152697 C 56.794452 26.477111 56.531366 26.740197 56.206952 26.740197 C 55.882538 26.740197 55.619452 26.477111 55.619452 26.152697 C 55.619452 25.828283 55.882538 25.565197 56.206952 25.565197 C 56.531366 25.565197 56.794452 25.828283 56.794452 26.152697" transform="matrix(20 0 0 20 -483.416 -310.167)" fill-rule="evenodd" fill="#b3b3b3" stroke-width=".1" stroke="#000" stroke-miterlimit="10"/><g><use xlink:href="#G" x="636.895" y="219.109"/></g><path d="M 61.396405 27.321838 L 61.396405 29.069298" transform="matrix(20 0 0 20 -483.416 -310.167)" fill="none" stroke-width=".1" stroke="#000" stroke-dasharray=".1,.1" stroke-miterlimit="10"/><path d="M 61.146405 29.069298 L 61.396405 29.569298 L 61.646405 29.069298 Z M 61.146405 29.069298" transform="matrix(20 0 0 20 -483.416 -310.167)" fill-rule="evenodd" stroke-width=".1" stroke="#000" stroke-miterlimit="10"/><path d="M 61.98371 27.582189 C 61.98371 27.906603 61.72082 28.169689 61.396405 28.169689 C 61.071796 28.169689 60.808905 27.906603 60.808905 27.582189 C 60.808905 27.257775 61.071796 26.994689 61.396405 26.994689 C 61.72082 26.994689 61.98371 27.257775 61.98371 27.582189" transform="matrix(20 0 0 20 -483.416 -310.167)" fill-rule="evenodd" fill="#b3b3b3" stroke-width=".1" stroke="#000" stroke-miterlimit="10"/><g><use xlink:href="#H" x="740.684" y="247.699"/></g><path d="M 702.890625 85.59375 L 786.128906 85.59375 L 786.128906 149.300781 L 702.890625 149.300781 Z M 702.890625 85.59375" fill-rule="evenodd" fill="#ecbec0"/><path d="M 702.890625 91.59375 L 702.890625 85.59375 C 699.578125 85.59375 696.890625 88.28125 696.890625 91.59375 Z M 702.890625 91.59375" fill-rule="evenodd" fill="#ecbec0"/><path d="M 786.128906 91.59375 L 792.128906 91.59375 C 792.128906 88.28125 789.441406 85.59375 786.128906 85.59375 Z M 786.128906 91.59375" fill-rule="evenodd" fill="#ecbec0"/><path d="M 696.890625 91.59375 L 792.128906 91.59375 L 792.128906 143.300781 L 696.890625 143.300781 Z M 696.890625 91.59375" fill-rule="evenodd" fill="#ecbec0"/><path d="M 702.890625 143.300781 L 696.890625 143.300781 C 696.890625 146.613281 699.578125 149.300781 702.890625 149.300781 Z M 702.890625 143.300781" fill-rule="evenodd" fill="#ecbec0"/><path d="M 786.128906 143.300781 L 786.128906 149.300781 C 789.441406 149.300781 792.128906 146.613281 792.128906 143.300781 Z M 786.128906 143.300781" fill-rule="evenodd" fill="#ecbec0"/><path d="M 59.315351 19.788048 L 63.477265 19.788048" transform="matrix(20 0 0 20 -483.416 -310.167)" fill="none" stroke-width=".1" stroke="#000" stroke-miterlimit="10"/><path d="M 59.315351 22.9734 L 63.477265 22.9734" transform="matrix(20 0 0 20 -483.416 -310.167)" fill="none" stroke-width=".1" stroke="#000" stroke-miterlimit="10"/><path d="M 59.315351 19.788048 L 59.315351 19.788048 C 59.149726 19.788048 59.015351 19.922423 59.015351 20.088048" transform="matrix(20 0 0 20 -483.416 -310.167)" fill="none" stroke-width=".1" stroke="#000" stroke-miterlimit="10"/><path d="M 63.777265 20.088048 L 63.777265 20.088048 C 63.777265 19.922423 63.64289 19.788048 63.477265 19.788048" transform="matrix(20 0 0 20 -483.416 -310.167)" fill="none" stroke-width=".1" stroke="#000" stroke-miterlimit="10"/><path d="M 59.015351 20.088048 L 59.015351 22.6734" transform="matrix(20 0 0 20 -483.416 -310.167)" fill="none" stroke-width=".1" stroke="#000" stroke-miterlimit="10"/><path d="M 63.777265 20.088048 L 63.777265 22.6734" transform="matrix(20 0 0 20 -483.416 -310.167)" fill="none" stroke-width=".1" stroke="#000" stroke-miterlimit="10"/><path d="M 59.015351 22.6734 L 59.015351 22.6734 C 59.015351 22.839025 59.149726 22.9734 59.315351 22.9734" transform="matrix(20 0 0 20 -483.416 -310.167)" fill="none" stroke-width=".1" stroke="#000" stroke-miterlimit="10"/><path d="M 63.477265 22.9734 L 63.477265 22.9734 C 63.64289 22.9734 63.777265 22.839025 63.777265 22.6734" transform="matrix(20 0 0 20 -483.416 -310.167)" fill="none" stroke-width=".1" stroke="#000" stroke-miterlimit="10"/><g><use xlink:href="#b" x="711.094" y="125.395"/><use xlink:href="#I" x="719.023" y="125.395"/><use xlink:href="#m" x="726.914" y="125.395"/><use xlink:href="#b" x="733.73" y="125.395"/><use xlink:href="#d" x="741.992" y="125.395"/><use xlink:href="#i" x="750.684" y="125.395"/><use xlink:href="#r" x="756.191" y="125.395"/><use xlink:href="#e" x="760.527" y="125.395"/><use xlink:href="#f" x="769.16" y="125.395"/></g><path d="M 61.396405 22.9734 L 61.396405 24.426916" transform="matrix(20 0 0 20 -483.416 -310.167)" fill="none" stroke-width=".1" stroke="#000" stroke-miterlimit="10"/><path d="M 61.146405 24.426916 L 61.396405 24.926916 L 61.646405 24.426916 Z M 61.146405 24.426916" transform="matrix(20 0 0 20 -483.416 -310.167)" fill-rule="evenodd" stroke-width=".1" stroke="#000" stroke-miterlimit="10"/><path d="M 61.396405 16.665197 L 61.396405 19.238048" transform="matrix(20 0 0 20 -483.416 -310.167)" fill="none" stroke-width=".1" stroke="#000" stroke-dasharray=".1,.1" stroke-miterlimit="10"/><path d="M 61.146405 19.238048 L 61.396405 19.738048 L 61.646405 19.238048 Z M 61.146405 19.238048" transform="matrix(20 0 0 20 -483.416 -310.167)" fill-rule="evenodd" stroke-width=".1" stroke="#000" stroke-miterlimit="10"/></svg>