<svg width="400" viewBox="483 -171 463 177" xmlns="http://www.w3.org/2000/svg" xmlns:xlink="http://www.w3.org/1999/xlink">
  <g id="Background">
    <g>
      <rect style="fill: #fddfbb; fill-opacity: 1; stroke-opacity: 1; stroke-width: 2; stroke-dasharray: 4; stroke: #000000" x="610" y="-140" width="120" height="120" rx="0" ry="0"/>
      <text font-size="12.7998" style="fill: #000000; fill-opacity: 1; stroke: none;text-anchor:middle;font-family:sans-serif;font-style:normal;font-weight:normal" x="670" y="-76.1189">
        <tspan x="670" y="-76.1189"></tspan>
      </text>
    </g>
    <text font-size="20.32" style="fill: #000000; fill-opacity: 1; stroke: none;text-anchor:middle;font-family:PT Sans Narrow;font-style:normal;font-weight:normal" x="505" y="0">
      <tspan x="505" y="0">10:00</tspan>
    </text>
    <text font-size="20.32" style="fill: #000000; fill-opacity: 1; stroke: none;text-anchor:middle;font-family:PT Sans Narrow;font-style:normal;font-weight:normal" x="565" y="0">
      <tspan x="565" y="0">10:30</tspan>
    </text>
    <text font-size="20.32" style="fill: #000000; fill-opacity: 1; stroke: none;text-anchor:middle;font-family:PT Sans Narrow;font-style:normal;font-weight:normal" x="625" y="0">
      <tspan x="625" y="0">11:00</tspan>
    </text>
    <text font-size="20.32" style="fill: #000000; fill-opacity: 1; stroke: none;text-anchor:middle;font-family:PT Sans Narrow;font-style:normal;font-weight:normal" x="685" y="0">
      <tspan x="685" y="0">11:30</tspan>
    </text>
    <text font-size="20.32" style="fill: #000000; fill-opacity: 1; stroke: none;text-anchor:middle;font-family:PT Sans Narrow;font-style:normal;font-weight:normal" x="745" y="0">
      <tspan x="745" y="0">12:00</tspan>
    </text>
    <rect style="fill: #b2d4eb; fill-opacity: 1; stroke-opacity: 1; stroke-width: 2; stroke: #000000" x="585" y="-75" width="19.3548" height="20" rx="0" ry="0"/>
    <rect style="fill: #b2d4eb; fill-opacity: 1; stroke-opacity: 1; stroke-width: 2; stroke: #000000" x="615" y="-75" width="19.3548" height="20" rx="0" ry="0"/>
    <rect style="fill: #b2d4eb; fill-opacity: 1; stroke-opacity: 1; stroke-width: 2; stroke: #000000" x="705" y="-75" width="19.3548" height="20" rx="0" ry="0"/>
    <text font-size="20.32" style="fill: #000000; fill-opacity: 1; stroke: none;text-anchor:middle;font-family:PT Sans Narrow;font-style:normal;font-weight:normal" x="805" y="0">
      <tspan x="805" y="0">12:30</tspan>
    </text>
    <text font-size="20.32" style="fill: #000000; fill-opacity: 1; stroke: none;text-anchor:middle;font-family:PT Sans Narrow;font-style:normal;font-weight:normal" x="865" y="0">
      <tspan x="865" y="0">13:00</tspan>
    </text>
    <line style="fill: none; stroke-opacity: 1; stroke-width: 2; stroke: #000000" x1="485" y1="-35" x2="945" y2="-35"/>
    <line style="fill: none; stroke-opacity: 1; stroke-width: 2; stroke: #000000" x1="505" y1="-45" x2="505" y2="-25"/>
    <line style="fill: none; stroke-opacity: 1; stroke-width: 2; stroke: #000000" x1="535" y1="-40" x2="535" y2="-30"/>
    <line style="fill: none; stroke-opacity: 1; stroke-width: 2; stroke: #000000" x1="565" y1="-45" x2="565" y2="-25"/>
    <line style="fill: none; stroke-opacity: 1; stroke-width: 2; stroke: #000000" x1="595" y1="-40" x2="595" y2="-30"/>
    <line style="fill: none; stroke-opacity: 1; stroke-width: 2; stroke: #000000" x1="625" y1="-45" x2="625" y2="-25"/>
    <line style="fill: none; stroke-opacity: 1; stroke-width: 2; stroke: #000000" x1="655" y1="-40" x2="655" y2="-30"/>
    <line style="fill: none; stroke-opacity: 1; stroke-width: 2; stroke: #000000" x1="685" y1="-45" x2="685" y2="-25"/>
    <line style="fill: none; stroke-opacity: 1; stroke-width: 2; stroke: #000000" x1="715" y1="-40" x2="715" y2="-30"/>
    <line style="fill: none; stroke-opacity: 1; stroke-width: 2; stroke: #000000" x1="745" y1="-45" x2="745" y2="-25"/>
    <line style="fill: none; stroke-opacity: 1; stroke-width: 2; stroke: #000000" x1="775" y1="-40" x2="775" y2="-30"/>
    <line style="fill: none; stroke-opacity: 1; stroke-width: 2; stroke: #000000" x1="805" y1="-45" x2="805" y2="-25"/>
    <line style="fill: none; stroke-opacity: 1; stroke-width: 2; stroke: #000000" x1="835" y1="-40" x2="835" y2="-30"/>
    <line style="fill: none; stroke-opacity: 1; stroke-width: 2; stroke: #000000" x1="865" y1="-45" x2="865" y2="-25"/>
    <rect style="fill: #b2d4eb; fill-opacity: 1; stroke-opacity: 1; stroke-width: 2; stroke: #000000" x="585" y="-105" width="19.3548" height="20" rx="0" ry="0"/>
    <rect style="fill: #b2d4eb; fill-opacity: 1; stroke-opacity: 1; stroke-width: 2; stroke: #000000" x="615" y="-105" width="19.3548" height="20" rx="0" ry="0"/>
    <rect style="fill: #b2d4eb; fill-opacity: 1; stroke-opacity: 1; stroke-width: 2; stroke: #000000" x="705" y="-105" width="19.3548" height="20" rx="0" ry="0"/>
    <rect style="fill: #ecbec0; fill-opacity: 1; stroke-opacity: 1; stroke-width: 2; stroke: #000000" x="705" y="-135" width="19.3548" height="20" rx="0" ry="0"/>
    <rect style="fill: #b2d4eb; fill-opacity: 1; stroke-opacity: 1; stroke-width: 2; stroke: #000000" x="525" y="-75" width="19.3548" height="20" rx="0" ry="0"/>
    <text font-size="20.32" style="fill: #000000; fill-opacity: 1; stroke: none;text-anchor:middle;font-family:PT Sans Narrow;font-style:normal;font-weight:normal" x="670" y="-150">
      <tspan x="670" y="-150">1 hour window</tspan>
    </text>
    <rect style="fill: #b2d4eb; fill-opacity: 1; stroke-opacity: 1; stroke-width: 2; stroke: #000000" x="675" y="-75" width="19.3548" height="20" rx="0" ry="0"/>
    <line style="fill: none; stroke-opacity: 1; stroke-width: 2; stroke: #000000" x1="895" y1="-40" x2="895" y2="-30"/>
    <line style="fill: none; stroke-opacity: 1; stroke-width: 2; stroke: #000000" x1="925" y1="-45" x2="925" y2="-25"/>
    <text font-size="20.32" style="fill: #000000; fill-opacity: 1; stroke: none;text-anchor:middle;font-family:PT Sans Narrow;font-style:normal;font-weight:normal" x="925" y="0">
      <tspan x="925" y="0">13:15</tspan>
    </text>
    <rect style="fill: #b2d4eb; fill-opacity: 1; stroke-opacity: 1; stroke-width: 2; stroke: #000000" x="765" y="-75" width="19.3548" height="20" rx="0" ry="0"/>
    <rect style="fill: #b2d4eb; fill-opacity: 1; stroke-opacity: 1; stroke-width: 2; stroke: #000000" x="765" y="-105" width="19.3548" height="20" rx="0" ry="0"/>
    <rect style="fill: #b2d4eb; fill-opacity: 1; stroke-opacity: 1; stroke-width: 2; stroke: #000000" x="795" y="-75" width="19.3548" height="20" rx="0" ry="0"/>
  </g>
</svg>
